<?xml version="1.0" encoding="utf-8"?>
<!-- Generator: Adobe Illustrator 25.4.1, SVG Export Plug-In . SVG Version: 6.00 Build 0)  -->
<svg version="1.1" id="Layer_1" xmlns="http://www.w3.org/2000/svg" xmlns:xlink="http://www.w3.org/1999/xlink" x="0px" y="0px"
	 viewBox="0 0 512 512" style="enable-background:new 0 0 512 512;" xml:space="preserve">
<style type="text/css">
	.st0{fill:#432F4D;}
	.st1{fill:#9E6EB9;}
	.st2{fill:#00AB7A;}
	.st3{fill:url(#SVGID_1_);}
	.st4{opacity:0.3;fill:#0F054C;enable-background:new    ;}
	.st5{opacity:0.5;fill:url(#SVGID_00000093138482285759839660000002215569199731759282_);enable-background:new    ;}
	.st6{fill:#00E4A2;}
	.st7{fill:#FFFFFF;}
	.st8{fill:#5CEDC4;}
	.st9{opacity:0.4;fill:#5CEDC4;enable-background:new    ;}
	.st10{opacity:0.5;fill:url(#SVGID_00000055665265195145361490000010657890819700500629_);enable-background:new    ;}
	.st11{opacity:0.4;fill:#42E8E0;enable-background:new    ;}
	.st12{opacity:0.8;fill:#42E8E0;enable-background:new    ;}
	.st13{fill:url(#SVGID_00000021081549241619050260000000977504491328323718_);}
	.st14{opacity:0.5;fill:url(#SVGID_00000095310729672190958670000016775705654152117425_);enable-background:new    ;}
	.st15{opacity:0.5;fill:url(#SVGID_00000165920198320210423200000011189872414329469851_);enable-background:new    ;}
	.st16{fill:url(#SVGID_00000165928417590616213940000008389724898534798774_);}
	.st17{opacity:0.5;fill:url(#SVGID_00000044179880722719539540000003377032114059162291_);enable-background:new    ;}
	.st18{opacity:0.5;fill:url(#SVGID_00000028285456836855519650000002078104966737071547_);enable-background:new    ;}
	.st19{fill:url(#SVGID_00000025428566487359988030000004981473951529609369_);}
	.st20{opacity:0.5;fill:url(#SVGID_00000098198531476438552630000000849147022424097155_);enable-background:new    ;}
	.st21{opacity:0.5;fill:url(#SVGID_00000067209200984519675900000009180280325117871269_);enable-background:new    ;}
	.st22{fill:url(#SVGID_00000091725543503134358770000012681650820670163339_);}
	.st23{opacity:0.5;fill:url(#SVGID_00000130648327295769783090000004439327998186101938_);enable-background:new    ;}
	.st24{opacity:0.5;fill:url(#SVGID_00000047771565366531358710000011526366050496814504_);enable-background:new    ;}
	.st25{fill:url(#SVGID_00000132778447101155803850000006987520232661854872_);}
	.st26{opacity:0.5;fill:url(#SVGID_00000057865140266013079360000003286261886887861678_);enable-background:new    ;}
	.st27{opacity:0.5;fill:url(#SVGID_00000122690546355745175240000004449602781448122517_);enable-background:new    ;}
	.st28{opacity:0.4;fill:#03002D;enable-background:new    ;}
	.st29{opacity:0.4;fill:#864AA8;enable-background:new    ;}
	.st30{opacity:0.2;fill:#864AA8;enable-background:new    ;}
	.st31{fill:#864AA8;}
	.st32{opacity:0.4;fill:#633778;enable-background:new    ;}
	.st33{fill:#633778;}
	.st34{fill:#42E8E0;}
	.st35{fill:#5351AF;}
	.st36{fill:url(#SVGID_00000011720570430308695640000007032701217575564942_);}
	.st37{opacity:0.5;fill:url(#SVGID_00000104679464006349177900000007920832235514995602_);enable-background:new    ;}
	.st38{opacity:0.4;fill:#D466FF;enable-background:new    ;}
	.st39{fill:url(#SVGID_00000115493004172531949600000007928511406282346426_);}
	.st40{opacity:0.5;fill:url(#SVGID_00000105405716224255919010000004828632950566672319_);enable-background:new    ;}
	.st41{fill:#D466FF;}
	.st42{fill:url(#SVGID_00000178206032343299812760000011778359561134217363_);}
	.st43{opacity:0.5;fill:url(#SVGID_00000065051512158860983510000015014791415797123752_);enable-background:new    ;}
	.st44{fill:url(#SVGID_00000100347898255402021160000006465607879040642186_);}
	.st45{fill:url(#SVGID_00000082367390962372417370000009029932053622827140_);}
	.st46{opacity:0.5;fill:url(#SVGID_00000065753340807654389440000009303806855756270219_);enable-background:new    ;}
	.st47{opacity:0.5;}
	.st48{fill:url(#SVGID_00000111156149801208891260000001227531170700183445_);}
	.st49{fill:#FFFFFF;fill-opacity:0.602;}
	.st50{fill:#FFFFFF;fill-opacity:0.2;}
	.st51{fill:#F3BA2F;}
	.st52{fill:url(#SVGID_00000157288425510419923550000016527934356550425268_);}
	.st53{fill:url(#SVGID_00000180362988823270119800000015192454983927160714_);}
	.st54{fill:url(#SVGID_00000086653166636685333050000003893210174010170815_);}
	.st55{fill:url(#SVGID_00000016793313086783844340000003590856638274746766_);}
	.st56{fill:url(#SVGID_00000150068403772142403470000012714125453949296062_);}
	.st57{fill:#8247E5;}
	.st58{fill:url(#SVGID_00000140703180898090281010000005210558922868897412_);}
	.st59{opacity:0.1;fill:#FFFFFF;enable-background:new    ;}
</style>
<g id="Layer_1_00000035525618114863619950000011110575731926576830_">
	<g>
		<rect class="st0" width="512" height="512"/>
	</g>
</g>
<g id="Layer_2_00000026845545464946202480000014209261782237056655_">
	<path class="st1" d="M249.901,344.118c-32.206,0-64.404-7.076-88.923-21.232c-14.691-8.482-25.599-19.001-31.542-30.42l0.324-0.17
		c5.911,11.357,16.769,21.825,31.401,30.273c48.93,28.25,128.545,28.249,177.475,0.002c14.84-8.568,25.781-19.2,31.643-30.746
		l0.326,0.166c-5.893,11.609-16.884,22.293-31.785,30.896C314.307,337.04,282.1,344.118,249.901,344.118z"/>
	<path class="st1" d="M370.59,251.689c-5.788-11.795-16.839-22.644-31.957-31.372c-15.062-8.696-33.784-15.067-54.141-18.425
		l0.061-0.361c20.399,3.365,39.163,9.751,54.264,18.469c15.181,8.765,26.281,19.667,32.102,31.528L370.59,251.689z"/>
	<path class="st1" d="M128.965,252.178l-0.33-0.158c5.757-12.058,16.939-23.13,32.34-32.022
		c14.996-8.658,33.622-15.021,53.863-18.402l0.061,0.361c-20.198,3.374-38.782,9.722-53.74,18.358
		C145.823,229.169,134.691,240.188,128.965,252.178z"/>
	<g>
		<path class="st1" d="M128.832,292.574c-8.972,0-17.943-1.972-24.774-5.915c-6.651-3.841-10.314-8.957-10.314-14.409
			c0-5.451,3.663-10.567,10.314-14.408c13.66-7.887,35.885-7.886,49.545,0.001c6.651,3.84,10.315,8.957,10.315,14.408
			s-3.663,10.568-10.314,14.408C146.774,290.603,137.802,292.574,128.832,292.574z M128.829,252.289
			c-8.904,0-17.809,1.957-24.588,5.871c-6.533,3.772-10.132,8.776-10.132,14.09c0,5.315,3.598,10.319,10.132,14.092
			c13.561,7.825,35.622,7.827,49.179,0c6.533-3.772,10.132-8.777,10.132-14.091s-3.599-10.319-10.133-14.091l0,0
			C146.639,254.246,137.734,252.289,128.829,252.289z M128.83,284.463c-5.371,0-10.743-1.181-14.833-3.542
			c-3.996-2.308-6.197-5.387-6.197-8.67s2.201-6.362,6.197-8.67c8.18-4.723,21.487-4.721,29.667,0
			c3.996,2.308,6.197,5.387,6.197,8.67c0,3.283-2.201,6.362-6.197,8.669l-0.092-0.159l0.092,0.159
			C139.574,283.282,134.202,284.463,128.83,284.463z M128.829,260.401c-5.306,0-10.61,1.165-14.649,3.497
			c-3.879,2.239-6.015,5.206-6.015,8.353s2.136,6.113,6.015,8.353c8.079,4.664,21.223,4.664,29.3,0l0,0
			c3.879-2.239,6.015-5.205,6.015-8.352s-2.136-6.113-6.015-8.353C139.441,261.567,134.134,260.401,128.829,260.401z"/>
		<g>
			<g>
				<g>
					<g>
						<path class="st2" d="M114.789,252.923c7.611-4.394,19.951-4.394,27.562,0c1.234,0.713,2.265,1.498,3.099,2.331
							c4.309-4.303,3.278-9.901-3.099-13.583c-7.611-4.394-19.951-4.394-27.562,0c-6.377,3.682-7.407,9.279-3.098,13.582
							C112.525,254.42,113.555,253.635,114.789,252.923z"/>
						
							<linearGradient id="SVGID_1_" gradientUnits="userSpaceOnUse" x1="94.074" y1="250.9983" x2="163.065" y2="250.9983" gradientTransform="matrix(1 0 0 -1 0 512)">
							<stop  offset="0" style="stop-color:#5CEDC4"/>
							<stop  offset="0.0747" style="stop-color:#51ECC0"/>
							<stop  offset="0.34" style="stop-color:#2EE8B3"/>
							<stop  offset="0.5902" style="stop-color:#15E6AA"/>
							<stop  offset="0.8171" style="stop-color:#05E5A4"/>
							<stop  offset="1" style="stop-color:#00E4A2"/>
						</linearGradient>
						<path class="st3" d="M157.954,249.68c-1.384-1.296-3.046-2.52-4.992-3.643c-3.035-1.752-6.497-3.106-10.19-4.069
							c7.096,4.5,6.881,11.471-0.651,15.819c-7.755,4.477-20.329,4.477-28.085,0c-7.274-4.199-7.725-10.846-1.356-15.349
							c-3.061,0.917-5.935,2.115-8.503,3.598c-1.946,1.123-3.608,2.348-4.992,3.644h-5.111v10.44l0,0
							c0.001,5.097,3.368,10.193,10.104,14.082c13.472,7.778,35.313,7.778,48.784,0c6.736-3.889,10.103-8.986,10.103-14.083v-10.44
							h-5.111V249.68z"/>
						<path class="st4" d="M152.962,246.037c-3.035-1.752-6.497-3.106-10.19-4.069c7.096,4.5,6.881,11.471-0.651,15.819
							c-3.753,2.167-8.634,3.282-13.551,3.351v18.897c8.828,0,17.657-1.944,24.393-5.833c6.736-3.889,10.103-8.986,10.103-14.083
							v-10.44h-5.112C156.57,248.385,154.908,247.16,152.962,246.037z"/>
						
							<radialGradient id="SVGID_00000175293208496170026210000015351800646700891275_" cx="161.3245" cy="240.4636" r="40.0931" gradientTransform="matrix(1 0 0 -1 0 512)" gradientUnits="userSpaceOnUse">
							<stop  offset="0" style="stop-color:#00E4A2"/>
							<stop  offset="0.3995" style="stop-color:#00C68D"/>
							<stop  offset="0.7572" style="stop-color:#00B27F"/>
							<stop  offset="1" style="stop-color:#00AB7A"/>
						</radialGradient>
						
							<path style="opacity:0.5;fill:url(#SVGID_00000175293208496170026210000015351800646700891275_);enable-background:new    ;" d="
							M152.962,246.037c-3.035-1.752-6.497-3.106-10.19-4.069c7.096,4.5,6.881,11.471-0.651,15.819
							c-3.753,2.167-8.634,3.282-13.551,3.351v18.897c8.828,0,17.657-1.944,24.393-5.833c6.736-3.889,10.103-8.986,10.103-14.083
							v-10.44h-5.112C156.57,248.385,154.908,247.16,152.962,246.037z"/>
						<path class="st6" d="M152.962,236.458c-13.472-7.778-35.313-7.778-48.784,0s-13.471,20.388,0.001,28.166
							s35.313,7.778,48.784,0C166.434,256.845,166.434,244.235,152.962,236.458z M142.367,258.648
							c-7.755,4.477-20.329,4.477-28.085,0c-7.755-4.478-7.756-11.737,0-16.215c7.755-4.477,20.329-4.477,28.085,0
							C150.122,246.911,150.123,254.17,142.367,258.648z"/>
						<g>
							<path class="st7" d="M152.963,263.548c-13.471,7.778-35.313,7.777-48.784,0c-6.499-3.752-9.862-8.629-10.09-13.546
								c-0.245,5.275,3.118,10.595,10.09,14.621c13.472,7.778,35.313,7.778,48.784,0c6.972-4.025,10.335-9.345,10.09-14.62
								C162.824,254.92,159.462,259.796,152.963,263.548z"/>
							<path class="st7" d="M142.367,241.358c-7.755-4.478-20.329-4.478-28.085,0c-4.114,2.375-6.045,5.534-5.794,8.644
								c0.222-2.753,2.153-5.468,5.794-7.57c7.755-4.477,20.329-4.477,28.085,0c3.641,2.102,5.572,4.818,5.794,7.57
								C148.413,246.893,146.482,243.734,142.367,241.358z"/>
						</g>
						<path class="st8" d="M151.399,236.448c-12.541-7.24-32.873-7.24-45.413,0s-12.54,18.979,0.001,26.219s32.873,7.241,45.413,0
							C163.94,255.427,163.94,243.689,151.399,236.448z M142.256,257.388c-7.49,4.324-19.634,4.324-27.124,0
							c-7.49-4.325-7.491-11.336,0-15.66c7.49-4.324,19.634-4.324,27.125,0C149.746,246.052,149.746,253.063,142.256,257.388z"/>
					</g>
				</g>
				<path class="st9" d="M142.256,257.388c-7.49,4.324-19.634,4.324-27.124,0c-7.49-4.325-7.491-11.336,0-15.66
					c7.49-4.324,19.634-4.324,27.125,0C149.746,246.052,149.746,253.063,142.256,257.388z"/>
				
					<linearGradient id="SVGID_00000050659195447525879630000004409986765271255199_" gradientUnits="userSpaceOnUse" x1="128.6915" y1="325.941" x2="128.6915" y2="251.3692" gradientTransform="matrix(1 0 0 -1 0 512)">
					<stop  offset="0" style="stop-color:#432F4D"/>
					<stop  offset="0.167" style="stop-color:#43324F"/>
					<stop  offset="0.3134" style="stop-color:#453D56"/>
					<stop  offset="0.452" style="stop-color:#474F61"/>
					<stop  offset="0.586" style="stop-color:#4B6971"/>
					<stop  offset="0.7166" style="stop-color:#4F8985"/>
					<stop  offset="0.8446" style="stop-color:#54B19F"/>
					<stop  offset="0.9683" style="stop-color:#5AE0BC"/>
					<stop  offset="1" style="stop-color:#5CEDC4"/>
				</linearGradient>
				
					<path style="opacity:0.5;fill:url(#SVGID_00000050659195447525879630000004409986765271255199_);enable-background:new    ;" d="
					M147.856,249.347h0.013v-63.288h-38.355v63.42h0.006c-0.034,2.86,1.832,5.726,5.611,7.908c7.49,4.325,19.634,4.325,27.124,0
					C146.094,255.172,147.951,252.251,147.856,249.347z"/>
			</g>
			<g>
				<path class="st11" d="M142.832,209.282c0,0.633-0.513,1.146-1.146,1.146s-1.146-0.513-1.146-1.146s0.513-1.146,1.146-1.146
					S142.832,208.649,142.832,209.282z"/>
				<path class="st11" d="M125.04,196.036c0,0.934-0.757,1.691-1.691,1.691s-1.691-0.757-1.691-1.691s0.757-1.691,1.691-1.691
					S125.04,195.102,125.04,196.036z"/>
				<path class="st12" d="M121.966,224.899c0,0.66-0.535,1.195-1.195,1.195c-0.66,0-1.196-0.535-1.196-1.195
					s0.535-1.195,1.196-1.195C121.43,223.704,121.966,224.239,121.966,224.899z"/>
			</g>
		</g>
	</g>
	<g>
		<path class="st1" d="M370.606,292.574c-8.972,0-17.943-1.972-24.774-5.915c-6.651-3.841-10.315-8.957-10.315-14.409
			c0-5.451,3.663-10.567,10.315-14.408c13.66-7.887,35.885-7.886,49.545,0.001c6.651,3.84,10.315,8.957,10.315,14.408
			s-3.663,10.568-10.314,14.408C388.549,290.603,379.577,292.574,370.606,292.574z M370.604,252.289
			c-8.904,0-17.809,1.957-24.588,5.871c-6.533,3.772-10.132,8.776-10.132,14.09c0,5.315,3.598,10.319,10.132,14.092
			c13.561,7.825,35.622,7.827,49.179,0c6.533-3.772,10.132-8.777,10.132-14.091s-3.599-10.319-10.133-14.091l0,0
			C388.414,254.246,379.509,252.289,370.604,252.289z M370.604,284.463c-5.371,0-10.743-1.181-14.833-3.542
			c-3.996-2.308-6.197-5.387-6.197-8.67s2.201-6.362,6.197-8.67c8.18-4.723,21.487-4.721,29.667,0
			c3.996,2.308,6.197,5.387,6.197,8.67c0,3.283-2.201,6.362-6.197,8.669l-0.092-0.159l0.092,0.159
			C381.349,283.282,375.977,284.463,370.604,284.463z M370.604,260.401c-5.306,0-10.61,1.165-14.648,3.497
			c-3.879,2.239-6.015,5.206-6.015,8.353s2.136,6.113,6.015,8.353c8.079,4.664,21.223,4.664,29.3,0l0,0
			c3.879-2.239,6.015-5.205,6.015-8.352s-2.136-6.113-6.015-8.353C381.216,261.567,375.909,260.401,370.604,260.401z"/>
		<g>
			<g>
				<g>
					<g>
						<path class="st2" d="M356.564,252.923c7.611-4.394,19.951-4.394,27.562,0c1.234,0.713,2.265,1.498,3.099,2.331
							c4.309-4.303,3.278-9.901-3.099-13.583c-7.611-4.394-19.951-4.394-27.562,0c-6.377,3.682-7.407,9.279-3.098,13.582
							C354.3,254.42,355.33,253.635,356.564,252.923z"/>
						
							<linearGradient id="SVGID_00000018210086870053237930000008862209601939905721_" gradientUnits="userSpaceOnUse" x1="335.849" y1="250.9983" x2="404.84" y2="250.9983" gradientTransform="matrix(1 0 0 -1 0 512)">
							<stop  offset="0" style="stop-color:#5CEDC4"/>
							<stop  offset="0.0747" style="stop-color:#51ECC0"/>
							<stop  offset="0.34" style="stop-color:#2EE8B3"/>
							<stop  offset="0.5902" style="stop-color:#15E6AA"/>
							<stop  offset="0.8171" style="stop-color:#05E5A4"/>
							<stop  offset="1" style="stop-color:#00E4A2"/>
						</linearGradient>
						<path style="fill:url(#SVGID_00000018210086870053237930000008862209601939905721_);" d="M399.729,249.68
							c-1.384-1.296-3.046-2.52-4.992-3.643c-3.035-1.752-6.497-3.106-10.19-4.069c7.096,4.5,6.881,11.471-0.651,15.819
							c-7.755,4.477-20.329,4.477-28.085,0c-7.274-4.199-7.725-10.846-1.356-15.349c-3.061,0.917-5.935,2.115-8.503,3.598
							c-1.945,1.123-3.608,2.348-4.992,3.644h-5.111v10.44l0,0c0.001,5.097,3.368,10.193,10.104,14.082
							c13.472,7.778,35.313,7.778,48.784,0c6.736-3.889,10.103-8.986,10.103-14.083v-10.44h-5.111V249.68z"/>
						<path class="st4" d="M394.737,246.037c-3.035-1.752-6.497-3.106-10.19-4.069c7.096,4.5,6.881,11.471-0.651,15.819
							c-3.753,2.167-8.634,3.282-13.551,3.351v18.897c8.828,0,17.657-1.944,24.392-5.833c6.736-3.889,10.103-8.986,10.103-14.083
							v-10.44h-5.112C398.345,248.385,396.683,247.16,394.737,246.037z"/>
						
							<radialGradient id="SVGID_00000009581139096066334580000015969688702934514364_" cx="403.0994" cy="240.4636" r="40.0931" gradientTransform="matrix(1 0 0 -1 0 512)" gradientUnits="userSpaceOnUse">
							<stop  offset="0" style="stop-color:#00E4A2"/>
							<stop  offset="0.3995" style="stop-color:#00C68D"/>
							<stop  offset="0.7572" style="stop-color:#00B27F"/>
							<stop  offset="1" style="stop-color:#00AB7A"/>
						</radialGradient>
						
							<path style="opacity:0.5;fill:url(#SVGID_00000009581139096066334580000015969688702934514364_);enable-background:new    ;" d="
							M394.737,246.037c-3.035-1.752-6.497-3.106-10.19-4.069c7.096,4.5,6.881,11.471-0.651,15.819
							c-3.753,2.167-8.634,3.282-13.551,3.351v18.897c8.828,0,17.657-1.944,24.392-5.833c6.736-3.889,10.103-8.986,10.103-14.083
							v-10.44h-5.112C398.345,248.385,396.683,247.16,394.737,246.037z"/>
						<path class="st6" d="M394.737,236.458c-13.472-7.778-35.313-7.778-48.784,0s-13.471,20.388,0.001,28.166
							s35.313,7.778,48.784,0C408.209,256.845,408.209,244.235,394.737,236.458z M384.142,258.648
							c-7.755,4.477-20.329,4.477-28.085,0c-7.755-4.478-7.756-11.737,0-16.215c7.755-4.477,20.329-4.477,28.085,0
							C391.897,246.911,391.897,254.17,384.142,258.648z"/>
						<g>
							<path class="st7" d="M394.738,263.548c-13.471,7.778-35.313,7.777-48.784,0c-6.499-3.752-9.862-8.629-10.09-13.546
								c-0.245,5.275,3.118,10.595,10.09,14.621c13.472,7.778,35.313,7.778,48.784,0c6.972-4.025,10.335-9.345,10.09-14.62
								C404.599,254.92,401.237,259.796,394.738,263.548z"/>
							<path class="st7" d="M384.142,241.358c-7.755-4.478-20.329-4.478-28.085,0c-4.114,2.375-6.045,5.534-5.794,8.644
								c0.222-2.753,2.153-5.468,5.794-7.57c7.755-4.477,20.329-4.477,28.085,0c3.641,2.102,5.572,4.818,5.794,7.57
								C390.188,246.893,388.256,243.734,384.142,241.358z"/>
						</g>
						<path class="st8" d="M393.174,236.448c-12.541-7.24-32.873-7.24-45.413,0s-12.54,18.979,0.001,26.219s32.873,7.241,45.413,0
							C405.715,255.427,405.715,243.689,393.174,236.448z M384.031,257.388c-7.49,4.324-19.634,4.324-27.124,0
							c-7.49-4.325-7.491-11.336,0-15.66c7.49-4.324,19.634-4.324,27.125,0C391.521,246.052,391.521,253.063,384.031,257.388z"/>
					</g>
				</g>
				<path class="st9" d="M384.031,257.388c-7.49,4.324-19.634,4.324-27.124,0c-7.49-4.325-7.491-11.336,0-15.66
					c7.49-4.324,19.634-4.324,27.125,0C391.521,246.052,391.521,253.063,384.031,257.388z"/>
				
					<linearGradient id="SVGID_00000045582177584939253260000011595857353842261646_" gradientUnits="userSpaceOnUse" x1="370.4665" y1="325.941" x2="370.4665" y2="251.3692" gradientTransform="matrix(1 0 0 -1 0 512)">
					<stop  offset="0" style="stop-color:#432F4D"/>
					<stop  offset="0.167" style="stop-color:#43324F"/>
					<stop  offset="0.3134" style="stop-color:#453D56"/>
					<stop  offset="0.452" style="stop-color:#474F61"/>
					<stop  offset="0.586" style="stop-color:#4B6971"/>
					<stop  offset="0.7166" style="stop-color:#4F8985"/>
					<stop  offset="0.8446" style="stop-color:#54B19F"/>
					<stop  offset="0.9683" style="stop-color:#5AE0BC"/>
					<stop  offset="1" style="stop-color:#5CEDC4"/>
				</linearGradient>
				
					<path style="opacity:0.5;fill:url(#SVGID_00000045582177584939253260000011595857353842261646_);enable-background:new    ;" d="
					M389.631,249.347h0.013v-63.288h-38.355v63.42h0.006c-0.034,2.86,1.832,5.726,5.611,7.908c7.49,4.325,19.634,4.325,27.124,0
					C387.869,255.172,389.726,252.251,389.631,249.347z"/>
			</g>
			<g>
				<path class="st11" d="M384.607,209.282c0,0.633-0.513,1.146-1.146,1.146s-1.146-0.513-1.146-1.146s0.513-1.146,1.146-1.146
					S384.607,208.649,384.607,209.282z"/>
				<path class="st11" d="M366.815,196.036c0,0.934-0.757,1.691-1.691,1.691c-0.934,0-1.691-0.757-1.691-1.691
					s0.757-1.691,1.691-1.691S366.815,195.102,366.815,196.036z"/>
				<path class="st12" d="M363.741,224.899c0,0.66-0.535,1.195-1.195,1.195s-1.196-0.535-1.196-1.195s0.535-1.195,1.196-1.195
					C363.205,223.704,363.741,224.239,363.741,224.899z"/>
			</g>
		</g>
	</g>
	<g>
		<g>
			<path class="st1" d="M193.894,226.094c-8.972,0-17.943-1.972-24.774-5.915c-6.651-3.841-10.314-8.958-10.314-14.409
				s3.663-10.567,10.314-14.408c13.66-7.887,35.885-7.886,49.545,0.001c6.651,3.84,10.315,8.957,10.315,14.408
				s-3.663,10.568-10.314,14.408C211.836,224.122,202.865,226.094,193.894,226.094z M193.891,185.809
				c-8.904,0-17.809,1.957-24.588,5.871c-6.533,3.772-10.132,8.776-10.132,14.09c0,5.315,3.598,10.319,10.132,14.092
				c13.561,7.825,35.622,7.827,49.179,0c6.533-3.772,10.132-8.777,10.132-14.091s-3.599-10.319-10.133-14.091l0,0
				C211.701,187.766,202.796,185.809,193.891,185.809z M193.892,217.983c-5.371,0-10.743-1.181-14.833-3.542
				c-3.996-2.308-6.197-5.387-6.197-8.67s2.201-6.362,6.197-8.67c8.18-4.723,21.487-4.721,29.667,0
				c3.996,2.308,6.197,5.387,6.197,8.67s-2.201,6.362-6.197,8.669l-0.092-0.159l0.092,0.159
				C204.636,216.802,199.264,217.983,193.892,217.983z M193.891,193.921c-5.306,0-10.61,1.165-14.648,3.497
				c-3.879,2.239-6.015,5.206-6.015,8.353s2.136,6.113,6.015,8.352c8.079,4.664,21.223,4.664,29.3,0l0,0
				c3.879-2.239,6.015-5.205,6.015-8.352s-2.136-6.113-6.015-8.353C204.503,195.087,199.197,193.921,193.891,193.921z"/>
			<g>
				<g>
					<g>
						<g>
							<path class="st2" d="M179.852,186.442c7.611-4.394,19.951-4.394,27.562,0c1.234,0.713,2.265,1.498,3.099,2.331
								c4.309-4.303,3.278-9.901-3.099-13.583c-7.611-4.394-19.951-4.394-27.562,0c-6.377,3.682-7.407,9.279-3.098,13.582
								C177.587,187.94,178.618,187.155,179.852,186.442z"/>
							
								<linearGradient id="SVGID_00000072985314781319133240000007436297297039860904_" gradientUnits="userSpaceOnUse" x1="159.136" y1="317.4782" x2="228.127" y2="317.4782" gradientTransform="matrix(1 0 0 -1 0 512)">
								<stop  offset="0" style="stop-color:#5CEDC4"/>
								<stop  offset="0.0747" style="stop-color:#51ECC0"/>
								<stop  offset="0.34" style="stop-color:#2EE8B3"/>
								<stop  offset="0.5902" style="stop-color:#15E6AA"/>
								<stop  offset="0.8171" style="stop-color:#05E5A4"/>
								<stop  offset="1" style="stop-color:#00E4A2"/>
							</linearGradient>
							<path style="fill:url(#SVGID_00000072985314781319133240000007436297297039860904_);" d="M223.016,183.2
								c-1.384-1.296-3.046-2.52-4.992-3.643c-3.035-1.752-6.497-3.106-10.19-4.069c7.096,4.5,6.881,11.471-0.651,15.819
								c-7.755,4.478-20.329,4.477-28.085,0c-7.274-4.199-7.725-10.846-1.356-15.349c-3.061,0.917-5.935,2.116-8.503,3.598
								c-1.946,1.123-3.608,2.348-4.992,3.644h-5.111v10.44l0,0c0.001,5.097,3.368,10.193,10.104,14.082
								c13.472,7.778,35.313,7.778,48.784,0c6.736-3.889,10.103-8.986,10.103-14.083V183.2H223.016z"/>
							<path class="st4" d="M218.025,179.557c-3.035-1.752-6.497-3.106-10.19-4.069c7.096,4.5,6.881,11.471-0.651,15.819
								c-3.753,2.167-8.634,3.282-13.551,3.351v18.897c8.828,0,17.657-1.944,24.393-5.833c6.736-3.889,10.103-8.986,10.103-14.083
								V183.2h-5.112C221.633,181.904,219.97,180.68,218.025,179.557z"/>
							
								<radialGradient id="SVGID_00000121268118412415133260000017180668606474118297_" cx="226.3868" cy="306.944" r="40.0931" gradientTransform="matrix(1 0 0 -1 0 512)" gradientUnits="userSpaceOnUse">
								<stop  offset="0" style="stop-color:#00E4A2"/>
								<stop  offset="0.3995" style="stop-color:#00C68D"/>
								<stop  offset="0.7572" style="stop-color:#00B27F"/>
								<stop  offset="1" style="stop-color:#00AB7A"/>
							</radialGradient>
							
								<path style="opacity:0.5;fill:url(#SVGID_00000121268118412415133260000017180668606474118297_);enable-background:new    ;" d="
								M218.025,179.557c-3.035-1.752-6.497-3.106-10.19-4.069c7.096,4.5,6.881,11.471-0.651,15.819
								c-3.753,2.167-8.634,3.282-13.551,3.351v18.897c8.828,0,17.657-1.944,24.393-5.833c6.736-3.889,10.103-8.986,10.103-14.083
								V183.2h-5.112C221.633,181.904,219.97,180.68,218.025,179.557z"/>
							<path class="st6" d="M218.025,169.977c-13.472-7.778-35.313-7.778-48.784,0s-13.471,20.388,0.001,28.166
								s35.313,7.778,48.784,0C231.496,190.365,231.496,177.755,218.025,169.977z M207.43,192.167
								c-7.755,4.477-20.329,4.477-28.085,0c-7.755-4.478-7.756-11.737,0-16.215c7.755-4.477,20.329-4.477,28.085,0
								C215.185,180.43,215.185,187.69,207.43,192.167z"/>
							<g>
								<path class="st7" d="M218.025,197.068c-13.471,7.778-35.313,7.777-48.784,0c-6.499-3.752-9.862-8.629-10.09-13.546
									c-0.245,5.275,3.118,10.595,10.09,14.62c13.472,7.778,35.313,7.778,48.784,0c6.972-4.025,10.335-9.345,10.09-14.62
									C227.887,188.439,224.524,193.316,218.025,197.068z"/>
								<path class="st7" d="M207.429,174.878c-7.755-4.478-20.329-4.478-28.085,0c-4.114,2.375-6.045,5.534-5.794,8.644
									c0.222-2.753,2.153-5.468,5.794-7.57c7.755-4.477,20.329-4.477,28.085,0c3.641,2.102,5.572,4.818,5.794,7.57
									C213.475,180.412,211.544,177.253,207.429,174.878z"/>
							</g>
							<path class="st8" d="M216.462,169.968c-12.541-7.24-32.873-7.24-45.413,0s-12.54,18.979,0.001,26.219s32.873,7.24,45.413,0
								C229.003,188.947,229.002,177.208,216.462,169.968z M207.318,190.908c-7.49,4.324-19.634,4.324-27.124,0
								c-7.49-4.325-7.49-11.336,0-15.66s19.634-4.324,27.125,0C214.808,179.572,214.808,186.583,207.318,190.908z"/>
						</g>
					</g>
					<path class="st9" d="M207.318,190.908c-7.49,4.324-19.634,4.324-27.124,0c-7.49-4.325-7.49-11.336,0-15.66
						s19.634-4.324,27.125,0C214.808,179.572,214.808,186.583,207.318,190.908z"/>
					
						<linearGradient id="SVGID_00000101077188978611808170000003915651255969894822_" gradientUnits="userSpaceOnUse" x1="193.7535" y1="392.421" x2="193.7535" y2="317.8492" gradientTransform="matrix(1 0 0 -1 0 512)">
						<stop  offset="0" style="stop-color:#432F4D"/>
						<stop  offset="0.167" style="stop-color:#43324F"/>
						<stop  offset="0.3134" style="stop-color:#453D56"/>
						<stop  offset="0.452" style="stop-color:#474F61"/>
						<stop  offset="0.586" style="stop-color:#4B6971"/>
						<stop  offset="0.7166" style="stop-color:#4F8985"/>
						<stop  offset="0.8446" style="stop-color:#54B19F"/>
						<stop  offset="0.9683" style="stop-color:#5AE0BC"/>
						<stop  offset="1" style="stop-color:#5CEDC4"/>
					</linearGradient>
					
						<path style="opacity:0.5;fill:url(#SVGID_00000101077188978611808170000003915651255969894822_);enable-background:new    ;" d="
						M212.918,182.867h0.013v-63.288h-38.355v63.42h0.006c-0.034,2.86,1.832,5.726,5.611,7.908c7.49,4.325,19.635,4.325,27.124,0
						C211.156,188.692,213.013,185.771,212.918,182.867z"/>
				</g>
				<g>
					<path class="st11" d="M207.894,142.802c0,0.633-0.513,1.146-1.146,1.146s-1.146-0.513-1.146-1.146s0.513-1.146,1.146-1.146
						S207.894,142.169,207.894,142.802z"/>
					<path class="st11" d="M190.103,129.556c0,0.934-0.757,1.691-1.691,1.691s-1.691-0.757-1.691-1.691s0.757-1.691,1.691-1.691
						S190.103,128.622,190.103,129.556z"/>
					<path class="st12" d="M187.028,158.419c0,0.66-0.535,1.195-1.195,1.195s-1.196-0.535-1.196-1.195s0.535-1.195,1.196-1.195
						C186.493,157.223,187.028,157.758,187.028,158.419z"/>
				</g>
			</g>
		</g>
		<g>
			<path class="st1" d="M307.325,226.094c-8.972,0-17.943-1.972-24.774-5.915c-6.651-3.841-10.315-8.958-10.315-14.409
				s3.663-10.567,10.315-14.408c13.66-7.887,35.885-7.886,49.545,0.001c6.651,3.84,10.315,8.957,10.315,14.408
				s-3.663,10.568-10.314,14.408C325.268,224.122,316.296,226.094,307.325,226.094z M307.322,185.809
				c-8.904,0-17.809,1.957-24.588,5.871c-6.533,3.772-10.132,8.776-10.132,14.09c0,5.315,3.598,10.319,10.132,14.092
				c13.561,7.825,35.622,7.827,49.179,0c6.533-3.772,10.132-8.777,10.132-14.091s-3.599-10.319-10.133-14.091l0,0
				C325.133,187.766,316.227,185.809,307.322,185.809z M307.323,217.983c-5.371,0-10.743-1.181-14.833-3.542
				c-3.996-2.308-6.197-5.387-6.197-8.67s2.201-6.362,6.197-8.67c8.18-4.723,21.487-4.721,29.667,0
				c3.996,2.308,6.197,5.387,6.197,8.67s-2.201,6.362-6.197,8.669l-0.092-0.159l0.092,0.159
				C318.067,216.802,312.695,217.983,307.323,217.983z M307.322,193.921c-5.306,0-10.61,1.165-14.648,3.497
				c-3.879,2.239-6.015,5.206-6.015,8.353s2.136,6.113,6.015,8.352c8.079,4.664,21.223,4.664,29.3,0l0,0
				c3.879-2.239,6.015-5.205,6.015-8.352s-2.136-6.113-6.015-8.353C317.935,195.087,312.628,193.921,307.322,193.921z"/>
			<g>
				<g>
					<g>
						<g>
							<path class="st2" d="M293.283,186.442c7.611-4.394,19.951-4.394,27.562,0c1.234,0.713,2.265,1.498,3.099,2.331
								c4.309-4.303,3.278-9.901-3.099-13.583c-7.611-4.394-19.951-4.394-27.562,0c-6.377,3.682-7.407,9.279-3.098,13.582
								C291.018,187.94,292.049,187.155,293.283,186.442z"/>
							
								<linearGradient id="SVGID_00000092453966712135957130000014316843898261664937_" gradientUnits="userSpaceOnUse" x1="272.567" y1="317.4782" x2="341.558" y2="317.4782" gradientTransform="matrix(1 0 0 -1 0 512)">
								<stop  offset="0" style="stop-color:#5CEDC4"/>
								<stop  offset="0.0747" style="stop-color:#51ECC0"/>
								<stop  offset="0.34" style="stop-color:#2EE8B3"/>
								<stop  offset="0.5902" style="stop-color:#15E6AA"/>
								<stop  offset="0.8171" style="stop-color:#05E5A4"/>
								<stop  offset="1" style="stop-color:#00E4A2"/>
							</linearGradient>
							<path style="fill:url(#SVGID_00000092453966712135957130000014316843898261664937_);" d="M336.447,183.2
								c-1.384-1.296-3.046-2.52-4.992-3.643c-3.035-1.752-6.497-3.106-10.19-4.069c7.096,4.5,6.881,11.471-0.651,15.819
								c-7.755,4.478-20.329,4.477-28.085,0c-7.274-4.199-7.725-10.846-1.356-15.349c-3.061,0.917-5.935,2.116-8.503,3.598
								c-1.945,1.123-3.608,2.348-4.992,3.644h-5.111v10.44l0,0c0.001,5.097,3.368,10.193,10.104,14.082
								c13.472,7.778,35.313,7.778,48.784,0c6.736-3.889,10.103-8.986,10.103-14.083V183.2H336.447z"/>
							<path class="st4" d="M331.456,179.557c-3.035-1.752-6.497-3.106-10.19-4.069c7.096,4.5,6.881,11.471-0.651,15.819
								c-3.753,2.167-8.634,3.282-13.551,3.351v18.897c8.828,0,17.657-1.944,24.393-5.833c6.736-3.889,10.103-8.986,10.103-14.083
								V183.2h-5.112C335.064,181.904,333.401,180.68,331.456,179.557z"/>
							
								<radialGradient id="SVGID_00000170972948731015150630000011398124667868473479_" cx="339.8181" cy="306.944" r="40.0931" gradientTransform="matrix(1 0 0 -1 0 512)" gradientUnits="userSpaceOnUse">
								<stop  offset="0" style="stop-color:#00E4A2"/>
								<stop  offset="0.3995" style="stop-color:#00C68D"/>
								<stop  offset="0.7572" style="stop-color:#00B27F"/>
								<stop  offset="1" style="stop-color:#00AB7A"/>
							</radialGradient>
							
								<path style="opacity:0.5;fill:url(#SVGID_00000170972948731015150630000011398124667868473479_);enable-background:new    ;" d="
								M331.456,179.557c-3.035-1.752-6.497-3.106-10.19-4.069c7.096,4.5,6.881,11.471-0.651,15.819
								c-3.753,2.167-8.634,3.282-13.551,3.351v18.897c8.828,0,17.657-1.944,24.393-5.833c6.736-3.889,10.103-8.986,10.103-14.083
								V183.2h-5.112C335.064,181.904,333.401,180.68,331.456,179.557z"/>
							<path class="st6" d="M331.456,169.977c-13.472-7.778-35.313-7.778-48.784,0s-13.471,20.388,0.001,28.166
								s35.313,7.778,48.784,0S344.927,177.755,331.456,169.977z M320.861,192.167c-7.755,4.477-20.329,4.477-28.085,0
								c-7.755-4.478-7.756-11.737,0-16.215c7.755-4.477,20.329-4.477,28.085,0C328.616,180.43,328.616,187.69,320.861,192.167z"/>
							<g>
								<path class="st7" d="M331.457,197.068c-13.471,7.778-35.313,7.777-48.784,0c-6.499-3.752-9.862-8.629-10.09-13.546
									c-0.245,5.275,3.118,10.595,10.09,14.62c13.472,7.778,35.313,7.778,48.784,0c6.972-4.025,10.335-9.345,10.09-14.62
									C341.318,188.439,337.955,193.316,331.457,197.068z"/>
								<path class="st7" d="M320.86,174.878c-7.755-4.478-20.329-4.478-28.085,0c-4.114,2.375-6.045,5.534-5.794,8.644
									c0.222-2.753,2.153-5.468,5.794-7.57c7.755-4.477,20.329-4.477,28.085,0c3.641,2.102,5.572,4.818,5.794,7.57
									C326.906,180.412,324.975,177.253,320.86,174.878z"/>
							</g>
							<path class="st8" d="M329.893,169.968c-12.541-7.24-32.873-7.24-45.413,0s-12.54,18.979,0.001,26.219s32.873,7.24,45.413,0
								C342.434,188.947,342.434,177.208,329.893,169.968z M320.749,190.908c-7.49,4.324-19.634,4.324-27.124,0
								c-7.49-4.325-7.491-11.336,0-15.66c7.49-4.324,19.634-4.324,27.125,0C328.239,179.572,328.239,186.583,320.749,190.908z"/>
						</g>
					</g>
					<path class="st9" d="M320.749,190.908c-7.49,4.324-19.634,4.324-27.124,0c-7.49-4.325-7.491-11.336,0-15.66
						c7.49-4.324,19.634-4.324,27.125,0C328.239,179.572,328.239,186.583,320.749,190.908z"/>
					
						<linearGradient id="SVGID_00000050647300198460941380000003289608787803689609_" gradientUnits="userSpaceOnUse" x1="307.1845" y1="392.421" x2="307.1845" y2="317.8492" gradientTransform="matrix(1 0 0 -1 0 512)">
						<stop  offset="0" style="stop-color:#432F4D"/>
						<stop  offset="0.167" style="stop-color:#43324F"/>
						<stop  offset="0.3134" style="stop-color:#453D56"/>
						<stop  offset="0.452" style="stop-color:#474F61"/>
						<stop  offset="0.586" style="stop-color:#4B6971"/>
						<stop  offset="0.7166" style="stop-color:#4F8985"/>
						<stop  offset="0.8446" style="stop-color:#54B19F"/>
						<stop  offset="0.9683" style="stop-color:#5AE0BC"/>
						<stop  offset="1" style="stop-color:#5CEDC4"/>
					</linearGradient>
					
						<path style="opacity:0.5;fill:url(#SVGID_00000050647300198460941380000003289608787803689609_);enable-background:new    ;" d="
						M326.349,182.867h0.013v-63.288h-38.355v63.42h0.006c-0.034,2.86,1.832,5.726,5.611,7.908c7.49,4.325,19.634,4.325,27.124,0
						C324.587,188.692,326.445,185.771,326.349,182.867z"/>
				</g>
				<g>
					<path class="st11" d="M321.325,142.802c0,0.633-0.513,1.146-1.146,1.146s-1.146-0.513-1.146-1.146s0.513-1.146,1.146-1.146
						S321.325,142.169,321.325,142.802z"/>
					<path class="st11" d="M303.534,129.556c0,0.934-0.757,1.691-1.691,1.691c-0.934,0-1.691-0.757-1.691-1.691
						s0.757-1.691,1.691-1.691S303.534,128.622,303.534,129.556z"/>
					<path class="st12" d="M300.459,158.419c0,0.66-0.535,1.195-1.195,1.195s-1.196-0.535-1.196-1.195s0.535-1.195,1.196-1.195
						C299.924,157.223,300.459,157.758,300.459,158.419z"/>
				</g>
			</g>
		</g>
	</g>
	<g>
		<g>
			<path class="st1" d="M193.894,358.804c-8.972,0-17.943-1.972-24.774-5.915c-6.651-3.841-10.314-8.958-10.314-14.409
				s3.663-10.567,10.314-14.408c13.66-7.887,35.885-7.886,49.545,0c6.651,3.84,10.315,8.957,10.315,14.408
				s-3.663,10.568-10.314,14.408C211.836,356.832,202.865,358.804,193.894,358.804z M193.891,318.519
				c-8.904,0-17.809,1.957-24.588,5.871c-6.533,3.772-10.132,8.776-10.132,14.09c0,5.315,3.598,10.319,10.132,14.092
				c13.561,7.825,35.622,7.827,49.179,0c6.533-3.772,10.132-8.777,10.132-14.091s-3.599-10.319-10.133-14.091l0,0
				C211.701,320.476,202.796,318.519,193.891,318.519z M193.892,350.693c-5.371,0-10.743-1.181-14.833-3.542
				c-3.996-2.308-6.197-5.387-6.197-8.67s2.201-6.362,6.197-8.67c8.18-4.723,21.487-4.721,29.667,0
				c3.996,2.308,6.197,5.387,6.197,8.67s-2.201,6.362-6.197,8.669l-0.092-0.159l0.092,0.159
				C204.636,349.512,199.264,350.693,193.892,350.693z M193.891,326.631c-5.306,0-10.61,1.165-14.648,3.497
				c-3.879,2.239-6.015,5.206-6.015,8.353s2.136,6.113,6.015,8.353c8.079,4.664,21.223,4.664,29.3,0l0,0
				c3.879-2.239,6.015-5.205,6.015-8.352s-2.136-6.113-6.015-8.353C204.503,327.797,199.197,326.631,193.891,326.631z"/>
			<g>
				<g>
					<g>
						<g>
							<path class="st2" d="M179.852,319.152c7.611-4.394,19.951-4.394,27.562,0c1.234,0.713,2.265,1.498,3.099,2.331
								c4.309-4.303,3.278-9.901-3.099-13.583c-7.611-4.394-19.951-4.394-27.562,0c-6.377,3.682-7.407,9.279-3.098,13.582
								C177.587,320.65,178.618,319.865,179.852,319.152z"/>
							
								<linearGradient id="SVGID_00000134930048691366377870000004129673660364242348_" gradientUnits="userSpaceOnUse" x1="159.136" y1="184.7682" x2="228.127" y2="184.7682" gradientTransform="matrix(1 0 0 -1 0 512)">
								<stop  offset="0" style="stop-color:#5CEDC4"/>
								<stop  offset="0.0747" style="stop-color:#51ECC0"/>
								<stop  offset="0.34" style="stop-color:#2EE8B3"/>
								<stop  offset="0.5902" style="stop-color:#15E6AA"/>
								<stop  offset="0.8171" style="stop-color:#05E5A4"/>
								<stop  offset="1" style="stop-color:#00E4A2"/>
							</linearGradient>
							<path style="fill:url(#SVGID_00000134930048691366377870000004129673660364242348_);" d="M223.016,315.91
								c-1.384-1.296-3.046-2.52-4.992-3.643c-3.035-1.752-6.497-3.106-10.19-4.069c7.096,4.5,6.881,11.471-0.651,15.819
								c-7.755,4.478-20.329,4.477-28.085,0c-7.274-4.199-7.725-10.846-1.356-15.349c-3.061,0.917-5.935,2.115-8.503,3.598
								c-1.946,1.123-3.608,2.348-4.992,3.644h-5.111v10.44l0,0c0.001,5.097,3.368,10.193,10.104,14.082
								c13.472,7.778,35.313,7.778,48.784,0c6.736-3.889,10.103-8.986,10.103-14.082v-10.44H223.016z"/>
							<path class="st4" d="M218.025,312.267c-3.035-1.752-6.497-3.106-10.19-4.069c7.096,4.5,6.881,11.471-0.651,15.819
								c-3.753,2.167-8.634,3.282-13.551,3.351v18.897c8.828,0,17.657-1.944,24.393-5.833c6.736-3.889,10.103-8.986,10.103-14.082
								v-10.44h-5.112C221.633,314.615,219.97,313.39,218.025,312.267z"/>
							
								<radialGradient id="SVGID_00000157273944695040929490000018044722291586450831_" cx="226.3868" cy="174.2339" r="40.0931" gradientTransform="matrix(1 0 0 -1 0 512)" gradientUnits="userSpaceOnUse">
								<stop  offset="0" style="stop-color:#00E4A2"/>
								<stop  offset="0.3995" style="stop-color:#00C68D"/>
								<stop  offset="0.7572" style="stop-color:#00B27F"/>
								<stop  offset="1" style="stop-color:#00AB7A"/>
							</radialGradient>
							
								<path style="opacity:0.5;fill:url(#SVGID_00000157273944695040929490000018044722291586450831_);enable-background:new    ;" d="
								M218.025,312.267c-3.035-1.752-6.497-3.106-10.19-4.069c7.096,4.5,6.881,11.471-0.651,15.819
								c-3.753,2.167-8.634,3.282-13.551,3.351v18.897c8.828,0,17.657-1.944,24.393-5.833c6.736-3.889,10.103-8.986,10.103-14.082
								v-10.44h-5.112C221.633,314.615,219.97,313.39,218.025,312.267z"/>
							<path class="st6" d="M218.025,302.687c-13.472-7.778-35.313-7.778-48.784,0s-13.471,20.388,0.001,28.166
								s35.313,7.778,48.784,0C231.496,323.075,231.496,310.465,218.025,302.687z M207.43,324.877
								c-7.755,4.477-20.329,4.477-28.085,0c-7.755-4.478-7.756-11.737,0-16.215c7.755-4.478,20.329-4.477,28.085,0
								C215.185,313.14,215.185,320.4,207.43,324.877z"/>
							<g>
								<path class="st7" d="M218.025,329.778c-13.471,7.778-35.313,7.777-48.784,0c-6.499-3.752-9.862-8.629-10.09-13.546
									c-0.245,5.275,3.118,10.595,10.09,14.62c13.472,7.778,35.313,7.778,48.784,0c6.972-4.025,10.335-9.345,10.09-14.62
									C227.887,321.149,224.524,326.026,218.025,329.778z"/>
								<path class="st7" d="M207.429,307.588c-7.755-4.478-20.329-4.478-28.085,0c-4.114,2.375-6.045,5.534-5.794,8.644
									c0.222-2.753,2.153-5.468,5.794-7.57c7.755-4.478,20.329-4.477,28.085,0c3.641,2.102,5.572,4.818,5.794,7.57
									C213.475,313.122,211.544,309.964,207.429,307.588z"/>
							</g>
							<path class="st8" d="M216.462,302.678c-12.541-7.24-32.873-7.24-45.413,0s-12.54,18.979,0.001,26.219s32.873,7.24,45.413,0
								S229.002,309.918,216.462,302.678z M207.318,323.618c-7.49,4.324-19.634,4.324-27.124,0c-7.49-4.325-7.49-11.336,0-15.66
								s19.634-4.324,27.125,0C214.808,312.282,214.808,319.293,207.318,323.618z"/>
						</g>
					</g>
					<path class="st9" d="M207.318,323.618c-7.49,4.324-19.634,4.324-27.124,0c-7.49-4.325-7.49-11.336,0-15.66
						s19.634-4.324,27.125,0C214.808,312.282,214.808,319.293,207.318,323.618z"/>
					
						<linearGradient id="SVGID_00000100359679029399413950000007542694586076238002_" gradientUnits="userSpaceOnUse" x1="193.7535" y1="259.711" x2="193.7535" y2="185.1393" gradientTransform="matrix(1 0 0 -1 0 512)">
						<stop  offset="0" style="stop-color:#432F4D"/>
						<stop  offset="0.167" style="stop-color:#43324F"/>
						<stop  offset="0.3134" style="stop-color:#453D56"/>
						<stop  offset="0.452" style="stop-color:#474F61"/>
						<stop  offset="0.586" style="stop-color:#4B6971"/>
						<stop  offset="0.7166" style="stop-color:#4F8985"/>
						<stop  offset="0.8446" style="stop-color:#54B19F"/>
						<stop  offset="0.9683" style="stop-color:#5AE0BC"/>
						<stop  offset="1" style="stop-color:#5CEDC4"/>
					</linearGradient>
					
						<path style="opacity:0.5;fill:url(#SVGID_00000100359679029399413950000007542694586076238002_);enable-background:new    ;" d="
						M212.918,315.577h0.013v-63.288h-38.355v63.42h0.006c-0.034,2.86,1.832,5.726,5.611,7.908c7.49,4.325,19.635,4.325,27.124,0
						C211.156,321.402,213.013,318.481,212.918,315.577z"/>
				</g>
				<g>
					<path class="st11" d="M207.894,275.512c0,0.633-0.513,1.146-1.146,1.146s-1.146-0.513-1.146-1.146s0.513-1.146,1.146-1.146
						S207.894,274.879,207.894,275.512z"/>
					<path class="st11" d="M190.103,262.266c0,0.934-0.757,1.691-1.691,1.691s-1.691-0.757-1.691-1.691
						c0-0.934,0.757-1.691,1.691-1.691S190.103,261.332,190.103,262.266z"/>
					<path class="st12" d="M187.028,291.129c0,0.66-0.535,1.195-1.195,1.195s-1.196-0.535-1.196-1.195s0.535-1.196,1.196-1.196
						C186.493,289.933,187.028,290.469,187.028,291.129z"/>
				</g>
			</g>
		</g>
		<g>
			<path class="st1" d="M307.325,358.804c-8.972,0-17.943-1.972-24.774-5.915c-6.651-3.841-10.315-8.958-10.315-14.409
				s3.663-10.567,10.315-14.408c13.66-7.887,35.885-7.886,49.545,0c6.651,3.84,10.315,8.957,10.315,14.408
				s-3.663,10.568-10.314,14.408C325.268,356.832,316.296,358.804,307.325,358.804z M307.322,318.519
				c-8.904,0-17.809,1.957-24.588,5.871c-6.533,3.772-10.132,8.776-10.132,14.09c0,5.315,3.598,10.319,10.132,14.092
				c13.561,7.825,35.622,7.827,49.179,0c6.533-3.772,10.132-8.777,10.132-14.091s-3.599-10.319-10.133-14.091l0,0
				C325.133,320.476,316.227,318.519,307.322,318.519z M307.323,350.693c-5.371,0-10.743-1.181-14.833-3.542
				c-3.996-2.308-6.197-5.387-6.197-8.67s2.201-6.362,6.197-8.67c8.18-4.723,21.487-4.721,29.667,0
				c3.996,2.308,6.197,5.387,6.197,8.67s-2.201,6.362-6.197,8.669l-0.092-0.159l0.092,0.159
				C318.067,349.512,312.695,350.693,307.323,350.693z M307.322,326.631c-5.306,0-10.61,1.165-14.648,3.497
				c-3.879,2.239-6.015,5.206-6.015,8.353s2.136,6.113,6.015,8.353c8.079,4.664,21.223,4.664,29.3,0l0,0
				c3.879-2.239,6.015-5.205,6.015-8.352s-2.136-6.113-6.015-8.353C317.935,327.797,312.628,326.631,307.322,326.631z"/>
			<g>
				<g>
					<g>
						<g>
							<path class="st2" d="M293.283,319.152c7.611-4.394,19.951-4.394,27.562,0c1.234,0.713,2.265,1.498,3.099,2.331
								c4.309-4.303,3.278-9.901-3.099-13.583c-7.611-4.394-19.951-4.394-27.562,0c-6.377,3.682-7.407,9.279-3.098,13.582
								C291.018,320.65,292.049,319.865,293.283,319.152z"/>
							
								<linearGradient id="SVGID_00000137849782596440890860000003990691601583070386_" gradientUnits="userSpaceOnUse" x1="272.567" y1="184.7682" x2="341.558" y2="184.7682" gradientTransform="matrix(1 0 0 -1 0 512)">
								<stop  offset="0" style="stop-color:#5CEDC4"/>
								<stop  offset="0.0747" style="stop-color:#51ECC0"/>
								<stop  offset="0.34" style="stop-color:#2EE8B3"/>
								<stop  offset="0.5902" style="stop-color:#15E6AA"/>
								<stop  offset="0.8171" style="stop-color:#05E5A4"/>
								<stop  offset="1" style="stop-color:#00E4A2"/>
							</linearGradient>
							<path style="fill:url(#SVGID_00000137849782596440890860000003990691601583070386_);" d="M336.447,315.91
								c-1.384-1.296-3.046-2.52-4.992-3.643c-3.035-1.752-6.497-3.106-10.19-4.069c7.096,4.5,6.881,11.471-0.651,15.819
								c-7.755,4.478-20.329,4.477-28.085,0c-7.274-4.199-7.725-10.846-1.356-15.349c-3.061,0.917-5.935,2.115-8.503,3.598
								c-1.945,1.123-3.608,2.348-4.992,3.644h-5.111v10.44l0,0c0.001,5.097,3.368,10.193,10.104,14.082
								c13.472,7.778,35.313,7.778,48.784,0c6.736-3.889,10.103-8.986,10.103-14.082v-10.44H336.447z"/>
							<path class="st4" d="M331.456,312.267c-3.035-1.752-6.497-3.106-10.19-4.069c7.096,4.5,6.881,11.471-0.651,15.819
								c-3.753,2.167-8.634,3.282-13.551,3.351v18.897c8.828,0,17.657-1.944,24.393-5.833s10.103-8.986,10.103-14.082v-10.44h-5.112
								C335.064,314.615,333.401,313.39,331.456,312.267z"/>
							
								<radialGradient id="SVGID_00000126292055128387551070000000342905648674415248_" cx="339.8181" cy="174.2339" r="40.0931" gradientTransform="matrix(1 0 0 -1 0 512)" gradientUnits="userSpaceOnUse">
								<stop  offset="0" style="stop-color:#00E4A2"/>
								<stop  offset="0.3995" style="stop-color:#00C68D"/>
								<stop  offset="0.7572" style="stop-color:#00B27F"/>
								<stop  offset="1" style="stop-color:#00AB7A"/>
							</radialGradient>
							
								<path style="opacity:0.5;fill:url(#SVGID_00000126292055128387551070000000342905648674415248_);enable-background:new    ;" d="
								M331.456,312.267c-3.035-1.752-6.497-3.106-10.19-4.069c7.096,4.5,6.881,11.471-0.651,15.819
								c-3.753,2.167-8.634,3.282-13.551,3.351v18.897c8.828,0,17.657-1.944,24.393-5.833s10.103-8.986,10.103-14.082v-10.44h-5.112
								C335.064,314.615,333.401,313.39,331.456,312.267z"/>
							<path class="st6" d="M331.456,302.687c-13.472-7.778-35.313-7.778-48.784,0s-13.471,20.388,0.001,28.166
								s35.313,7.778,48.784,0S344.927,310.465,331.456,302.687z M320.861,324.877c-7.755,4.477-20.329,4.477-28.085,0
								c-7.755-4.478-7.756-11.737,0-16.215c7.755-4.478,20.329-4.477,28.085,0C328.616,313.14,328.616,320.4,320.861,324.877z"/>
							<g>
								<path class="st7" d="M331.457,329.778c-13.471,7.778-35.313,7.777-48.784,0c-6.499-3.752-9.862-8.629-10.09-13.546
									c-0.245,5.275,3.118,10.595,10.09,14.62c13.472,7.778,35.313,7.778,48.784,0c6.972-4.025,10.335-9.345,10.09-14.62
									C341.318,321.149,337.955,326.026,331.457,329.778z"/>
								<path class="st7" d="M320.86,307.588c-7.755-4.478-20.329-4.478-28.085,0c-4.114,2.375-6.045,5.534-5.794,8.644
									c0.222-2.753,2.153-5.468,5.794-7.57c7.755-4.478,20.329-4.477,28.085,0c3.641,2.102,5.572,4.818,5.794,7.57
									C326.906,313.122,324.975,309.964,320.86,307.588z"/>
							</g>
							<path class="st8" d="M329.893,302.678c-12.541-7.24-32.873-7.24-45.413,0s-12.54,18.979,0.001,26.219s32.873,7.24,45.413,0
								C342.434,321.657,342.434,309.918,329.893,302.678z M320.749,323.618c-7.49,4.324-19.634,4.324-27.124,0
								c-7.49-4.325-7.491-11.336,0-15.66c7.49-4.324,19.634-4.324,27.125,0C328.239,312.282,328.239,319.293,320.749,323.618z"/>
						</g>
					</g>
					<path class="st9" d="M320.749,323.618c-7.49,4.324-19.634,4.324-27.124,0c-7.49-4.325-7.491-11.336,0-15.66
						c7.49-4.324,19.634-4.324,27.125,0C328.239,312.282,328.239,319.293,320.749,323.618z"/>
					
						<linearGradient id="SVGID_00000054240382938778850560000007084871110470285237_" gradientUnits="userSpaceOnUse" x1="307.1845" y1="259.711" x2="307.1845" y2="185.1393" gradientTransform="matrix(1 0 0 -1 0 512)">
						<stop  offset="0" style="stop-color:#432F4D"/>
						<stop  offset="0.167" style="stop-color:#43324F"/>
						<stop  offset="0.3134" style="stop-color:#453D56"/>
						<stop  offset="0.452" style="stop-color:#474F61"/>
						<stop  offset="0.586" style="stop-color:#4B6971"/>
						<stop  offset="0.7166" style="stop-color:#4F8985"/>
						<stop  offset="0.8446" style="stop-color:#54B19F"/>
						<stop  offset="0.9683" style="stop-color:#5AE0BC"/>
						<stop  offset="1" style="stop-color:#5CEDC4"/>
					</linearGradient>
					
						<path style="opacity:0.5;fill:url(#SVGID_00000054240382938778850560000007084871110470285237_);enable-background:new    ;" d="
						M326.349,315.577h0.013v-63.288h-38.355v63.42h0.006c-0.034,2.86,1.832,5.726,5.611,7.908c7.49,4.325,19.634,4.325,27.124,0
						C324.587,321.402,326.445,318.481,326.349,315.577z"/>
				</g>
				<g>
					<path class="st11" d="M321.325,275.512c0,0.633-0.513,1.146-1.146,1.146s-1.146-0.513-1.146-1.146s0.513-1.146,1.146-1.146
						S321.325,274.879,321.325,275.512z"/>
					<path class="st11" d="M303.534,262.266c0,0.934-0.757,1.691-1.691,1.691c-0.934,0-1.691-0.757-1.691-1.691
						c0-0.934,0.757-1.691,1.691-1.691C302.777,260.575,303.534,261.332,303.534,262.266z"/>
					<path class="st12" d="M300.459,291.129c0,0.66-0.535,1.195-1.195,1.195s-1.196-0.535-1.196-1.195s0.535-1.196,1.196-1.196
						C299.924,289.933,300.459,290.469,300.459,291.129z"/>
				</g>
			</g>
		</g>
	</g>
	<path class="st1" d="M249.703,296.114c-10.59,0-21.178-2.327-29.24-6.982c-7.854-4.535-12.181-10.579-12.181-17.018
		s4.325-12.482,12.18-17.017c16.12-9.308,42.355-9.308,58.479,0c7.854,4.535,12.181,10.579,12.181,17.018
		s-4.326,12.483-12.181,17.018l-0.118-0.205l0.118,0.205C270.879,293.787,260.29,296.114,249.703,296.114z M249.7,248.583
		c-10.504,0-21.006,2.308-29.002,6.924c-7.702,4.447-11.943,10.345-11.943,16.608s4.242,12.162,11.944,16.608
		c15.992,9.234,42.013,9.235,58.005,0.001c7.702-4.446,11.944-10.345,11.944-16.608s-4.242-12.162-11.944-16.608
		C270.708,250.891,260.203,248.583,249.7,248.583z"/>
	<ellipse class="st11" cx="249.847" cy="194.819" rx="22.698" ry="13.104"/>
	<g>
		<g>
			<polygon class="st28" points="413.497,415.586 392.91,403.7 413.496,391.815 434.082,403.701 			"/>
		</g>
		<path class="st29" d="M413.497,436.227c-13.568,0-27.137-2.982-37.467-8.946c-10.049-5.801-15.583-13.528-15.583-21.756
			c0-8.228,5.534-15.955,15.582-21.756c20.658-11.925,54.273-11.927,74.932,0.001c10.049,5.801,15.583,13.528,15.583,21.756
			c0,8.227-5.534,15.953-15.582,21.755C440.634,433.245,427.066,436.227,413.497,436.227z M413.493,375.25
			c-13.49,0-26.978,2.965-37.247,8.893c-9.909,5.721-15.366,13.314-15.366,21.382c0,8.067,5.457,15.661,15.366,21.382
			c20.54,11.859,53.961,11.859,74.5,0c9.909-5.721,15.366-13.314,15.366-21.381c0-8.068-5.458-15.661-15.367-21.382
			C440.475,378.215,426.983,375.25,413.493,375.25z"/>
		<path class="st30" d="M413.497,444.45c-17.217,0-34.435-3.784-47.542-11.352c-12.74-7.354-19.757-17.147-19.757-27.573
			s7.016-20.219,19.755-27.573c26.216-15.134,68.87-15.134,95.083,0.001c12.741,7.354,19.757,17.147,19.757,27.573
			s-7.015,20.218-19.755,27.572l-0.108-0.187l0.108,0.187C447.932,440.666,430.714,444.45,413.497,444.45z M413.494,367.028
			c-17.139,0-34.276,3.767-47.324,11.298c-12.6,7.275-19.538,16.934-19.538,27.199c0,10.264,6.939,19.924,19.54,27.199
			c26.096,15.066,68.556,15.066,94.651,0l0,0c12.6-7.276,19.539-16.934,19.539-27.198s-6.94-19.924-19.54-27.199
			C447.773,370.794,430.633,367.028,413.494,367.028z"/>
		<path class="st31" d="M413.499,429.749c-10.695,0-21.388-2.35-29.531-7.051c-7.929-4.576-12.295-10.675-12.295-17.173
			c0-6.498,4.366-12.596,12.294-17.173c16.282-9.401,42.775-9.401,59.057,0c7.929,4.578,12.296,10.678,12.296,17.175
			c-0.001,6.496-4.366,12.595-12.294,17.171C434.886,427.4,424.191,429.749,413.499,429.749z M413.495,381.728
			c-10.616,0-21.231,2.332-29.312,6.998c-7.789,4.498-12.078,10.463-12.078,16.799s4.29,12.302,12.079,16.799
			c16.164,9.331,42.463,9.33,58.626,0.001l0.108,0.187l-0.108-0.187c7.788-4.498,12.077-10.463,12.077-16.798
			c0-6.338-4.29-12.304-12.079-16.802C434.727,384.06,424.111,381.728,413.495,381.728z"/>
		<g>
			<circle class="st32" cx="364.743" cy="393.177" r="4.336"/>
			<path class="st33" d="M362.862,393.177c0,1.039,0.842,1.882,1.882,1.882s1.882-0.842,1.882-1.882
				c0-1.039-0.843-1.882-1.882-1.882S362.862,392.138,362.862,393.177z"/>
		</g>
		<g>
			<polygon class="st34" points="411.125,382.791 408.767,359.137 389.462,373.005 391.819,396.659 413.482,406.444 
				432.788,392.576 			"/>
			<polygon class="st6" points="391.819,396.659 389.462,373.005 408.767,359.137 411.125,382.791 			"/>
			<polygon class="st2" points="413.482,406.444 391.819,396.659 411.125,382.791 432.788,392.576 			"/>
			<polygon class="st6" points="411.125,382.791 408.767,359.137 430.43,368.922 432.787,392.576 			"/>
			<polygon class="st7" points="411.125,382.791 408.767,359.137 407.93,359.739 410.287,383.392 431.95,393.177 432.788,392.576 
							"/>
		</g>
	</g>
	<g>
		<g>
			<path class="st35" d="M233.361,253.654c9.024-5.21,23.655-5.21,32.68,0c1.463,0.845,2.685,1.776,3.674,2.763
				c5.109-5.102,3.887-11.739-3.674-16.105c-9.024-5.21-23.655-5.21-32.68,0c-7.561,4.365-8.783,11.002-3.674,16.104
				C230.676,255.43,231.898,254.499,233.361,253.654z"/>
			
				<linearGradient id="SVGID_00000084493526119782701010000003269968190718152637_" gradientUnits="userSpaceOnUse" x1="208.801" y1="248.7658" x2="290.603" y2="248.7658" gradientTransform="matrix(1 0 0 -1 0 512)">
				<stop  offset="0" style="stop-color:#9E6EB9"/>
				<stop  offset="0.3018" style="stop-color:#935DB1"/>
				<stop  offset="0.6792" style="stop-color:#894FAA"/>
				<stop  offset="1" style="stop-color:#864AA8"/>
			</linearGradient>
			<path style="fill:url(#SVGID_00000084493526119782701010000003269968190718152637_);" d="M284.54,249.81
				c-1.64-1.536-3.612-2.988-5.918-4.32c-3.598-2.078-7.703-3.683-12.082-4.824c8.414,5.335,8.158,13.601-0.771,18.757
				c-9.195,5.309-24.104,5.309-33.299,0c-8.624-4.979-9.16-12.86-1.608-18.199c-3.629,1.088-7.037,2.508-10.082,4.266
				c-2.307,1.332-4.278,2.784-5.919,4.32h-6.06v12.379l0,0c0.001,6.043,3.994,12.086,11.98,16.697
				c15.973,9.222,41.87,9.222,57.843,0c7.986-4.611,11.979-10.654,11.979-16.697V249.81H284.54z"/>
			<path class="st4" d="M278.622,245.49c-3.598-2.078-7.703-3.683-12.082-4.824c8.414,5.335,8.158,13.601-0.771,18.757
				c-4.449,2.569-10.237,3.891-16.067,3.973v22.406c10.468,0,20.935-2.305,28.922-6.916c7.986-4.611,11.979-10.654,11.979-16.697
				V249.81h-6.062C282.9,248.274,280.929,246.822,278.622,245.49z"/>
			
				<radialGradient id="SVGID_00000094604767619209570660000000049911861507992456_" cx="288.5369" cy="236.2761" r="47.5374" gradientTransform="matrix(1 0 0 -1 0 512)" gradientUnits="userSpaceOnUse">
				<stop  offset="0" style="stop-color:#9E6EB9"/>
				<stop  offset="0.1081" style="stop-color:#9565AF"/>
				<stop  offset="0.4692" style="stop-color:#794C91"/>
				<stop  offset="0.7792" style="stop-color:#693D7F"/>
				<stop  offset="1" style="stop-color:#633778"/>
			</radialGradient>
			<path style="opacity:0.5;fill:url(#SVGID_00000094604767619209570660000000049911861507992456_);enable-background:new    ;" d="
				M278.622,245.49c-3.598-2.078-7.703-3.683-12.082-4.824c8.414,5.335,8.158,13.601-0.771,18.757
				c-4.449,2.569-10.237,3.891-16.067,3.973v22.406c10.468,0,20.935-2.305,28.922-6.916c7.986-4.611,11.979-10.654,11.979-16.697
				V249.81h-6.062C282.9,248.274,280.929,246.822,278.622,245.49z"/>
			<path class="st31" d="M278.622,234.132c-15.973-9.222-41.87-9.222-57.843-0.001c-15.973,9.222-15.972,24.173,0.001,33.395
				c15.973,9.222,41.87,9.222,57.843,0.001C294.595,258.305,294.595,243.354,278.622,234.132z M266.06,260.442
				c-9.195,5.309-24.104,5.309-33.299,0c-9.196-5.309-9.196-13.916-0.001-19.225s24.104-5.309,33.299,0
				C275.255,246.526,275.255,255.133,266.06,260.442z"/>
			<g>
				<path class="st7" d="M278.623,266.253c-15.973,9.222-41.87,9.222-57.843,0c-7.706-4.449-11.693-10.232-11.964-16.061
					c-0.291,6.254,3.697,12.562,11.964,17.335c15.973,9.222,41.87,9.222,57.843,0.001c8.267-4.773,12.254-11.081,11.963-17.335
					C290.315,256.022,286.328,261.804,278.623,266.253z"/>
				<path class="st7" d="M266.059,239.942c-9.195-5.309-24.104-5.309-33.299,0c-4.878,2.816-7.168,6.561-6.87,10.25
					c0.264-3.264,2.553-6.483,6.87-8.975c9.195-5.309,24.104-5.309,33.299,0c4.317,2.493,6.607,5.712,6.87,8.976
					C273.228,246.504,270.938,242.759,266.059,239.942z"/>
			</g>
			<path class="st33" d="M276.769,234.121c-14.869-8.585-38.976-8.585-53.845,0c-14.869,8.584-14.868,22.503,0.001,31.087
				c14.869,8.585,38.976,8.585,53.845,0C291.638,256.624,291.638,242.705,276.769,234.121z M265.927,258.948
				c-8.881,5.127-23.28,5.127-32.161,0c-8.881-5.128-8.881-13.441-0.001-18.568c8.881-5.127,23.28-5.127,32.161,0
				C274.808,245.508,274.808,253.821,265.927,258.948z"/>
		</g>
		<path class="st38" d="M284.86,238.451c-1.64-1.536-3.612-2.988-5.918-4.32c-3.599-2.078-7.703-3.683-12.082-4.824
			c8.414,5.335,8.158,13.601-0.771,18.757c-9.195,5.309-24.104,5.309-33.299,0c-8.624-4.979-9.16-12.86-1.608-18.199
			c-3.629,1.088-7.037,2.508-10.082,4.266c-2.307,1.332-4.278,2.784-5.919,4.32h-6.06v12.379l0,0
			c0.001,6.043,3.994,12.086,11.98,16.697c15.973,9.222,41.87,9.222,57.842,0.001c7.986-4.611,11.979-10.654,11.979-16.697v-12.379
			h-6.062V238.451z"/>
		<g>
			<path class="st35" d="M233.361,235.083c9.024-5.21,23.655-5.21,32.68,0c1.463,0.845,2.685,1.776,3.674,2.763
				c5.109-5.102,3.887-11.739-3.674-16.105c-9.024-5.21-23.655-5.21-32.68,0c-7.561,4.365-8.783,11.002-3.674,16.104
				C230.676,236.858,231.898,235.928,233.361,235.083z"/>
			
				<linearGradient id="SVGID_00000132790250343039545600000011345295444839901625_" gradientUnits="userSpaceOnUse" x1="208.801" y1="267.3367" x2="290.603" y2="267.3367" gradientTransform="matrix(1 0 0 -1 0 512)">
				<stop  offset="0" style="stop-color:#9E6EB9"/>
				<stop  offset="0.3018" style="stop-color:#935DB1"/>
				<stop  offset="0.6792" style="stop-color:#894FAA"/>
				<stop  offset="1" style="stop-color:#864AA8"/>
			</linearGradient>
			<path style="fill:url(#SVGID_00000132790250343039545600000011345295444839901625_);" d="M284.54,231.239
				c-1.64-1.536-3.612-2.988-5.918-4.32c-3.598-2.078-7.703-3.683-12.082-4.824c8.414,5.335,8.158,13.601-0.771,18.757
				c-9.195,5.309-24.104,5.309-33.299,0c-8.624-4.979-9.16-12.859-1.608-18.199c-3.629,1.088-7.037,2.508-10.082,4.266
				c-2.307,1.332-4.278,2.784-5.919,4.32h-6.06v12.379l0,0c0.001,6.043,3.994,12.086,11.98,16.697
				c15.973,9.222,41.87,9.222,57.843,0.001c7.986-4.611,11.979-10.654,11.979-16.697V231.24h-6.063V231.239z"/>
			<path class="st4" d="M278.622,226.919c-3.598-2.078-7.703-3.683-12.082-4.824c8.414,5.335,8.158,13.601-0.771,18.757
				c-4.449,2.569-10.237,3.891-16.067,3.974v22.406c10.468,0,20.935-2.305,28.922-6.916c7.986-4.611,11.979-10.654,11.979-16.697
				V231.24h-6.062C282.9,229.702,280.929,228.251,278.622,226.919z"/>
			
				<radialGradient id="SVGID_00000126308904499020795880000005950169052071452565_" cx="288.5369" cy="254.8471" r="47.5375" gradientTransform="matrix(1 0 0 -1 0 512)" gradientUnits="userSpaceOnUse">
				<stop  offset="0" style="stop-color:#9E6EB9"/>
				<stop  offset="0.1081" style="stop-color:#9565AF"/>
				<stop  offset="0.4692" style="stop-color:#794C91"/>
				<stop  offset="0.7792" style="stop-color:#693D7F"/>
				<stop  offset="1" style="stop-color:#633778"/>
			</radialGradient>
			<path style="opacity:0.5;fill:url(#SVGID_00000126308904499020795880000005950169052071452565_);enable-background:new    ;" d="
				M278.622,226.919c-3.598-2.078-7.703-3.683-12.082-4.824c8.414,5.335,8.158,13.601-0.771,18.757
				c-4.449,2.569-10.237,3.891-16.067,3.974v22.406c10.468,0,20.935-2.305,28.922-6.916c7.986-4.611,11.979-10.654,11.979-16.697
				V231.24h-6.062C282.9,229.702,280.929,228.251,278.622,226.919z"/>
			<path class="st31" d="M278.622,215.561c-15.973-9.222-41.87-9.222-57.843,0s-15.972,24.173,0.001,33.395s41.87,9.222,57.843,0
				C294.595,239.734,294.595,224.783,278.622,215.561z M266.06,241.871c-9.195,5.309-24.104,5.309-33.299,0
				c-9.196-5.309-9.196-13.917-0.001-19.225c9.195-5.309,24.104-5.309,33.299,0C275.255,227.954,275.255,236.562,266.06,241.871z"/>
			<g>
				<path class="st7" d="M278.623,247.682c-15.973,9.222-41.87,9.221-57.843,0c-7.706-4.449-11.693-10.232-11.964-16.061
					c-0.291,6.254,3.697,12.562,11.964,17.335c15.973,9.222,41.87,9.222,57.843,0c8.267-4.773,12.254-11.081,11.963-17.334
					C290.315,237.451,286.328,243.233,278.623,247.682z"/>
				<path class="st7" d="M266.059,221.371c-9.195-5.309-24.104-5.309-33.299,0c-4.878,2.816-7.168,6.561-6.87,10.249
					c0.264-3.264,2.553-6.483,6.87-8.975c9.195-5.309,24.104-5.309,33.299,0c4.317,2.493,6.607,5.712,6.87,8.976
					C273.228,227.933,270.938,224.188,266.059,221.371z"/>
			</g>
			<path class="st33" d="M276.769,215.55c-14.869-8.585-38.976-8.585-53.845-0.001c-14.869,8.585-14.868,22.503,0.001,31.087
				c14.869,8.585,38.976,8.585,53.845,0C291.638,238.053,291.638,224.134,276.769,215.55z M265.927,240.377
				c-8.881,5.127-23.28,5.127-32.161,0c-8.881-5.128-8.881-13.441-0.001-18.568c8.881-5.127,23.28-5.127,32.161,0
				C274.808,226.937,274.808,235.25,265.927,240.377z"/>
		</g>
		<path class="st38" d="M284.86,219.88c-1.64-1.536-3.612-2.988-5.918-4.32c-3.599-2.078-7.703-3.683-12.082-4.824
			c8.414,5.335,8.158,13.601-0.771,18.757c-9.195,5.309-24.104,5.309-33.299,0c-8.624-4.979-9.16-12.86-1.608-18.199
			c-3.629,1.088-7.037,2.508-10.082,4.267c-2.307,1.332-4.278,2.784-5.919,4.32h-6.06v12.378l0,0
			c0.001,6.043,3.994,12.086,11.98,16.697c15.973,9.222,41.87,9.222,57.842,0c7.986-4.611,11.979-10.654,11.979-16.697V219.88
			H284.86z"/>
		<g>
			<path class="st41" d="M233.361,216.512c9.024-5.21,23.655-5.21,32.68,0c1.463,0.845,2.685,1.776,3.674,2.763
				c5.109-5.102,3.887-11.739-3.674-16.105c-9.024-5.21-23.655-5.21-32.68,0c-7.561,4.365-8.783,11.002-3.674,16.104
				C230.676,218.287,231.898,217.357,233.361,216.512z"/>
			
				<linearGradient id="SVGID_00000137094388936703761380000000797848329617974959_" gradientUnits="userSpaceOnUse" x1="208.801" y1="285.9077" x2="290.603" y2="285.9077" gradientTransform="matrix(1 0 0 -1 0 512)">
				<stop  offset="0" style="stop-color:#9E6EB9"/>
				<stop  offset="0.3018" style="stop-color:#935DB1"/>
				<stop  offset="0.6792" style="stop-color:#894FAA"/>
				<stop  offset="1" style="stop-color:#864AA8"/>
			</linearGradient>
			<path style="fill:url(#SVGID_00000137094388936703761380000000797848329617974959_);" d="M284.54,212.668
				c-1.64-1.536-3.612-2.988-5.918-4.32c-3.598-2.078-7.703-3.683-12.082-4.824c8.414,5.335,8.158,13.601-0.771,18.757
				c-9.195,5.309-24.104,5.309-33.299,0c-8.624-4.979-9.16-12.859-1.608-18.199c-3.629,1.088-7.037,2.508-10.082,4.266
				c-2.307,1.332-4.278,2.784-5.919,4.32h-6.06v12.379l0,0c0.001,6.043,3.994,12.086,11.98,16.697
				c15.973,9.222,41.87,9.222,57.843,0c7.986-4.611,11.979-10.654,11.979-16.697v-12.379H284.54z"/>
			<path class="st4" d="M278.622,208.348c-3.598-2.078-7.703-3.683-12.082-4.824c8.414,5.335,8.158,13.601-0.771,18.757
				c-4.449,2.569-10.237,3.891-16.067,3.973v22.406c10.468,0,20.935-2.305,28.922-6.916c7.986-4.611,11.979-10.654,11.979-16.697
				v-12.379h-6.062C282.9,211.132,280.929,209.68,278.622,208.348z"/>
			
				<radialGradient id="SVGID_00000023251725266862693060000005458085719647288977_" cx="288.5369" cy="273.4182" r="47.5374" gradientTransform="matrix(1 0 0 -1 0 512)" gradientUnits="userSpaceOnUse">
				<stop  offset="0" style="stop-color:#9E6EB9"/>
				<stop  offset="0.1081" style="stop-color:#9565AF"/>
				<stop  offset="0.4692" style="stop-color:#794C91"/>
				<stop  offset="0.7792" style="stop-color:#693D7F"/>
				<stop  offset="1" style="stop-color:#633778"/>
			</radialGradient>
			<path style="opacity:0.5;fill:url(#SVGID_00000023251725266862693060000005458085719647288977_);enable-background:new    ;" d="
				M278.622,208.348c-3.598-2.078-7.703-3.683-12.082-4.824c8.414,5.335,8.158,13.601-0.771,18.757
				c-4.449,2.569-10.237,3.891-16.067,3.973v22.406c10.468,0,20.935-2.305,28.922-6.916c7.986-4.611,11.979-10.654,11.979-16.697
				v-12.379h-6.062C282.9,211.132,280.929,209.68,278.622,208.348z"/>
			<path class="st31" d="M278.622,196.99c-15.973-9.222-41.87-9.222-57.843,0s-15.972,24.173,0.001,33.395s41.87,9.222,57.843,0
				C294.595,221.163,294.595,206.212,278.622,196.99z M266.06,223.3c-9.195,5.309-24.104,5.309-33.299,0
				c-9.196-5.309-9.196-13.917-0.001-19.225c9.195-5.309,24.104-5.309,33.299,0C275.255,209.383,275.255,217.991,266.06,223.3z"/>
			<g>
				<path class="st7" d="M278.623,229.111c-15.973,9.222-41.87,9.222-57.843,0c-7.706-4.449-11.693-10.232-11.964-16.061
					c-0.291,6.254,3.697,12.562,11.964,17.335c15.973,9.222,41.87,9.222,57.843,0c8.267-4.773,12.254-11.081,11.963-17.334
					C290.315,218.88,286.328,224.662,278.623,229.111z"/>
				<path class="st7" d="M266.059,202.8c-9.195-5.309-24.104-5.309-33.299,0c-4.878,2.816-7.168,6.561-6.87,10.249
					c0.264-3.264,2.553-6.483,6.87-8.975c9.195-5.309,24.104-5.309,33.299,0c4.317,2.493,6.607,5.712,6.87,8.976
					C273.228,209.362,270.938,205.617,266.059,202.8z"/>
			</g>
			<path class="st33" d="M276.769,196.979c-14.869-8.585-38.976-8.585-53.845-0.001s-14.868,22.503,0.001,31.087
				c14.869,8.585,38.976,8.585,53.845,0C291.638,219.482,291.638,205.563,276.769,196.979z M265.927,221.806
				c-8.881,5.127-23.28,5.127-32.161,0c-8.881-5.128-8.881-13.441-0.001-18.568c8.881-5.127,23.28-5.127,32.161,0
				S274.808,216.679,265.927,221.806z"/>
		</g>
		<path class="st38" d="M284.415,201.309c-1.64-1.536-3.612-2.988-5.918-4.32c-3.599-2.078-7.703-3.683-12.082-4.824
			c8.414,5.335,8.158,13.601-0.771,18.757c-9.195,5.309-24.104,5.309-33.299,0c-8.624-4.979-9.16-12.86-1.608-18.199
			c-3.629,1.088-7.037,2.508-10.082,4.267c-2.307,1.332-4.278,2.784-5.919,4.32h-6.06v12.378l0,0
			c0.001,6.043,3.994,12.086,11.98,16.697c15.973,9.222,41.87,9.222,57.842,0c7.986-4.611,11.979-10.654,11.979-16.697V201.31
			L284.415,201.309L284.415,201.309z"/>
		<g>
			<path class="st41" d="M233.361,197.941c9.024-5.21,23.655-5.21,32.68,0c1.463,0.845,2.685,1.776,3.674,2.763
				c5.109-5.102,3.887-11.739-3.674-16.105c-9.024-5.21-23.655-5.21-32.68,0c-7.561,4.365-8.783,11.002-3.674,16.104
				C230.676,199.716,231.898,198.786,233.361,197.941z"/>
			
				<linearGradient id="SVGID_00000083076050143743200490000011940845475293491342_" gradientUnits="userSpaceOnUse" x1="208.801" y1="304.4788" x2="290.603" y2="304.4788" gradientTransform="matrix(1 0 0 -1 0 512)">
				<stop  offset="0" style="stop-color:#BCBEFF"/>
				<stop  offset="0.151" style="stop-color:#A3A7F5"/>
				<stop  offset="0.3866" style="stop-color:#8289E8"/>
				<stop  offset="0.6124" style="stop-color:#6A73DF"/>
				<stop  offset="0.8221" style="stop-color:#5C66D9"/>
				<stop  offset="1" style="stop-color:#5761D7"/>
			</linearGradient>
			<path style="fill:url(#SVGID_00000083076050143743200490000011940845475293491342_);" d="M284.54,194.097
				c-1.64-1.536-3.612-2.988-5.918-4.32c-3.598-2.078-7.703-3.683-12.082-4.824c8.414,5.335,8.158,13.601-0.771,18.757
				c-9.195,5.309-24.104,5.309-33.299,0c-8.624-4.979-9.16-12.86-1.608-18.199c-3.629,1.088-7.037,2.508-10.082,4.266
				c-2.307,1.332-4.278,2.784-5.919,4.32h-6.06v12.379l0,0c0.001,6.043,3.994,12.086,11.98,16.697
				c15.973,9.222,41.87,9.222,57.843,0c7.986-4.611,11.979-10.654,11.979-16.697v-12.379H284.54z"/>
			
				<linearGradient id="SVGID_00000074401485989269686010000007417670894613295789_" gradientUnits="userSpaceOnUse" x1="208.801" y1="304.4788" x2="290.603" y2="304.4788" gradientTransform="matrix(1 0 0 -1 0 512)">
				<stop  offset="0" style="stop-color:#9E6EB9"/>
				<stop  offset="0.3018" style="stop-color:#935DB1"/>
				<stop  offset="0.6792" style="stop-color:#894FAA"/>
				<stop  offset="1" style="stop-color:#864AA8"/>
			</linearGradient>
			<path style="fill:url(#SVGID_00000074401485989269686010000007417670894613295789_);" d="M284.54,194.097
				c-1.64-1.536-3.612-2.988-5.918-4.32c-3.598-2.078-7.703-3.683-12.082-4.824c8.414,5.335,8.158,13.601-0.771,18.757
				c-9.195,5.309-24.104,5.309-33.299,0c-8.624-4.979-9.16-12.86-1.608-18.199c-3.629,1.088-7.037,2.508-10.082,4.266
				c-2.307,1.332-4.278,2.784-5.919,4.32h-6.06v12.379l0,0c0.001,6.043,3.994,12.086,11.98,16.697
				c15.973,9.222,41.87,9.222,57.843,0c7.986-4.611,11.979-10.654,11.979-16.697v-12.379H284.54z"/>
			<path class="st4" d="M278.622,189.777c-3.598-2.078-7.703-3.683-12.082-4.824c8.414,5.335,8.158,13.601-0.771,18.757
				c-4.449,2.569-10.237,3.891-16.067,3.973v22.406c10.468,0,20.935-2.305,28.922-6.916c7.986-4.611,11.979-10.654,11.979-16.697
				v-12.379h-6.062C282.9,192.56,280.929,191.109,278.622,189.777z"/>
			
				<radialGradient id="SVGID_00000073000564822235154710000010621615152536406718_" cx="288.5369" cy="291.9892" r="47.5374" gradientTransform="matrix(1 0 0 -1 0 512)" gradientUnits="userSpaceOnUse">
				<stop  offset="0" style="stop-color:#9E6EB9"/>
				<stop  offset="0.1081" style="stop-color:#9565AF"/>
				<stop  offset="0.4692" style="stop-color:#794C91"/>
				<stop  offset="0.7792" style="stop-color:#693D7F"/>
				<stop  offset="1" style="stop-color:#633778"/>
			</radialGradient>
			<path style="opacity:0.5;fill:url(#SVGID_00000073000564822235154710000010621615152536406718_);enable-background:new    ;" d="
				M278.622,189.777c-3.598-2.078-7.703-3.683-12.082-4.824c8.414,5.335,8.158,13.601-0.771,18.757
				c-4.449,2.569-10.237,3.891-16.067,3.973v22.406c10.468,0,20.935-2.305,28.922-6.916c7.986-4.611,11.979-10.654,11.979-16.697
				v-12.379h-6.062C282.9,192.561,280.929,191.109,278.622,189.777z"/>
			<path class="st31" d="M278.622,178.419c-15.973-9.222-41.87-9.222-57.843-0.001c-15.973,9.222-15.972,24.173,0.001,33.395
				s41.87,9.222,57.843,0.001C294.595,202.592,294.595,187.641,278.622,178.419z M266.06,204.729
				c-9.195,5.309-24.104,5.309-33.299,0c-9.196-5.309-9.196-13.917-0.001-19.225c9.195-5.309,24.104-5.309,33.299,0
				C275.255,190.812,275.255,199.42,266.06,204.729z"/>
			<g>
				<path class="st7" d="M278.623,210.54c-15.973,9.222-41.87,9.222-57.843,0c-7.706-4.449-11.693-10.232-11.964-16.061
					c-0.291,6.254,3.697,12.562,11.964,17.335c15.973,9.222,41.87,9.222,57.843,0.001c8.267-4.773,12.254-11.081,11.963-17.335
					C290.315,200.309,286.328,206.091,278.623,210.54z"/>
			</g>
			<path class="st31" d="M276.769,179.275c-14.869-8.585-38.976-8.585-53.845-0.001s-14.868,22.503,0.001,31.087
				c14.869,8.585,38.976,8.585,53.845,0C291.638,201.778,291.638,187.86,276.769,179.275z M265.927,204.103
				c-8.881,5.127-23.28,5.127-32.161,0c-8.881-5.128-8.881-13.441-0.001-18.568c8.881-5.127,23.28-5.127,32.161,0
				C274.808,190.662,274.808,198.975,265.927,204.103z"/>
		</g>
	</g>
	<g>
		<path class="st31" d="M87.459,160.815l-0.11-0.064l-30.72-17.735l0.33-0.19l30.499-17.609l0.11,0.064l30.72,17.735l-0.331,0.19
			L87.459,160.815z M57.51,143.015l29.949,17.291l29.948-17.291l-29.949-17.291L57.51,143.015z"/>
		<polygon class="st28" points="86.905,155.131 65.92,143.015 86.905,130.9 107.89,143.016 		"/>
		<polygon class="st34" points="86.905,112.547 65.92,100.431 65.92,124.662 86.905,136.778 107.89,124.662 107.89,100.431 		"/>
		<polygon class="st6" points="86.905,136.778 65.92,124.662 65.92,100.431 86.905,112.547 		"/>
		<polygon class="st2" points="107.89,124.662 86.905,136.778 86.905,112.547 107.89,100.431 		"/>
		<polygon class="st6" points="86.905,112.547 65.92,100.431 86.905,88.316 107.89,100.432 		"/>
		<polygon class="st7" points="86.905,112.547 65.92,100.431 65.92,101.482 86.905,113.598 107.89,101.483 107.89,100.431 		"/>
	</g>
	<g>
		<path class="st31" d="M424.542,160.815l-0.11-0.064l-30.72-17.735l0.33-0.19l30.499-17.609l0.11,0.064l30.72,17.735l-0.331,0.19
			L424.542,160.815z M394.593,143.015l29.949,17.291l29.948-17.291l-29.949-17.291L394.593,143.015z"/>
		<polygon class="st28" points="423.988,155.131 403.003,143.015 423.988,130.9 444.973,143.016 		"/>
		<polygon class="st34" points="423.988,112.547 403.003,100.431 403.003,124.662 423.988,136.778 444.973,124.662 444.973,100.431 
					"/>
		<polygon class="st6" points="423.988,136.778 403.003,124.662 403.003,100.431 423.988,112.547 		"/>
		<polygon class="st2" points="444.974,124.662 423.988,136.778 423.988,112.547 444.974,100.431 		"/>
		<polygon class="st6" points="423.988,112.547 403.003,100.431 423.988,88.316 444.973,100.432 		"/>
		<polygon class="st7" points="423.988,112.547 403.003,100.431 403.003,101.482 423.988,113.598 444.973,101.483 444.973,100.431 
					"/>
	</g>
	<g>
		<polygon class="st28" points="87.458,435.56 66.473,423.444 87.458,411.329 108.443,423.445 		"/>
		<polygon class="st34" points="87.458,392.976 66.473,380.861 66.473,405.091 87.458,417.207 108.443,405.091 108.443,380.861 		
			"/>
		<polygon class="st6" points="87.458,417.207 66.473,405.091 66.473,380.861 87.458,392.976 		"/>
		<polygon class="st2" points="108.443,405.091 87.458,417.207 87.458,392.976 108.443,380.861 		"/>
		<polygon class="st6" points="87.458,392.976 66.473,380.861 87.458,368.745 108.443,380.861 		"/>
		<polygon class="st2" points="87.458,389.998 71.631,380.861 87.458,371.723 103.285,380.861 		"/>
		<polygon class="st7" points="87.458,392.976 66.473,380.861 66.473,381.911 87.458,394.027 108.443,381.912 108.443,380.861 		"/>
		<polygon class="st34" points="87.458,356.63 66.473,344.514 66.473,368.745 87.458,380.861 108.443,368.745 108.443,344.514 		"/>
		<polygon class="st6" points="87.458,380.861 66.473,368.745 66.473,344.514 87.458,356.63 		"/>
		<polygon class="st2" points="108.443,368.745 87.458,380.861 87.458,356.63 108.443,344.514 		"/>
		<polygon class="st6" points="87.458,356.63 66.473,344.514 87.458,332.399 108.443,344.515 		"/>
		<polygon class="st7" points="87.458,356.63 66.473,344.514 66.473,345.565 87.458,357.681 108.443,345.565 108.443,344.514 		"/>
	</g>
	<g>
		<g>
			<path class="st33" d="M249.879,210.048c-14.254-0.165-25.986-7.929-25.88-17.037l-0.044-4.4l51.61,0.904l0.035,4.322
				C275.495,202.944,264.133,210.212,249.879,210.048z"/>
			<path class="st41" d="M249.946,172.725c14.254,0.165,25.724,7.682,25.619,16.79s-11.746,16.358-25.999,16.194
				c-14.254-0.165-25.724-7.682-25.619-16.79C224.052,179.81,235.692,172.56,249.946,172.725z"/>
		</g>
		<g class="st47">
			
				<linearGradient id="SVGID_00000032640686778972382140000015292855819814671232_" gradientUnits="userSpaceOnUse" x1="249.488" y1="308.1814" x2="249.488" y2="464.188" gradientTransform="matrix(1 0 0 -1 0 512)">
				<stop  offset="0" style="stop-color:#FFFFFF"/>
				<stop  offset="0.0528" style="stop-color:#DBD7DD"/>
				<stop  offset="0.1155" style="stop-color:#B8B0BC"/>
				<stop  offset="0.1847" style="stop-color:#988D9E"/>
				<stop  offset="0.2596" style="stop-color:#7E7084"/>
				<stop  offset="0.3423" style="stop-color:#685870"/>
				<stop  offset="0.4358" style="stop-color:#574660"/>
				<stop  offset="0.5467" style="stop-color:#4C3955"/>
				<stop  offset="0.6918" style="stop-color:#45314F"/>
				<stop  offset="1" style="stop-color:#432F4D"/>
			</linearGradient>
			<path style="fill:url(#SVGID_00000032640686778972382140000015292855819814671232_);" d="M249.584,203.816
				c-13.472-0.156-24.559-7.494-24.46-16.102l-0.041-139.902l48.777,0.855l0.033,139.828
				C273.793,197.102,263.055,203.972,249.584,203.816z"/>
		</g>
	</g>
	<g>
		<path class="st7" d="M255.784,122.91c0.047,0.066,0.079,0.11,0.11,0.154c2.943,4.385,5.887,8.77,8.832,13.153
			c0.065,0.096,0.076,0.173,0.023,0.28c-0.621,1.257-1.238,2.516-1.856,3.775c-0.568,1.159-1.137,2.317-1.701,3.478
			c-0.075,0.155-0.186,0.257-0.333,0.34c-0.398,0.227-0.79,0.464-1.186,0.695c-0.356,0.208-0.714,0.413-1.07,0.62
			c-0.304,0.177-0.607,0.357-0.911,0.534c-0.4,0.232-0.802,0.463-1.202,0.695c-0.464,0.269-0.928,0.54-1.392,0.809
			c-0.1,0.058-0.202,0.113-0.3,0.175c-0.087,0.055-0.126-0.006-0.17-0.061c-0.371-0.458-0.744-0.915-1.114-1.375
			c-2.013-2.5-4.025-5.001-6.041-7.499c-0.086-0.106-0.096-0.183-0.03-0.306c2.75-5.097,5.497-10.196,8.244-15.294
			C255.713,123.035,255.741,122.987,255.784,122.91z"/>
		<path class="st7" d="M239.373,128.609c-0.05-0.059-0.084-0.096-0.115-0.135c-2.925-3.633-5.85-7.266-8.775-10.899
			c-0.026-0.033-0.045-0.074-0.076-0.099c-0.388-0.307-0.348-0.737-0.334-1.159c0.007-0.223,0.197-0.282,0.34-0.368
			c0.496-0.299,1-0.583,1.501-0.873c0.377-0.218,0.756-0.433,1.132-0.652c0.384-0.224,0.764-0.454,1.148-0.678
			c0.28-0.164,0.564-0.321,0.844-0.484c0.389-0.226,0.775-0.455,1.164-0.682c0.288-0.168,0.577-0.334,0.865-0.501
			c0.292-0.17,0.585-0.34,0.877-0.51c0.304-0.177,0.608-0.354,0.912-0.532c0.396-0.231,0.79-0.465,1.186-0.695
			c0.385-0.223,0.772-0.441,1.157-0.664c0.365-0.212,0.726-0.428,1.09-0.64c0.392-0.229,0.786-0.455,1.178-0.684
			c0.376-0.22,0.751-0.442,1.126-0.662c0.2-0.117,0.4-0.233,0.598-0.352c0.106-0.064,0.148,0.009,0.197,0.082
			c0.651,0.967,1.302,1.934,1.953,2.901c0.158,0.235,0.311,0.474,0.476,0.704c0.075,0.104,0.079,0.187,0.022,0.304
			c-0.803,1.629-1.6,3.26-2.398,4.891c-1.989,4.063-3.978,8.125-5.967,12.188C239.445,128.468,239.415,128.526,239.373,128.609z"/>
		<path class="st7" d="M265.945,134.03c-0.043-0.063-0.072-0.104-0.1-0.145c-2.921-4.35-5.841-8.701-8.764-13.05
			c-0.075-0.112-0.081-0.195-0.017-0.314c1.503-2.783,3.003-5.568,4.503-8.353c0.062-0.114,0.131-0.225,0.188-0.341
			c0.043-0.087,0.091-0.103,0.175-0.054c0.295,0.174,0.592,0.346,0.888,0.518c0.389,0.225,0.779,0.448,1.167,0.674
			c0.288,0.168,0.573,0.341,0.861,0.509c0.388,0.227,0.778,0.45,1.166,0.676c0.284,0.166,0.567,0.334,0.85,0.5
			c0.299,0.176,0.598,0.353,0.898,0.528c0.372,0.217,0.745,0.433,1.116,0.65c0.132,0.077,0.262,0.158,0.394,0.235
			c0.102,0.059,0.151,0.148,0.153,0.263c0.001,0.093,0,0.186,0,0.279c0,3.364,0.001,6.727-0.004,10.091
			c0,0.143-0.033,0.299-0.095,0.427c-1.1,2.264-2.207,4.525-3.312,6.786C265.997,133.941,265.977,133.972,265.945,134.03z"/>
		<path class="st7" d="M245.842,136.643c-0.048-0.055-0.082-0.091-0.113-0.13c-1.57-1.95-3.139-3.9-4.712-5.849
			c-0.074-0.092-0.087-0.163-0.034-0.272c2.765-5.641,5.527-11.284,8.29-16.926c0.02-0.04,0.044-0.079,0.076-0.136
			c0.038,0.051,0.066,0.085,0.091,0.122c1.618,2.41,3.235,4.82,4.857,7.228c0.075,0.111,0.05,0.189-0.004,0.29
			c-2.27,4.21-4.539,8.421-6.808,12.632c-0.515,0.957-1.031,1.913-1.546,2.87C245.911,136.524,245.882,136.574,245.842,136.643z"/>
		<path class="st7" d="M230.116,120.689c0.123,0.149,0.248,0.296,0.369,0.446c2.564,3.183,5.126,6.368,7.692,9.549
			c0.084,0.105,0.098,0.184,0.037,0.308c-1.57,3.197-3.135,6.396-4.702,9.594c-0.061,0.124-0.127,0.245-0.196,0.377
			c-0.21-0.119-0.407-0.229-0.602-0.342c-0.321-0.185-0.642-0.37-0.961-0.558c-0.375-0.22-0.748-0.443-1.123-0.664
			c-0.116-0.068-0.231-0.138-0.352-0.197c-0.142-0.068-0.207-0.174-0.207-0.331c0.002-0.938,0.003-1.877,0.003-2.815
			c0-5.054,0-10.108,0-15.161c0-0.064,0-0.128,0-0.192C230.088,120.699,230.102,120.694,230.116,120.689z"/>
		<path class="st7" d="M239.837,132.753c0.151,0.187,0.283,0.349,0.413,0.512c1.445,1.794,2.888,3.589,4.336,5.381
			c0.084,0.104,0.089,0.179,0.026,0.295c-1.107,2.046-2.21,4.095-3.313,6.142c-0.053,0.098-0.114,0.192-0.162,0.292
			c-0.044,0.092-0.1,0.093-0.178,0.048c-0.38-0.222-0.76-0.442-1.14-0.664c-0.304-0.177-0.607-0.355-0.911-0.532
			c-0.295-0.173-0.591-0.346-0.886-0.519c-0.284-0.166-0.569-0.33-0.854-0.495c-0.297-0.171-0.595-0.34-0.89-0.513
			c-0.292-0.171-0.576-0.355-0.874-0.513c-0.124-0.066-0.132-0.117-0.075-0.232c0.718-1.463,1.431-2.928,2.147-4.392
			c0.757-1.547,1.515-3.094,2.273-4.641C239.772,132.874,239.799,132.827,239.837,132.753z"/>
		<path class="st7" d="M255.573,118.58c-0.081-0.118-0.144-0.209-0.205-0.301c-1.589-2.368-3.177-4.736-4.771-7.101
			c-0.091-0.136-0.092-0.236-0.022-0.377c0.654-1.324,1.302-2.651,1.952-3.977c0.047-0.096,0.101-0.188,0.144-0.286
			c0.042-0.096,0.089-0.108,0.181-0.053c0.486,0.288,0.976,0.568,1.464,0.853c0.368,0.215,0.733,0.434,1.102,0.646
			c0.309,0.178,0.623,0.347,0.932,0.524c0.373,0.215,0.744,0.434,1.115,0.652c0.308,0.18,0.615,0.359,0.923,0.54
			c0.371,0.218,0.742,0.437,1.113,0.655c0.088,0.052,0.176,0.103,0.265,0.151c0.093,0.05,0.102,0.108,0.051,0.202
			c-0.515,0.952-1.024,1.906-1.537,2.859c-0.869,1.615-1.74,3.23-2.61,4.845C255.644,118.46,255.615,118.506,255.573,118.58z"/>
		<path class="st7" d="M246.215,140.674c2.184,2.713,4.354,5.409,6.536,8.119c-0.2,0.12-0.376,0.228-0.554,0.333
			c-0.483,0.283-0.968,0.565-1.452,0.848c-0.267,0.156-0.527,0.328-0.806,0.461c-0.102,0.049-0.272,0.052-0.369-0.001
			c-0.468-0.254-0.92-0.536-1.38-0.804c-0.464-0.27-0.931-0.535-1.395-0.805c-0.384-0.223-0.765-0.452-1.149-0.676
			c-0.372-0.217-0.746-0.43-1.118-0.647c-0.396-0.231-0.79-0.465-1.185-0.698c-0.008-0.005-0.015-0.011-0.023-0.016
			c-0.308-0.188-0.307-0.188-0.136-0.507c0.98-1.819,1.96-3.638,2.94-5.457C246.15,140.782,246.176,140.74,246.215,140.674z"/>
		<path class="st7" d="M269.424,132.136c-0.001,2.31,0.001,4.621-0.001,6.931c-0.022,0.004-0.044,0.009-0.067,0.013
			c-0.028-0.032-0.06-0.062-0.083-0.098c-0.605-0.897-1.209-1.795-1.815-2.691c-0.049-0.072-0.064-0.134-0.022-0.218
			c0.635-1.287,1.266-2.575,1.899-3.862c0.014-0.028,0.033-0.054,0.049-0.082C269.398,132.132,269.411,132.134,269.424,132.136z"/>
		<path class="st7" d="M249.045,108.86c-0.614-0.915-1.207-1.799-1.81-2.698c0.277-0.162,0.532-0.312,0.786-0.461
			c0.387-0.227,0.774-0.454,1.161-0.682c0.104-0.061,0.203-0.131,0.312-0.182c0.198-0.094,0.39-0.085,0.581,0.038
			c0.194,0.126,0.394,0.243,0.599,0.35c0.098,0.051,0.099,0.097,0.056,0.184c-0.439,0.896-0.875,1.794-1.313,2.691
			C249.301,108.341,249.182,108.582,249.045,108.86z"/>
		<path class="st7" d="M264.616,141.841c0.54-1.105,1.08-2.211,1.632-3.338c0.044,0.059,0.072,0.093,0.097,0.131
			c0.333,0.498,0.662,0.997,0.999,1.492c0.067,0.099,0.054,0.152-0.044,0.208c-0.377,0.216-0.754,0.433-1.129,0.652
			c-0.387,0.226-0.773,0.456-1.16,0.683c-0.118,0.07-0.239,0.136-0.358,0.204C264.64,141.861,264.628,141.851,264.616,141.841z"/>
	</g>
	<g>
		<g>
			<path class="st49" d="M307.321,255.932v11.235l9.496,4.243L307.321,255.932z"/>
			<path class="st7" d="M307.321,255.932l-9.497,15.479l9.497-4.243V255.932z"/>
			<path class="st49" d="M307.321,278.691v7.634l9.503-13.147L307.321,278.691z"/>
			<path class="st7" d="M307.321,286.326v-7.635l-9.497-5.511L307.321,286.326z"/>
			<path class="st50" d="M307.321,276.924l9.496-5.514l-9.496-4.241V276.924z"/>
			<path class="st49" d="M297.824,271.411l9.497,5.514v-9.755L297.824,271.411z"/>
		</g>
	</g>
	<g>
		<path id="binancedex_00000161603950882412732940000011686932863897350820_" class="st51" d="M310.147,153.194v3.284l-2.864,1.683
			l-2.782-1.683v-3.284l2.782,1.683L310.147,153.194z M294.824,141.834l2.782,1.683v5.632l4.791,2.864v3.284l-7.573-4.465V141.834z
			 M319.742,141.834v9.012l-7.655,4.465v-3.284l4.791-2.864v-5.632L319.742,141.834z M312.074,137.368l2.864,1.683l0,0v3.284
			l-4.791,2.864v5.714l-2.782,1.683l-2.769-1.683v-5.727l-4.967-2.864v-3.284l2.864-1.683l4.791,2.864L312.074,137.368z
			 M299.628,144.684l2.782,1.683v3.284l-2.782-1.683V144.684z M314.938,144.684v3.284l-2.782,1.683v-3.284L314.938,144.684z
			 M297.606,134.505l2.864,1.683l-2.864,1.683v3.284l-2.782-1.683v-3.284L297.606,134.505z M316.96,134.505l2.864,1.683v3.284
			l-2.864,1.683v-3.284l-2.782-1.683L316.96,134.505z M307.283,134.505l2.864,1.683l-2.864,1.683l-2.782-1.683L307.283,134.505z
			 M307.283,128.872l7.655,4.465l-2.782,1.683l-4.791-2.864l-4.886,2.864l-2.782-1.683L307.283,128.872z"/>
	</g>
	
		<linearGradient id="SVGID_00000148626476075937781570000010884307776652954242_" gradientUnits="userSpaceOnUse" x1="360.1736" y1="290.5526" x2="381.8945" y2="312.273" gradientTransform="matrix(1 0 0 -1 0 512)">
		<stop  offset="0" style="stop-color:#00AEE9"/>
		<stop  offset="1" style="stop-color:#69FABD"/>
	</linearGradient>
	<path style="fill:url(#SVGID_00000148626476075937781570000010884307776652954242_);" d="M378.025,198.202
		c-2.972-0.001-5.386,2.404-5.394,5.376v5.961c-0.556,0.038-1.124,0.061-1.712,0.061s-1.154,0.024-1.712,0.057v-6.079
		c-0.047-2.978-2.501-5.354-5.481-5.307c-2.911,0.047-5.26,2.396-5.307,5.307v14.247c0.049,2.979,2.501,5.356,5.481,5.307
		c2.911-0.046,5.261-2.394,5.307-5.307v-5.961c0.556-0.038,1.124-0.061,1.712-0.061s1.154-0.024,1.712-0.057v6.079
		c0.049,2.979,2.501,5.356,5.481,5.307c2.911-0.046,5.261-2.394,5.307-5.307v-14.247
		C383.412,200.606,380.999,198.201,378.025,198.202z M366.995,217.826c0.001,1.758-1.424,3.185-3.182,3.185
		c-1.758,0.001-3.183-1.424-3.185-3.182c0,0,0-0.001,0-0.003v-1.429c0-1.262,1-2.458,2.676-3.203c1.182-0.51,2.421-0.872,3.69-1.079
		v5.711H366.995z M366.995,209.891c-1.578,0.229-3.119,0.665-4.583,1.296c-0.633,0.279-1.231,0.635-1.778,1.061v-8.669
		c0.006-1.751,1.425-3.171,3.178-3.174c1.756,0,3.179,1.419,3.183,3.174V209.891z M381.203,217.826
		c-0.004,1.753-1.425,3.172-3.178,3.174c-1.754,0.001-3.178-1.418-3.183-3.174v-6.312c1.578-0.228,3.119-0.664,4.583-1.296
		c0.635-0.278,1.232-0.635,1.778-1.061V217.826z M381.209,203.579v1.429c0,1.257-1,2.453-2.676,3.194
		c-1.181,0.51-2.421,0.872-3.69,1.079v-5.703c0-1.758,1.424-3.183,3.182-3.185c1.758,0,3.185,1.424,3.185,3.182
		C381.209,203.577,381.209,203.579,381.209,203.579z"/>
	<g>
		<g>
			
				<linearGradient id="SVGID_00000125586130741878391070000008967092301429886336_" gradientUnits="userSpaceOnUse" x1="199.9329" y1="380.0773" x2="199.9329" y2="404.7644" gradientTransform="matrix(1 0 0 -1 0 536)">
				<stop  offset="0" style="stop-color:#E10029"/>
				<stop  offset="1" style="stop-color:#FFCE00"/>
			</linearGradient>
			<path style="fill:url(#SVGID_00000125586130741878391070000008967092301429886336_);" d="M193.979,143.517l8.541,8.479
				c4.489-4.761,4.489-12.196,0-16.957"/>
			
				<linearGradient id="SVGID_00000107562843228256591940000000685112364085917335_" gradientUnits="userSpaceOnUse" x1="193.356" y1="380.077" x2="193.356" y2="404.7641" gradientTransform="matrix(1 0 0 -1 0 536)">
				<stop  offset="0" style="stop-color:#E10029"/>
				<stop  offset="1" style="stop-color:#FFCE00"/>
			</linearGradient>
			<path style="fill:url(#SVGID_00000107562843228256591940000000685112364085917335_);" d="M193.356,144.078l-8.416,8.354
				l8.416,3.491l8.416-3.491"/>
			
				<linearGradient id="SVGID_00000151525541813971311220000012015694817729833122_" gradientUnits="userSpaceOnUse" x1="193.761" y1="380.0773" x2="193.761" y2="404.7644" gradientTransform="matrix(1 0 0 -1 0 536)">
				<stop  offset="0" style="stop-color:#E10029"/>
				<stop  offset="1" style="stop-color:#FFCE00"/>
			</linearGradient>
			<path style="fill:url(#SVGID_00000151525541813971311220000012015694817729833122_);" d="M193.044,143.205l8.729-8.666
				l-8.044-3.304l-7.98,19.265L193.044,143.205z"/>
			
				<linearGradient id="SVGID_00000162353591885180998900000007407138009379120057_" gradientUnits="userSpaceOnUse" x1="186.747" y1="380.0773" x2="186.747" y2="404.7644" gradientTransform="matrix(1 0 0 -1 0 536)">
				<stop  offset="0" style="stop-color:#E10029"/>
				<stop  offset="1" style="stop-color:#FFCE00"/>
			</linearGradient>
			<path style="fill:url(#SVGID_00000162353591885180998900000007407138009379120057_);" d="M180.887,143.517
				c-0.006,3.154,1.199,6.189,3.366,8.479l8.354-20.137"/>
		</g>
	</g>
	<g>
		<path class="st57" d="M135.26,207.859c-0.457-0.261-1.044-0.261-1.567,0l-3.655,2.154l-2.48,1.371l-3.59,2.154
			c-0.457,0.261-1.044,0.261-1.567,0l-2.807-1.697c-0.457-0.261-0.783-0.783-0.783-1.371v-3.264c0-0.522,0.261-1.044,0.783-1.371
			l2.807-1.632c0.457-0.261,1.044-0.261,1.567,0l2.807,1.697c0.457,0.261,0.783,0.783,0.783,1.371v2.154l2.48-1.436v-2.219
			c0-0.522-0.261-1.044-0.783-1.371l-5.222-3.068c-0.457-0.261-1.044-0.261-1.567,0l-5.352,3.133
			c-0.522,0.261-0.783,0.783-0.783,1.305v6.136c0,0.522,0.261,1.044,0.783,1.371l5.287,3.068c0.457,0.261,1.044,0.261,1.567,0
			l3.59-2.089l2.48-1.436l3.59-2.089c0.457-0.261,1.044-0.261,1.567,0l2.807,1.632c0.457,0.261,0.783,0.783,0.783,1.371v3.264
			c0,0.522-0.261,1.044-0.783,1.371L135.26,220c-0.457,0.261-1.044,0.261-1.567,0l-2.807-1.632
			c-0.457-0.261-0.783-0.783-0.783-1.371v-2.089l-2.48,1.436v2.154c0,0.522,0.261,1.044,0.783,1.371l5.287,3.068
			c0.457,0.261,1.044,0.261,1.567,0l5.287-3.068c0.457-0.261,0.783-0.783,0.783-1.371v-6.201c0-0.522-0.261-1.044-0.783-1.371
			L135.26,207.859z"/>
	</g>
	<g id="Layer_2_00000066478378714621686290000009013019652986726335_">
		<g id="Layer_1-2_00000103256425461362104480000006739383274968153478_">
			
				<linearGradient id="SVGID_00000150809093332740812360000013957107192187269552_" gradientUnits="userSpaceOnUse" x1="181.133" y1="-1002.2061" x2="206.1323" y2="-1002.2061" gradientTransform="matrix(1 0 0 1 0 1276)">
				<stop  offset="0" style="stop-color:#9D4ABE"/>
				<stop  offset="0.03" style="stop-color:#9055C4"/>
				<stop  offset="0.15" style="stop-color:#6B74D6"/>
				<stop  offset="0.26" style="stop-color:#4C8FE5"/>
				<stop  offset="0.39" style="stop-color:#34A3F0"/>
				<stop  offset="0.52" style="stop-color:#22B2F9"/>
				<stop  offset="0.66" style="stop-color:#18BAFD"/>
				<stop  offset="0.83" style="stop-color:#15BDFF"/>
				<stop  offset="1" style="stop-color:#28BAD5"/>
			</linearGradient>
			<path style="fill:url(#SVGID_00000150809093332740812360000013957107192187269552_);" d="M191.88,284.531l-10.692-21.778
				c-0.174-0.348,0.087-0.759,0.472-0.759h3.705c0.199,0,0.385,0.112,0.472,0.286l7.809,15.8c0.696,1.417,2.71,1.417,3.406,0
				l7.784-15.787c0.087-0.174,0.274-0.286,0.472-0.286h0.46c0.274,0,0.447,0.286,0.324,0.522l-10.805,22.002
				C194.591,285.948,192.576,285.948,191.88,284.531L191.88,284.531z"/>
			<path class="st59" d="M191.88,284.531l-6.042-22.238c-0.088-0.186-0.286-0.286-0.447-0.286h-3.717
				c-0.41,0-0.646,0.41-0.485,0.759L191.88,284.531z"/>
			<path class="st59" d="M193.646,278.091l-12.459-15.338c-0.149-0.36,0.075-0.721,0.422-0.759h3.767
				c0.211,0.012,0.372,0.149,0.447,0.286L193.646,278.091z"/>
		</g>
	</g>
</g>
</svg>
