<svg xmlns="http://www.w3.org/2000/svg" xmlns:xlink="http://www.w3.org/1999/xlink" viewBox="0 0 867.09 439.58"><defs><style>.cls-1,.cls-18,.cls-19,.cls-20,.cls-21,.cls-22{opacity:0.7;}.cls-1{fill:url(#linear-gradient);}.cls-16,.cls-2{fill:#363f4a;}.cls-2{opacity:0.15;}.cls-3{opacity:0.8;}.cls-18,.cls-4{fill:#efd0ff;}.cls-5{fill:url(#linear-gradient-2);}.cls-6{fill:url(#linear-gradient-3);}.cls-19,.cls-7{fill:#00e4a2;}.cls-8{fill:url(#linear-gradient-4);}.cls-9{fill:url(#linear-gradient-5);}.cls-10{fill:url(#linear-gradient-6);}.cls-11{fill:url(#linear-gradient-7);}.cls-12{fill:url(#linear-gradient-8);}.cls-13{fill:url(#linear-gradient-9);}.cls-14{fill:url(#linear-gradient-10);}.cls-15{fill:url(#linear-gradient-11);}.cls-17{opacity:0.7;fill:url(#linear-gradient-12);}.cls-20{fill:url(#linear-gradient-13);}.cls-21{fill:url(#linear-gradient-14);}.cls-22{fill:url(#linear-gradient-15);}</style><linearGradient id="linear-gradient" x1="-258.95" y1="256.96" x2="156.99" y2="294.49" gradientTransform="translate(-30.51 171.09) rotate(-90)" gradientUnits="userSpaceOnUse"><stop offset="0" stop-color="#efd0ff"/><stop offset="0.1" stop-color="#e9d1fd"/><stop offset="0.23" stop-color="#d7d2f6"/><stop offset="0.38" stop-color="#bbd4eb"/><stop offset="0.54" stop-color="#93d8db"/><stop offset="0.72" stop-color="#5fdcc7"/><stop offset="0.91" stop-color="#22e1af"/><stop offset="1" stop-color="#00e4a2"/></linearGradient><linearGradient id="linear-gradient-2" x1="51.89" y1="150.62" x2="199.81" y2="150.62" gradientTransform="translate(185.54 -36.36) rotate(57.58)" gradientUnits="userSpaceOnUse"><stop offset="0" stop-color="#efd0ff"/><stop offset="0.13" stop-color="#ebd0fd"/><stop offset="0.26" stop-color="#dfd1f9"/><stop offset="0.39" stop-color="#cbd3f1"/><stop offset="0.52" stop-color="#afd5e6"/><stop offset="0.65" stop-color="#8bd8d8"/><stop offset="0.78" stop-color="#5edcc7"/><stop offset="0.91" stop-color="#2be0b3"/><stop offset="1" stop-color="#00e4a2"/></linearGradient><linearGradient id="linear-gradient-3" x1="279.98" y1="230.88" x2="385.45" y2="210.38" gradientTransform="translate(514.85 -134.62) rotate(83.59)" xlink:href="#linear-gradient-2"/><linearGradient id="linear-gradient-4" x1="192.03" y1="69.4" x2="198.65" y2="6.4" gradientUnits="userSpaceOnUse"><stop offset="0" stop-color="#00e4a2"/><stop offset="0.11" stop-color="#29e1b2"/><stop offset="0.29" stop-color="#64dcc9"/><stop offset="0.46" stop-color="#96d7dc"/><stop offset="0.62" stop-color="#bdd4eb"/><stop offset="0.77" stop-color="#d8d2f6"/><stop offset="0.9" stop-color="#e9d0fd"/><stop offset="1" stop-color="#efd0ff"/></linearGradient><linearGradient id="linear-gradient-5" x1="405.92" y1="161.82" x2="459.18" y2="146.55" gradientTransform="matrix(1, 0, 0, 1, 0, 0)" xlink:href="#linear-gradient-2"/><linearGradient id="linear-gradient-6" x1="305.79" y1="366.71" x2="321.97" y2="427.09" gradientUnits="userSpaceOnUse"><stop offset="0" stop-color="#efd0ff"/><stop offset="0.18" stop-color="#ecd0fe"/><stop offset="0.32" stop-color="#e3d1fa"/><stop offset="0.44" stop-color="#d2d2f4"/><stop offset="0.55" stop-color="#bcd4eb"/><stop offset="0.66" stop-color="#9ed7e0"/><stop offset="0.76" stop-color="#7adad2"/><stop offset="0.85" stop-color="#4fddc1"/><stop offset="0.95" stop-color="#1fe1ae"/><stop offset="1" stop-color="#00e4a2"/></linearGradient><linearGradient id="linear-gradient-7" x1="37.39" y1="88.4" x2="106.35" y2="125.07" gradientUnits="userSpaceOnUse"><stop offset="0" stop-color="#00e4a2"/><stop offset="0.09" stop-color="#2be0b3"/><stop offset="0.22" stop-color="#5edcc7"/><stop offset="0.35" stop-color="#8bd8d8"/><stop offset="0.48" stop-color="#afd5e6"/><stop offset="0.61" stop-color="#cbd3f1"/><stop offset="0.74" stop-color="#dfd1f9"/><stop offset="0.87" stop-color="#ebd0fd"/><stop offset="1" stop-color="#efd0ff"/></linearGradient><linearGradient id="linear-gradient-8" x1="344.86" y1="107.47" x2="357.78" y2="2.17" gradientUnits="userSpaceOnUse"><stop offset="0" stop-color="#00e4a2"/><stop offset="0.03" stop-color="#0ee3a8"/><stop offset="0.13" stop-color="#42debc"/><stop offset="0.24" stop-color="#71dbce"/><stop offset="0.35" stop-color="#98d7dd"/><stop offset="0.47" stop-color="#b7d5e9"/><stop offset="0.58" stop-color="#d0d3f3"/><stop offset="0.71" stop-color="#e1d1fa"/><stop offset="0.84" stop-color="#ecd0fe"/><stop offset="1" stop-color="#efd0ff"/></linearGradient><linearGradient id="linear-gradient-9" x1="190.37" y1="318.43" x2="146.13" y2="417.79" gradientUnits="userSpaceOnUse"><stop offset="0" stop-color="#00e4a2"/><stop offset="0.27" stop-color="#4fddc1"/><stop offset="0.53" stop-color="#94d8db"/><stop offset="0.75" stop-color="#c5d4ef"/><stop offset="0.91" stop-color="#e4d1fb"/><stop offset="1" stop-color="#efd0ff"/></linearGradient><linearGradient id="linear-gradient-10" x1="380.14" y1="283.56" x2="481.05" y2="356.87" xlink:href="#linear-gradient-7"/><linearGradient id="linear-gradient-11" x1="5.13" y1="284.11" x2="105.41" y2="239.46" gradientUnits="userSpaceOnUse"><stop offset="0" stop-color="#00e4a2"/><stop offset="0" stop-color="#02e4a3"/><stop offset="0.08" stop-color="#34e0b6"/><stop offset="0.15" stop-color="#5fdcc7"/><stop offset="0.24" stop-color="#86d9d6"/><stop offset="0.32" stop-color="#a7d6e3"/><stop offset="0.42" stop-color="#c1d4ed"/><stop offset="0.52" stop-color="#d6d2f5"/><stop offset="0.63" stop-color="#e4d1fb"/><stop offset="0.77" stop-color="#ecd0fe"/><stop offset="1" stop-color="#efd0ff"/></linearGradient><linearGradient id="linear-gradient-12" x1="421.49" y1="-282.78" x2="277.33" y2="-138.62" gradientTransform="matrix(0.17, 0.98, 0.98, -0.17, 904.84, -271.63)" gradientUnits="userSpaceOnUse"><stop offset="0" stop-color="#efd0ff"/><stop offset="0.11" stop-color="#ead0fd"/><stop offset="0.24" stop-color="#dcd2f8"/><stop offset="0.38" stop-color="#c5d3ef"/><stop offset="0.52" stop-color="#a5d6e2"/><stop offset="0.67" stop-color="#7cdad2"/><stop offset="0.82" stop-color="#49debe"/><stop offset="0.97" stop-color="#0ee3a7"/><stop offset="1" stop-color="#00e4a2"/></linearGradient><linearGradient id="linear-gradient-13" x1="810.67" y1="363" x2="698.89" y2="474.78" gradientTransform="matrix(1, 0, 0, 1, 0, 0)" xlink:href="#linear-gradient-12"/><linearGradient id="linear-gradient-14" x1="810.67" y1="316.08" x2="698.89" y2="427.85" gradientTransform="matrix(1, 0, 0, 1, 0, 0)" xlink:href="#linear-gradient-12"/><linearGradient id="linear-gradient-15" x1="810.67" y1="269.15" x2="698.89" y2="380.93" gradientTransform="matrix(1, 0, 0, 1, 0, 0)" xlink:href="#linear-gradient-12"/></defs><g id="Layer_12" data-name="Layer 12"><polygon class="cls-1" points="59.17 112.87 59.17 327.87 245.37 435.37 431.57 327.87 431.57 112.87 245.37 5.37 59.17 112.87"/><polygon class="cls-2" points="71.87 320.54 71.87 120.2 245.37 20.03 418.87 120.2 418.87 320.54 245.37 420.71 71.87 320.54"/></g><g id="Layer_10" data-name="Layer 10" class="cls-3"><rect class="cls-4" x="284.57" y="175.2" width="151.03" height="8" transform="translate(-38.54 125.65) rotate(-18.81)"/><rect class="cls-4" x="83.77" y="239" width="109.64" height="8" transform="translate(-58.04 44.02) rotate(-14.96)"/><rect class="cls-5" x="-5.83" y="146.62" width="263.35" height="8" transform="translate(-68.77 176.12) rotate(-57.58)"/><rect class="cls-6" x="165.86" y="216.63" width="333.7" height="8" transform="translate(76.34 526.65) rotate(-83.59)"/><line class="cls-4" x1="313.29" y1="389.56" x2="268.59" y2="264.42"/><rect class="cls-4" x="286.94" y="260.55" width="8" height="132.89" transform="translate(-93.04 116.93) rotate(-19.66)"/><line class="cls-4" x1="404.6" y1="304.32" x2="316.44" y2="250.4"/><rect class="cls-4" x="356.52" y="225.69" width="8" height="103.34" transform="translate(-64.19 440.22) rotate(-58.55)"/><line class="cls-4" x1="219.76" y1="194.76" x2="94.47" y2="120.2"/><rect class="cls-4" x="153.11" y="84.58" width="8" height="145.79" transform="translate(-58.56 211.97) rotate(-59.24)"/><rect class="cls-7" x="149.99" y="308.73" width="87.69" height="8" transform="translate(-171.66 355.05) rotate(-64.81)"/><rect class="cls-7" x="210.53" y="36.35" width="8" height="126.24" transform="translate(-16.62 49.6) rotate(-12.7)"/></g><g id="Layer_11" data-name="Layer 11"><polygon class="cls-7" points="198.55 6.39 169.66 19.36 166.45 50.87 192.13 69.41 221.02 56.43 224.24 24.93 198.55 6.39"/><path class="cls-8" d="M197.62,15.58l18.19,13.13L213.53,51l-20.46,9.19-18.2-13.13,2.28-22.32,20.47-9.19m.93-9.19-28.89,13-3.21,31.51,25.68,18.54,28.89-13,3.22-31.51L198.55,6.39Z"/><polygon class="cls-4" points="424.35 123.59 401.95 145.99 410.15 176.58 440.75 184.78 463.14 162.38 454.94 131.79 424.35 123.59"/><path class="cls-9" d="M426.74,132.51l21.67,5.81L454.22,160l-15.86,15.86-21.68-5.8-5.8-21.67,15.86-15.87m-2.39-8.92L402,146l8.19,30.59,30.6,8.2,22.39-22.4-8.2-30.59-30.59-8.2Z"/><polygon class="cls-4" points="310.72 365.38 285.01 383.88 288.17 415.4 317.04 428.41 342.75 409.92 339.59 378.4 310.72 365.38"/><path class="cls-10" d="M311.64,374.58l20.45,9.22,2.24,22.32-18.21,13.1L295.67,410l-2.24-22.32,18.21-13.1m-.92-9.2L285,383.88l3.16,31.52,28.87,13,25.72-18.49-3.17-31.52-28.87-13Z"/><polygon class="cls-4" points="93.99 68.43 49.76 68.43 27.64 106.73 49.76 145.04 93.99 145.04 116.1 106.74 93.99 68.43"/><path class="cls-11" d="M54.38,76.43h35l17.49,30.31L89.37,137h-35l-17.5-30.3,17.5-30.31m-4.62-8L27.64,106.74,49.76,145H94l22.11-38.3L94,68.43Z"/><polygon class="cls-7" points="356.7 2.04 308.3 23.77 302.92 76.55 345.94 107.6 394.34 85.87 399.72 33.09 356.7 2.04"/><path class="cls-12" d="M355.76,11.23l35.53,25.64-4.44,43.6-40,17.94L311.35,72.77l4.44-43.59,40-17.95M356.7,2,308.3,23.77l-5.38,52.78,43,31.05,48.4-21.73,5.38-52.78L356.7,2Z"/><polygon class="cls-7" points="162 305.79 111.16 342.37 117.41 404.68 174.5 430.43 225.34 393.85 219.09 331.53 162 305.79"/><path class="cls-13" d="M162.92,315l48.67,21.95,5.33,53.12-43.34,31.18-48.67-21.94-5.33-53.13L162.92,315m-.92-9.19-50.84,36.58,6.25,62.31,57.09,25.75,50.84-36.58-6.25-62.32L162,305.79Z"/><polygon class="cls-7" points="431.42 257.59 376.77 288.19 375.95 350.81 429.77 382.84 484.41 352.24 485.24 289.62 431.42 257.59"/><path class="cls-14" d="M431.3,266.83l45.88,27.3-.71,53.39L429.89,373.6,384,346.3l.7-53.39,46.59-26.08m.12-9.24-54.65,30.6L376,350.81l53.82,32,54.64-30.6.83-62.62-53.82-32Z"/><polygon class="cls-4" points="44.33 205.45 1.01 243.09 11.95 299.43 66.2 318.12 109.53 280.48 98.59 224.15 44.33 205.45"/><path class="cls-15" d="M46.09,214.52,91.61,230.2l9.18,47.27L64.44,309.05,18.92,293.37,9.74,246.1l36.35-31.58m-1.76-9.07L1,243.09,12,299.43l54.26,18.69,43.31-37.64L98.59,224.15l-54.26-18.7Z"/></g><g id="Layer_14" data-name="Layer 14"><path class="cls-16" d="M302.65,251.93a6.61,6.61,0,0,1-.61,1.37c-1.3,2.66-2.62,5.32-3.93,8q-2.92,6-5.84,12c-1,2-2,3.94-2.88,5.95a5.24,5.24,0,0,1-2.42,2.6c-1.46.78-2.87,1.64-4.3,2.47l-6.48,3.77-6.61,3.85L265,294.53c-.69.4-.82.4-1.32-.23l-5.75-7.18q-4.1-5.08-8.21-10.16L244,269.79l-6.52-8.06a3.73,3.73,0,0,0-.45-.58c-.85-.72-.64-1.42-.15-2.28,1.51-2.68,2.92-5.4,4.38-8.1q2.73-5.06,5.47-10.09l3.15-5.88q3.15-5.81,6.29-11.63c1.11-2.07,2.21-4.14,3.32-6.2L265,206.63c1-1.84,2-3.69,3-5.54.27-.49.33-.49.65,0l5.76,8.56c2.06,3.07,4.14,6.14,6.2,9.22q4.5,6.69,9,13.4l10.91,16.26,1.93,2.84A.73.73,0,0,1,302.65,251.93Z"/><path class="cls-16" d="M170.46,176.77c-.37-1.36.49-2.07,1.66-2.73,3.1-1.75,6.15-3.58,9.23-5.37,2.67-1.55,5.35-3.08,8-4.62,1.76-1,3.5-2.06,5.25-3.09,1.53-.9,3.08-1.78,4.61-2.68l6.26-3.65,5.5-3.16c1.38-.81,2.75-1.66,4.13-2.47s2.75-1.58,4.12-2.37l7.26-4.25,1.42-.82a.64.64,0,0,1,1,.23q4.59,6.89,9.22,13.75a1,1,0,0,1,.09,1.17q-2.66,5.35-5.26,10.73-3.63,7.42-7.25,14.84-2.33,4.75-4.67,9.5-2.65,5.41-5.3,10.83l-4.8,9.79q-2.33,4.75-4.64,9.5c-.31.62-.41.62-.85.07l-9.69-12.08-7-8.65q-4.85-6-9.68-12l-6.1-7.58c-.66-.81-1.28-1.65-2-2.41A3,3,0,0,1,170.46,176.77Z"/><path class="cls-16" d="M320.35,195.62c0,6,0,11.94,0,17.9a9.18,9.18,0,0,1-1,4.46c-1.55,3-3,6.07-4.51,9.11q-3.54,7.22-7.07,14.44c-.18.37-.34.74-.51,1.1-.08.15-.1.39-.31.39s-.26-.18-.34-.31l-.66-1-9.08-13.59-9.74-14.49-10.61-15.82c-1.13-1.68-2.26-3.37-3.41-5a1,1,0,0,1-.06-1.16q2.91-5.35,5.78-10.71,3.74-6.91,7.45-13.83c1.54-2.84,3.09-5.67,4.61-8.51.23-.43.46-.52.87-.27l5.17,3,6.39,3.72,5.47,3.21c1.7,1,3.41,2,5.11,3l4.52,2.65q.56.34,1.14.66a1.51,1.51,0,0,1,.78,1.46c0,.3,0,.6,0,.9Z"/><path class="cls-16" d="M230.43,253c-.14-.18-.28-.37-.43-.54-.89-1.12-1.77-2.24-2.67-3.35l-7.8-9.67-5.76-7.18c-.54-.67-1.07-1.35-1.63-2a.9.9,0,0,1-.15-1.14c1.32-2.62,2.61-5.25,3.9-7.88q2.67-5.43,5.33-10.88l5.16-10.55q2.31-4.71,4.61-9.41c1.79-3.67,3.56-7.34,5.35-11,1.64-3.36,3.31-6.71,5-10.07.72-1.47,1.43-3,2.15-4.42,0-.08.08-.16.12-.24.3-.51.32-.53.65,0,1.58,2.34,3.15,4.69,4.72,7l10.06,15c1.24,1.84,2.47,3.69,3.73,5.52a1,1,0,0,1,0,1.21c-1.17,2.12-2.3,4.25-3.45,6.37l-5.58,10.34q-1.63,3-3.25,6.06-2.82,5.24-5.66,10.47c-1.28,2.38-2.55,4.76-3.83,7.13l-5.61,10.38c-1.38,2.56-2.75,5.13-4.12,7.69-.16.3-.32.59-.49.88A.55.55,0,0,1,230.43,253Z"/><path class="cls-16" d="M170.44,227v-34.1c0-.27-.14-.67.13-.79s.42.3.58.5c1.73,2.12,3.43,4.25,5.14,6.38l6.71,8.31,7.89,9.8,5.43,6.76c1.69,2.1,3.37,4.21,5.09,6.29a1.15,1.15,0,0,1,.18,1.45c-2,4-4,8.07-6,12.11l-5.16,10.55-5.1,10.41q-1.08,2.21-2.13,4.43c-.16.32-.34.4-.67.21-1.67-1-3.35-2-5-2.93l-4.39-2.53c-.66-.38-1.32-.76-2-1.16a1.43,1.43,0,0,1-.75-1.26V227Z"/><path class="cls-16" d="M226.21,261.17c-.07.16-.15.35-.25.54l-4.34,8.05q-3.09,5.7-6.17,11.4c-.88,1.63-1.75,3.27-2.62,4.9-.3.57-.39.63-.93.32-1.85-1.07-3.68-2.15-5.52-3.23l-3-1.75L199,278.89l-7.26-4.22c-.37-.22-.72-.46-1.1-.65s-.42-.4-.24-.76c.41-.82.79-1.66,1.19-2.48,1.4-2.85,2.82-5.69,4.21-8.54q2.7-5.49,5.38-11l5-10.26c.41-.84.83-1.68,1.22-2.53.19-.42.38-.37.64-.06q2.85,3.59,5.71,7.14,3.63,4.51,7.27,9,2.46,3,4.91,6.1A.94.94,0,0,1,226.21,261.17Z"/><path class="cls-16" d="M283.94,154a2.78,2.78,0,0,1-.12.26l-4.29,8c-1.09,2-2.18,4.07-3.28,6.1L269.94,180c-.68,1.26-1.34,2.52-2,3.78-.33.63-.41.64-.81,0l-5.43-8.09-6.41-9.52c-2.27-3.38-4.53-6.77-6.82-10.14a1.07,1.07,0,0,1-.09-1.21c1.61-3.24,3.19-6.49,4.78-9.74q1.64-3.35,3.26-6.71c.19-.39.42-.46.79-.24,3.3,1.93,6.6,3.87,9.91,5.78,1.84,1.07,3.72,2.1,5.56,3.17,3.33,1.95,6.65,3.92,10,5.88.34.21.7.4,1,.61A.53.53,0,0,1,283.94,154Z"/><path class="cls-16" d="M245.44,305.68a3.54,3.54,0,0,1-.91-.27c-1.75-1-3.51-2-5.25-3.06L233.53,299c-1.7-1-3.42-2-5.12-3s-3.56-2.08-5.34-3.12l-2.73-1.6c-.65-.39-.69-.47-.34-1.12q2.7-5,5.41-10c1.36-2.51,2.7-5,4.05-7.55.74-1.38,1.49-2.76,2.23-4.15.16-.3.3-.34.53,0l5.14,6.38c2.31,2.87,4.63,5.73,6.93,8.6l6.69,8.33q2.73,3.4,5.47,6.79c.48.59.51.62-.14,1-1.44.88-2.91,1.72-4.37,2.58s-2.75,1.64-4.15,2.42a8.28,8.28,0,0,1-2,1.07Z"/><path class="cls-16" d="M320.35,248.65V261a2.67,2.67,0,0,1-.08.89c-.06.17-.09.37-.29.41s-.3-.15-.4-.29l-1.77-2.64c-1.65-2.46-3.28-4.94-5-7.38a1.38,1.38,0,0,1-.12-1.63c1.79-3.6,3.55-7.22,5.32-10.83.6-1.22,1.18-2.45,1.78-3.66.08-.17.12-.46.34-.42s.17.35.17.55q0,6,0,11.91Z"/><path class="cls-16" d="M245.46,131.74a3.88,3.88,0,0,1,2,.8c.48.25.94.56,1.4.84s.61.4.32,1l-2.7,5.52q-1.71,3.5-3.4,7c-.08.16-.15.36-.33.39s-.3-.2-.4-.35l-6.19-9.23c-.41-.6-.41-.65.21-1,1.45-.86,2.93-1.69,4.39-2.54,1.08-.64,2.16-1.27,3.22-1.93A2.87,2.87,0,0,1,245.46,131.74Z"/><path class="cls-16" d="M312.61,266.54c0,.31-.25.41-.44.51-2.54,1.5-5.08,3-7.65,4.47-.72.41-1.4.88-2.14,1.25-.16.08-.37.24-.53.07s0-.33.1-.48c1.29-2.63,2.58-5.25,3.88-7.88q1-2.07,2-4.13c.24-.49.3-.49.61,0,1.31,1.95,2.62,3.89,3.92,5.84C312.47,266.28,312.54,266.42,312.61,266.54Z"/></g><g id="Layer_13" data-name="Layer 13"><circle class="cls-17" cx="756.24" cy="111.6" r="106.23" transform="translate(142.59 567.43) rotate(-45)"/><circle class="cls-2" cx="756.24" cy="111.6" r="97.29"/><path class="cls-18" d="M853.53,111.6a97.29,97.29,0,0,0-97.29-97.29V208.89A97.29,97.29,0,0,0,853.53,111.6Z"/><path class="cls-19" d="M684.44,45.94a97,97,0,0,1,71.8-31.63V111.6C721.7,80.56,706.69,67.19,684.44,45.94Z"/><rect class="cls-20" x="649.01" y="399.48" width="214.47" height="35.89" rx="4.68"/><rect class="cls-19" x="654.34" y="403.72" width="163.02" height="27.41" rx="5.06" transform="translate(1471.7 834.85) rotate(180)"/><rect class="cls-21" x="649.01" y="352.56" width="214.47" height="35.89" rx="4.68"/><rect class="cls-18" x="653.52" y="356.8" width="98.31" height="27.41" rx="3.93" transform="translate(1405.35 741.01) rotate(180)"/><rect class="cls-22" x="649.01" y="305.63" width="214.47" height="35.89" rx="4.68"/><rect class="cls-19" x="653.52" y="309.88" width="132.95" height="27.41" rx="4.57" transform="translate(1439.99 647.16) rotate(180)"/></g></svg>