<svg xmlns="http://www.w3.org/2000/svg" xmlns:xlink="http://www.w3.org/1999/xlink" viewBox="0 0 980 980"><defs><style>.cls-1{fill:none;}.cls-2{isolation:isolate;}.cls-105,.cls-106,.cls-113,.cls-114,.cls-3,.cls-4{opacity:0.7;}.cls-3{fill:url(#linear-gradient);}.cls-4{fill:url(#linear-gradient-2);}.cls-5{fill:url(#linear-gradient-3);}.cls-6{fill:#363f4a;}.cls-7{fill:url(#linear-gradient-4);}.cls-8{fill:url(#linear-gradient-5);}.cls-9{clip-path:url(#clip-path);}.cls-10{fill:#2d2b44;}.cls-11{fill:#2e2c45;}.cls-12{fill:#2f2d45;}.cls-13{fill:#2f2d46;}.cls-14{fill:#302e47;}.cls-15{fill:#312f47;}.cls-16{fill:#323048;}.cls-17{fill:#323149;}.cls-18{fill:#333149;}.cls-19{fill:#34324a;}.cls-20{fill:#35334b;}.cls-21{fill:#35344b;}.cls-22{fill:#36344c;}.cls-23{fill:#37354d;}.cls-24{fill:#38364e;}.cls-25{fill:#39374e;}.cls-26{fill:#39384f;}.cls-27{fill:#3a3850;}.cls-28{fill:#3b3950;}.cls-29{fill:#3c3a51;}.cls-30{fill:#3c3b52;}.cls-31{fill:#3d3b52;}.cls-32{fill:#3e3c53;}.cls-33{fill:#3f3d54;}.cls-34{fill:#3f3e54;}.cls-35{fill:#403f55;}.cls-36{fill:#413f56;}.cls-37{fill:#424056;}.cls-38{fill:#434157;}.cls-39{fill:#434258;}.cls-40{fill:#444258;}.cls-41{fill:#454359;}.cls-42{fill:#46445a;}.cls-43{fill:#46455b;}.cls-44{fill:#47465b;}.cls-45{fill:#48465c;}.cls-46{fill:#49475d;}.cls-47{fill:#4a485d;}.cls-48{fill:#4a495e;}.cls-49{fill:#4b495f;}.cls-50{fill:#4c4a5f;}.cls-51{fill:#4d4b60;}.cls-52{fill:#4d4c61;}.cls-53{fill:#4e4d61;}.cls-54{fill:#4f4d62;}.cls-55{fill:#504e63;}.cls-56{fill:#504f63;}.cls-57{fill:#515064;}.cls-58{fill:#525065;}.cls-59{fill:#535166;}.cls-60{fill:#545266;}.cls-61{fill:#545367;}.cls-62{fill:#555468;}.cls-63{fill:#565468;}.cls-64{fill:#575569;}.cls-65{fill:#57566a;}.cls-66{fill:#58576a;}.cls-67{fill:#59576b;}.cls-68{fill:#5a586c;}.cls-69{fill:#5a596c;}.cls-70{fill:#5b5a6d;}.cls-71{fill:#5c5a6e;}.cls-72{fill:#5d5b6e;}.cls-73{fill:#5e5c6f;}.cls-74{fill:#5e5d70;}.cls-75{fill:#5f5e71;}.cls-76{fill:#605e71;}.cls-77{fill:#615f72;}.cls-78{fill:#616073;}.cls-79{fill:#626173;}.cls-80{fill:#636174;}.cls-81{fill:#646275;}.cls-82{fill:#646375;}.cls-83{fill:#656476;}.cls-84{fill:#666577;}.cls-85{fill:#676577;}.cls-86{fill:#686678;}.cls-87{fill:#686779;}.cls-88{fill:#696879;}.cls-89{fill:#6a687a;}.cls-90{fill:#2c2a43;}.cls-91{fill:#2b2a43;}.cls-92{fill:#2b2942;}.cls-93{fill:#2a2841;}.cls-94{fill:#292740;}.cls-95{fill:#282640;}.cls-96{fill:#28263f;}.cls-97{fill:#27253e;}.cls-98{fill:#26243e;}.cls-99{fill:#25233d;}.cls-100{fill:#25233c;}.cls-101{fill:#24223c;}.cls-102{fill:#3d3c53;}.cls-103{fill:url(#linear-gradient-6);}.cls-104{fill:#fff;}.cls-105{fill:url(#linear-gradient-7);}.cls-106{fill:url(#linear-gradient-8);}.cls-107{clip-path:url(#clip-path-2);}.cls-108{fill:#e1e1e1;}.cls-109{fill:#23213b;}.cls-110,.cls-120{fill:#00e4a2;}.cls-111{fill:#053651;}.cls-112,.cls-118{opacity:0.5;mix-blend-mode:hard-light;}.cls-112{fill:url(#linear-gradient-9);}.cls-113{fill:url(#linear-gradient-10);}.cls-114{fill:url(#linear-gradient-11);}.cls-115{clip-path:url(#clip-path-3);}.cls-116{fill:#f1f2f2;}.cls-117,.cls-119{fill:#efd0ff;}.cls-118{fill:url(#linear-gradient-12);}.cls-119,.cls-120{opacity:0.75;}</style><linearGradient id="linear-gradient" x1="538.51" y1="757.52" x2="868.26" y2="444.83" gradientTransform="translate(1406.92 1086.01) rotate(180)" gradientUnits="userSpaceOnUse"><stop offset="0" stop-color="#efd0ff"/><stop offset="0.16" stop-color="#ecd0fe"/><stop offset="0.29" stop-color="#e1d1fa"/><stop offset="0.41" stop-color="#d0d3f3"/><stop offset="0.53" stop-color="#b7d5e9"/><stop offset="0.65" stop-color="#97d7dd"/><stop offset="0.76" stop-color="#6fdbcd"/><stop offset="0.87" stop-color="#41dfbb"/><stop offset="0.98" stop-color="#0ce3a7"/><stop offset="1" stop-color="#00e4a2"/></linearGradient><linearGradient id="linear-gradient-2" x1="555.97" y1="678.79" x2="907.87" y2="353.87" gradientUnits="userSpaceOnUse"><stop offset="0" stop-color="#efd0ff"/><stop offset="0.1" stop-color="#e9d1fd"/><stop offset="0.23" stop-color="#d7d2f6"/><stop offset="0.38" stop-color="#bbd4eb"/><stop offset="0.54" stop-color="#93d8db"/><stop offset="0.72" stop-color="#5fdcc7"/><stop offset="0.91" stop-color="#22e1af"/><stop offset="1" stop-color="#00e4a2"/></linearGradient><linearGradient id="linear-gradient-3" x1="649.57" y1="542.71" x2="787.78" y2="542.71" gradientUnits="userSpaceOnUse"><stop offset="0" stop-color="#363f4a"/><stop offset="0.27" stop-color="#797887"/><stop offset="1" stop-color="#363f4a"/></linearGradient><linearGradient id="linear-gradient-4" x1="649.57" y1="601.77" x2="787.78" y2="601.77" xlink:href="#linear-gradient-3"/><linearGradient id="linear-gradient-5" x1="649.57" y1="572.24" x2="787.78" y2="572.24" xlink:href="#linear-gradient-3"/><clipPath id="clip-path"><path class="cls-1" d="M713.4,383.51H724c34.59,0,62.63,30.95,62.63,69.11s-28,69.12-62.63,69.12H713.4c34.58,0,62.62-30.95,62.62-69.12S748,383.51,713.4,383.51Z"/></clipPath><linearGradient id="linear-gradient-6" x1="749.65" y1="383.86" x2="749.65" y2="520.79" gradientUnits="userSpaceOnUse"><stop offset="0" stop-color="#363f4a"/><stop offset="0.31" stop-color="#797887"/><stop offset="0.48" stop-color="#5d606d"/><stop offset="0.66" stop-color="#474e5a"/><stop offset="0.84" stop-color="#3a434e"/><stop offset="1" stop-color="#363f4a"/></linearGradient><linearGradient id="linear-gradient-7" x1="272.36" y1="1203.75" x2="129.43" y2="1346.68" gradientTransform="matrix(-0.8, 0.6, 0.6, 0.8, -407.92, -914.22)" gradientUnits="userSpaceOnUse"><stop offset="0" stop-color="#efd0ff"/><stop offset="0.11" stop-color="#ead0fd"/><stop offset="0.24" stop-color="#dcd2f8"/><stop offset="0.38" stop-color="#c5d3ef"/><stop offset="0.52" stop-color="#a5d6e2"/><stop offset="0.67" stop-color="#7cdad2"/><stop offset="0.82" stop-color="#49debe"/><stop offset="0.97" stop-color="#0ee3a7"/><stop offset="1" stop-color="#00e4a2"/></linearGradient><linearGradient id="linear-gradient-8" x1="266.1" y1="277.54" x2="142.7" y2="154.14" gradientTransform="matrix(-0.64, 0.77, -0.77, -0.64, 494.08, 207.33)" xlink:href="#linear-gradient-7"/><clipPath id="clip-path-2"><circle id="SVGID" class="cls-1" cx="198.68" cy="225.05" r="91.21"/></clipPath><linearGradient id="linear-gradient-9" x1="181.06" y1="327.92" x2="186.54" y2="275.33" gradientUnits="userSpaceOnUse"><stop offset="0.06" stop-color="#363f4a"/><stop offset="0.23" stop-color="#363f4a" stop-opacity="0.93"/><stop offset="0.45" stop-color="#363f4a" stop-opacity="0.72"/><stop offset="0.68" stop-color="#363f4a" stop-opacity="0.37"/><stop offset="0.89" stop-color="#363f4a" stop-opacity="0"/></linearGradient><linearGradient id="linear-gradient-10" x1="263.58" y1="677.92" x2="118.33" y2="823.17" gradientTransform="translate(946.97 565.92) rotate(90)" xlink:href="#linear-gradient-7"/><linearGradient id="linear-gradient-11" x1="252.2" y1="692.66" x2="134.44" y2="810.42" gradientTransform="matrix(0.71, -0.71, -0.71, -0.71, 591.18, 1427.24)" xlink:href="#linear-gradient-7"/><clipPath id="clip-path-3"><circle id="SVGID-2" data-name="SVGID" class="cls-1" cx="198.68" cy="759.12" r="91.21"/></clipPath><linearGradient id="linear-gradient-12" x1="188.15" y1="806.28" x2="173.16" y2="846.3" gradientUnits="userSpaceOnUse"><stop offset="0" stop-color="#363f4a" stop-opacity="0"/><stop offset="0.23" stop-color="#363f4a" stop-opacity="0.37"/><stop offset="0.5" stop-color="#363f4a" stop-opacity="0.72"/><stop offset="0.75" stop-color="#363f4a" stop-opacity="0.93"/><stop offset="0.94" stop-color="#363f4a"/></linearGradient></defs><g class="cls-2"><g id="Layer_1" data-name="Layer 1"><path id="afc9d580-0597-47f8-8d6e-fc257147a8f0" class="cls-3" d="M874.38,310h-342a4.13,4.13,0,0,0-4,4.27V655.73a4.13,4.13,0,0,0,4,4.27h342a4.13,4.13,0,0,0,4-4.27V314.27a4.14,4.14,0,0,0-4-4.27Z"/><path id="e34981b4-331f-4814-b9c1-049fb16dec76" class="cls-4" d="M562.33,690h342a4.13,4.13,0,0,0,4-4.27V344.27a4.13,4.13,0,0,0-4-4.27h-342a4.13,4.13,0,0,0-4,4.27V685.73a4.14,4.14,0,0,0,4,4.27Z"/><path class="cls-5" d="M787.78,549.08s-10.33,4.17-69.46,4.17-68.75-4.17-68.75-4.17V532.16s51.83,4.1,69.1,4.1,69.11-4.1,69.11-4.1Z"/><ellipse class="cls-6" cx="718.67" cy="532.16" rx="69.11" ry="4.8"/><path class="cls-7" d="M787.78,608.15s-10.33,4.17-69.46,4.17-68.75-4.17-68.75-4.17V591.23s51.83,4.1,69.1,4.1,69.11-4.1,69.11-4.1Z"/><ellipse class="cls-6" cx="718.67" cy="591.23" rx="69.11" ry="4.8"/><path class="cls-8" d="M787.78,578.62s-10.33,4.17-69.46,4.17-68.75-4.17-68.75-4.17V561.69s51.83,4.11,69.1,4.11,69.11-4.11,69.11-4.11Z"/><ellipse class="cls-6" cx="718.67" cy="561.69" rx="69.11" ry="4.8"/><g class="cls-2"><g class="cls-2"><g class="cls-9"><g class="cls-2"><path class="cls-10" d="M713.4,383.51h0"/><path class="cls-11" d="M713.68,383.51h10.56l.94,0H714.61l-.93,0"/><path class="cls-12" d="M714.61,383.53h10.57l.92,0H715.54l-.93,0"/><path class="cls-13" d="M715.54,383.55H726.1l.93.05H716.46l-.92-.05"/><path class="cls-14" d="M716.46,383.6H727l.92,0H717.39l-.93,0"/><path class="cls-15" d="M717.39,383.65H728l.92.07H718.31l-.92-.07"/><path class="cls-16" d="M718.31,383.72h10.56l.84.08H719.14l-.83-.08"/><path class="cls-17" d="M719.14,383.8h10.57l.81.09H720l-.81-.09"/><path class="cls-18" d="M720,383.89h10.57l.81.1H720.76l-.81-.1"/><path class="cls-19" d="M720.76,384h10.57l.8.11H721.56l-.8-.11"/><path class="cls-20" d="M721.56,384.1h10.57c.27,0,.53.07.8.12H722.36c-.26-.05-.53-.09-.8-.12"/><path class="cls-21" d="M722.36,384.22h10.57l.8.13H723.16l-.8-.13"/><path class="cls-22" d="M723.16,384.35h10.57l.76.14H723.92l-.76-.14"/><path class="cls-23" d="M723.92,384.49h10.57l.73.14H724.66l-.74-.14"/><path class="cls-24" d="M724.66,384.63h10.56l.73.15H725.38l-.72-.15"/><path class="cls-25" d="M725.38,384.78H736l.72.16H726.11l-.73-.16"/><path class="cls-26" d="M726.11,384.94h10.56l.73.17H726.83l-.72-.17"/><path class="cls-27" d="M726.83,385.11H737.4l.71.18H727.55l-.72-.18"/><path class="cls-28" d="M727.55,385.29h10.56l.72.18H728.26l-.71-.18"/><path class="cls-29" d="M728.26,385.47h10.57l.69.19H729l-.69-.19"/><path class="cls-30" d="M729,385.66h10.57l.68.2H729.63l-.68-.2"/><path class="cls-31" d="M729.63,385.86H740.2l.67.2H730.31l-.68-.2"/><path class="cls-32" d="M730.31,386.06h10.56l.67.21H731l-.67-.21"/><path class="cls-33" d="M731,386.27h10.56l.67.22H731.65l-.67-.22"/><path class="cls-34" d="M731.65,386.49h10.56l.67.23H732.31l-.66-.23"/><path class="cls-35" d="M732.31,386.72h10.57l.66.24H733l-.66-.24"/><path class="cls-36" d="M733,387h10.57l.65.24H733.63L733,387"/><path class="cls-37" d="M733.63,387.2h10.56l.65.25H734.27l-.64-.25"/><path class="cls-38" d="M734.27,387.45h10.57l.64.25H734.91l-.64-.25"/><path class="cls-39" d="M734.91,387.7h10.57l.63.26H735.55l-.64-.26"/><path class="cls-40" d="M735.55,388h10.56l.64.27H736.18l-.63-.27"/><path class="cls-41" d="M736.18,388.23h10.57l.63.28H736.81l-.63-.28"/><path class="cls-42" d="M736.81,388.51h10.57l.63.28H737.44l-.63-.28"/><path class="cls-43" d="M737.44,388.79H748l.63.29H738.07l-.63-.29"/><path class="cls-44" d="M738.07,389.08h10.57l.62.31H738.7l-.63-.31"/><path class="cls-45" d="M738.7,389.39h10.56l.62.3H739.32l-.62-.3"/><path class="cls-46" d="M739.32,389.69h10.56l.62.32H739.94l-.62-.32"/><path class="cls-47" d="M739.94,390H750.5l.62.32H740.55l-.61-.32"/><path class="cls-48" d="M740.55,390.33h10.57l.61.33H741.16l-.61-.33"/><path class="cls-49" d="M741.16,390.66h10.57l.61.34H741.77l-.61-.34"/><path class="cls-50" d="M741.77,391h10.57l.61.35H742.38l-.61-.35"/><path class="cls-51" d="M742.38,391.35H753l.61.36H743l-.62-.36"/><path class="cls-52" d="M743,391.71h10.56c.21.12.42.24.62.37H743.61l-.61-.37"/><path class="cls-53" d="M743.61,392.08h10.57l.61.37H744.23l-.62-.37"/><path class="cls-54" d="M744.23,392.45h10.56l.61.39H744.83l-.6-.39"/><path class="cls-55" d="M744.83,392.84H755.4l.6.39H745.43l-.6-.39"/><path class="cls-56" d="M745.43,393.23H756l.6.4H746l-.6-.4"/><path class="cls-57" d="M746,393.63H756.6l.6.41H746.64l-.61-.41"/><path class="cls-58" d="M746.64,394H757.2l.63.44H747.26l-.62-.44"/><path class="cls-59" d="M747.26,394.48h10.57l.61.44H747.88l-.62-.44"/><path class="cls-60" d="M747.88,394.92h10.56l.62.46H748.49l-.61-.46"/><path class="cls-61" d="M748.49,395.38h10.57l.6.46H749.1l-.61-.46"/><path class="cls-62" d="M749.1,395.84h10.56l.61.46H749.7l-.6-.46"/><path class="cls-63" d="M749.7,396.3h10.57l.59.48H750.3l-.6-.48"/><path class="cls-64" d="M750.3,396.78h10.56l.64.52H750.93l-.63-.52"/><path class="cls-65" d="M750.93,397.3H761.5l.63.53H751.56l-.63-.53"/><path class="cls-66" d="M751.56,397.83h10.57l.63.54H752.19l-.63-.54"/><path class="cls-67" d="M752.19,398.37h10.57l.62.55H752.81c-.2-.19-.41-.37-.62-.55"/><path class="cls-68" d="M752.81,398.92h10.57c.21.18.41.37.61.56H753.43l-.62-.56"/><path class="cls-69" d="M753.43,399.48H764c.21.18.41.37.61.56H754l-.61-.56"/><path class="cls-70" d="M754,400H764.6l.66.63H754.7L754,400"/><path class="cls-71" d="M754.7,400.67h10.56l.66.65H755.36l-.66-.65"/><path class="cls-72" d="M755.36,401.32h10.56l.66.66H756l-.65-.66"/><path class="cls-73" d="M756,402h10.57l.65.68H756.66c-.21-.23-.43-.45-.65-.68"/><path class="cls-74" d="M756.66,402.66h10.57l.63.68H757.3l-.64-.68"/><path class="cls-75" d="M757.3,403.34h10.56c.23.24.45.49.67.73H758l-.66-.73"/><path class="cls-76" d="M758,404.07h10.57l.72.82H758.68l-.72-.82"/><path class="cls-77" d="M758.68,404.89h10.57c.23.27.47.54.7.82H759.38c-.23-.28-.46-.55-.7-.82"/><path class="cls-78" d="M759.38,405.71H770l.69.84H760.08l-.7-.84"/><path class="cls-79" d="M760.08,406.55h10.56l.68.85H760.75l-.67-.85"/><path class="cls-80" d="M760.75,407.4h10.57c.26.33.52.66.77,1H761.52c-.25-.34-.51-.67-.77-1"/><path class="cls-81" d="M761.52,408.4h10.57c.27.35.53.71.79,1.07H762.32c-.27-.36-.53-.72-.8-1.07"/><path class="cls-82" d="M762.32,409.47h10.56c.26.36.52.72.77,1.09H763.09l-.77-1.09"/><path class="cls-83" d="M763.09,410.56h10.56c.26.36.51.73.76,1.1H763.84l-.75-1.1"/><path class="cls-84" d="M763.84,411.66h10.57c.31.48.63,1,.93,1.44H764.78c-.31-.48-.62-1-.94-1.44"/><path class="cls-85" d="M764.78,413.1h10.56c.32.5.63,1,.93,1.51H765.71l-.93-1.51"/><path class="cls-86" d="M765.71,414.61h10.56c.31.51.6,1,.9,1.54H766.6c-.29-.52-.59-1-.89-1.54"/><path class="cls-87" d="M766.6,416.15h10.57c.44.78.86,1.57,1.27,2.37H767.88c-.41-.8-.84-1.59-1.28-2.37"/><path class="cls-88" d="M767.88,418.52h10.56c.45.87.88,1.74,1.29,2.63H769.17c-.42-.89-.85-1.76-1.29-2.63"/><path class="cls-89" d="M769.17,421.15h10.56a73.47,73.47,0,0,1,4.17,11.38H773.33a72.43,72.43,0,0,0-4.16-11.38"/><path class="cls-88" d="M773.33,432.53H783.9c.32,1.18.62,2.38.89,3.58H774.22c-.26-1.2-.56-2.4-.89-3.58"/><path class="cls-87" d="M774.22,436.11h10.57c.15.69.3,1.38.43,2.08H774.65c-.13-.7-.27-1.39-.43-2.08"/><path class="cls-86" d="M774.65,438.19h10.57c.13.69.26,1.39.37,2.09H775c-.12-.7-.24-1.4-.38-2.09"/><path class="cls-85" d="M775,440.28h10.56c.1.61.19,1.22.28,1.83H775.3q-.12-.92-.27-1.83"/><path class="cls-84" d="M775.3,442.11h10.57c.07.5.13,1,.19,1.5H775.5c-.06-.5-.13-1-.2-1.5"/><path class="cls-83" d="M775.5,443.61h10.56c.06.5.11,1,.16,1.51H775.66c0-.5-.11-1-.16-1.51"/><path class="cls-82" d="M775.66,445.12h10.56c0,.51.1,1,.14,1.52H775.79c0-.51-.08-1-.13-1.52"/><path class="cls-81" d="M775.79,446.64h10.57l.09,1.27H775.88l-.09-1.27"/><path class="cls-80" d="M775.88,447.91h10.57l.06,1.21H775.94c0-.41,0-.81-.06-1.21"/><path class="cls-79" d="M775.94,449.12h10.57c0,.4,0,.8,0,1.21H776c0-.41,0-.81,0-1.21"/><path class="cls-78" d="M776,450.33h10.56c0,.4,0,.81,0,1.21H776l0-1.21"/><path class="cls-77" d="M776,451.54h10.56c0,.36,0,.72,0,1.08v.12H776v-1.2"/><path class="cls-76" d="M776,452.74h10.57c0,.35,0,.69,0,1H776c0-.34,0-.68,0-1"/><path class="cls-75" d="M776,453.77h10.57c0,.35,0,.69,0,1H776c0-.34,0-.68,0-1"/><path class="cls-74" d="M776,454.8h10.57c0,.34,0,.68,0,1H776l0-1"/><path class="cls-73" d="M776,455.82h10.56c0,.34,0,.68,0,1H775.91c0-.34,0-.68.05-1"/><path class="cls-72" d="M775.91,456.84h10.56c0,.34,0,.68-.06,1H775.85l.06-1"/><path class="cls-71" d="M775.85,457.86h10.56c0,.31,0,.63-.07.94H775.78c0-.31.05-.63.07-.94"/><path class="cls-70" d="M775.78,458.8h10.56c0,.3-.05.6-.08.9H775.7c0-.3,0-.6.08-.9"/><path class="cls-69" d="M775.7,459.7h10.56c0,.29,0,.59-.08.89H775.61l.09-.89"/><path class="cls-68" d="M775.61,460.59h10.57c0,.29-.07.59-.1.89H775.51c0-.3.07-.6.1-.89"/><path class="cls-67" d="M775.51,461.48h10.57c0,.29-.07.59-.11.88H775.41c0-.29.07-.59.1-.88"/><path class="cls-66" d="M775.41,462.36H786c0,.29-.07.59-.12.88H775.29l.12-.88"/><path class="cls-65" d="M775.29,463.24h10.56l-.12.86H775.16c.05-.29.09-.57.13-.86"/><path class="cls-64" d="M775.16,464.1h10.57c0,.27-.08.53-.13.8H775l.12-.8"/><path class="cls-63" d="M775,464.9H785.6c0,.27-.09.54-.13.81H774.9c.05-.27.09-.54.14-.81"/><path class="cls-62" d="M774.9,465.71h10.57l-.15.8H774.76c0-.27.1-.53.14-.8"/><path class="cls-61" d="M774.76,466.51h10.56c0,.26-.1.53-.15.8H774.61l.15-.8"/><path class="cls-60" d="M774.61,467.31h10.56c0,.26-.1.53-.16.79H774.45c0-.26.11-.53.16-.79"/><path class="cls-59" d="M774.45,468.1H785c0,.26-.11.53-.17.79H774.28c.06-.26.11-.53.17-.79"/><path class="cls-58" d="M774.28,468.89h10.56c-.05.26-.11.51-.17.77H774.11c.06-.26.11-.51.17-.77"/><path class="cls-57" d="M774.11,469.66h10.56c-.06.25-.11.5-.17.75H773.93l.18-.75"/><path class="cls-56" d="M773.93,470.41H784.5c-.06.25-.12.49-.19.74H773.75l.18-.74"/><path class="cls-55" d="M773.75,471.15h10.56c-.06.25-.12.5-.19.74H773.56c.06-.24.12-.49.19-.74"/><path class="cls-54" d="M773.56,471.89h10.56c-.06.25-.13.5-.2.74H773.36c.07-.24.13-.49.2-.74"/><path class="cls-53" d="M773.36,472.63h10.56c-.06.25-.13.49-.2.74H773.15l.21-.74"/><path class="cls-52" d="M773.15,473.37h10.57l-.21.73H772.94l.21-.73"/><path class="cls-51" d="M772.94,474.1h10.57c-.08.24-.15.48-.22.72H772.72c.08-.24.15-.48.22-.72"/><path class="cls-50" d="M772.72,474.82h10.57c-.07.24-.15.48-.22.71H772.5c.08-.23.15-.47.22-.71"/><path class="cls-49" d="M772.5,475.53h10.57c-.08.24-.16.48-.23.71H772.27c.08-.23.16-.47.23-.71"/><path class="cls-48" d="M772.27,476.24h10.57l-.24.71H772l.24-.71"/><path class="cls-47" d="M772,477H782.6l-.24.7H771.79l.24-.7"/><path class="cls-46" d="M771.79,477.65h10.57l-.25.69H771.54c.09-.23.17-.46.25-.69"/><path class="cls-45" d="M771.54,478.34h10.57c-.09.24-.17.47-.26.7H771.29c.08-.23.17-.46.25-.7"/><path class="cls-44" d="M771.29,479h10.56l-.26.69H771l.27-.69"/><path class="cls-43" d="M771,479.73h10.57l-.27.69H770.75l.27-.69"/><path class="cls-42" d="M770.75,480.42h10.57l-.28.69H770.47c.1-.23.19-.46.28-.69"/><path class="cls-41" d="M770.47,481.11H781c-.1.23-.19.46-.29.68H770.19c.09-.22.19-.45.28-.68"/><path class="cls-40" d="M770.19,481.79h10.56c-.09.23-.19.46-.29.68H769.9c.1-.22.19-.45.29-.68"/><path class="cls-39" d="M769.9,482.47h10.56l-.29.68H769.6l.3-.68"/><path class="cls-38" d="M769.6,483.15h10.57c-.11.22-.21.45-.31.67H769.3l.3-.67"/><path class="cls-37" d="M769.3,483.82h10.56l-.31.67H769c.11-.22.21-.45.32-.67"/><path class="cls-36" d="M769,484.49h10.57l-.33.68H768.66c.11-.22.22-.45.32-.68"/><path class="cls-35" d="M768.66,485.17h10.56l-.33.68H768.32c.12-.22.23-.45.34-.68"/><path class="cls-34" d="M768.32,485.85h10.57l-.34.68H768l.34-.68"/><path class="cls-33" d="M768,486.53h10.57l-.35.67H767.64c.11-.23.23-.45.34-.67"/><path class="cls-32" d="M767.64,487.2H778.2l-.35.66H767.28l.36-.66"/><path class="cls-31" d="M767.28,487.86h10.57l-.36.66H766.92l.36-.66"/><path class="cls-30" d="M766.92,488.52h10.57l-.37.67H766.55c.13-.22.25-.44.37-.67"/><path class="cls-29" d="M766.55,489.19h10.57l-.4.69H766.16l.39-.69"/><path class="cls-28" d="M766.16,489.88h10.56l-.4.68H765.75c.14-.23.27-.46.41-.68"/><path class="cls-27" d="M765.75,490.56h10.57l-.41.67H765.35l.4-.67"/><path class="cls-26" d="M765.35,491.23h10.56l-.41.67H764.93l.42-.67"/><path class="cls-25" d="M764.93,491.9H775.5c-.14.23-.28.45-.43.67H764.51l.42-.67"/><path class="cls-24" d="M764.51,492.57h10.56c-.14.22-.28.44-.43.66H764.08l.43-.66"/><path class="cls-23" d="M764.08,493.23h10.56c-.15.23-.3.46-.46.69H763.62l.46-.69"/><path class="cls-22" d="M763.62,493.92h10.56l-.48.7H763.14l.48-.7"/><path class="cls-21" d="M763.14,494.62H773.7c-.16.23-.32.47-.49.7H762.65l.49-.7"/><path class="cls-20" d="M762.65,495.32h10.56l-.49.68H762.15c.17-.22.33-.45.5-.68"/><path class="cls-19" d="M762.15,496h10.57l-.51.68H761.65c.17-.22.34-.45.5-.68"/><path class="cls-18" d="M761.65,496.68h10.56l-.51.68H761.14l.51-.68"/><path class="cls-17" d="M761.14,497.36H771.7c-.18.24-.37.47-.56.71H760.58l.56-.71"/><path class="cls-16" d="M760.58,498.07h10.56c-.19.25-.39.49-.58.73H760l.59-.73"/><path class="cls-15" d="M760,498.8h10.57l-.6.73H759.39l.6-.73"/><path class="cls-14" d="M759.39,499.53H770l-.61.71H758.79l.6-.71"/><path class="cls-13" d="M758.79,500.24h10.56c-.2.24-.41.47-.62.71H758.17l.62-.71"/><path class="cls-12" d="M758.17,501h10.56c-.21.24-.42.48-.64.71H757.52c.22-.23.44-.47.65-.71"/><path class="cls-11" d="M757.52,501.66h10.57c-.24.27-.49.53-.74.8H756.79l.73-.8"/><path class="cls-10" d="M756.79,502.46h10.56l-.74.78H756l.75-.78"/><path class="cls-90" d="M756,503.24h10.57l-.76.76H755.28l.76-.76"/><path class="cls-91" d="M755.28,504h10.57l-.77.75H754.52l.76-.75"/><path class="cls-92" d="M754.52,504.75h10.56l-.87.83H753.64l.88-.83"/><path class="cls-93" d="M753.64,505.58h10.57l-1,.87H752.68l1-.87"/><path class="cls-94" d="M752.68,506.45h10.56l-1,.86H751.69l1-.86"/><path class="cls-95" d="M751.69,507.31h10.57l-1,.84H750.7l1-.84"/><path class="cls-96" d="M750.7,508.15h10.56c-.41.33-.82.66-1.24,1H749.46l1.24-1"/><path class="cls-97" d="M749.46,509.13H760c-.45.35-.9.7-1.36,1H748.09l1.37-1"/><path class="cls-98" d="M748.09,510.17h10.57c-.46.33-.92.67-1.39,1H746.7c.47-.32.93-.66,1.39-1"/><path class="cls-99" d="M746.7,511.16h10.57c-.66.46-1.33.9-2,1.33H744.7c.68-.43,1.35-.87,2-1.33"/><path class="cls-100" d="M744.7,512.49h10.57c-.73.47-1.47.92-2.23,1.36H742.48c.75-.44,1.49-.89,2.22-1.36"/><path class="cls-101" d="M742.48,513.85H753A57.79,57.79,0,0,1,724,521.74H713.4a57.82,57.82,0,0,0,29.08-7.89"/></g></g></g><path class="cls-102" d="M713.4,383.51c34.58,0,62.62,30.95,62.62,69.11s-28,69.12-62.62,69.12-62.64-30.95-62.64-69.12S678.8,383.51,713.4,383.51Z"/></g><path class="cls-103" d="M711.61,521.74s6.52.31,16.69-.16c28.19-1.31,59.48-29.79,59.48-68s-28.22-67.93-61.08-70.2a95.37,95.37,0,0,0-15.19.16Z"/><path class="cls-6" d="M776.23,452.74c0,38.23-24.76,69.44-66.33,69-28.21-.3-59.48-29.79-59.48-68s27.6-70.2,61.09-70.2C748.13,383.52,776.23,414.51,776.23,452.74Z"/><path class="cls-104" d="M734.74,467.35a2.82,2.82,0,0,1-.23.61c-.48,1.19-1,2.38-1.46,3.57l-2.19,5.37c-.36.89-.74,1.76-1.08,2.66a2.19,2.19,0,0,1-.9,1.17c-.55.35-1.07.73-1.61,1.11l-2.42,1.68c-.83.57-1.65,1.15-2.47,1.73l-1.71,1.17c-.26.18-.31.18-.5-.1L718,483.11,715,478.56l-2.15-3.22-2.43-3.61c-.06-.08-.11-.19-.17-.26-.32-.32-.24-.63-.06-1,.56-1.19,1.09-2.41,1.64-3.62l2-4.52c.4-.88.79-1.75,1.18-2.63.78-1.74,1.57-3.47,2.35-5.21.42-.93.83-1.85,1.24-2.78q1-2.31,2.09-4.62c.37-.83.74-1.66,1.12-2.49.1-.22.12-.22.24,0,.72,1.28,1.44,2.56,2.15,3.84s1.55,2.75,2.32,4.12l3.36,6,4.08,7.28.72,1.28A.34.34,0,0,1,734.74,467.35Z"/><path class="cls-104" d="M685.32,433.69a1.07,1.07,0,0,1,.62-1.22c1.16-.78,2.3-1.6,3.45-2.41l3-2.06,2-1.39,1.73-1.2,2.33-1.63c.69-.48,1.38-.94,2.06-1.42l1.55-1.1,1.54-1.06,2.71-1.9.53-.38c.15-.1.27-.07.37.11l3.45,6.16a.51.51,0,0,1,0,.52c-.66,1.6-1.31,3.2-2,4.81l-2.7,6.64c-.58,1.42-1.17,2.83-1.75,4.25l-2,4.85q-.9,2.19-1.79,4.39l-1.74,4.25c-.12.28-.15.28-.32,0l-3.62-5.41-2.6-3.87-3.62-5.38c-.76-1.13-1.52-2.27-2.29-3.4-.24-.36-.47-.73-.74-1.07A1.57,1.57,0,0,1,685.32,433.69Z"/><path class="cls-104" d="M741.36,442.13c0,2.68,0,5.35,0,8a5,5,0,0,1-.38,2c-.58,1.34-1.13,2.71-1.69,4.07l-2.64,6.47c-.07.17-.13.33-.19.5s0,.17-.12.17-.09-.08-.13-.14l-.24-.43q-1.69-3-3.4-6.09l-3.64-6.49-4-7.08c-.43-.75-.85-1.51-1.28-2.25a.51.51,0,0,1,0-.52l2.16-4.79,2.79-6.2,1.72-3.81c.09-.19.17-.23.33-.12l1.92,1.35,2.4,1.67,2,1.43,1.91,1.34,1.69,1.18.43.3a.72.72,0,0,1,.29.65v8.77Z"/><path class="cls-104" d="M707.74,467.83l-.16-.24-1-1.5-2.91-4.33-2.16-3.21-.61-.9a.45.45,0,0,1,0-.51c.49-1.17,1-2.35,1.45-3.52l2-4.88c.64-1.57,1.28-3.15,1.93-4.72.57-1.41,1.15-2.81,1.72-4.22l2-4.92c.61-1.5,1.24-3,1.85-4.5l.81-2,0-.1c.11-.23.12-.24.25,0,.59,1,1.17,2.09,1.76,3.14l3.76,6.71c.46.83.93,1.65,1.4,2.47a.52.52,0,0,1,0,.54L718.54,444c-.69,1.54-1.39,3.08-2.08,4.63-.41.9-.81,1.81-1.22,2.71L713.13,456l-1.44,3.19q-1.05,2.32-2.09,4.65l-1.55,3.45c0,.13-.12.26-.18.39A.2.2,0,0,1,707.74,467.83Z"/><path class="cls-104" d="M685.31,456.18V440.91c0-.13,0-.3.05-.36s.16.14.22.23l1.92,2.85c.83,1.25,1.67,2.48,2.51,3.73l3,4.38,2,3c.63.94,1.26,1.88,1.9,2.81a.61.61,0,0,1,.07.66c-.76,1.8-1.49,3.61-2.23,5.42-.65,1.57-1.29,3.15-1.93,4.72s-1.27,3.11-1.91,4.66c-.27.66-.53,1.32-.8,2-.06.14-.12.18-.25.09L688,473.81l-1.65-1.14c-.24-.17-.49-.33-.73-.51a.72.72,0,0,1-.28-.57V456.18Z"/><path class="cls-104" d="M706.16,471.48a2,2,0,0,1-.09.25l-1.62,3.6-2.31,5.11-1,2.19c-.11.26-.14.28-.35.14-.69-.47-1.37-1-2.06-1.44l-1.13-.79L696,479.42l-2.72-1.89-.41-.29a.23.23,0,0,1-.09-.34l.45-1.11c.52-1.28,1-2.55,1.57-3.83l2-4.91c.63-1.53,1.25-3.07,1.88-4.6.15-.37.31-.75.45-1.13.08-.19.15-.17.24,0l2.14,3.19c.9,1.35,1.81,2.69,2.72,4l1.83,2.73A.44.44,0,0,1,706.16,471.48Z"/><path class="cls-104" d="M727.75,423.5s0,.08,0,.12l-1.6,3.57-1.23,2.73c-.78,1.74-1.57,3.49-2.36,5.23l-.75,1.7c-.12.28-.15.28-.3,0-.68-1.2-1.35-2.41-2-3.62L717,429c-.85-1.52-1.69-3-2.55-4.54a.55.55,0,0,1,0-.54c.6-1.45,1.19-2.91,1.78-4.36.41-1,.82-2,1.22-3,.07-.18.16-.21.3-.11l3.7,2.59,2.08,1.42c1.25.87,2.49,1.76,3.73,2.63.13.1.27.18.39.28A.24.24,0,0,1,727.75,423.5Z"/><path class="cls-104" d="M713.35,491.41a.87.87,0,0,1-.34-.12l-2-1.37-2.15-1.51L707,487.09l-2-1.4-1-.72c-.25-.17-.26-.21-.13-.5.67-1.49,1.35-3,2-4.48.51-1.12,1-2.25,1.52-3.38l.83-1.85c.06-.14.11-.16.2,0l1.92,2.85,2.59,3.85,2.5,3.73c.68,1,1.37,2,2.05,3,.18.27.19.28-.05.46-.54.39-1.09.77-1.64,1.15s-1,.74-1.55,1.09a3,3,0,0,1-.76.48Z"/><path class="cls-104" d="M741.36,465.88v5.52a1.33,1.33,0,0,1,0,.4c0,.08,0,.17-.11.18s-.11-.06-.15-.12l-.66-1.19c-.62-1.1-1.23-2.21-1.86-3.3a.73.73,0,0,1,0-.73q1-2.42,2-4.85c.22-.55.44-1.09.67-1.64,0-.07,0-.21.12-.19s.07.16.07.25v5.67Z"/><path class="cls-104" d="M713.36,413.53c.29,0,.5.21.74.36s.35.25.53.37.22.18.11.45c-.33.82-.67,1.64-1,2.47l-1.27,3.13c0,.07-.05.16-.12.18s-.11-.1-.15-.17l-2.32-4.13c-.15-.26-.15-.29.08-.45l1.65-1.14,1.2-.86A.93.93,0,0,1,713.36,413.53Z"/><path class="cls-104" d="M738.47,473.89c0,.14-.1.18-.17.23-.95.67-1.9,1.35-2.86,2-.27.18-.52.4-.8.56-.06,0-.14.11-.2,0s0-.15,0-.21c.48-1.18,1-2.36,1.45-3.53.25-.62.5-1.24.76-1.85.09-.22.11-.22.22,0l1.47,2.61Z"/><circle class="cls-105" cx="198.68" cy="225.05" r="107.03"/><circle class="cls-106" cx="198.68" cy="225.05" r="91.21"/><g class="cls-107"><path class="cls-108" d="M215.68,200.81s19,5.52,15.54,30.78c-3.15,22.89-17.89,19.73-17.89,19.73L212,266.15s-10.25,16.53-17-2.86c.72-5.34.91-16.23.91-16.23l3.37-43.58Z"/><path class="cls-109" d="M207.9,218.1c-17.94,6.82-3.32,36.37-13,36.38-7.21,0-30-37.39,4.58-53.06,8.38-3.79,25-4.52,29.39,2.28C243.2,225.87,215,215.41,207.9,218.1Z"/><path class="cls-110" d="M177.17,305.3c.69-5.49,13.54-37.67,17.81-42,4.61,4.25,12.19,4.33,17,2.86.1,0,12.33,55.25,12.34,55.39a105.51,105.51,0,0,1-49.65,3.59Z"/><path class="cls-111" d="M233.41,316.37c-1.42-8.82-10.36-42.95-10.36-42.95s-8.67-5.56-11.09-7.27c-1.31,7.49-1.14,14.13-3.31,21.17-.21-.53-13.67-24-13.67-24-5.27,2.18-16.26,4.32-21.69,7.1l-9.35,49.52c7.1,3.37,2.46-.74,10.13,1l27.41,6.63C221.47,331.93,232.09,317,233.41,316.37Z"/><path class="cls-112" d="M173.29,270.39s10.05,2.57,12.08,8.06c3.13,8.43-.18,37.81-.18,37.81l12.86,13-32.27-19.12Z"/></g><circle class="cls-113" cx="198.68" cy="759.12" r="107.03" transform="translate(-478.59 362.83) rotate(-45)"/><circle class="cls-114" cx="198.68" cy="759.12" r="91.21"/><g class="cls-115"><path class="cls-109" d="M225.2,754.42c-2.44-7.78-8-14.91-15.66-17.54s-18.92,1.38-24.69,7.13c-10.55,10.51-13.12,46.65-5.87,58.06,1.44-.07,6.41-.13,7.87-.18l2.07-6.89v6.82c11.39-.35,23.25-.13,35.12.1C225.1,793.83,227.64,762.2,225.2,754.42Z"/><path class="cls-116" d="M227.66,766.55c-1,17.78-11.57,18.57-11.57,18.57l-.3,7.17s-10.32,8.07-12.66-5.31c-.09-6,1.51-27.11,1.51-27.11l16.26-8.31S228.27,755.91,227.66,766.55Z"/><path class="cls-109" d="M220.64,741.68a20.67,20.67,0,0,0-31.43,18c9,2.29,38.44,2.73,41.32.54A21.1,21.1,0,0,0,220.64,741.68Z"/><path class="cls-117" d="M183.41,829.68c.7-5.48,15.45-38.36,19.72-42.7,4.61,4.26,7.87,6.78,12.66,5.31.1,0,14.74,53.5,14.75,53.63a105.38,105.38,0,0,1-49.65,3.59Z"/><path class="cls-111" d="M232.21,844.05c-1.42-8.82-5.15-44-5.15-44s-8.85-6.06-11.27-7.77c-1.31,7.49-3.42,28.22-5.59,35.26-.21-.52-6.88-40.08-7.07-40.57-5.21.49-19.49,4.65-24.92,7.43L169.58,847c7.09,3.37-1.77-.21,5.9,1.48l27.42,6.63C222.89,859.53,230.89,844.63,232.21,844.05Z"/><path class="cls-118" d="M178.21,794.41a9.73,9.73,0,0,1,7.45,6.17c3.13,8.43.38,49.75.38,49.75l-8,.65-8.43-4.74Z"/></g><path class="cls-119" d="M329.59,766.62a7.5,7.5,0,0,1,0-15c28.58,0,48.63-6.24,61.29-19.07,20.36-20.63,19.88-56.09,19.38-93.62-.51-38.33-1-78,23-102.29,14.87-15.08,37.13-22.4,68-22.4a7.5,7.5,0,0,1,0,15c-26.68,0-45.44,5.86-57.35,17.93-19.6,19.86-19.13,54.69-18.64,91.56.52,39,1.06,79.26-23.7,104.35C385.93,758.92,362.39,766.62,329.59,766.62Z"/><path class="cls-120" d="M501.25,491.87c-41.79,0-68.6-14.72-82-45-11.37-25.76-11.37-59.52-11.37-92.17,0-65.55,0-122.16-78.33-122.16a7.5,7.5,0,0,1,0-15c41.79,0,68.6,14.72,82,45,11.37,25.76,11.37,59.52,11.37,92.17,0,31.09,0,63.25,10.09,86.11,10.86,24.59,32.54,36.05,68.24,36.05a7.5,7.5,0,0,1,0,15Z"/></g></g></svg>