<svg xmlns="http://www.w3.org/2000/svg" xmlns:xlink="http://www.w3.org/1999/xlink" viewBox="0 0 1000 1000"><defs><style>.cls-1{isolation:isolate;}.cls-2{opacity:0.15;fill:url(#radial-gradient);}.cls-3{opacity:0.49;fill:url(#linear-gradient);}.cls-4{fill:#e1e1e1;}.cls-5{fill:#00e4a2;}.cls-6{fill:#efd0ff;}.cls-7{fill:#053651;}.cls-10,.cls-12,.cls-8,.cls-9{opacity:0.5;mix-blend-mode:hard-light;}.cls-8{fill:url(#linear-gradient-2);}.cls-9{fill:url(#linear-gradient-3);}.cls-10{fill:url(#linear-gradient-4);}.cls-11{fill:#363f4a;}.cls-12{fill:url(#linear-gradient-5);}.cls-13{fill:#23213b;}.cls-14{fill:#fff;}</style><radialGradient id="radial-gradient" cx="388.15" cy="382.48" r="376.29" gradientUnits="userSpaceOnUse"><stop offset="0.41" stop-color="#efd0ff"/><stop offset="0.46" stop-color="#f0d2ff" stop-opacity="0.95"/><stop offset="0.56" stop-color="#f2d9ff" stop-opacity="0.81"/><stop offset="0.7" stop-color="#f6e3ff" stop-opacity="0.59"/><stop offset="0.86" stop-color="#faf2ff" stop-opacity="0.28"/><stop offset="1" stop-color="#fff" stop-opacity="0"/></radialGradient><linearGradient id="linear-gradient" x1="884.14" y1="1380.97" x2="772.16" y2="1604.15" gradientTransform="scale(1 0.64)" gradientUnits="userSpaceOnUse"><stop offset="0.1" stop-color="#fff" stop-opacity="0"/><stop offset="0.63" stop-color="#00e4a2" stop-opacity="0.39"/></linearGradient><linearGradient id="linear-gradient-2" x1="832.53" y1="700.43" x2="878.79" y2="690.66" gradientUnits="userSpaceOnUse"><stop offset="0" stop-color="#363f4a"/><stop offset="0.16" stop-color="#363f4a" stop-opacity="0.93"/><stop offset="0.36" stop-color="#363f4a" stop-opacity="0.72"/><stop offset="0.59" stop-color="#363f4a" stop-opacity="0.37"/><stop offset="0.78" stop-color="#363f4a" stop-opacity="0"/></linearGradient><linearGradient id="linear-gradient-3" x1="616.4" y1="692.49" x2="679.36" y2="687.02" gradientTransform="translate(123.58)" gradientUnits="userSpaceOnUse"><stop offset="0" stop-color="#363f4a" stop-opacity="0"/><stop offset="0.23" stop-color="#363f4a" stop-opacity="0.37"/><stop offset="0.5" stop-color="#363f4a" stop-opacity="0.72"/><stop offset="0.75" stop-color="#363f4a" stop-opacity="0.93"/><stop offset="0.94" stop-color="#363f4a"/></linearGradient><linearGradient id="linear-gradient-4" x1="55.83" y1="990.93" x2="128.58" y2="984.62" gradientTransform="matrix(0.13, -0.99, 0.99, 0.13, -107.92, 667.75)" xlink:href="#linear-gradient-3"/><linearGradient id="linear-gradient-5" x1="-343.56" y1="913.77" x2="-345.16" y2="824.31" gradientTransform="matrix(-1, 0, 0, 1, 482.95, 0)" xlink:href="#linear-gradient-3"/></defs><g class="cls-1"><g id="Layer_6" data-name="Layer 6"><circle class="cls-2" cx="388.15" cy="382.48" r="376.29"/></g><g id="Layer_5" data-name="Layer 5"><ellipse class="cls-3" cx="846.14" cy="932.47" rx="119.99" ry="47.64"/></g><g id="Layer_2" data-name="Layer 2"><path class="cls-4" d="M884.56,916.49l2,13.18a1.82,1.82,0,0,1-1.68,2.29l-35.33.51a1,1,0,0,1-.71-1.72c5.47-4.44,18.19-13.16,20.08-14.31C871.44,916.74,884.56,916.49,884.56,916.49Z"/><path class="cls-4" d="M824.42,916.49l1.94,13.18a1.81,1.81,0,0,1-1.67,2.29l-35.33.51a1,1,0,0,1-.71-1.72c5.47-4.44,18.19-13.16,20.08-14.31C811.3,916.74,824.42,916.49,824.42,916.49Z"/><polygon class="cls-5" points="872.3 729.49 803.3 732.49 798.75 836.2 808.39 916.65 824.42 916.65 824.49 843.13 838.3 786.49 845.89 843.7 868.73 916.52 884.58 916.65 869.75 841.23 872.3 729.49"/><path class="cls-6" d="M828,624.77l20.89-2.6,19.44,128.14s-43.4,25.1-63.53,1.31Z"/><path class="cls-7" d="M848.87,622.17l36.43,8.32s-24,84.34,4,128.34c0,0-32.19,35-47.19-48C842.11,710.88,832.87,649.17,848.87,622.17Z"/><path class="cls-8" d="M848.87,622.17l36.43,8.32s-24,84.34,4,128.34c0,0-32.19,35-47.19-48C842.11,710.88,832.87,649.17,848.87,622.17Z"/><path class="cls-4" d="M867.16,771.94c-1.51.43-5,1-3.84-4,.6-2.65,4.82-11.52,9.13-21.48,1.48-3.43,11.38,3.32,11.38,3.32S873.74,770,867.16,771.94Z"/><polygon class="cls-7" points="876.3 631.49 885.3 630.49 908.3 705.49 880 757.49 869.75 752.55 887.3 703.49 871.3 657.49 876.3 631.49"/><path class="cls-4" d="M713.4,674.9c-1.36.78-4.17,2.87.24,5.56,2.32,1.41,11.63,4.54,21.79,8.36,3.5,1.32,5.62-11.06,5.62-11.06S719.34,671.48,713.4,674.9Z"/><path class="cls-7" d="M828,624.77s-8.24,39.31-9.18,53.14c-1.55,22.79.91,83.5-13.77,91.73-4.49,2.52-18.13-4.24-18.13-4.24l14.71-62.1-2.75-25.21L774,705l-44.1-18.26,2.61-11.05,35,3.66,30.78-45.43Z"/><polygon class="cls-9" points="798.86 678.09 773.98 704.96 729.88 686.7 773.87 698.39 797.75 672.05 798.86 678.09"/><polygon class="cls-10" points="895.18 701.56 869.75 752.55 887.3 703.49 876.52 672.51 895.18 701.56"/><path class="cls-4" d="M828,624.77s.91-4.64.66-6.16c-.22-1.36-.78-3.2-2.06-3.94-8.39-.64-17.78-24-2.85-37.37,16-11.06,26.55,7.09,26.55,7.09l-1.41,37.78a23.29,23.29,0,0,1-11.69,4.49A19.28,19.28,0,0,1,828,624.77Z"/><path class="cls-11" d="M844.19,590c-8.33-10.6-27.16.9-31.2-8.33-5.81-13.28,13.86-21.86,29.68-16.8,6.64,1.73,12.1,5.54,15.29,11.62,5.56,10.61,2.22,31.18-9.63,31.21C845.32,607.7,848.36,595.3,844.19,590Z"/><polygon class="cls-12" points="835.62 777.86 818.33 839.54 824.42 916.65 824.49 843.13 838.3 786.49 835.62 777.86"/></g><g id="Layer_3" data-name="Layer 3"><path class="cls-13" d="M541.25,249.08c74.54,74.54,64.5,197.9-3.1,273.59C469,600.15,347.89,617.19,265.63,534.94c-69.18-69.18-62.81-192.36,4.05-269.39S453.34,166.08,541.25,249.08Z"/><path class="cls-11" d="M519.53,236.92c69.18,69.19,61.73,208.47-5.06,275.26-69.18,69.18-184.54,96-267.12,13.41-69.18-69.18-68.21-193.5-1.35-270.53S436.7,154.1,519.53,236.92Z"/><path class="cls-14" d="M437.12,434a10.59,10.59,0,0,1-1,1.83c-2.07,3.53-4.17,7-6.25,10.56l-9.24,15.77c-1.52,2.59-3.12,5.13-4.55,7.77a7.15,7.15,0,0,1-3.39,3.25c-1.92.9-3.79,1.92-5.68,2.88l-8.48,4.34-8.59,4.41c-2,1-3.93,2-5.88,3-.9.45-1,.43-1.54-.46-1.9-3.4-3.78-6.81-5.67-10.19q-4-7.19-8-14.3c-1.87-3.34-3.71-6.68-5.57-10L357,441.72a5.12,5.12,0,0,0-.44-.8c-.86-1-.5-1.9.19-3,2.16-3.37,4.22-6.84,6.34-10.27l7.94-12.9c1.55-2.51,3.08-5,4.63-7.56q4.62-7.51,9.27-15.07c1.65-2.68,3.29-5.39,4.94-8.09q4.15-6.76,8.34-13.56c1.5-2.43,3-4.88,4.5-7.32.4-.65.48-.64.79,0q2.79,5.83,5.6,11.71l6.08,12.71,8.88,18.67L435,429.2c.65,1.36,1.31,2.7,2,4.05A1,1,0,0,1,437.12,434Z"/><path class="cls-14" d="M295.85,329.63c-.2-1.71.83-2.6,2.17-3.42,3.58-2.19,7.13-4.5,10.72-6.75,3.12-2,6.27-3.9,9.41-5.87l6.22-4,5.5-3.46,7.51-4.75c2.21-1.39,4.44-2.74,6.66-4.14,1.68-1.06,3.35-2.19,5-3.26s3.37-2.08,5.05-3.14l9-5.67,1.75-1.12c.52-.32.86-.22,1.11.29q4.23,8.92,8.53,17.92a1.49,1.49,0,0,1-.07,1.53c-2.63,4.71-5.22,9.43-7.81,14.13q-5.34,9.71-10.65,19.35-3.39,6.15-6.79,12.28-3.85,7-7.68,13.91Q338,369.76,334.61,376L328,388c-.43.78-.54.77-1,.05q-4.42-8-8.83-15.89l-6.29-11.25-8.65-15.48c-1.81-3.22-3.61-6.45-5.41-9.66-.57-1-1.11-2.09-1.75-3.05A4.17,4.17,0,0,1,295.85,329.63Z"/><path class="cls-14" d="M469.21,357.29c-1,8.3-2.06,16.59-3,24.89a14.42,14.42,0,0,1-2.07,6.14c-2.52,4.1-4.92,8.25-7.35,12.37q-5.76,9.76-11.46,19.47c-.29.48-.55,1-.84,1.47-.12.2-.18.53-.45.51s-.29-.26-.39-.45l-.66-1.37q-4.62-9.65-9.2-19.22-4.89-10.17-9.74-20.25l-10.48-21.79c-1.11-2.3-2.21-4.61-3.35-6.88a1.44,1.44,0,0,1,.12-1.56q4.42-7.14,8.82-14.34,5.71-9.31,11.48-18.71c2.37-3.86,4.78-7.72,7.15-11.61.36-.58.66-.71,1.14-.38,2,1.37,4,2.73,6,4.1l7.49,5.09,6.46,4.43c2,1.39,4.06,2.75,6.09,4.14l5.4,3.71c.46.31.91.63,1.38.93a1.9,1.9,0,0,1,.77,2c-.06.42-.1.84-.16,1.26Q470.79,344.28,469.21,357.29Z"/><path class="cls-14" d="M350.32,429.77c-.14-.24-.26-.49-.4-.73-.84-1.52-1.68-3.05-2.52-4.56q-3.67-6.57-7.33-13.08c-1.8-3.21-3.58-6.43-5.36-9.62-.5-.9-1-1.81-1.52-2.69a1.28,1.28,0,0,1,0-1.48c1.88-3.3,3.72-6.63,5.58-10l7.7-13.88q3.75-6.75,7.51-13.55,3.38-6.07,6.76-12.18c2.63-4.76,5.25-9.54,7.9-14.32q3.66-6.6,7.36-13.21,1.62-2.91,3.22-5.84l.18-.31c.43-.68.47-.7.77-.07q2.24,4.64,4.45,9.31l9.56,20c1.18,2.49,2.36,5,3.58,7.46a1.47,1.47,0,0,1-.15,1.61q-2.6,4.2-5.15,8.42-4.16,6.78-8.28,13.55c-1.61,2.63-3.21,5.27-4.81,7.89q-4.15,6.81-8.29,13.56l-5.59,9.17-8.1,13.26q-3,4.88-5.93,9.76l-.7,1.1A.67.67,0,0,1,350.32,429.77Z"/><path class="cls-14" d="M288.35,392.75q2.53-21.42,5.08-42.86c0-.34-.05-.84.25-1s.41.38.55.63c1.52,2.71,3,5.44,4.53,8.17q3,5.34,5.95,10.71l7.07,12.74,4.9,8.87c1.53,2.76,3.06,5.54,4.64,8.29a1.66,1.66,0,0,1,0,1.87c-2.83,5-5.61,10.09-8.38,15.12-2.42,4.36-4.81,8.72-7.21,13.07l-7.07,12.8q-1.49,2.71-2.95,5.43c-.22.4-.42.48-.74.21-1.64-1.38-3.29-2.74-4.93-4.11l-4.27-3.54c-.64-.53-1.28-1.05-1.9-1.59a1.84,1.84,0,0,1-.6-1.65c0-.31.07-.62.11-.93Q285.84,413.88,288.35,392.75Z"/><path class="cls-14" d="M344.25,440.06c-.11.19-.23.44-.37.67l-6.15,10.09L329.06,465l-3.67,6c-.42.7-.53.77-1.08.31-1.89-1.55-3.75-3.13-5.61-4.69l-3.05-2.54-4.37-3.62L304,454.43c-.36-.3-.71-.64-1.09-.91s-.4-.55-.15-1c.57-1,1.11-2,1.67-3L310.32,439l7.54-13.6Q321.4,419,325,412.54c.58-1.05,1.17-2.1,1.73-3.17.28-.53.49-.45.72,0q2.63,4.77,5.27,9.56c2.24,4.05,4.51,8.1,6.77,12.17l4.6,8.3A1.28,1.28,0,0,1,344.25,440.06Z"/><path class="cls-14" d="M429.87,299.77l-.19.35L423.07,311l-5,8.26q-4.82,7.88-9.6,15.7c-1,1.68-2,3.37-3.05,5.05-.5.84-.6.85-1,0q-2.62-5.46-5.24-10.9-3.07-6.37-6.14-12.73c-2.17-4.49-4.31-9-6.48-13.45a1.55,1.55,0,0,1,.08-1.6c2.43-4.31,4.82-8.65,7.23-13q2.49-4.5,5-9c.3-.53.59-.62,1-.34q5.47,3.75,11,7.52c2.07,1.4,4.19,2.74,6.27,4.16,3.77,2.57,7.53,5.19,11.33,7.8l1.2.82A.62.62,0,0,1,429.87,299.77Z"/><path class="cls-14" d="M359.32,500.21a3.21,3.21,0,0,1-1-.47l-5.57-4.65c-2-1.7-4-3.41-6.05-5.09-1.78-1.49-3.58-2.95-5.36-4.44s-3.7-3.09-5.55-4.64L333,478.55c-.67-.56-.69-.68-.2-1.48,2.53-4.13,5.09-8.25,7.64-12.4q2.88-4.69,5.76-9.43c1.06-1.73,2.13-3.46,3.19-5.2.23-.38.39-.42.62,0,1.61,2.94,3.25,5.87,4.88,8.82q3.31,6,6.65,12,3.22,5.82,6.46,11.69,2.66,4.8,5.34,9.61c.47.84.5.88-.33,1.33-1.83,1-3.69,1.93-5.53,2.88s-3.47,1.83-5.22,2.68a9.24,9.24,0,0,1-2.54,1.16Z"/><path class="cls-14" d="M460.26,431q-1,8.55-2.09,17.11a3.69,3.69,0,0,1-.25,1.23c-.1.23-.17.51-.44.54s-.37-.23-.47-.44l-1.83-3.82c-1.71-3.55-3.39-7.11-5.13-10.63a2.07,2.07,0,0,1,.12-2.26c2.91-4.83,5.77-9.7,8.66-14.57q1.46-2.47,2.92-4.95c.13-.22.23-.63.5-.56s.17.5.13.77q-1,8.28-2,16.55Z"/><path class="cls-14" d="M386.86,270.71c.94-.08,1.52.58,2.22,1,.53.32,1,.71,1.53,1.07s.65.52.22,1.31l-4.08,7.39q-2.56,4.66-5.12,9.32c-.11.21-.23.49-.44.53s-.32-.27-.42-.47c-1.94-4-3.86-8-5.79-12-.37-.78-.37-.85.41-1.35,1.84-1.17,3.7-2.31,5.54-3.47q2.06-1.31,4.1-2.65A3.6,3.6,0,0,1,386.86,270.71Z"/><path class="cls-14" d="M447.31,455c-.07.42-.39.54-.64.67-3.49,1.81-7,3.63-10.45,5.37-1,.48-1.9,1.07-2.9,1.49-.22.09-.5.29-.68,0s.09-.45.21-.65L439,451.52c1.09-1.83,2.16-3.66,3.25-5.49.39-.64.46-.64.78,0l4,8.41A5.85,5.85,0,0,1,447.31,455Z"/><path class="cls-6" d="M387.82,663.51v-1.87c-3.73,0-7.51-.08-11.25-.23l-.07,1.87C380.26,663.43,384.07,663.51,387.82,663.51Zm11.32-.22c3.74-.14,7.55-.37,11.3-.66l-.15-1.87c-3.73.29-7.5.52-11.23.66Zm-33.95-.69.15-1.87c-3.72-.29-7.48-.67-11.19-1.12l-.22,1.86c3.73.45,7.52.83,11.26,1.13Zm56.51-1.09c3.74-.45,7.51-1,11.22-1.57l-.3-1.85c-3.68.59-7.43,1.11-11.14,1.56Zm-79-1.62L343,658c-3.68-.59-7.4-1.27-11.07-2l-.37,1.84c3.69.75,7.44,1.43,11.14,2Zm101.34-2c3.69-.75,7.4-1.58,11.05-2.47l-.45-1.82c-3.62.88-7.31,1.71-11,2.45Zm-123.53-2.55.45-1.82c-3.63-.89-7.28-1.87-10.86-2.91l-.52,1.81C313.2,653.49,316.88,654.47,320.53,655.37Zm145.52-2.84c3.61-1,7.25-2.17,10.81-3.36l-.59-1.77c-3.54,1.17-7.15,2.29-10.74,3.33Zm-167.26-3.46.59-1.77c-3.54-1.19-7.1-2.46-10.59-3.78l-.67,1.75C291.64,646.6,295.22,647.88,298.79,649.07Zm188.77-3.7c3.52-1.33,7.06-2.76,10.53-4.24l-.74-1.72c-3.44,1.47-7,2.88-10.45,4.21Zm-209.91-4.32.74-1.73c-3.43-1.46-6.87-3-10.23-4.61l-.81,1.69C270.73,638,274.2,639.57,277.65,641.05Zm230.79-4.57c3.4-1.62,6.82-3.33,10.14-5.08l-.87-1.65c-3.3,1.73-6.7,3.43-10.08,5Zm-251.19-5.13.87-1.66c-3.3-1.74-6.61-3.57-9.83-5.43l-.94,1.62c3.24,1.88,6.57,3.72,9.9,5.47Zm271.26-5.42c3.27-1.89,6.53-3.87,9.7-5.87l-1-1.59c-3.15,2-6.39,4-9.64,5.84ZM237.68,620l1-1.58c-3.14-2-6.29-4.08-9.36-6.2l-1.07,1.54c3.1,2.14,6.27,4.24,9.43,6.24Zm310-6.22c3.1-2.14,6.2-4.37,9.19-6.63l-1.12-1.49c-3,2.24-6.05,4.45-9.13,6.58Zm-328.58-6.64,1.13-1.5c-3-2.23-6-4.56-8.85-6.93l-1.19,1.45c2.92,2.38,5.92,4.73,8.91,7Zm346.69-7c2.91-2.38,5.81-4.85,8.63-7.34l-1.25-1.4c-2.79,2.47-5.68,4.93-8.57,7.29Zm-364.22-7.34,1.25-1.4c-2.8-2.47-5.58-5-8.27-7.62l-1.3,1.35c2.71,2.6,5.51,5.18,8.32,7.67Zm381.17-7.68c2.7-2.6,5.4-5.29,8-8l-1.35-1.3c-2.6,2.69-5.27,5.37-8,7.95Zm-397.49-8,1.35-1.3c-2.59-2.69-5.15-5.47-7.64-8.27l-1.4,1.25c2.5,2.81,5.08,5.61,7.69,8.32Zm413.18-8.33c2.5-2.81,5-5.71,7.34-8.61L604.3,559c-2.36,2.88-4.81,5.76-7.29,8.56ZM170.2,560.22l1.45-1.18c-2.37-2.9-4.71-5.88-7-8.85l-1.5,1.12c2.26,3,4.61,6,7,8.91Zm442.54-8.89c2.25-3,4.48-6.09,6.62-9.17l-1.54-1.07c-2.12,3.06-4.34,6.13-6.58,9.11Zm-456.17-9.2,1.54-1.07c-2.13-3.08-4.22-6.24-6.22-9.39l-1.58,1c2,3.17,4.11,6.35,6.26,9.45Zm469-9.4c2-3.17,4-6.42,5.86-9.67l-1.62-.94c-1.87,3.23-3.83,6.46-5.83,9.61ZM144.43,523l1.62-.94c-1.88-3.24-3.71-6.56-5.44-9.86l-1.66.87c1.74,3.33,3.59,6.67,5.48,9.93Zm492.51-9.81c1.74-3.32,3.45-6.72,5.06-10.1l-1.69-.81c-1.6,3.36-3.3,6.74-5,10ZM133.87,502.91l1.69-.8c-1.6-3.38-3.16-6.84-4.63-10.28l-1.72.74c1.48,3.46,3,6.94,4.66,10.34Zm512.78-10.14c1.48-3.45,2.9-7,4.23-10.47l-1.75-.66c-1.32,3.47-2.74,7-4.2,10.4ZM125,482l1.75-.67c-1.33-3.5-2.61-7.08-3.79-10.62l-1.77.59c1.18,3.57,2.47,7.17,3.81,10.7Zm529.72-10.4c1.19-3.56,2.33-7.2,3.38-10.81l-1.8-.52c-1,3.58-2.17,7.2-3.36,10.74Zm-536.9-11.11,1.8-.52c-1-3.58-2-7.23-2.9-10.86l-1.82.44c.9,3.66,1.88,7.34,2.92,10.94ZM661,449.9c.9-3.65,1.74-7.37,2.49-11l-1.84-.37c-.74,3.65-1.57,7.34-2.47,11ZM112.39,438.55l1.84-.38c-.74-3.65-1.42-7.37-2-11.06l-1.86.3c.6,3.71,1.29,7.46,2,11.14Zm553.14-10.84c.6-3.7,1.14-7.47,1.59-11.21l-1.86-.22c-.45,3.71-1,7.46-1.58,11.13ZM108.79,416.19l1.86-.22c-.45-3.71-.82-7.48-1.12-11.19l-1.87.15c.3,3.74.68,7.53,1.13,11.26Zm559.47-10.95c.3-3.74.53-7.55.68-11.3l-1.87-.08c-.15,3.73-.38,7.51-.68,11.23ZM107,393.63l1.87-.08c-.14-3.73-.22-7.52-.22-11.24v-.62h-1.87v.61c0,3.76.07,7.57.22,11.33Zm560.31-11h1.88v-.32c0-3.65-.07-7.36-.21-11l-1.88.07c.14,3.62.21,7.3.21,10.94ZM108.89,370.44c.15-3.72.39-7.5.69-11.22l-1.87-.16c-.3,3.76-.54,7.56-.69,11.31Zm557.55-10.3,1.87-.14c-.3-3.76-.67-7.55-1.12-11.27l-1.86.22C665.77,352.65,666.14,356.42,666.44,360.14ZM110.72,348c.46-3.7,1-7.44,1.59-11.13l-1.85-.31c-.6,3.72-1.14,7.49-1.6,11.21Zm553.06-10.22,1.85-.29c-.59-3.72-1.27-7.46-2-11.14l-1.84.37C662.52,330.4,663.19,334.13,663.78,337.81Zm-549.43-12c.76-3.67,1.59-7.36,2.49-11l-1.82-.45c-.9,3.63-1.75,7.35-2.5,11Zm545-10.07,1.82-.45c-.89-3.64-1.87-7.33-2.91-10.94l-1.8.52c1,3.59,2,7.25,2.89,10.87ZM119.76,304c1-3.58,2.18-7.19,3.37-10.73l-1.78-.6c-1.2,3.56-2.33,7.2-3.38,10.8Zm533.35-9.85,1.78-.59c-1.19-3.57-2.46-7.17-3.8-10.7l-1.75.66C650.66,287,651.93,290.61,653.11,294.16ZM126.93,282.69c1.33-3.49,2.75-7,4.21-10.4l-1.72-.73c-1.48,3.43-2.9,6.95-4.24,10.46Zm518.21-9.62,1.72-.74c-1.47-3.46-3-6.94-4.65-10.35l-1.69.81c1.6,3.38,3.15,6.84,4.62,10.28Zm-509.37-11c1.61-3.36,3.3-6.73,5-10l-1.66-.88c-1.75,3.32-3.46,6.71-5.07,10.1Zm499.71-9.36,1.66-.87c-1.74-3.34-3.58-6.68-5.47-9.94l-1.62.94c1.87,3.24,3.7,6.56,5.43,9.87ZM146.25,242.23c1.88-3.23,3.84-6.46,5.84-9.6l-1.58-1c-2,3.16-4,6.42-5.88,9.66Zm478-9,1.59-1c-2-3.18-4.12-6.36-6.25-9.46L618,223.81c2.13,3.07,4.21,6.23,6.21,9.39Zm-465.91-9.93c2.12-3.06,4.34-6.13,6.58-9.1L163.4,213c-2.26,3-4.49,6.08-6.63,9.16Zm453.12-8.59,1.5-1.13c-2.26-3-4.61-6-7-8.92l-1.46,1.19c2.36,2.89,4.7,5.87,6.94,8.86Zm-439.59-9.34c2.37-2.89,4.83-5.77,7.3-8.55l-1.4-1.25c-2.49,2.81-5,5.7-7.35,8.61Zm425.37-8.1,1.4-1.24c-2.49-2.81-5.07-5.61-7.67-8.33l-1.36,1.3c2.59,2.7,5.15,5.48,7.63,8.27Zm-410.43-8.71c2.6-2.69,5.28-5.36,8-7.94l-1.3-1.35c-2.71,2.59-5.41,5.28-8,8ZM581.64,181l1.3-1.35c-2.71-2.6-5.51-5.19-8.32-7.69l-1.24,1.41c2.79,2.48,5.57,5,8.26,7.63ZM203,173c2.8-2.48,5.69-4.93,8.58-7.28l-1.18-1.46c-2.91,2.38-5.82,4.84-8.64,7.34Zm361.8-6.89,1.19-1.45c-2.91-2.38-5.9-4.73-8.89-7l-1.13,1.5c3,2.24,6,4.57,8.83,6.94Zm-344.35-7.33c3-2.24,6.06-4.45,9.13-6.57l-1.06-1.54c-3.09,2.13-6.19,4.35-9.2,6.61Zm326.41-6.2L548,151c-3.09-2.14-6.26-4.25-9.42-6.25l-1,1.58c3.14,2,6.29,4.08,9.36,6.21ZM239,146c3.16-2,6.4-3.95,9.64-5.82l-.94-1.62c-3.25,1.88-6.52,3.85-9.7,5.86Zm288.92-5.46.94-1.62c-3.24-1.88-6.57-3.72-9.89-5.48l-.87,1.66c3.3,1.74,6.6,3.57,9.82,5.44Zm-269.41-5.79c3.31-1.73,6.7-3.42,10.08-5l-.8-1.7c-3.4,1.62-6.82,3.32-10.15,5.06ZM508.07,130l.8-1.69c-3.38-1.62-6.84-3.18-10.29-4.66l-.74,1.72c3.43,1.47,6.87,3,10.23,4.63Zm-229.2-5c3.45-1.46,7-2.87,10.47-4.19l-.66-1.76c-3.52,1.33-7.07,2.76-10.54,4.23Zm208.58-3.87.66-1.75c-3.5-1.34-7.09-2.63-10.66-3.82l-.59,1.78c3.54,1.18,7.1,2.46,10.59,3.79ZM300,117.12c3.54-1.17,7.16-2.29,10.74-3.32l-.51-1.8c-3.61,1-7.25,2.16-10.82,3.34Zm166.15-3.07.53-1.79c-3.61-1.05-7.29-2-10.94-3l-.45,1.82c3.63.9,7.28,1.88,10.86,2.92Zm-144.53-3.14c3.61-.88,7.31-1.7,11-2.44l-.37-1.84c-3.69.75-7.4,1.57-11.05,2.46Zm122.7-2.25.38-1.84c-3.67-.75-7.42-1.44-11.14-2l-.3,1.85C436.92,107.23,440.64,107.91,444.29,108.66Zm-100.66-2.18c3.69-.59,7.44-1.11,11.14-1.55l-.22-1.86c-3.73.44-7.5,1-11.21,1.55ZM422.1,105l.23-1.86c-3.73-.46-7.52-.84-11.27-1.15l-.15,1.87c3.72.31,7.48.69,11.19,1.14ZM366,103.83c3.72-.29,7.5-.51,11.23-.65l-.07-1.87c-3.76.14-7.56.36-11.3.65Zm33.72-.61.08-1.88c-3.75-.15-7.56-.23-11.32-.24V103c3.73,0,7.52.08,11.24.24Z"/><circle class="cls-5" cx="115.23" cy="249.33" r="17.81"/><circle class="cls-5" cx="602.75" cy="196.21" r="26.25"/><circle class="cls-5" cx="354.95" cy="660.56" r="17.81"/></g></g></svg>