<svg width="448" height="512" viewBox="0 0 448 512" fill="none" xmlns="http://www.w3.org/2000/svg">
<path d="M176 448C167.3 448 160 455.3 160 464V512H192V464C192 455.3 184.8 448 176 448ZM272 448C263.25 448 256 455.25 256 464C256 472.75 263.25 480 272 480C280.75 480 288 472.75 288 464C288 455.25 280.8 448 272 448ZM164 172L172.205 196.62C173.42 200.265 178.58 200.265 179.795 196.62L188 172L212.62 163.797C216.266 162.578 216.266 157.422 212.62 156.203L188 148L179.8 123.4C178.585 119.752 173.425 119.752 172.21 123.4L164 148L139.4 156.2C135.754 157.419 135.754 162.575 139.4 163.794L164 172ZM336.1 315.4C304 338.6 265.1 352 224 352C182.9 352 143.97 338.57 111.9 315.41C46.55 340.2 0 403.3 0 477.3C0 496.5 15.52 512 34.66 512H128V448C128 430.25 142.25 416 160 416H288C305.75 416 320 430.25 320 448V512H413.34C432.5 512 448 496.5 448 477.3C448 403.3 401.5 340.2 336.1 315.4ZM64 224H77.5C102.3 280.5 158.4 320 224 320C289.6 320 345.8 280.5 370.5 224H384C392.75 224 400 216.75 400 208V112C400 103.3 392.8 96 384 96H370.5C345.8 39.5 289.6 0 224 0C158.4 0 102.3 39.5 77.5 96H64C55.25 96 48 103.3 48 112V208C48 216.8 55.25 224 64 224ZM104 136C104 113.9 125.5 96 152 96H296C322.5 96 344 113.88 344 136V160C344 213 301 256 248 256H200C147 256 104 213 104 160V136Z" fill="white"/>
</svg>
