<svg xmlns="http://www.w3.org/2000/svg" xmlns:xlink="http://www.w3.org/1999/xlink" viewBox="0 0 1000 1000"><defs><style>.cls-1{fill:none;}.cls-2{opacity:0.1;fill:url(#linear-gradient);}.cls-3{fill:#363f4a;}.cls-4{fill:#fff;}.cls-15,.cls-5{opacity:0.15;}.cls-5{fill:url(#linear-gradient-2);}.cls-6{fill:url(#linear-gradient-3);}.cls-14,.cls-7{fill:#efd0ff;}.cls-11,.cls-12,.cls-17,.cls-20,.cls-21,.cls-7{opacity:0.25;}.cls-8{clip-path:url(#clip-path);}.cls-11,.cls-9{fill:#00e4a2;}.cls-10{clip-path:url(#clip-path-2);}.cls-12,.cls-18{fill:#e1e1e1;}.cls-13{fill:url(#radial-gradient);}.cls-15{fill:url(#linear-gradient-4);}.cls-16{fill:#053651;}.cls-17{fill:url(#linear-gradient-5);}.cls-19{fill:#23213b;}.cls-20{fill:url(#linear-gradient-6);}.cls-21{fill:url(#linear-gradient-7);}.cls-22{opacity:0.31;fill:url(#linear-gradient-8);}</style><linearGradient id="linear-gradient" x1="275.04" y1="505.68" x2="536.34" y2="506.19" gradientUnits="userSpaceOnUse"><stop offset="0" stop-color="#00e4a2"/><stop offset="1" stop-color="#efd0ff" stop-opacity="0"/></linearGradient><linearGradient id="linear-gradient-2" x1="724.93" y1="57.58" x2="724.93" y2="981.4" gradientUnits="userSpaceOnUse"><stop offset="0" stop-color="#efd0ff"/><stop offset="0.17" stop-color="#ecd0fe"/><stop offset="0.3" stop-color="#e2d1fa"/><stop offset="0.42" stop-color="#d1d3f3"/><stop offset="0.54" stop-color="#b9d5ea"/><stop offset="0.65" stop-color="#9ad7de"/><stop offset="0.76" stop-color="#74dacf"/><stop offset="0.86" stop-color="#48debe"/><stop offset="0.96" stop-color="#15e2aa"/><stop offset="1" stop-color="#00e4a2"/></linearGradient><linearGradient id="linear-gradient-3" x1="550.18" y1="863.75" x2="899.16" y2="863.75" gradientUnits="userSpaceOnUse"><stop offset="0" stop-color="#40ebb9"/><stop offset="0.5" stop-color="#00e4a2"/><stop offset="1" stop-color="#38eab6"/></linearGradient><clipPath id="clip-path"><path class="cls-1" d="M746.39,559.57c-5.65-10.43-26.95-45.32-64.15-57.31h0l-.25-.08-.06,0h0a84.59,84.59,0,0,0-25.13-4c-22.64-.14-43.35,8.33-61.56,25.21A132.14,132.14,0,0,0,568.86,558l-.09.18a3.68,3.68,0,0,0,1.21,4.58l52.72,32.54a2.66,2.66,0,0,0,1.36.4,2.47,2.47,0,0,0,.92-.18,3,3,0,0,0,1.68-1.74c2.74-6.74,11.23-22.35,30.82-21.7a37.44,37.44,0,0,1,5.17.53l.07,0a33.19,33.19,0,0,1,5.41,1.43c8.74,3.18,16,10.35,20.19,19.88a2.86,2.86,0,0,0,2.58,1.84,2.52,2.52,0,0,0,1.3-.36l53-31,.26-.17A3.75,3.75,0,0,0,746.39,559.57Z"/></clipPath><clipPath id="clip-path-2"><circle class="cls-1" cx="825.11" cy="557.7" r="44.88"/></clipPath><radialGradient id="radial-gradient" cx="724.83" cy="197.74" r="73.63" gradientTransform="translate(0.5 0.5)" gradientUnits="userSpaceOnUse"><stop offset="0" stop-color="#4a525c"/><stop offset="0.15" stop-color="#404852"/><stop offset="0.49" stop-color="#313841"/><stop offset="0.75" stop-color="#2b323b"/><stop offset="1" stop-color="#2f3640"/></radialGradient><linearGradient id="linear-gradient-4" x1="415.41" y1="1358.3" x2="347.11" y2="1464.99" gradientTransform="matrix(-1, 0, 0, 0.64, 545.82, 0)" gradientUnits="userSpaceOnUse"><stop offset="0" stop-color="#00e4a2"/><stop offset="1" stop-color="#efd0ff"/></linearGradient><linearGradient id="linear-gradient-5" x1="177.52" y1="884.39" x2="175.49" y2="770.38" gradientUnits="userSpaceOnUse"><stop offset="0" stop-color="#363f4a" stop-opacity="0"/><stop offset="0.19" stop-color="#31363e" stop-opacity="0.28"/><stop offset="0.67" stop-color="#272528" stop-opacity="0.81"/><stop offset="1" stop-color="#231f20"/></linearGradient><linearGradient id="linear-gradient-6" x1="111.31" y1="678.22" x2="110.04" y2="607.22" xlink:href="#linear-gradient-5"/><linearGradient id="linear-gradient-7" x1="207.14" y1="620.25" x2="206.53" y2="585.78" xlink:href="#linear-gradient-5"/><linearGradient id="linear-gradient-8" x1="281.9" y1="576.06" x2="317.5" y2="576.06" gradientUnits="userSpaceOnUse"><stop offset="0" stop-color="#efd0ff"/><stop offset="0.11" stop-color="#ead0fd"/><stop offset="0.24" stop-color="#ddd2f8"/><stop offset="0.38" stop-color="#c6d3ef"/><stop offset="0.52" stop-color="#a6d6e3"/><stop offset="0.66" stop-color="#7ddad3"/><stop offset="0.81" stop-color="#4bdebf"/><stop offset="0.96" stop-color="#11e3a9"/><stop offset="1" stop-color="#00e4a2"/></linearGradient></defs><g id="Bridge"><g id="Fees"><g id="Layer_9" data-name="Layer 9"><polyline class="cls-2" points="287.05 538.35 511.78 92.49 518.98 919.82 287.05 613.78"/></g><g id="Layer_6" data-name="Layer 6"><g id="phone"><path id="a7e0d23c-0c47-41f1-93b9-87dfccd4c0f5" class="cls-3" d="M946.85,128.36A78.41,78.41,0,0,0,868.44,50h-287A78.4,78.4,0,0,0,503,128.36V871.55A78.41,78.41,0,0,0,581.43,950h287a78.41,78.41,0,0,0,78.4-78.41Z"/><path id="a1ad11fc-8226-4675-bbe0-e36020d9de96" class="cls-4" d="M930.85,123.11V876.8a59.48,59.48,0,0,1-59.45,59.46H578.5A59.48,59.48,0,0,1,519,876.8V123.11A59.47,59.47,0,0,1,578.5,63.66H871.39a59.46,59.46,0,0,1,59.46,59.44Z"/><path id="a1ad11fc-8226-4675-bbe0-e36020d9de96-2" data-name="a1ad11fc-8226-4675-bbe0-e36020d9de96" class="cls-5" d="M930.85,123.11V876.8a59.48,59.48,0,0,1-59.45,59.46H578.5A59.48,59.48,0,0,1,519,876.8V123.11A59.47,59.47,0,0,1,578.5,63.66H871.39a59.46,59.46,0,0,1,59.46,59.44Z"/><path class="cls-3" d="M624.67,54.31h200a0,0,0,0,1,0,0V82.54a18.25,18.25,0,0,1-18.25,18.25H642.92a18.25,18.25,0,0,1-18.25-18.25V54.31A0,0,0,0,1,624.67,54.31Z"/></g><rect class="cls-6" x="550.18" y="823.86" width="348.98" height="79.77" rx="28.7"/><path class="cls-4" d="M743.51,862.82c-12.24-4.78-26.51-12.07-36.72-20a1,1,0,0,0-1.52,1.2c2.52,5.52,6.69,15.31,6.69,19.7s-4.16,14.17-6.68,19.69a1,1,0,0,0,1.51,1.2c10.21-7.9,24.48-15.19,36.72-20A1,1,0,0,0,743.51,862.82Z"/><rect class="cls-7" x="550.18" y="472.96" width="348.98" height="149.56" rx="21.91"/><circle class="cls-3" cx="657.63" cy="588.97" r="6.8"/><g class="cls-8"><path class="cls-9" d="M567.53,551.74c-14.84,16.12,51.42,40.45,56.71,48,.42.25,11.82-11.51,13.52-12.63C640.5,580.37,574.57,538.53,567.53,551.74Z"/><path class="cls-4" d="M692.24,611.06c-7.91-9.29-39.92-26.92-53.27-27.57l-75.6-36s107.45-136.8,193.09,19.09C760.82,574.5,694.62,607.49,692.24,611.06Z"/><path class="cls-3" d="M579.41,555.27l69.2,36.67a49.49,49.49,0,0,1,2.23-6.79L579.5,555.09A.1.1,0,0,0,579.41,555.27Z"/></g><path class="cls-3" d="M651.9,555.58a17.94,17.94,0,0,1-4.73-2.05,20.13,20.13,0,0,1-4.13-3.4l4-4.85a14.28,14.28,0,0,0,4.66,3.81,12.27,12.27,0,0,0,5.56,1.27c2.77,0,4.83-.54,6.2-1.62a5.9,5.9,0,0,0,2-4.92v0a5.16,5.16,0,0,0-1-3.33,6,6,0,0,0-2.57-1.84,23.35,23.35,0,0,0-4-1.08l-.16,0-.17,0-.3-.06-.31-.06a39,39,0,0,1-6.34-1.63,9.06,9.06,0,0,1-4.15-3.29,11.39,11.39,0,0,1-1.72-6.76v0a14.6,14.6,0,0,1,1.55-7.08,9.72,9.72,0,0,1,4.63-4.24,18.57,18.57,0,0,1,7.73-1.42,18.93,18.93,0,0,1,4,.43,20.52,20.52,0,0,1,4,1.28,25.8,25.8,0,0,1,3.88,2.15L667,521.71a18.29,18.29,0,0,0-4.22-2.18,12.26,12.26,0,0,0-4.07-.72c-2.58,0-4.5.53-5.79,1.6a5.84,5.84,0,0,0-1.93,4.77v0a5,5,0,0,0,1.11,3.43,6.55,6.55,0,0,0,2.79,1.83,43,43,0,0,0,4.6,1.23l.24,0,.26.06.28.06.28.06a27.39,27.39,0,0,1,5.77,1.86,9.39,9.39,0,0,1,3.87,3.51,12.22,12.22,0,0,1,1.54,6.61V544a13.37,13.37,0,0,1-1.6,6.86,9.88,9.88,0,0,1-4.81,4.09,23.2,23.2,0,0,1-13.38.67Zm2.94-47.4h6v6.66h-6Zm0,45.78h6v7h-6Z"/><rect class="cls-3" x="818.8" y="496.95" width="12.64" height="17.57"/><ellipse class="cls-3" cx="825.12" cy="496.95" rx="14.58" ry="4.05"/><circle class="cls-4" cx="825.11" cy="557.7" r="44.88"/><g class="cls-10"><polygon class="cls-9" points="825.11 557.87 825.12 511.53 835.5 512.83 836.57 513.52 825.11 557.87"/></g><rect class="cls-3" x="823.8" y="595.24" width="2.59" height="4.86" rx="1"/><circle class="cls-3" cx="824.94" cy="557.87" r="5.99"/><rect class="cls-3" x="823.66" y="515.09" width="2.59" height="4.86" rx="1"/><rect class="cls-3" x="782.17" y="556.56" width="4.86" height="2.59" rx="1"/><rect class="cls-3" x="862.85" y="556.58" width="4.86" height="2.59" rx="1"/><path class="cls-3" d="M827.93,555.67l-5.33-1.46,10.19-27a.25.25,0,0,1,.48.13Z"/><rect class="cls-11" x="550.18" y="648.41" width="348.98" height="149.56" rx="21.91"/><path class="cls-3" d="M579.41,743.61q-3.15-3.18-3.14-8.88V715.42q0-5.71,3.15-8.89t9.17-3.17q6.06,0,9.19,3.16t3.14,8.9v19.31q0,5.73-3.15,8.9c-2.11,2.11-5.16,3.17-9.18,3.17S581.5,745.74,579.41,743.61Zm13.45-4.89a7.27,7.27,0,0,0,1.37-4.75V716.18a7.26,7.26,0,0,0-1.37-4.74,6.34,6.34,0,0,0-8.53,0,7.2,7.2,0,0,0-1.37,4.74V734a7.21,7.21,0,0,0,1.37,4.75,6.34,6.34,0,0,0,8.53,0Z"/><path class="cls-3" d="M606.68,739.47h6.89v6.89h-6.89Z"/><path class="cls-3" d="M622.46,743.61q-3.13-3.18-3.13-8.88V715.42q0-5.71,3.15-8.89t9.17-3.17q6,0,9.19,3.16t3.14,8.9v19.31q0,5.73-3.16,8.9t-9.17,3.17Q625.61,746.8,622.46,743.61Zm13.46-4.89a7.27,7.27,0,0,0,1.37-4.75V716.18a7.26,7.26,0,0,0-1.37-4.74,6.34,6.34,0,0,0-8.53,0,7.2,7.2,0,0,0-1.38,4.74V734a7.21,7.21,0,0,0,1.38,4.75,6.34,6.34,0,0,0,8.53,0Z"/><path class="cls-3" d="M654.31,743.61q-3.15-3.18-3.14-8.88V715.42q0-5.71,3.15-8.89t9.17-3.17q6,0,9.19,3.16t3.14,8.9v19.31q0,5.73-3.15,8.9t-9.18,3.17Q657.45,746.8,654.31,743.61Zm13.45-4.89a7.27,7.27,0,0,0,1.37-4.75V716.18a7.26,7.26,0,0,0-1.37-4.74,6.34,6.34,0,0,0-8.53,0,7.2,7.2,0,0,0-1.37,4.74V734a7.21,7.21,0,0,0,1.37,4.75,6.34,6.34,0,0,0,8.53,0Z"/><path class="cls-3" d="M686.15,743.61q-3.15-3.18-3.14-8.88V715.42q0-5.71,3.15-8.89t9.17-3.17q6.06,0,9.19,3.16t3.14,8.9v19.31q0,5.73-3.15,8.9c-2.11,2.11-5.16,3.17-9.18,3.17S688.24,745.74,686.15,743.61Zm13.45-4.89A7.27,7.27,0,0,0,701,734V716.18a7.26,7.26,0,0,0-1.37-4.74,6.34,6.34,0,0,0-8.53,0,7.2,7.2,0,0,0-1.37,4.74V734a7.21,7.21,0,0,0,1.37,4.75,6.34,6.34,0,0,0,8.53,0Z"/><path class="cls-3" d="M720.53,745.46a11.19,11.19,0,0,1-4.53-3.89,12.85,12.85,0,0,1-2-6.11h6.87a6,6,0,0,0,1,2.71,4.9,4.9,0,0,0,2,1.6,7.1,7.1,0,0,0,2.87.54,5.67,5.67,0,0,0,4.17-1.46,5.47,5.47,0,0,0,1.5-4.12v-1.16a6.72,6.72,0,0,0-1.35-4.5,4.76,4.76,0,0,0-3.83-1.58H724v-6.43h3.21a4.1,4.1,0,0,0,3.3-1.35,5.73,5.73,0,0,0,1.17-3.85v-1.11a4.84,4.84,0,0,0-1.25-3.56,4.79,4.79,0,0,0-3.54-1.26,5.22,5.22,0,0,0-2.44.57,5,5,0,0,0-1.84,1.7,8.06,8.06,0,0,0-1.09,2.79h-6.84a15.25,15.25,0,0,1,2.16-6.23,11.14,11.14,0,0,1,4.27-4,12.49,12.49,0,0,1,5.9-1.36q5.55,0,8.57,2.89t3,8.15v.91a9.11,9.11,0,0,1-1.64,5.4,9.4,9.4,0,0,1-4.64,3.39,8.18,8.18,0,0,1,5.15,3.34,11.35,11.35,0,0,1,1.83,6.65v.9a13.11,13.11,0,0,1-1.43,6.34,9.48,9.48,0,0,1-4.2,4A14.84,14.84,0,0,1,727,746.8,15,15,0,0,1,720.53,745.46Z"/><path class="cls-3" d="M794.34,742.07a3.65,3.65,0,0,0,.33.73l2.11,4.29q1.58,3.21,3.13,6.44c.52,1.06,1.08,2.11,1.56,3.19a2.77,2.77,0,0,0,1.29,1.39c.78.42,1.54.89,2.31,1.33l3.48,2,3.56,2.08,2.45,1.41c.38.22.44.21.71-.13,1-1.28,2.06-2.57,3.09-3.85l4.41-5.46,3.09-3.85,3.5-4.33a2.55,2.55,0,0,1,.24-.31c.46-.39.35-.76.08-1.23-.81-1.43-1.57-2.9-2.35-4.35q-1.47-2.7-2.93-5.42l-1.7-3.15q-1.68-3.14-3.38-6.25c-.59-1.11-1.18-2.22-1.78-3.33l-3-5.55-1.6-3c-.15-.26-.18-.26-.35,0-1,1.53-2.06,3.07-3.1,4.6l-3.33,4.95-4.82,7.2-5.86,8.73-1,1.53A.42.42,0,0,0,794.34,742.07Z"/><path class="cls-3" d="M865.34,698.69c.2-.73-.26-1.11-.89-1.47-1.66-.94-3.3-1.92-5-2.88l-4.31-2.48-2.81-1.66-2.48-1.44-3.36-2-3-1.7c-.74-.43-1.47-.89-2.21-1.33l-2.22-1.27-3.9-2.28-.76-.44a.35.35,0,0,0-.53.12l-5,7.39a.56.56,0,0,0,0,.63c.95,1.91,1.89,3.84,2.83,5.76,1.29,2.66,2.59,5.32,3.88,8q1.26,2.55,2.51,5.1l2.85,5.82,2.58,5.26,2.49,5.1c.17.34.22.34.46,0l5.2-6.49,3.74-4.65,5.2-6.45,3.28-4.07c.35-.44.68-.89,1.06-1.3A1.59,1.59,0,0,0,865.34,698.69Z"/><path class="cls-3" d="M784.84,708.82c0,3.2,0,6.41,0,9.61a4.89,4.89,0,0,0,.55,2.4c.83,1.61,1.62,3.25,2.42,4.89,1.27,2.58,2.53,5.17,3.8,7.76l.27.59c0,.08,0,.21.17.21s.13-.1.18-.17l.35-.52,4.88-7.3,5.23-7.78,5.7-8.49c.61-.91,1.21-1.81,1.83-2.71a.51.51,0,0,0,0-.62l-3.1-5.75-4-7.43-2.48-4.57c-.12-.23-.25-.28-.47-.15l-2.77,1.62-3.43,2L791,694.13c-.91.54-1.83,1.07-2.75,1.6l-2.42,1.43-.62.35a.79.79,0,0,0-.41.78v10.53Z"/><path class="cls-3" d="M833.13,739.64c.08-.09.15-.19.23-.29.48-.6.95-1.2,1.44-1.79,1.39-1.74,2.79-3.46,4.19-5.2l3.09-3.85c.29-.36.58-.73.88-1.08a.48.48,0,0,0,.08-.61c-.71-1.41-1.4-2.82-2.1-4.23l-2.86-5.85q-1.4-2.84-2.77-5.66c-.83-1.69-1.66-3.37-2.48-5.06-1-2-1.91-3.94-2.87-5.9s-1.78-3.6-2.67-5.41l-1.15-2.38a.75.75,0,0,0-.07-.12c-.16-.28-.17-.28-.34,0L823.19,696l-5.4,8c-.67,1-1.33,2-2,3a.56.56,0,0,0,0,.65c.63,1.13,1.24,2.28,1.85,3.42l3,5.55,1.75,3.26,3,5.62,2.07,3.83q1.5,2.79,3,5.58c.74,1.37,1.47,2.75,2.21,4.13.09.16.17.32.27.47A.23.23,0,0,0,833.13,739.64Z"/><path class="cls-3" d="M865.35,725.66V707.34c0-.14.08-.36-.07-.42s-.22.16-.31.27c-.93,1.14-1.84,2.28-2.76,3.43l-3.6,4.46c-1.42,1.75-2.83,3.51-4.24,5.26-1,1.21-1.94,2.43-2.92,3.64s-1.81,2.25-2.73,3.37a.62.62,0,0,0-.1.78c1.08,2.16,2.14,4.33,3.21,6.5l2.77,5.67,2.74,5.59,1.15,2.38c.08.18.17.22.35.11l2.7-1.57,2.36-1.36,1.05-.62a.77.77,0,0,0,.4-.68V725.66Z"/><path class="cls-3" d="M835.4,747c0,.08.08.19.13.29l2.34,4.33q1.65,3.06,3.31,6.12c.47.87.94,1.75,1.4,2.63.17.31.21.34.5.17,1-.57,2-1.16,3-1.73l1.62-.94,2.33-1.35,3.9-2.27.59-.35c.2-.1.23-.21.13-.41-.22-.44-.42-.89-.64-1.33l-2.26-4.59c-1-2-1.92-3.93-2.89-5.89l-2.7-5.52c-.22-.45-.44-.9-.65-1.35-.1-.23-.21-.2-.34,0l-3.07,3.83c-1.3,1.62-2.61,3.23-3.91,4.84l-2.63,3.27A.52.52,0,0,0,835.4,747Z"/><path class="cls-3" d="M804.39,686.47s0,.09.07.14l2.3,4.28,1.76,3.28,3.39,6.27,1.08,2c.18.33.22.34.44,0l2.91-4.34,3.44-5.11q1.83-2.73,3.67-5.45a.59.59,0,0,0,0-.65c-.87-1.74-1.72-3.48-2.57-5.23-.59-1.2-1.17-2.4-1.75-3.6-.1-.22-.23-.25-.43-.13l-5.32,3.1c-1,.58-2,1.13-3,1.7l-5.36,3.16-.57.33A.3.3,0,0,0,804.39,686.47Z"/><path class="cls-3" d="M825.07,770.93a1.44,1.44,0,0,0,.49-.14l2.82-1.64,3.08-1.82,2.76-1.59,2.87-1.67,1.46-.86c.35-.21.37-.25.18-.6-1-1.79-1.94-3.58-2.9-5.37l-2.18-4.06-1.2-2.23c-.08-.16-.16-.18-.28,0l-2.76,3.43c-1.24,1.54-2.49,3.07-3.73,4.62l-3.58,4.47-3,3.65c-.25.31-.27.33.08.54.78.48,1.56.93,2.35,1.39s1.48.88,2.23,1.3a4.11,4.11,0,0,0,1.1.57A.9.9,0,0,0,825.07,770.93Z"/><path class="cls-3" d="M784.84,740.3c0,2.21,0,4.42,0,6.63a1.3,1.3,0,0,0,0,.48c0,.09,0,.2.15.22s.17-.08.22-.16l1-1.41c.88-1.33,1.76-2.65,2.66-4a.75.75,0,0,0,.07-.88c-1-1.94-1.91-3.88-2.86-5.82l-1-2c0-.08-.06-.24-.18-.22s-.09.19-.09.29v6.8Z"/><path class="cls-3" d="M825.06,674.5a2.15,2.15,0,0,0-1.06.43c-.26.14-.51.3-.76.45s-.32.22-.17.54c.48,1,1,2,1.45,3l1.83,3.76c0,.08.08.19.17.21s.17-.11.22-.19l3.33-5c.21-.32.21-.35-.12-.55-.78-.46-1.57-.9-2.36-1.36l-1.73-1A1.64,1.64,0,0,0,825.06,674.5Z"/><path class="cls-3" d="M789,749.91c0,.17.14.22.24.28,1.36.81,2.73,1.62,4.11,2.4.38.22.75.47,1.15.67.08,0,.19.13.28,0s0-.18,0-.26q-1.05-2.12-2.08-4.23c-.37-.74-.73-1.48-1.09-2.22-.13-.27-.16-.27-.33,0-.7,1-1.4,2.09-2.11,3.13Z"/><rect class="cls-12" x="550.18" y="297.51" width="348.98" height="149.56" rx="21.91"/><path class="cls-3" d="M594.8,395.63a19.85,19.85,0,0,1-5-2,15.3,15.3,0,0,1-3.86-3.09l3.89-5.5a14.86,14.86,0,0,0,4.83,3.55,13.65,13.65,0,0,0,5.71,1.22,9.48,9.48,0,0,0,5.83-1.52,5.35,5.35,0,0,0,2-4.5v0a4.77,4.77,0,0,0-.93-3.1,5.65,5.65,0,0,0-2.41-1.69,23.45,23.45,0,0,0-3.79-1,.45.45,0,0,0-.16,0,.28.28,0,0,1-.13,0l-.26,0-.26,0a37.9,37.9,0,0,1-6.48-1.67,9.25,9.25,0,0,1-4.23-3.37,11.63,11.63,0,0,1-1.77-6.91v0a14.3,14.3,0,0,1,1.61-7.07,10.16,10.16,0,0,1,4.75-4.32A18.43,18.43,0,0,1,601.9,353a18.8,18.8,0,0,1,4.12.47,21.19,21.19,0,0,1,4.07,1.37A23.78,23.78,0,0,1,614,357l-3.5,5.64a18.35,18.35,0,0,0-4.35-2.37,12.52,12.52,0,0,0-4.24-.79,8.7,8.7,0,0,0-5.45,1.46,5.14,5.14,0,0,0-1.85,4.27v0a4.7,4.7,0,0,0,1,3.25,6.17,6.17,0,0,0,2.64,1.74,41,41,0,0,0,4.34,1.17.57.57,0,0,1,.18,0,.47.47,0,0,0,.17,0l.28.06.28.06a28.58,28.58,0,0,1,5.93,1.9,9.51,9.51,0,0,1,3.95,3.56,12.13,12.13,0,0,1,1.6,6.69v.06a13.23,13.23,0,0,1-1.67,6.88,10.3,10.3,0,0,1-4.92,4.2,20.08,20.08,0,0,1-8,1.42A22.11,22.11,0,0,1,594.8,395.63Zm2.89-47.38h6.72v6.66h-6.72Zm0,45.77h6.72v7h-6.72Z"/><path class="cls-3" d="M632.87,395.89h-6.69V361l-5.73,3.07v-7l6.13-3.59h6.29Z"/><path class="cls-3" d="M646.9,395a11.19,11.19,0,0,1-4.53-3.89,12.85,12.85,0,0,1-2-6.1h6.87a5.85,5.85,0,0,0,1,2.7,4.77,4.77,0,0,0,2,1.6,6.89,6.89,0,0,0,2.86.54,5.71,5.71,0,0,0,4.18-1.46,5.5,5.5,0,0,0,1.49-4.11V383.1a6.72,6.72,0,0,0-1.35-4.5,4.74,4.74,0,0,0-3.82-1.58h-3.22v-6.43h3.22a4.13,4.13,0,0,0,3.3-1.35,5.73,5.73,0,0,0,1.17-3.85v-1.11a4.38,4.38,0,0,0-4.8-4.82,5.18,5.18,0,0,0-2.43.57,4.89,4.89,0,0,0-1.84,1.7,7.87,7.87,0,0,0-1.1,2.79H641a15.31,15.31,0,0,1,2.17-6.22,11.06,11.06,0,0,1,4.26-4,12.49,12.49,0,0,1,5.9-1.36q5.55,0,8.58,2.89t3,8.15v.91a9.11,9.11,0,0,1-1.64,5.4,9.4,9.4,0,0,1-4.64,3.39,8.15,8.15,0,0,1,5.15,3.34,11.35,11.35,0,0,1,1.83,6.65v.91a13.1,13.1,0,0,1-1.43,6.33,9.45,9.45,0,0,1-4.19,4,14.88,14.88,0,0,1-6.65,1.37A15,15,0,0,1,646.9,395Z"/><path class="cls-3" d="M678.54,395A11.19,11.19,0,0,1,674,391.1a12.74,12.74,0,0,1-2-6.1h6.86a6.07,6.07,0,0,0,1,2.7,4.9,4.9,0,0,0,2,1.6,6.9,6.9,0,0,0,2.87.54,5.67,5.67,0,0,0,4.17-1.46,5.46,5.46,0,0,0,1.49-4.11V383.1a6.77,6.77,0,0,0-1.34-4.5,4.76,4.76,0,0,0-3.83-1.58H682v-6.43h3.21a4.13,4.13,0,0,0,3.3-1.35,5.73,5.73,0,0,0,1.17-3.85v-1.11a4.86,4.86,0,0,0-1.25-3.56,4.79,4.79,0,0,0-3.54-1.26,5.22,5.22,0,0,0-2.44.57,5,5,0,0,0-1.84,1.7,7.86,7.86,0,0,0-1.09,2.79h-6.84a15.15,15.15,0,0,1,2.16-6.22,11,11,0,0,1,4.27-4A12.49,12.49,0,0,1,685,353q5.55,0,8.57,2.89c2,1.93,3,4.65,3,8.15v.91a9.1,9.1,0,0,1-1.63,5.4,9.38,9.38,0,0,1-4.65,3.39,8.2,8.2,0,0,1,5.16,3.34,11.35,11.35,0,0,1,1.83,6.65v.91a13,13,0,0,1-1.44,6.33,9.4,9.4,0,0,1-4.19,4,14.84,14.84,0,0,1-6.64,1.37A15,15,0,0,1,678.54,395Z"/><path class="cls-3" d="M727.72,358.73l-10.43,37.16h-7.22l10.34-36.05h-9.52v6.23H704.2V353.42h23.52Z"/><circle class="cls-13" cx="724.67" cy="198.06" r="73.56"/><path class="cls-4" d="M698.78,214.34a3.07,3.07,0,0,0,.27.62c.59,1.2,1.19,2.4,1.78,3.61l2.64,5.42c.44.89.9,1.77,1.3,2.68a2.34,2.34,0,0,0,1.1,1.18c.66.35,1.29.74,1.94,1.12l2.93,1.7,3,1.74,2.07,1.19c.31.18.37.18.6-.1l2.6-3.25,3.7-4.59,2.61-3.25,2.94-3.64a1.83,1.83,0,0,1,.21-.26c.38-.33.29-.64.07-1-.69-1.21-1.33-2.44-2-3.66l-2.47-4.57-1.42-2.65-2.84-5.26c-.51-.93-1-1.87-1.51-2.8l-2.52-4.68-1.35-2.5c-.12-.22-.15-.22-.3,0l-2.6,3.87-2.8,4.16-4.06,6.06-4.93,7.35-.87,1.29A.31.31,0,0,0,698.78,214.34Z"/><path class="cls-4" d="M758.54,177.83c.17-.61-.22-.93-.75-1.23-1.4-.79-2.78-1.62-4.18-2.43L750,172.08l-2.37-1.39-2.09-1.21-2.83-1.66c-.82-.48-1.66-.94-2.48-1.42l-1.87-1.12-1.86-1.07-3.29-1.92-.64-.38a.29.29,0,0,0-.44.11L728,168.24a.47.47,0,0,0,0,.53c.8,1.61,1.58,3.23,2.38,4.85l3.27,6.7c.7,1.44,1.41,2.87,2.11,4.3l2.4,4.89c.72,1.48,1.44,3,2.17,4.43l2.1,4.3c.13.28.18.28.38,0l4.38-5.46,3.15-3.91,4.37-5.44,2.76-3.42c.3-.37.58-.75.9-1.09A1.4,1.4,0,0,0,758.54,177.83Z"/><path class="cls-4" d="M690.78,186.36c0,2.69,0,5.39,0,8.09a4,4,0,0,0,.46,2c.7,1.36,1.36,2.75,2,4.12,1.07,2.18,2.14,4.35,3.2,6.53.08.17.15.34.23.5s0,.17.14.17.12-.08.16-.13l.29-.44,4.11-6.14c1.46-2.19,2.93-4.37,4.4-6.56l4.8-7.14c.51-.77,1-1.53,1.54-2.28a.43.43,0,0,0,0-.53l-2.61-4.84c-1.12-2.08-2.24-4.17-3.37-6.25-.69-1.28-1.39-2.56-2.08-3.85-.1-.19-.21-.23-.39-.12l-2.34,1.36-2.89,1.69L696,174l-2.31,1.34-2,1.2-.52.3a.69.69,0,0,0-.35.66v8.86Z"/><path class="cls-4" d="M731.43,212.3l.19-.24c.4-.51.8-1,1.21-1.51l3.52-4.38,2.61-3.24c.24-.3.48-.61.74-.91a.39.39,0,0,0,.06-.51L738,198,735.59,193q-1.17-2.39-2.33-4.77L731.17,184q-1.2-2.48-2.41-5l-2.25-4.54c-.32-.67-.64-1.34-1-2l0-.1c-.14-.23-.15-.24-.3,0l-2.13,3.17c-1.52,2.26-3,4.52-4.55,6.77-.56.84-1.11,1.67-1.68,2.5a.45.45,0,0,0,0,.55c.52,1,1,1.92,1.56,2.88l2.52,4.67,1.47,2.74q1.27,2.37,2.56,4.74l1.73,3.22,2.53,4.69c.63,1.16,1.25,2.32,1.87,3.48.07.13.14.26.22.39A.23.23,0,0,0,731.43,212.3Z"/><path class="cls-4" d="M758.55,200.53q0-7.69,0-15.41c0-.13.07-.31,0-.36s-.19.14-.27.22c-.77,1-1.54,1.93-2.32,2.89l-3,3.76-3.57,4.43c-.82,1-1.63,2-2.45,3.05s-1.53,1.91-2.3,2.85a.5.5,0,0,0-.08.65c.91,1.82,1.8,3.65,2.69,5.48.78,1.58,1.56,3.18,2.34,4.77l2.3,4.7c.33.67.65,1.34,1,2,.07.15.15.19.3.1.75-.45,1.51-.88,2.27-1.32l2-1.15c.3-.17.6-.34.89-.52a.67.67,0,0,0,.34-.57V200.53Z"/><path class="cls-4" d="M733.34,218.52a1.66,1.66,0,0,0,.11.24c.65,1.22,1.31,2.43,2,3.64l2.79,5.16c.4.73.79,1.47,1.18,2.21.14.26.18.28.42.14l2.5-1.45,1.36-.8c.66-.37,1.31-.75,2-1.13l3.29-1.91c.17-.1.32-.2.49-.29s.2-.18.12-.35c-.19-.37-.36-.75-.54-1.12-.64-1.29-1.28-2.57-1.91-3.86l-2.43-5c-.75-1.55-1.51-3.09-2.27-4.64-.19-.38-.37-.76-.55-1.14-.09-.19-.17-.17-.29,0L739,211.46l-3.29,4.07-2.22,2.76A.38.38,0,0,0,733.34,218.52Z"/><path class="cls-4" d="M707.24,167.55l0,.11,1.94,3.61,1.48,2.75c.95,1.77,1.91,3.53,2.86,5.29l.9,1.71c.15.28.19.29.37,0l2.46-3.65,2.89-4.31c1-1.52,2-3.06,3.08-4.58a.48.48,0,0,0,.05-.55q-1.1-2.19-2.16-4.4c-.5-1-1-2-1.48-3-.08-.18-.19-.21-.36-.11-1.49.87-3,1.75-4.47,2.61-.84.49-1.68,1-2.52,1.43q-2.25,1.34-4.51,2.66c-.16.1-.32.18-.47.28A.2.2,0,0,0,707.24,167.55Z"/><path class="cls-4" d="M724.64,238.64a1.48,1.48,0,0,0,.41-.12l2.38-1.39,2.59-1.52,2.32-1.34,2.42-1.41,1.23-.73c.29-.17.31-.21.15-.5l-2.44-4.52c-.62-1.14-1.22-2.28-1.83-3.42-.34-.62-.68-1.24-1-1.87-.08-.14-.14-.15-.24,0l-2.33,2.89-3.13,3.88-3,3.77-2.48,3.07c-.21.26-.23.28.07.46.65.4,1.31.78,2,1.16s1.25.75,1.88,1.1a3.51,3.51,0,0,0,.92.48Z"/><path class="cls-4" d="M690.78,212.86v5.58a1.35,1.35,0,0,0,0,.4c0,.07,0,.17.13.18s.14-.06.19-.13l.79-1.19c.75-1.11,1.49-2.23,2.25-3.33a.63.63,0,0,0,.05-.74c-.81-1.63-1.6-3.27-2.4-4.9l-.81-1.65c0-.08,0-.21-.15-.19s-.08.16-.08.24v5.73Z"/><path class="cls-4" d="M724.63,157.48a1.71,1.71,0,0,0-.89.36c-.22.11-.43.25-.64.38s-.27.18-.14.45c.41.83.82,1.66,1.22,2.49l1.54,3.16c0,.07.07.17.15.18s.13-.09.18-.16l2.8-4.17c.18-.27.18-.3-.1-.46l-2-1.15-1.46-.87A1.27,1.27,0,0,0,724.63,157.48Z"/><path class="cls-4" d="M694.28,220.94c0,.15.11.19.19.24,1.15.68,2.3,1.36,3.46,2,.33.18.63.4,1,.56.07,0,.17.11.24,0s0-.15,0-.21c-.58-1.19-1.16-2.38-1.75-3.57l-.91-1.86c-.11-.22-.14-.22-.28,0l-1.77,2.64Z"/><rect class="cls-14" x="814.09" y="388.9" width="54.77" height="18.37" rx="1"/><path class="cls-14" d="M819.29,420.12,782.63,399a1,1,0,0,1,0-1.73l36.66-21.16a1,1,0,0,1,1.5.86v42.33A1,1,0,0,1,819.29,420.12Z"/><rect class="cls-9" x="781.03" y="341.29" width="54.77" height="18.37" rx="1"/><path class="cls-9" d="M830.6,372.51l36.65-21.17a1,1,0,0,0,0-1.73L830.6,328.45a1,1,0,0,0-1.5.86v42.33A1,1,0,0,0,830.6,372.51Z"/></g><g id="Layer_8" data-name="Layer 8"><ellipse class="cls-15" cx="164.56" cy="903.63" rx="100.37" ry="25"/><polygon class="cls-16" points="200.59 664.46 214.78 766.88 205.01 888.01 188.97 888.01 182.49 778.6 158.6 724.97 153.04 776.24 130.38 887.9 114.34 887.9 123.91 785.04 114.46 667.4 200.59 664.46"/><path class="cls-4" d="M189,888,188,902.77a.78.78,0,0,0,.75.86H227a.69.69,0,0,0,.28-1.28c-5.23-2.79-17.49-9.58-22.31-14.34Z"/><path class="cls-4" d="M114.34,887.9l-.93,14.87a.79.79,0,0,0,.75.86h38.26a.68.68,0,0,0,.27-1.28c-5.23-2.79-17.48-9.69-22.31-14.45Z"/><polygon class="cls-17" points="164.56 711.2 191.66 775.86 188.97 887.9 182.49 778.6 158.6 724.97 164.56 711.2"/><path class="cls-18" d="M156.86,534.68c.41-4.43-1.62-14.5,3.81-17.06,12.18-5.73,29.08-33.05,4.61-49.53-26-13.32-34.22,7.21-34.22,7.21l1.72,58.58Z"/><path class="cls-19" d="M131.77,511c-9.25-.92-34.54-56.24,2.73-63.11,21.86-4,52.87,6.54,35.28,24-7.05,4.39-26.09-5-32.78.85-3.22,2.88-1.75,8.77-1,13.22C138.24,500.23,139.7,510,131.77,511Z"/><path class="cls-18" d="M281.9,571.47c9.34-2.19,14,9.44,5,13.46-9.32,4.16-16.94,7-16.94,7l-3.3-16A113.71,113.71,0,0,1,281.9,571.47Z"/><path class="cls-18" d="M95.07,673.87c6.5,6.48,15.18,5.09,12-3.1-2.34-6.08-9-17.67-9-17.67L85.65,663.42S87.29,666.13,95.07,673.87Z"/><path class="cls-9" d="M269.91,591.92l-3.3-16-36,13s-29.29-39.7-42.9-48.88c-10.72-7.23-29.87-11.17-42.8-11.24-10.5-.06-39.15,5.12-44.49,9.6C84.14,552,50,604.18,50,604.18l35.65,59.24L98.08,653.1,79,608.74l25.59-27.1,8.79,98.85c29.05,11,62.79,6.11,91-9.28l-12.72-83.09,34,32.93Z"/><polygon class="cls-20" points="114.34 570.17 113.41 680.49 104.62 581.64 114.34 570.17"/><polygon class="cls-21" points="187.67 568.17 225.7 621.04 191.66 588.12 187.67 568.17"/><path class="cls-3" d="M319,543.44a6.88,6.88,0,0,0-6.88-6.88h-25.2a6.88,6.88,0,0,0-6.88,6.88h0v65.25a6.88,6.88,0,0,0,6.88,6.88h25.2a6.88,6.88,0,0,0,6.88-6.88h0Z"/><path class="cls-4" d="M312.36,538.35h-3.29a2.44,2.44,0,0,1-1.33,3.18,2.48,2.48,0,0,1-.93.18H292.38a2.44,2.44,0,0,1-2.44-2.44,2.39,2.39,0,0,1,.18-.92h-3.07a5.15,5.15,0,0,0-5.15,5.14h0v65.15a5.15,5.15,0,0,0,5.15,5.14h25.31a5.14,5.14,0,0,0,5.14-5.14h0V543.49A5.14,5.14,0,0,0,312.36,538.35Z"/><path class="cls-22" d="M312.36,538.35h-3.29a2.44,2.44,0,0,1-1.33,3.18,2.48,2.48,0,0,1-.93.18H292.38a2.44,2.44,0,0,1-2.44-2.44,2.39,2.39,0,0,1,.18-.92h-3.07a5.15,5.15,0,0,0-5.15,5.14h0v65.15a5.15,5.15,0,0,0,5.15,5.14h25.31a5.14,5.14,0,0,0,5.14-5.14h0V543.49A5.14,5.14,0,0,0,312.36,538.35Z"/></g></g></g></svg>