<svg width="901" height="693" viewBox="0 0 901 693" fill="none" xmlns="http://www.w3.org/2000/svg">
<path d="M435.99 394.76L291.44 337.01C191.8 376.81 109.64 411.59 10 451.37L605.16 689.18C704.8 649.37 791.8 616.53 891.44 576.72L710.28 504.35" stroke="#633778" stroke-width="7" stroke-miterlimit="10"/>
<path d="M410.03 406.79L300.88 363.19L80.1602 451.37L605.16 661.12L825.88 572.94L652 503.47" stroke="#23213B" stroke-width="7" stroke-miterlimit="10"/>
<path d="M219.39 367.7L221.24 366.93L219.5 366.21L223.2 364.66L224.94 365.38L226.79 364.61L222.44 362.82L215.04 365.91L219.39 367.7Z" fill="#E1E1E1"/>
<path d="M116.999 409.55L118.849 408.78L117.109 408.06L120.809 406.51L122.549 407.23L124.399 406.46L120.049 404.67L112.649 407.76L116.999 409.55Z" fill="#E1E1E1"/>
<path d="M206.59 372.93L208.44 372.16L206.7 371.44L210.4 369.89L212.14 370.61L213.99 369.84L209.64 368.05L202.24 371.14L206.59 372.93Z" fill="#E1E1E1"/>
<path d="M104.2 414.78L106.05 414.01L104.31 413.29L108.01 411.75L109.75 412.46L111.6 411.69L107.25 409.9L99.8496 412.99L104.2 414.78Z" fill="#E1E1E1"/>
<path d="M232.19 362.47L239.59 359.37L235.23 357.59L227.83 360.68L232.19 362.47Z" fill="#E1E1E1"/>
<path d="M129.799 404.32L137.199 401.23L132.839 399.44L125.439 402.53L129.799 404.32Z" fill="#E1E1E1"/>
<path d="M193.789 378.16L201.189 375.07L196.839 373.28L189.439 376.37L193.789 378.16Z" fill="#E1E1E1"/>
<path d="M91.3998 420.01L98.7998 416.92L94.4498 415.13L87.0498 418.22L91.3998 420.01Z" fill="#E1E1E1"/>
<path d="M257.78 352L265.18 348.91L260.83 347.12L253.43 350.21L257.78 352Z" fill="#E1E1E1"/>
<path d="M155.39 393.85L162.79 390.76L158.44 388.97L151.04 392.07L155.39 393.85Z" fill="#E1E1E1"/>
<path d="M244.98 357.23L246.83 356.46L245.09 355.75L248.79 354.2L250.53 354.92L252.39 354.14L248.03 352.35L240.63 355.45L244.98 357.23Z" fill="#E1E1E1"/>
<path d="M142.6 399.09L144.44 398.31L142.7 397.6L146.4 396.05L148.15 396.77L150 396L145.64 394.21L138.24 397.3L142.6 399.09Z" fill="#E1E1E1"/>
<path d="M283.379 341.54L290.779 338.45L286.429 336.66L279.029 339.75L283.379 341.54Z" fill="#E1E1E1"/>
<path d="M180.99 383.39L188.39 380.3L184.04 378.51L176.64 381.6L180.99 383.39Z" fill="#E1E1E1"/>
<path d="M270.579 346.77L272.429 346L270.689 345.28L274.389 343.74L276.129 344.45L277.979 343.68L273.629 341.89L266.229 344.98L270.579 346.77Z" fill="#E1E1E1"/>
<path d="M168.19 388.62L170.04 387.85L168.3 387.13L172 385.59L173.74 386.31L175.59 385.53L171.24 383.74L163.84 386.83L168.19 388.62Z" fill="#E1E1E1"/>
<path d="M14.6098 451.4L16.4598 450.63L14.7198 449.91L18.4198 448.37L20.1598 449.08L22.0098 448.31L17.6598 446.52L10.2598 449.61L14.6098 451.4Z" fill="#E1E1E1"/>
<path d="M27.4098 446.17L34.8098 443.08L30.4498 441.29L23.0498 444.38L27.4098 446.17Z" fill="#E1E1E1"/>
<path d="M52.9994 435.71L60.3994 432.62L56.0494 430.83L48.6494 433.92L52.9994 435.71Z" fill="#E1E1E1"/>
<path d="M40.1996 440.94L42.0496 440.17L40.3096 439.45L44.0096 437.9L45.7496 438.62L47.6096 437.85L43.2496 436.06L35.8496 439.15L40.1996 440.94Z" fill="#E1E1E1"/>
<path d="M78.6 425.24L86 422.15L81.65 420.36L74.25 423.45L78.6 425.24Z" fill="#E1E1E1"/>
<path d="M65.8002 430.48L67.6502 429.7L65.9102 428.99L69.6102 427.44L71.3502 428.16L73.2002 427.38L68.8502 425.59L61.4502 428.69L65.8002 430.48Z" fill="#E1E1E1"/>
<path d="M242.239 388.21L244.099 387.44L242.359 386.72L246.069 385.19L247.809 385.92L249.659 385.16L245.319 383.34L237.899 386.39L242.239 388.21Z" fill="#E1E1E1"/>
<path d="M139.61 429.45L141.46 428.69L139.73 427.97L143.44 426.44L145.17 427.17L147.03 426.41L142.69 424.59L135.27 427.64L139.61 429.45Z" fill="#E1E1E1"/>
<path d="M229.42 393.36L231.27 392.6L229.53 391.87L233.24 390.35L234.98 391.08L236.83 390.32L232.49 388.5L225.08 391.55L229.42 393.36Z" fill="#E1E1E1"/>
<path d="M126.779 434.61L128.629 433.85L126.899 433.12L130.609 431.6L132.339 432.32L134.199 431.56L129.859 429.75L122.439 432.79L126.779 434.61Z" fill="#E1E1E1"/>
<path d="M255.079 383.05L262.489 380L258.149 378.19L250.729 381.23L255.079 383.05Z" fill="#E1E1E1"/>
<path d="M152.44 424.3L159.86 421.25L155.52 419.43L148.1 422.48L152.44 424.3Z" fill="#E1E1E1"/>
<path d="M216.59 398.52L224 395.47L219.66 393.66L212.25 396.7L216.59 398.52Z" fill="#E1E1E1"/>
<path d="M113.949 439.76L121.369 436.72L117.029 434.9L109.609 437.95L113.949 439.76Z" fill="#E1E1E1"/>
<path d="M280.73 372.74L288.15 369.69L283.81 367.88L276.39 370.92L280.73 372.74Z" fill="#E1E1E1"/>
<path d="M178.1 413.98L185.52 410.94L181.18 409.12L173.76 412.17L178.1 413.98Z" fill="#E1E1E1"/>
<path d="M267.9 377.89L269.76 377.13L268.02 376.41L271.73 374.88L273.47 375.61L275.32 374.85L270.98 373.03L263.56 376.08L267.9 377.89Z" fill="#E1E1E1"/>
<path d="M165.27 419.14L167.12 418.38L165.39 417.65L169.1 416.13L170.83 416.86L172.69 416.09L168.35 414.28L160.93 417.33L165.27 419.14Z" fill="#E1E1E1"/>
<path d="M203.76 403.67L211.17 400.63L206.83 398.81L199.42 401.86L203.76 403.67Z" fill="#E1E1E1"/>
<path d="M293.56 367.58L295.42 366.82L293.68 366.09L297.39 364.57L299.13 365.3L300.98 364.54L296.64 362.72L289.22 365.77L293.56 367.58Z" fill="#E1E1E1"/>
<path d="M190.93 408.83L192.78 408.07L191.04 407.34L194.75 405.82L196.49 406.54L198.35 405.78L194 403.97L186.59 407.01L190.93 408.83Z" fill="#E1E1E1"/>
<path d="M101.119 444.92L108.539 441.87L104.199 440.06L96.7793 443.1L101.119 444.92Z" fill="#E1E1E1"/>
<path d="M88.2902 450.08L90.1502 449.32L88.4102 448.59L92.1202 447.07L93.8602 447.79L95.7102 447.03L91.3702 445.21L83.9502 448.26L88.2902 450.08Z" fill="#E1E1E1"/>
<path d="M679.95 657.48L678.09 658.22L679.82 658.97L676.1 660.45L674.36 659.71L672.5 660.45L676.83 662.31L684.27 659.34L679.95 657.48Z" fill="#E1E1E1"/>
<path d="M783 617.27L781.14 618.01L782.86 618.76L779.14 620.24L777.41 619.5L775.55 620.24L779.87 622.1L787.32 619.13L783 617.27Z" fill="#E1E1E1"/>
<path d="M692.83 652.45L690.97 653.2L692.7 653.94L688.97 655.43L687.25 654.68L685.38 655.43L689.71 657.29L697.15 654.31L692.83 652.45Z" fill="#E1E1E1"/>
<path d="M795.88 612.24L794.02 612.99L795.75 613.73L792.02 615.22L790.29 614.47L788.43 615.22L792.75 617.08L800.2 614.1L795.88 612.24Z" fill="#E1E1E1"/>
<path d="M667.07 662.51L659.62 665.48L663.95 667.34L671.39 664.37L667.07 662.51Z" fill="#E1E1E1"/>
<path d="M770.12 622.3L762.67 625.27L766.99 627.13L774.44 624.16L770.12 622.3Z" fill="#E1E1E1"/>
<path d="M705.71 647.43L698.26 650.4L702.59 652.26L710.04 649.29L705.71 647.43Z" fill="#E1E1E1"/>
<path d="M808.76 607.22L801.31 610.19L805.63 612.05L813.08 609.08L808.76 607.22Z" fill="#E1E1E1"/>
<path d="M641.309 672.56L633.859 675.53L638.179 677.39L645.629 674.42L641.309 672.56Z" fill="#E1E1E1"/>
<path d="M744.36 632.35L736.91 635.32L741.23 637.18L748.68 634.21L744.36 632.35Z" fill="#E1E1E1"/>
<path d="M654.19 667.53L652.33 668.28L654.06 669.02L650.33 670.51L648.6 669.76L646.74 670.5L651.06 672.36L658.51 669.39L654.19 667.53Z" fill="#E1E1E1"/>
<path d="M757.24 627.32L755.37 628.07L757.1 628.81L753.38 630.3L751.65 629.55L749.79 630.3L754.11 632.16L761.56 629.18L757.24 627.32Z" fill="#E1E1E1"/>
<path d="M615.55 682.61L608.1 685.58L612.42 687.44L619.87 684.47L615.55 682.61Z" fill="#E1E1E1"/>
<path d="M718.589 642.4L711.149 645.37L715.469 647.23L722.919 644.26L718.589 642.4Z" fill="#E1E1E1"/>
<path d="M628.43 677.59L626.569 678.33L628.299 679.07L624.569 680.56L622.839 679.81L620.979 680.56L625.299 682.42L632.75 679.44L628.43 677.59Z" fill="#E1E1E1"/>
<path d="M731.469 637.38L729.609 638.12L731.339 638.86L727.619 640.35L725.889 639.6L724.029 640.35L728.349 642.21L735.799 639.23L731.469 637.38Z" fill="#E1E1E1"/>
<path d="M886.04 577.06L884.18 577.81L885.91 578.55L882.19 580.04L880.46 579.29L878.6 580.03L882.92 581.89L890.37 578.92L886.04 577.06Z" fill="#E1E1E1"/>
<path d="M873.16 582.09L865.72 585.06L870.04 586.92L877.48 583.95L873.16 582.09Z" fill="#E1E1E1"/>
<path d="M847.4 592.14L839.95 595.11L844.28 596.97L851.72 594L847.4 592.14Z" fill="#E1E1E1"/>
<path d="M860.28 587.11L858.42 587.86L860.15 588.6L856.43 590.09L854.7 589.34L852.83 590.09L857.16 591.95L864.6 588.97L860.28 587.11Z" fill="#E1E1E1"/>
<path d="M821.639 602.19L814.189 605.17L818.509 607.02L825.959 604.05L821.639 602.19Z" fill="#E1E1E1"/>
<path d="M834.519 597.17L832.659 597.91L834.389 598.65L830.659 600.14L828.929 599.4L827.069 600.14L831.389 602L838.839 599.03L834.519 597.17Z" fill="#E1E1E1"/>
<path d="M651.659 640.36L649.799 641.12L651.539 641.85L647.819 643.36L646.089 642.62L644.229 643.38L648.569 645.21L655.99 642.2L651.659 640.36Z" fill="#E1E1E1"/>
<path d="M754.469 599.54L752.609 600.29L754.339 601.02L750.629 602.53L748.889 601.8L747.029 602.55L751.369 604.39L758.799 601.37L754.469 599.54Z" fill="#E1E1E1"/>
<path d="M664.51 635.26L662.65 636.01L664.39 636.75L660.67 638.25L658.94 637.52L657.08 638.28L661.42 640.11L668.85 637.09L664.51 635.26Z" fill="#E1E1E1"/>
<path d="M767.32 594.43L765.46 595.19L767.19 595.92L763.48 597.43L761.74 596.7L759.88 597.45L764.22 599.28L771.65 596.27L767.32 594.43Z" fill="#E1E1E1"/>
<path d="M638.81 645.47L631.38 648.48L635.71 650.32L643.14 647.3L638.81 645.47Z" fill="#E1E1E1"/>
<path d="M741.61 604.64L734.18 607.66L738.52 609.49L745.95 606.47L741.61 604.64Z" fill="#E1E1E1"/>
<path d="M677.36 630.16L669.93 633.17L674.26 635.01L681.7 631.99L677.36 630.16Z" fill="#E1E1E1"/>
<path d="M780.169 589.33L772.729 592.35L777.069 594.18L784.5 591.16L780.169 589.33Z" fill="#E1E1E1"/>
<path d="M613.11 655.67L605.68 658.69L610.01 660.52L617.44 657.5L613.11 655.67Z" fill="#E1E1E1"/>
<path d="M715.909 614.85L708.479 617.86L712.819 619.7L720.25 616.68L715.909 614.85Z" fill="#E1E1E1"/>
<path d="M625.959 650.57L624.099 651.32L625.839 652.06L622.119 653.57L620.389 652.83L618.529 653.59L622.859 655.42L630.289 652.4L625.959 650.57Z" fill="#E1E1E1"/>
<path d="M728.76 609.74L726.91 610.5L728.64 611.23L724.93 612.74L723.19 612.01L721.33 612.76L725.67 614.59L733.1 611.58L728.76 609.74Z" fill="#E1E1E1"/>
<path d="M690.209 625.05L682.779 628.07L687.119 629.9L694.549 626.89L690.209 625.05Z" fill="#E1E1E1"/>
<path d="M703.06 619.95L701.21 620.7L702.94 621.44L699.22 622.95L697.49 622.21L695.63 622.97L699.97 624.8L707.4 621.78L703.06 619.95Z" fill="#E1E1E1"/>
<path d="M818.72 574.02L811.29 577.04L815.62 578.87L823.05 575.85L818.72 574.02Z" fill="#E1E1E1"/>
<path d="M793.02 584.23L785.59 587.24L789.92 589.08L797.35 586.06L793.02 584.23Z" fill="#E1E1E1"/>
<path d="M805.87 579.12L804.009 579.88L805.74 580.61L802.029 582.12L800.289 581.39L798.439 582.14L802.769 583.97L810.199 580.96L805.87 579.12Z" fill="#E1E1E1"/>
<path d="M812.839 569.12L805.399 566.1L809.739 564.27L817.169 567.29L812.839 569.12Z" fill="#E1E1E1"/>
<path d="M799.98 564.01L798.13 563.26L799.86 562.53L796.14 561.02L794.41 561.75L792.55 561L796.89 559.17L804.32 562.18L799.98 564.01Z" fill="#E1E1E1"/>
<path d="M878.73 573.21L871.3 570.19L875.63 568.36L883.06 571.38L878.73 573.21Z" fill="#E1E1E1"/>
<path d="M865.88 568.11L864.02 567.35L865.75 566.62L862.04 565.11L860.3 565.84L858.45 565.09L862.78 563.26L870.21 566.27L865.88 568.11Z" fill="#E1E1E1"/>
<path d="M854.11 563.26L846.68 560.24L851.02 558.41L858.45 561.42L854.11 563.26Z" fill="#E1E1E1"/>
<path d="M841.26 558.15L839.4 557.4L841.14 556.67L837.42 555.16L835.69 555.89L833.83 555.14L838.17 553.3L845.6 556.32L841.26 558.15Z" fill="#E1E1E1"/>
<path d="M828.73 553.18L821.3 550.16L825.63 548.33L833.06 551.34L828.73 553.18Z" fill="#E1E1E1"/>
<path d="M303.77 343.71L296.34 340.69L300.67 338.86L308.11 341.87L303.77 343.71Z" fill="#E1E1E1"/>
<path d="M223.769 534.95L225.629 535.7L223.889 536.43L227.609 537.94L229.339 537.21L231.199 537.96L226.869 539.8L219.439 536.78L223.769 534.95Z" fill="#E1E1E1"/>
<path d="M121.34 494.09L123.2 494.84L121.47 495.58L125.18 497.09L126.91 496.35L128.77 497.11L124.44 498.94L117.01 495.93L121.34 494.09Z" fill="#E1E1E1"/>
<path d="M210.97 529.84L212.82 530.59L211.09 531.33L214.8 532.84L216.54 532.1L218.4 532.85L214.06 534.69L206.63 531.67L210.97 529.84Z" fill="#E1E1E1"/>
<path d="M108.54 488.98L110.4 489.74L108.66 490.47L112.38 491.98L114.11 491.25L115.97 492L111.64 493.83L104.21 490.82L108.54 488.98Z" fill="#E1E1E1"/>
<path d="M236.57 540.05L244 543.07L239.67 544.9L232.24 541.89L236.57 540.05Z" fill="#E1E1E1"/>
<path d="M134.15 499.2L141.58 502.21L137.24 504.05L129.81 501.03L134.15 499.2Z" fill="#E1E1E1"/>
<path d="M198.16 524.73L205.59 527.75L201.26 529.58L193.83 526.57L198.16 524.73Z" fill="#E1E1E1"/>
<path d="M95.7294 483.88L103.169 486.89L98.8294 488.73L91.3994 485.71L95.7294 483.88Z" fill="#E1E1E1"/>
<path d="M262.18 550.27L269.61 553.28L265.28 555.12L257.85 552.1L262.18 550.27Z" fill="#E1E1E1"/>
<path d="M159.75 509.41L167.18 512.43L162.85 514.26L155.42 511.25L159.75 509.41Z" fill="#E1E1E1"/>
<path d="M249.38 545.16L251.23 545.91L249.5 546.65L253.22 548.16L254.95 547.42L256.81 548.18L252.47 550.01L245.04 546.99L249.38 545.16Z" fill="#E1E1E1"/>
<path d="M146.95 504.31L148.81 505.06L147.07 505.79L150.79 507.3L152.52 506.57L154.38 507.32L150.05 509.15L142.62 506.14L146.95 504.31Z" fill="#E1E1E1"/>
<path d="M287.79 560.48L295.22 563.5L290.88 565.33L283.45 562.32L287.79 560.48Z" fill="#E1E1E1"/>
<path d="M185.359 519.63L192.789 522.64L188.459 524.47L181.029 521.46L185.359 519.63Z" fill="#E1E1E1"/>
<path d="M274.979 555.37L276.839 556.13L275.109 556.86L278.819 558.37L280.559 557.64L282.409 558.39L278.079 560.22L270.649 557.21L274.979 555.37Z" fill="#E1E1E1"/>
<path d="M172.56 514.52L174.41 515.27L172.68 516.01L176.4 517.51L178.13 516.78L179.99 517.53L175.65 519.37L168.22 516.35L172.56 514.52Z" fill="#E1E1E1"/>
<path d="M18.9101 453.24L20.7701 453.99L19.0401 454.72L22.7501 456.23L24.4901 455.5L26.3501 456.25L22.0101 458.09L14.5801 455.07L18.9101 453.24Z" fill="#E1E1E1"/>
<path d="M31.7199 458.34L39.1499 461.36L34.8199 463.19L27.3799 460.18L31.7199 458.34Z" fill="#E1E1E1"/>
<path d="M57.3202 468.56L64.7602 471.57L60.4202 473.41L52.9902 470.39L57.3202 468.56Z" fill="#E1E1E1"/>
<path d="M44.5195 463.45L46.3795 464.2L44.6395 464.94L48.3595 466.45L50.0895 465.71L51.9495 466.47L47.6195 468.3L40.1895 465.28L44.5195 463.45Z" fill="#E1E1E1"/>
<path d="M82.9296 478.77L90.3596 481.79L86.0296 483.62L78.5996 480.6L82.9296 478.77Z" fill="#E1E1E1"/>
<path d="M70.1298 473.66L71.9898 474.42L70.2498 475.15L73.9698 476.66L75.6998 475.93L77.5598 476.68L73.2298 478.51L65.7998 475.5L70.1298 473.66Z" fill="#E1E1E1"/>
<path d="M505.439 647.3L507.299 648.05L505.569 648.79L509.279 650.29L511.019 649.56L512.879 650.31L508.539 652.15L501.109 649.13L505.439 647.3Z" fill="#E1E1E1"/>
<path d="M403.02 606.44L404.87 607.2L403.14 607.93L406.86 609.44L408.59 608.71L410.45 609.46L406.11 611.29L398.68 608.28L403.02 606.44Z" fill="#E1E1E1"/>
<path d="M492.64 642.19L494.5 642.95L492.76 643.68L496.48 645.19L498.21 644.45L500.07 645.21L495.74 647.04L488.31 644.03L492.64 642.19Z" fill="#E1E1E1"/>
<path d="M390.21 601.34L392.07 602.09L390.34 602.82L394.05 604.33L395.79 603.6L397.65 604.35L393.31 606.19L385.88 603.17L390.21 601.34Z" fill="#E1E1E1"/>
<path d="M518.25 652.41L525.68 655.42L521.35 657.25L513.92 654.24L518.25 652.41Z" fill="#E1E1E1"/>
<path d="M415.82 611.55L423.25 614.57L418.92 616.4L411.49 613.38L415.82 611.55Z" fill="#E1E1E1"/>
<path d="M479.84 637.09L487.27 640.1L482.94 641.93L475.5 638.92L479.84 637.09Z" fill="#E1E1E1"/>
<path d="M377.41 596.23L384.84 599.24L380.51 601.08L373.08 598.06L377.41 596.23Z" fill="#E1E1E1"/>
<path d="M543.85 662.62L551.29 665.63L546.95 667.47L539.52 664.45L543.85 662.62Z" fill="#E1E1E1"/>
<path d="M441.43 621.76L448.86 624.78L444.53 626.61L437.09 623.6L441.43 621.76Z" fill="#E1E1E1"/>
<path d="M531.05 657.51L532.91 658.27L531.18 659L534.89 660.51L536.62 659.77L538.48 660.53L534.15 662.36L526.72 659.35L531.05 657.51Z" fill="#E1E1E1"/>
<path d="M428.62 616.66L430.48 617.41L428.75 618.14L432.46 619.65L434.2 618.92L436.05 619.67L431.72 621.51L424.29 618.49L428.62 616.66Z" fill="#E1E1E1"/>
<path d="M569.46 672.83L576.89 675.85L572.56 677.68L565.13 674.67L569.46 672.83Z" fill="#E1E1E1"/>
<path d="M467.03 631.98L474.47 634.99L470.13 636.83L462.7 633.81L467.03 631.98Z" fill="#E1E1E1"/>
<path d="M556.66 667.73L558.52 668.48L556.78 669.22L560.5 670.72L562.23 669.99L564.09 670.74L559.76 672.58L552.33 669.56L556.66 667.73Z" fill="#E1E1E1"/>
<path d="M582.26 677.94L589.7 680.96L585.36 682.79L577.93 679.77L582.26 677.94Z" fill="#E1E1E1"/>
<path d="M595.069 683.05L596.93 683.8L595.189 684.54L598.909 686.04L600.639 685.31L602.5 686.06L598.169 687.9L590.729 684.88L595.069 683.05Z" fill="#E1E1E1"/>
<path d="M454.229 626.87L456.089 627.62L454.349 628.36L458.069 629.87L459.799 629.13L461.659 629.89L457.329 631.72L449.899 628.71L454.229 626.87Z" fill="#E1E1E1"/>
<path d="M300.59 565.59L302.45 566.34L300.71 567.08L304.43 568.58L306.16 567.85L308.02 568.6L303.69 570.44L296.26 567.42L300.59 565.59Z" fill="#E1E1E1"/>
<path d="M313.39 570.7L320.82 573.71L316.49 575.54L309.06 572.53L313.39 570.7Z" fill="#E1E1E1"/>
<path d="M339 580.91L346.43 583.92L342.1 585.76L334.67 582.74L339 580.91Z" fill="#E1E1E1"/>
<path d="M326.199 575.8L328.049 576.56L326.319 577.29L330.039 578.8L331.769 578.06L333.629 578.82L329.289 580.65L321.859 577.64L326.199 575.8Z" fill="#E1E1E1"/>
<path d="M364.61 591.12L372.04 594.14L367.71 595.97L360.27 592.96L364.61 591.12Z" fill="#E1E1E1"/>
<path d="M351.8 586.02L353.66 586.77L351.93 587.5L355.64 589.01L357.38 588.28L359.23 589.03L354.9 590.86L347.47 587.85L351.8 586.02Z" fill="#E1E1E1"/>
<path d="M221.939 506.07L223.799 506.82L222.059 507.55L225.779 509.06L227.509 508.33L229.369 509.08L225.039 510.91L217.609 507.9L221.939 506.07Z" fill="#E1E1E1"/>
<path d="M119.51 465.21L121.37 465.96L119.63 466.7L123.35 468.2L125.09 467.47L126.94 468.22L122.61 470.06L115.18 467.04L119.51 465.21Z" fill="#E1E1E1"/>
<path d="M209.14 500.96L210.99 501.71L209.26 502.45L212.97 503.95L214.71 503.22L216.57 503.97L212.23 505.81L204.8 502.79L209.14 500.96Z" fill="#E1E1E1"/>
<path d="M106.71 460.1L108.56 460.86L106.83 461.59L110.55 463.1L112.28 462.36L114.14 463.12L109.81 464.95L102.38 461.94L106.71 460.1Z" fill="#E1E1E1"/>
<path d="M234.74 511.17L242.17 514.19L237.84 516.02L230.41 513.01L234.74 511.17Z" fill="#E1E1E1"/>
<path d="M132.309 470.32L139.749 473.33L135.41 475.17L127.979 472.15L132.309 470.32Z" fill="#E1E1E1"/>
<path d="M196.33 495.85L203.76 498.87L199.43 500.7L192 497.69L196.33 495.85Z" fill="#E1E1E1"/>
<path d="M93.8993 454.99L101.339 458.01L96.9993 459.84L89.5693 456.83L93.8993 454.99Z" fill="#E1E1E1"/>
<path d="M260.35 521.38L267.78 524.4L263.45 526.23L256.02 523.22L260.35 521.38Z" fill="#E1E1E1"/>
<path d="M157.92 480.53L165.35 483.55L161.02 485.38L153.59 482.36L157.92 480.53Z" fill="#E1E1E1"/>
<path d="M247.54 516.28L249.4 517.03L247.67 517.77L251.39 519.27L253.12 518.54L254.98 519.29L250.64 521.13L243.21 518.11L247.54 516.28Z" fill="#E1E1E1"/>
<path d="M145.119 475.42L146.979 476.18L145.239 476.91L148.959 478.42L150.689 477.68L152.549 478.44L148.219 480.27L140.779 477.26L145.119 475.42Z" fill="#E1E1E1"/>
<path d="M285.96 531.6L293.39 534.61L289.05 536.45L281.62 533.43L285.96 531.6Z" fill="#E1E1E1"/>
<path d="M183.529 490.74L190.959 493.76L186.629 495.59L179.189 492.58L183.529 490.74Z" fill="#E1E1E1"/>
<path d="M273.149 526.49L275.009 527.25L273.279 527.98L276.989 529.49L278.729 528.75L280.579 529.51L276.249 531.34L268.819 528.33L273.149 526.49Z" fill="#E1E1E1"/>
<path d="M170.72 485.64L172.58 486.39L170.85 487.12L174.56 488.63L176.3 487.9L178.16 488.65L173.82 490.49L166.39 487.47L170.72 485.64Z" fill="#E1E1E1"/>
<path d="M503.609 618.42L505.469 619.17L503.739 619.91L507.449 621.41L509.189 620.68L511.049 621.43L506.709 623.27L499.279 620.25L503.609 618.42Z" fill="#E1E1E1"/>
<path d="M401.19 577.56L403.04 578.32L401.31 579.05L405.03 580.56L406.76 579.82L408.62 580.58L404.28 582.41L396.85 579.4L401.19 577.56Z" fill="#E1E1E1"/>
<path d="M490.81 613.31L492.669 614.06L490.939 614.8L494.649 616.31L496.379 615.57L498.24 616.33L493.909 618.16L486.479 615.14L490.81 613.31Z" fill="#E1E1E1"/>
<path d="M388.38 572.46L390.24 573.21L388.51 573.94L392.22 575.45L393.96 574.72L395.81 575.47L391.48 577.3L384.05 574.29L388.38 572.46Z" fill="#E1E1E1"/>
<path d="M516.42 623.52L523.85 626.54L519.52 628.37L512.08 625.36L516.42 623.52Z" fill="#E1E1E1"/>
<path d="M413.99 582.67L421.42 585.68L417.09 587.52L409.66 584.5L413.99 582.67Z" fill="#E1E1E1"/>
<path d="M478.01 608.2L485.44 611.22L481.1 613.05L473.67 610.04L478.01 608.2Z" fill="#E1E1E1"/>
<path d="M375.58 567.35L383.01 570.36L378.68 572.2L371.25 569.18L375.58 567.35Z" fill="#E1E1E1"/>
<path d="M542.019 633.74L549.459 636.75L545.12 638.59L537.689 635.57L542.019 633.74Z" fill="#E1E1E1"/>
<path d="M439.6 592.88L447.03 595.9L442.7 597.73L435.26 594.72L439.6 592.88Z" fill="#E1E1E1"/>
<path d="M529.22 628.63L531.08 629.38L529.35 630.12L533.06 631.63L534.79 630.89L536.65 631.65L532.32 633.48L524.89 630.47L529.22 628.63Z" fill="#E1E1E1"/>
<path d="M426.79 587.78L428.65 588.53L426.92 589.26L430.63 590.77L432.37 590.04L434.22 590.79L429.89 592.62L422.46 589.61L426.79 587.78Z" fill="#E1E1E1"/>
<path d="M567.63 643.95L575.06 646.97L570.73 648.8L563.3 645.79L567.63 643.95Z" fill="#E1E1E1"/>
<path d="M465.2 603.1L472.63 606.11L468.3 607.95L460.87 604.93L465.2 603.1Z" fill="#E1E1E1"/>
<path d="M554.83 638.84L556.69 639.6L554.95 640.33L558.67 641.84L560.4 641.11L562.26 641.86L557.93 643.69L550.49 640.68L554.83 638.84Z" fill="#E1E1E1"/>
<path d="M580.44 649.06L587.87 652.07L583.53 653.91L576.1 650.89L580.44 649.06Z" fill="#E1E1E1"/>
<path d="M593.239 654.17L595.099 654.92L593.359 655.65L597.079 657.16L598.809 656.43L600.669 657.18L596.339 659.01L588.899 656L593.239 654.17Z" fill="#E1E1E1"/>
<path d="M452.399 597.99L454.259 598.74L452.519 599.48L456.239 600.98L457.969 600.25L459.829 601L455.499 602.84L448.069 599.82L452.399 597.99Z" fill="#E1E1E1"/>
<path d="M298.76 536.71L300.62 537.46L298.88 538.19L302.6 539.7L304.33 538.97L306.19 539.72L301.86 541.56L294.43 538.54L298.76 536.71Z" fill="#E1E1E1"/>
<path d="M311.559 541.81L318.989 544.83L314.659 546.66L307.229 543.65L311.559 541.81Z" fill="#E1E1E1"/>
<path d="M337.17 552.03L344.6 555.04L340.27 556.88L332.84 553.86L337.17 552.03Z" fill="#E1E1E1"/>
<path d="M324.369 546.92L326.219 547.67L324.489 548.41L328.209 549.92L329.939 549.18L331.799 549.94L327.459 551.77L320.029 548.75L324.369 546.92Z" fill="#E1E1E1"/>
<path d="M362.779 562.24L370.209 565.26L365.869 567.09L358.439 564.08L362.779 562.24Z" fill="#E1E1E1"/>
<path d="M349.97 557.13L351.83 557.89L350.1 558.62L353.81 560.13L355.55 559.39L357.4 560.15L353.07 561.98L345.64 558.97L349.97 557.13Z" fill="#E1E1E1"/>
<path d="M834.99 179.66L760.1 149.74L685.2 119.81L610.3 149.74V239.6V239.69V329.46V329.55V419.32V509.27L685.2 539.19L760.1 569.12L834.99 539.19V449.33V449.24V359.47V359.38V269.61V179.66Z" fill="#363F4A"/>
<path opacity="0.4" d="M760.1 569.12L610.3 509.27V149.74L760.1 209.59V569.12Z" fill="#231F20"/>
<g opacity="0.1">
<path opacity="0.1" d="M760.1 569.12L610.3 509.27V149.74L760.1 209.59V569.12Z" fill="url(#paint0_linear)"/>
</g>
<g opacity="0.1">
<path opacity="0.1" d="M834.99 539.19L760.1 569.12V209.59L834.99 179.66V539.19Z" fill="url(#paint1_linear)"/>
</g>
<g opacity="0.2">
<path opacity="0.2" d="M760.1 209.59L610.3 149.74L685.2 119.81L834.99 179.66L760.1 209.59Z" fill="#231F20"/>
</g>
<g opacity="0.1">
<path opacity="0.1" d="M760.1 209.59L610.3 149.74L685.2 119.81L834.99 179.66L760.1 209.59Z" fill="url(#paint2_linear)"/>
</g>
<path d="M736.28 384.2L742.23 381.83V291.88L736.28 294.26V316.74V339.23V361.72V384.2Z" fill="#E1E1E1"/>
<path d="M736.28 294.26L742.23 291.88L616.25 241.54L610.3 243.92L673.29 269.09L736.28 294.26Z" fill="#E1E1E1"/>
<path opacity="0.25" d="M736.28 294.26L742.23 291.88L616.25 241.54L610.3 243.92L673.29 269.09L736.28 294.26Z" fill="#231F20"/>
<path d="M736.28 384.2L610.3 333.87V243.92L736.28 294.26V384.2Z" fill="#23213B"/>
<path d="M720.66 301.47L717.68 300.28L717.62 305.79L720.61 306.98L720.66 301.47Z" fill="#00E4A2"/>
<path d="M710.53 296.02L707.54 294.83L707.49 300.34L710.47 301.53L710.53 296.02Z" fill="#00E4A2"/>
<path d="M705.16 293.87L702.17 292.67L702.12 298.18L705.1 299.38L705.16 293.87Z" fill="#00E4A2"/>
<path d="M705 310.4L702.01 309.2L701.96 314.72L704.95 315.91L705 310.4Z" fill="#00E4A2"/>
<path d="M699.11 299.74L696.12 298.54L696.07 304.05L699.06 305.25L699.11 299.74Z" fill="#00E4A2"/>
<path d="M699.02 308.7L696.04 307.5L695.99 313.01L698.97 314.21L699.02 308.7Z" fill="#00E4A2"/>
<path d="M704.83 328.31L701.84 327.12L701.79 332.63L704.77 333.83L704.83 328.31Z" fill="#00E4A2"/>
<path d="M698.77 334.87L695.79 333.68L695.74 339.19L698.72 340.39L698.77 334.87Z" fill="#00E4A2"/>
<path d="M710.11 339.42L707.13 338.23L707.08 343.74L710.06 344.94L710.11 339.42Z" fill="#00E4A2"/>
<path d="M720.57 310.43L717.59 309.23L717.54 314.74L720.52 315.94L720.57 310.43Z" fill="#00E4A2"/>
<path d="M721.68 320.55L717.5 318.88L717.49 319.57L721.67 321.24L721.68 320.55Z" fill="#00E4A2"/>
<path d="M705.48 322.35L701.31 320.68L701.3 321.36L705.48 323.04V322.35Z" fill="#00E4A2"/>
<path d="M721.25 364.64L717.08 362.97L717.07 363.66L721.25 365.33V364.64Z" fill="#00E4A2"/>
<path d="M720.42 326.28L720.41 327.65L719.22 327.17L719.19 329.93L720.38 330.41L720.37 331.79L717.39 330.59L717.44 325.08L720.42 326.28Z" fill="#00E4A2"/>
<path d="M710.37 312.56L710.36 313.94L709.16 313.46L709.14 316.21L710.33 316.69L710.32 318.07L707.33 316.87L707.38 311.36L710.37 312.56Z" fill="#00E4A2"/>
<path d="M698.95 316.96L698.93 318.34L697.74 317.86L697.71 320.62L698.9 321.09L698.89 322.47L695.91 321.28L695.96 315.76L698.95 316.96Z" fill="#00E4A2"/>
<path d="M698.69 343.83L698.68 345.21L697.48 344.73L697.46 347.48L698.65 347.96L698.64 349.34L695.65 348.14L695.7 342.63L698.69 343.83Z" fill="#00E4A2"/>
<path d="M698.6 352.79L698.59 354.16L697.4 353.69L697.37 356.44L698.56 356.92L698.55 358.3L695.57 357.1L695.62 351.59L698.6 352.79Z" fill="#00E4A2"/>
<path d="M698.87 325.23L698.85 326.61L697.66 326.13L697.63 328.88L698.83 329.36L698.81 330.74L695.83 329.54L695.88 324.03L698.87 325.23Z" fill="#00E4A2"/>
<path d="M705.08 302.13L705.06 303.51L703.87 303.03L703.84 305.79L705.04 306.27L705.02 307.65L702.04 306.45L702.09 300.94L705.08 302.13Z" fill="#00E4A2"/>
<path d="M704.66 346.22L701.67 345.03L701.62 350.54L704.6 351.74L704.66 346.22Z" fill="#00E4A2"/>
<path d="M704.58 354.49L704.56 355.87L703.37 355.39L703.34 358.15L704.54 358.63L704.52 360L701.54 358.81L701.59 353.29L704.58 354.49Z" fill="#00E4A2"/>
<path d="M710.28 321.51L710.27 322.89L709.08 322.41L709.05 325.17L710.24 325.65L710.23 327.03L707.25 325.83L707.3 320.32L710.28 321.51Z" fill="#00E4A2"/>
<path d="M710.2 330.47L710.19 331.85L708.99 331.37L708.97 334.12L710.16 334.6L710.15 335.98L707.16 334.78L707.21 329.27L710.2 330.47Z" fill="#00E4A2"/>
<path d="M709.94 357.34L706.96 356.14L706.9 361.65L709.89 362.85L709.94 357.34Z" fill="#00E4A2"/>
<path d="M710.03 348.38L710.01 349.76L708.82 349.28L708.8 352.04L709.99 352.52L709.97 353.89L706.99 352.7L707.04 347.18L710.03 348.38Z" fill="#00E4A2"/>
<path d="M668.67 287.52L665.69 286.32L665.64 291.84L668.62 293.03L668.67 287.52Z" fill="#00E4A2"/>
<path d="M668.59 296.48L665.6 295.28L665.55 300.79L668.53 301.99L668.59 296.48Z" fill="#00E4A2"/>
<path d="M668.34 322.66L665.35 321.46L665.3 326.97L668.28 328.17L668.34 322.66Z" fill="#00E4A2"/>
<path d="M668.51 304.74L668.49 306.12L667.3 305.64L667.27 308.4L668.47 308.88L668.46 310.26L665.47 309.06L665.52 303.55L668.51 304.74Z" fill="#00E4A2"/>
<path d="M668.25 331.61L668.24 332.99L667.04 332.51L667.02 335.27L668.21 335.75L668.2 337.12L665.21 335.93L665.27 330.41L668.25 331.61Z" fill="#00E4A2"/>
<path d="M668.17 340.57L668.15 341.95L666.96 341.47L666.93 344.22L668.13 344.7L668.11 346.08L665.13 344.88L665.18 339.37L668.17 340.57Z" fill="#00E4A2"/>
<path d="M668.43 313.01L668.42 314.39L667.22 313.91L667.2 316.67L668.39 317.15L668.38 318.52L665.39 317.33L665.45 311.81L668.43 313.01Z" fill="#00E4A2"/>
<path d="M677.7 282.85L674.72 281.65L674.67 287.16L677.65 288.36L677.7 282.85Z" fill="#00E4A2"/>
<path d="M677.29 326.25L674.31 325.05L674.25 330.56L677.24 331.76L677.29 326.25Z" fill="#00E4A2"/>
<path d="M677.55 299.38L677.53 300.76L676.34 300.28L676.31 303.04L677.51 303.52L677.49 304.89L674.51 303.7L674.56 298.18L677.55 299.38Z" fill="#00E4A2"/>
<path d="M677.46 308.34L677.45 309.72L676.25 309.24L676.23 311.99L677.42 312.47L677.41 313.85L674.42 312.65L674.48 307.14L677.46 308.34Z" fill="#00E4A2"/>
<path d="M677.37 317.29L677.36 318.67L676.17 318.19L676.14 320.95L677.34 321.43L677.32 322.81L674.34 321.61L674.39 316.1L677.37 317.29Z" fill="#00E4A2"/>
<path d="M677.12 344.16L674.13 342.97L674.08 348.48L677.07 349.67L677.12 344.16Z" fill="#00E4A2"/>
<path d="M677.2 335.21L677.19 336.58L676 336.1L675.97 338.86L677.16 339.34L677.15 340.72L674.17 339.52L674.22 334.01L677.2 335.21Z" fill="#00E4A2"/>
<path d="M663.38 277.1L660.4 275.9L660.34 281.41L663.33 282.61L663.38 277.1Z" fill="#00E4A2"/>
<path d="M662.97 320.5L659.98 319.3L659.93 324.82L662.91 326.01L662.97 320.5Z" fill="#00E4A2"/>
<path d="M663.219 293.63L663.209 295.01L662.009 294.53L661.99 297.29L663.18 297.77L663.169 299.14L660.189 297.95L660.24 292.44L663.219 293.63Z" fill="#00E4A2"/>
<path d="M663.14 302.59L663.12 303.97L661.93 303.49L661.9 306.24L663.1 306.72L663.08 308.1L660.1 306.9L660.15 301.39L663.14 302.59Z" fill="#00E4A2"/>
<path d="M663.05 311.54L663.04 312.92L661.84 312.44L661.82 315.2L663.01 315.68L663 317.06L660.01 315.86L660.07 310.35L663.05 311.54Z" fill="#00E4A2"/>
<path d="M662.8 338.41L659.81 337.22L659.76 342.73L662.74 343.92L662.8 338.41Z" fill="#00E4A2"/>
<path d="M662.88 329.46L662.87 330.84L661.67 330.36L661.65 333.11L662.84 333.59L662.83 334.97L659.84 333.77L659.9 328.26L662.88 329.46Z" fill="#00E4A2"/>
<path d="M720.26 343.5L720.25 344.88L719.05 344.4L719.02 347.15L720.22 347.63L720.21 349.01L717.22 347.81L717.27 342.3L720.26 343.5Z" fill="#00E4A2"/>
<path d="M689.63 289.02L686.64 287.82L686.59 293.33L689.57 294.53L689.63 289.02Z" fill="#00E4A2"/>
<path d="M689.54 297.97L686.56 296.78L686.5 302.29L689.49 303.48L689.54 297.97Z" fill="#00E4A2"/>
<path d="M690.64 308.1L686.46 306.42V307.11L690.64 308.79V308.1Z" fill="#00E4A2"/>
<path d="M690.22 352.19L686.04 350.51V351.2L690.22 352.88V352.19Z" fill="#00E4A2"/>
<path d="M689.39 313.82L689.38 315.2L688.18 314.72L688.16 317.47L689.35 317.95L689.34 319.33L686.35 318.13L686.4 312.62L689.39 313.82Z" fill="#00E4A2"/>
<path d="M689.219 331.04L689.209 332.42L688.019 331.94L687.99 334.7L689.189 335.17L689.169 336.55L686.189 335.35L686.24 329.84L689.219 331.04Z" fill="#00E4A2"/>
<path d="M655.04 335.3L652.05 334.1L652 339.61L654.98 340.81L655.04 335.3Z" fill="#00E4A2"/>
<path d="M646.06 271.53L643.08 270.33L643.02 275.84L646.01 277.04L646.06 271.53Z" fill="#00E4A2"/>
<path d="M635.93 266.08L632.94 264.88L632.89 270.39L635.87 271.59L635.93 266.08Z" fill="#00E4A2"/>
<path d="M630.56 263.92L627.57 262.73L627.52 268.24L630.5 269.44L630.56 263.92Z" fill="#00E4A2"/>
<path d="M630.4 280.46L627.41 279.26L627.36 284.77L630.35 285.97L630.4 280.46Z" fill="#00E4A2"/>
<path d="M624.51 269.79L621.52 268.6L621.47 274.11L624.46 275.31L624.51 269.79Z" fill="#00E4A2"/>
<path d="M624.42 278.75L621.44 277.55L621.39 283.07L624.37 284.26L624.42 278.75Z" fill="#00E4A2"/>
<path d="M630.229 298.37L627.24 297.17L627.189 302.68L630.169 303.88L630.229 298.37Z" fill="#00E4A2"/>
<path d="M624.17 304.93L621.19 303.73L621.14 309.24L624.12 310.44L624.17 304.93Z" fill="#00E4A2"/>
<path d="M635.51 309.48L632.53 308.28L632.48 313.8L635.46 314.99L635.51 309.48Z" fill="#00E4A2"/>
<path d="M645.969 280.49L642.99 279.29L642.939 284.8L645.919 286L645.969 280.49Z" fill="#00E4A2"/>
<path d="M647.08 290.61L642.9 288.93L642.89 289.62L647.07 291.3L647.08 290.61Z" fill="#00E4A2"/>
<path d="M630.88 292.41L626.71 290.73L626.7 291.42L630.88 293.1V292.41Z" fill="#00E4A2"/>
<path d="M646.65 334.7L642.48 333.02L642.47 333.71L646.65 335.39V334.7Z" fill="#00E4A2"/>
<path d="M645.82 296.33L645.81 297.71L644.62 297.23L644.59 299.99L645.78 300.47L645.77 301.84L642.79 300.64L642.84 295.13L645.82 296.33Z" fill="#00E4A2"/>
<path d="M635.77 282.61L635.76 283.99L634.56 283.51L634.54 286.27L635.73 286.75L635.72 288.13L632.73 286.93L632.79 281.42L635.77 282.61Z" fill="#00E4A2"/>
<path d="M624.341 287.02L624.331 288.4L623.141 287.92L623.111 290.67L624.311 291.15L624.291 292.53L621.311 291.33L621.361 285.82L624.341 287.02Z" fill="#00E4A2"/>
<path d="M624.09 313.89L624.08 315.26L622.88 314.78L622.85 317.54L624.05 318.02L624.04 319.4L621.05 318.2L621.1 312.69L624.09 313.89Z" fill="#00E4A2"/>
<path d="M624 322.84L623.99 324.22L622.8 323.74L622.77 326.5L623.96 326.98L623.95 328.35L620.97 327.16L621.02 321.65L624 322.84Z" fill="#00E4A2"/>
<path d="M624.26 295.29L624.25 296.66L623.06 296.18L623.03 298.94L624.23 299.42L624.21 300.8L621.23 299.6L621.28 294.09L624.26 295.29Z" fill="#00E4A2"/>
<path d="M630.479 272.19L630.459 273.57L629.269 273.09L629.24 275.84L630.439 276.32L630.419 277.7L627.439 276.5L627.49 270.99L630.479 272.19Z" fill="#00E4A2"/>
<path d="M630.06 316.28L627.07 315.08L627.02 320.6L630 321.79L630.06 316.28Z" fill="#00E4A2"/>
<path d="M629.979 324.55L629.959 325.93L628.769 325.45L628.74 328.2L629.939 328.68L629.919 330.06L626.939 328.86L626.99 323.35L629.979 324.55Z" fill="#00E4A2"/>
<path d="M635.68 291.57L635.67 292.95L634.48 292.47L634.45 295.22L635.64 295.7L635.63 297.08L632.65 295.88L632.7 290.37L635.68 291.57Z" fill="#00E4A2"/>
<path d="M635.601 300.53L635.591 301.9L634.391 301.42L634.361 304.18L635.561 304.66L635.551 306.04L632.561 304.84L632.611 299.33L635.601 300.53Z" fill="#00E4A2"/>
<path d="M635.341 327.39L632.361 326.2L632.311 331.71L635.291 332.91L635.341 327.39Z" fill="#00E4A2"/>
<path d="M635.43 318.44L635.41 319.82L634.22 319.34L634.19 322.09L635.39 322.57L635.37 323.95L632.39 322.75L632.44 317.24L635.43 318.44Z" fill="#00E4A2"/>
<path d="M645.66 313.55L645.64 314.93L644.45 314.45L644.43 317.21L645.62 317.69L645.61 319.07L642.62 317.87L642.67 312.36L645.66 313.55Z" fill="#00E4A2"/>
<g opacity="0.1">
<path opacity="0.1" d="M736.28 384.2L610.3 333.87V243.92L736.28 294.26V384.2Z" fill="url(#paint3_linear)"/>
</g>
<path d="M792.08 344.59C792.08 344.59 792.08 344.59 792.17 344.64L793.72 346.43L795.72 348.68L797.05 350.21L797.12 350.36L797.05 350.57C796.68 351.63 796.3 352.69 795.92 353.76C795.38 355.26 794.85 356.76 794.31 358.27L793.62 360.2C793.62 360.34 793.55 360.4 793.51 360.42C793.467 360.433 793.422 360.433 793.38 360.42C792.88 360.27 792.38 360.1 791.9 359.94L791.09 359.67L789.92 359.29L787.97 358.65C787.872 358.611 787.772 358.577 787.67 358.55C787.58 358.55 787.56 358.45 787.61 358.32C787.71 358 787.81 357.67 787.92 357.32C788.28 356.2 788.65 355.08 789.02 353.97C789.49 352.55 789.95 351.12 790.42 349.7C790.89 348.28 791.29 347.02 791.73 345.7C791.83 345.38 791.94 345.05 792.04 344.7C792.03 344.67 792.05 344.59 792.08 344.59Z" fill="#EFD0FF"/>
<path d="M782.02 333.08C782.11 333.03 782.14 333.14 782.18 333.19L783.56 334.78L785.38 336.86C786.09 337.69 786.81 338.5 787.52 339.32L788.99 341.02C789.45 341.54 789.9 342.08 790.37 342.59C790.422 342.656 790.455 342.735 790.463 342.818C790.472 342.901 790.457 342.985 790.42 343.06C789.89 344.63 789.42 346.21 788.86 347.79C788.41 349.16 787.97 350.53 787.52 351.9C787.07 353.27 786.63 354.62 786.19 355.96C786.01 356.54 785.82 357.12 785.63 357.7C785.63 357.77 785.63 357.82 785.54 357.83H785.46L784.11 357.39L782.93 357.01L782.4 356.83C782.335 356.798 782.282 356.748 782.246 356.686C782.211 356.623 782.194 356.552 782.2 356.48V356.24L782.09 344.87C782.05 341.03 782.017 337.193 781.99 333.36C781.99 333.27 781.95 333.15 782.02 333.08Z" fill="#EFD0FF"/>
<path d="M801.839 304.59C802.029 304.51 802.179 304.59 802.339 304.66L802.719 304.79C802.869 304.85 802.879 304.86 802.799 305.1C802.569 305.81 802.339 306.53 802.099 307.25C801.799 308.15 801.509 309.06 801.219 309.97L801.129 310.14L801.019 310.06L799.339 307.62C799.229 307.45 799.229 307.44 799.339 307.25L800.509 305.92C800.789 305.59 801.079 305.26 801.359 304.92C801.465 304.783 801.602 304.673 801.759 304.6L801.839 304.59Z" fill="#EFD0FF"/>
<path d="M797.269 309.75C797.329 309.75 797.38 309.75 797.43 309.82L799.93 313.47C799.961 313.528 799.977 313.594 799.977 313.66C799.977 313.726 799.961 313.792 799.93 313.85C799.46 315.25 799.009 316.64 798.549 318.04C797.929 319.97 797.299 321.89 796.669 323.83C796.269 325.06 795.859 326.3 795.449 327.53L794.069 331.76C793.649 333.03 793.239 334.3 792.819 335.58C792.399 336.86 792.01 338.05 791.62 339.29C791.62 339.41 791.549 339.47 791.509 339.49C791.469 339.51 791.449 339.49 791.389 339.4L788.759 336.4L786.879 334.23L784.259 331.23C783.709 330.59 783.159 329.96 782.599 329.33C782.429 329.13 782.259 328.92 782.069 328.73C781.879 328.54 781.899 328.3 781.909 327.96C781.881 327.754 781.907 327.545 781.984 327.352C782.061 327.159 782.187 326.99 782.349 326.86C783.169 325.94 783.979 324.99 784.789 324.06L786.909 321.63L788.31 320.03L789.529 318.62L791.18 316.72L792.649 315.06L793.74 313.77L794.829 312.54C795.469 311.8 796.109 311.05 796.759 310.32L797.129 309.89C797.166 309.834 797.213 309.786 797.269 309.75V309.75Z" fill="#EFD0FF"/>
<path d="M822.06 331.59C822.14 331.59 822.12 331.69 822.12 331.75V335.75V336V340.16C822.13 340.26 822.13 340.36 822.12 340.46L822.04 340.64L821.93 340.58L821.45 339.89C821.01 339.23 820.56 338.58 820.1 337.89C820.052 337.808 820.026 337.715 820.026 337.62C820.026 337.525 820.052 337.432 820.1 337.35C820.57 335.94 821.03 334.53 821.48 333.13C821.64 332.65 821.79 332.13 821.95 331.7L822.06 331.59Z" fill="#EFD0FF"/>
<path d="M814.14 308.59C814.157 308.582 814.176 308.579 814.195 308.579C814.214 308.579 814.233 308.582 814.25 308.59L815.64 309.05L817.36 309.61L818.82 310.11L820.2 310.56L821.41 310.96C821.509 311.007 821.613 311.044 821.72 311.07C821.87 311.07 821.93 311.27 821.93 311.47V311.77L821.99 318.09C821.99 320.09 821.99 322.09 822.05 324.09C822.064 324.637 821.98 325.183 821.8 325.7C821.39 326.89 821.01 328.08 820.62 329.26L818.78 334.9C818.78 335.04 818.69 335.19 818.65 335.33L818.57 335.49L818.47 335.42L818.3 335.17C817.47 333.97 816.65 332.76 815.83 331.56L813.19 327.72L810.31 323.59L809.38 322.26C809.345 322.201 809.326 322.134 809.326 322.065C809.326 321.996 809.345 321.929 809.38 321.87C809.89 320.47 810.38 319.05 810.89 317.64C811.54 315.82 812.18 314 812.89 312.17C813.29 311.05 813.69 309.93 814.08 308.8C814.05 308.71 814.09 308.65 814.14 308.59Z" fill="#EFD0FF"/>
<path d="M798.63 352.15C798.63 352.15 798.68 352.15 798.7 352.15L800.1 353.75L801.97 355.9L803.78 357.99L805.26 359.69C805.4 359.84 805.4 359.85 805.26 360.05L804.11 361.39L803.01 362.66C802.845 362.87 802.66 363.064 802.46 363.24H802.38C802.298 363.26 802.212 363.26 802.13 363.24C801.67 363.08 801.19 362.94 800.72 362.77L799.18 362.25L797.8 361.81L796.37 361.33L795.64 361.08C795.46 361.03 795.45 361 795.54 360.74C796.01 359.42 796.54 358.1 796.96 356.74C797.31 355.74 797.66 354.74 798.02 353.74L798.59 352.11C798.59 352.2 798.61 352.16 798.63 352.15Z" fill="#EFD0FF"/>
<path d="M808.13 325.45C808.13 325.45 808.18 325.45 808.22 325.54L809.78 327.81C810.35 328.62 810.91 329.43 811.47 330.25C812.29 331.43 813.09 332.62 813.91 333.8C814.91 335.24 815.91 336.67 816.91 338.11L817.43 338.86C817.452 338.882 817.468 338.909 817.479 338.939C817.489 338.968 817.493 338.999 817.49 339.03C817.451 339.211 817.397 339.388 817.33 339.56C816.99 340.56 816.65 341.63 816.33 342.68C815.83 344.227 815.324 345.783 814.81 347.35C814.56 348.12 814.29 348.89 814.06 349.66C813.944 350.085 813.728 350.476 813.43 350.8C813.04 351.22 812.67 351.67 812.29 352.1L810.57 354.1C809.98 354.77 809.4 355.44 808.82 356.1C808.41 356.56 808.01 357.01 807.61 357.48C807.557 357.54 807.497 357.594 807.43 357.64C807.37 357.64 807.33 357.64 807.25 357.54L805.69 355.74L803.47 353.19L801.91 351.4C801.33 350.72 800.74 350.05 800.15 349.4L800.03 349.26C799.8 349.11 799.85 348.85 800.03 348.5C800.43 347.44 800.79 346.37 801.18 345.31C801.65 343.97 802.13 342.64 802.6 341.31C802.88 340.55 803.15 339.77 803.43 339C803.97 337.46 804.52 335.93 805.06 334.39C805.36 333.58 805.64 332.76 805.93 331.94C806.41 330.58 806.93 329.21 807.39 327.86L808.17 325.67C808.08 325.51 808.1 325.46 808.13 325.45Z" fill="#EFD0FF"/>
<path d="M804.87 305.59C804.884 305.583 804.899 305.579 804.915 305.579C804.93 305.579 804.946 305.583 804.96 305.59L807.63 306.47L809.12 306.94L811.8 307.85L812.08 307.94L812.15 308.04V308.14L811.04 311.29C810.75 312.1 810.47 312.9 810.18 313.7L808.53 318.33C808.35 318.83 808.18 319.33 808.01 319.82C808.01 319.95 807.94 320.01 807.91 320.03C807.88 320.05 807.85 320.03 807.79 319.92L806.32 317.78L804.58 315.26L802.72 312.59C802.686 312.529 802.669 312.46 802.669 312.39C802.669 312.32 802.686 312.251 802.72 312.19C803.14 310.93 803.55 309.66 803.96 308.39C804.25 307.52 804.53 306.65 804.81 305.78C804.803 305.653 804.823 305.59 804.87 305.59Z" fill="#EFD0FF"/>
<path d="M801.49 315.8C801.49 315.8 801.54 315.8 801.58 315.88L802.86 317.74L805.59 321.74C805.93 322.23 806.26 322.74 806.59 323.2C806.625 323.261 806.643 323.33 806.643 323.4C806.643 323.47 806.625 323.539 806.59 323.6L805.69 326.12C805.21 327.49 804.69 328.84 804.24 330.21C803.95 331.01 803.67 331.8 803.39 332.6C802.89 333.99 802.39 335.37 801.91 336.75C801.57 337.69 801.24 338.63 800.91 339.57C800.42 340.94 799.91 342.3 799.45 343.68L798.37 346.68C798.37 346.8 798.29 346.91 798.24 347.03L798.15 347.18L798.03 347.04L797.31 346.2L795.2 343.77L793.72 341.99C793.57 341.81 793.43 341.64 793.28 341.48C793.13 341.32 793.17 341.29 793.28 341.11C793.62 340.11 793.95 339.11 794.28 338.03C794.74 336.62 795.2 335.21 795.67 333.79C796.14 332.37 796.56 331.04 797.01 329.68C797.46 328.32 797.82 327.23 798.22 326L799.6 321.72L800.9 317.78L801.46 316.06V315.97C801.45 315.86 801.47 315.81 801.49 315.8Z" fill="#EFD0FF"/>
<path d="M818.93 341.15C818.93 341.15 818.93 341.15 819.02 341.23L820.09 342.78V342.89C820.09 342.93 820.08 342.97 820.063 343.006C820.046 343.042 820.021 343.074 819.99 343.1L817.99 345.44C817.79 345.66 817.61 345.89 817.42 346.1L817.28 346.17V346C817.62 345 817.95 343.95 818.28 342.92C818.46 342.39 818.63 341.85 818.81 341.31C818.89 341.21 818.91 341.16 818.93 341.15Z" fill="#EFD0FF"/>
<path d="M700.52 462.49L748.19 429.76L622.21 379.42L574.54 412.16L700.52 462.49Z" fill="#23213B"/>
<path d="M748.19 429.76L748.59 443.66L700.52 462.49L748.19 429.76Z" fill="#E1E1E1"/>
<path d="M534.71 59.85L459.81 29.93L384.91 0L310.01 29.93V119.79V119.88V209.65V209.74V299.51V389.46L384.91 419.38L459.81 449.31L534.71 419.38V329.52V329.44V239.66V239.57V149.8V59.85Z" fill="#EFD0FF"/>
<path opacity="0.3" d="M459.81 449.31L310.01 389.46V29.9299L459.81 89.7799V449.31Z" fill="#231F20"/>
<g opacity="0.25">
<path opacity="0.25" d="M459.81 449.31L310.01 389.46V29.9299L459.81 89.7799V449.31Z" fill="url(#paint4_linear)"/>
</g>
<g opacity="0.25">
<path opacity="0.25" d="M534.71 419.38L459.81 449.22V89.6901L534.71 59.8501V419.38Z" fill="url(#paint5_linear)"/>
</g>
<g opacity="0.15">
<path opacity="0.15" d="M459.81 89.78L310.01 29.93L384.91 0L534.71 59.85L459.81 89.78Z" fill="#231F20"/>
</g>
<g opacity="0.2">
<path opacity="0.2" d="M459.81 89.78L310.01 29.93L384.91 0L534.71 59.85L459.81 89.78Z" fill="url(#paint6_linear)"/>
</g>
<path d="M435.99 264.4L441.95 262.02V172.07L435.99 174.45V196.93V219.42V241.91V264.4Z" fill="#E1E1E1"/>
<path d="M435.99 174.45L441.95 172.07L315.97 121.73L310.01 124.11L373 149.28L435.99 174.45Z" fill="#E1E1E1"/>
<path opacity="0.25" d="M435.99 174.45L441.95 172.07L315.97 121.73L310.01 124.11L373 149.28L435.99 174.45Z" fill="#231F20"/>
<path d="M435.99 264.4L310.01 214.06V124.11L435.99 174.45V264.4Z" fill="#23213B"/>
<g opacity="0.1">
<path opacity="0.1" d="M435.99 264.4L310.01 214.06V124.11L435.99 174.45V264.4Z" fill="url(#paint7_linear)"/>
</g>
<path d="M495.72 189.95C495.78 189.95 495.831 189.97 495.871 190.01C496.701 191.22 497.531 192.44 498.371 193.65C498.404 193.71 498.421 193.777 498.421 193.845C498.421 193.913 498.404 193.98 498.371 194.04C497.911 195.43 497.451 196.84 497.001 198.23C496.371 200.15 495.751 202.09 495.121 204.01C494.711 205.25 494.3 206.49 493.9 207.72L492.52 211.95C492.1 213.22 491.69 214.49 491.27 215.77C490.85 217.05 490.471 218.24 490.061 219.48C490.061 219.6 489.99 219.66 489.96 219.68C489.93 219.7 489.89 219.68 489.84 219.59L487.21 216.59L485.33 214.42C484.45 213.42 483.58 212.42 482.71 211.42L481.05 209.52C480.885 209.311 480.708 209.11 480.52 208.92C480.34 208.76 480.34 208.49 480.35 208.16C480.324 207.953 480.351 207.743 480.428 207.549C480.505 207.354 480.63 207.183 480.79 207.05C481.61 206.13 482.421 205.18 483.241 204.24C484.061 203.3 484.66 202.63 485.36 201.82L486.751 200.21C487.161 199.74 487.57 199.28 487.97 198.81C488.53 198.18 489.08 197.54 489.63 196.91C490.18 196.28 490.63 195.81 491.09 195.25C491.55 194.69 491.82 194.39 492.19 193.97C492.56 193.55 492.91 193.14 493.28 192.73L495.2 190.51L495.57 190.08C495.604 190.02 495.657 189.974 495.72 189.95V189.95Z" fill="#363F4A"/>
<path d="M497.08 232.34C497.08 232.34 497.08 232.34 497.15 232.34L498.55 233.94L500.42 236.09L502.23 238.19L503.71 239.88C503.84 240.03 503.85 240.04 503.71 240.24C503.33 240.69 502.94 241.14 502.55 241.58C502.16 242.02 501.82 242.44 501.45 242.85C501.291 243.062 501.11 243.256 500.91 243.43L500.83 243.48C500.748 243.5 500.662 243.5 500.58 243.48L499.17 243.01L497.63 242.49L496.25 242.05L494.82 241.57L494.08 241.32C493.91 241.26 493.9 241.24 493.99 240.98L495.4 237.03C495.76 236.03 496.11 235.03 496.46 234.03C496.65 233.48 496.85 232.94 497.04 232.4C497.049 232.378 497.063 232.357 497.08 232.34V232.34Z" fill="#363F4A"/>
<path d="M490.53 224.81C490.53 224.81 490.58 224.81 490.62 224.81C491.13 225.41 491.62 226.01 492.16 226.6L494.16 228.85L495.49 230.38L495.56 230.53L495.49 230.74C495.11 231.8 494.74 232.86 494.36 233.93C493.82 235.43 493.29 236.93 492.75 238.44C492.52 239.08 492.3 239.72 492.07 240.37C492.02 240.51 491.99 240.57 491.94 240.59C491.901 240.605 491.859 240.605 491.82 240.59L490.33 240.1C490.07 240 489.79 239.91 489.52 239.83L488.36 239.45L486.36 238.8C486.26 238.8 486.16 238.73 486.07 238.71C485.98 238.69 485.95 238.62 485.99 238.47C486.1 238.16 486.2 237.83 486.31 237.47C486.67 236.36 487.04 235.25 487.4 234.14C487.87 232.7 488.33 231.28 488.8 229.85C489.27 228.42 489.68 227.18 490.11 225.85C490.22 225.52 490.33 225.19 490.43 224.85C490.47 224.86 490.5 224.82 490.53 224.81Z" fill="#363F4A"/>
<path d="M499.94 195.99C499.94 195.99 499.94 195.99 500.03 196.07L501.31 197.93L504.04 201.93C504.38 202.41 504.71 202.93 505.04 203.39C505.13 203.49 505.12 203.61 505.04 203.79C504.726 204.63 504.426 205.47 504.14 206.31C503.65 207.67 503.14 209.04 502.68 210.4C502.4 211.2 502.12 211.99 501.83 212.79L500.36 216.94C500.03 217.88 499.69 218.82 499.36 219.76C498.88 221.13 498.36 222.5 497.9 223.86C497.54 224.86 497.19 225.86 496.83 226.86C496.83 226.98 496.74 227.1 496.7 227.21L496.6 227.36L496.49 227.21L495.77 226.38L493.72 223.98C493.21 223.38 492.72 222.77 492.17 222.18C492.02 222.01 491.88 221.83 491.72 221.67C491.56 221.51 491.63 221.48 491.72 221.3C492.06 220.3 492.4 219.3 492.72 218.23C493.19 216.81 493.66 215.4 494.12 213.98C494.58 212.56 495.01 211.24 495.46 209.86L496.66 206.19C497.12 204.77 497.59 203.34 498.05 201.91C498.51 200.48 498.91 199.29 499.35 197.98C499.53 197.4 499.72 196.83 499.9 196.25V196.16C499.9 196.05 499.92 196 499.94 195.99Z" fill="#363F4A"/>
<path d="M500.28 184.82C500.48 184.74 500.62 184.82 500.78 184.89C500.94 184.96 501.04 184.98 501.16 185.02C501.28 185.06 501.33 185.09 501.25 185.33L500.55 187.47C500.25 188.38 499.96 189.29 499.66 190.2L499.58 190.37L499.47 190.29C498.91 189.48 498.35 188.66 497.78 187.85C497.68 187.69 497.68 187.67 497.84 187.48L499.01 186.15C499.29 185.82 499.58 185.49 499.86 185.15C499.966 185.013 500.103 184.903 500.26 184.83L500.28 184.82Z" fill="#363F4A"/>
<path d="M503.31 185.75C503.343 185.74 503.377 185.74 503.41 185.75L506.07 186.63L507.56 187.1L510.25 188.01C510.341 188.046 510.435 188.076 510.53 188.1L510.59 188.2V188.3C510.22 189.35 509.85 190.4 509.47 191.45C509.19 192.26 508.9 193.06 508.62 193.86C508.07 195.4 507.51 196.94 506.97 198.49C506.79 198.98 506.62 199.49 506.44 199.99C506.44 200.11 506.37 200.17 506.34 200.19C506.31 200.21 506.28 200.19 506.23 200.08C505.74 199.37 505.23 198.65 504.76 197.94L503.01 195.42C502.4 194.52 501.79 193.62 501.17 192.73C501.132 192.67 501.111 192.601 501.111 192.53C501.111 192.459 501.132 192.39 501.17 192.33C501.58 191.06 502 189.8 502.41 188.53C502.69 187.66 502.98 186.79 503.26 185.92C503.23 185.82 503.26 185.77 503.31 185.75Z" fill="#363F4A"/>
<path d="M517.38 221.35C517.38 221.35 517.43 221.35 517.47 221.43C517.83 221.94 518.18 222.43 518.53 222.97L518.6 223.08C518.589 223.166 518.546 223.245 518.48 223.3C517.81 224.08 517.14 224.86 516.48 225.63C516.29 225.85 516.11 226.08 515.92 226.28L515.77 226.36V226.19C516.1 225.19 516.44 224.14 516.77 223.11C516.94 222.58 517.12 222.04 517.3 221.5C517.34 221.4 517.36 221.35 517.38 221.35Z" fill="#363F4A"/>
<path d="M520.52 211.76C520.58 211.76 520.52 211.87 520.52 211.94V215.94V216.2V220.36C520.529 220.463 520.529 220.567 520.52 220.67L520.44 220.84L520.33 220.78L519.85 220.08C519.4 219.43 518.96 218.78 518.5 218.13C518.453 218.048 518.429 217.955 518.429 217.86C518.429 217.765 518.453 217.672 518.5 217.59C518.97 216.19 519.43 214.77 519.89 213.36C520.05 212.89 520.2 212.41 520.36 211.94L520.52 211.76Z" fill="#363F4A"/>
<path d="M512.59 188.81C512.623 188.8 512.657 188.8 512.69 188.81L514.08 189.27L515.8 189.85C516.29 190 516.8 190.17 517.27 190.34L518.64 190.79L519.86 191.2L520.16 191.3C520.32 191.3 520.37 191.49 520.38 191.7V192.01L520.44 198.31C520.44 200.31 520.44 202.31 520.5 204.31C520.51 204.861 520.422 205.41 520.24 205.93C519.84 207.11 519.46 208.3 519.07 209.49L517.23 215.12C517.23 215.26 517.14 215.41 517.1 215.55L517.01 215.71L516.92 215.65L516.74 215.39C515.92 214.19 515.1 212.98 514.27 211.79C513.44 210.6 512.51 209.23 511.64 207.95L508.72 203.79L507.8 202.46C507.765 202.401 507.746 202.334 507.746 202.265C507.746 202.196 507.765 202.129 507.8 202.07L509.3 197.84C509.96 196.02 510.61 194.19 511.25 192.37C511.65 191.25 512.06 190.13 512.46 189C512.5 188.89 512.54 188.83 512.59 188.81Z" fill="#363F4A"/>
<path d="M506.58 205.64C506.58 205.64 506.58 205.64 506.67 205.73L508.23 207.99L509.91 210.44L512.36 213.99C513.34 215.43 514.34 216.867 515.36 218.3L515.88 219.05C515.901 219.104 515.901 219.165 515.88 219.22C515.839 219.4 515.785 219.577 515.72 219.75L514.72 222.86C514.21 224.42 513.72 225.98 513.2 227.54C512.95 228.31 512.68 229.08 512.45 229.85C512.33 230.275 512.111 230.666 511.81 230.99C511.43 231.41 511.05 231.86 510.67 232.29L508.95 234.29C508.37 234.96 507.79 235.64 507.2 236.29C506.8 236.76 506.4 237.21 505.99 237.68C505.942 237.745 505.88 237.8 505.81 237.84C505.76 237.84 505.71 237.84 505.64 237.74L504.08 235.94C503.34 235.08 502.6 234.24 501.86 233.4C501.34 232.8 500.86 232.19 500.3 231.6L498.54 229.6L498.42 229.46C498.19 229.31 498.24 229.05 498.37 228.7C498.76 227.64 499.13 226.57 499.51 225.5L500.94 221.5C501.21 220.72 501.48 219.95 501.76 219.17C502.31 217.64 502.85 216.1 503.4 214.58L504.27 212.12C504.75 210.76 505.27 209.4 505.73 208.03C505.99 207.3 506.24 206.57 506.51 205.84C506.53 205.7 506.55 205.65 506.58 205.64Z" fill="#363F4A"/>
<path d="M480.47 213.27C480.56 213.22 480.58 213.33 480.62 213.37L482.01 214.97L483.83 217.06L485.97 219.51C486.45 220.08 486.97 220.64 487.43 221.21L488.81 222.78C488.92 222.9 488.94 223.02 488.81 223.25C488.29 224.82 487.81 226.41 487.26 227.98C486.81 229.35 486.36 230.72 485.92 232.1C485.48 233.48 485.03 234.8 484.59 236.15C484.4 236.73 484.22 237.31 484.04 237.88C484.026 237.94 483.991 237.994 483.94 238.03C483.94 238.03 483.94 238.03 483.85 238.03L482.5 237.59L481.33 237.2L480.8 237.03C480.733 237.002 480.677 236.953 480.641 236.889C480.605 236.826 480.59 236.752 480.6 236.68C480.6 236.6 480.6 236.52 480.6 236.43L480.5 225.07C480.5 221.23 480.42 217.4 480.4 213.55C480.43 213.45 480.39 213.34 480.47 213.27Z" fill="#363F4A"/>
<path d="M400.23 342.69L447.9 309.95L321.92 259.61L274.26 292.35L400.23 342.69Z" fill="#23213B"/>
<path d="M447.9 309.95L448.3 323.85L400.23 342.69L447.9 309.95Z" fill="#E1E1E1"/>
<path d="M420.38 181.66L417.39 180.47L417.34 185.98L420.32 187.17L420.38 181.66Z" fill="#00E4A2"/>
<path d="M410.24 176.21L407.26 175.02L407.21 180.53L410.19 181.72L410.24 176.21Z" fill="#00E4A2"/>
<path d="M404.87 174.06L401.89 172.86L401.84 178.37L404.82 179.57L404.87 174.06Z" fill="#00E4A2"/>
<path d="M404.72 190.59L401.73 189.39L401.68 194.9L404.66 196.1L404.72 190.59Z" fill="#00E4A2"/>
<path d="M398.83 179.93L395.84 178.73L395.79 184.24L398.77 185.44L398.83 179.93Z" fill="#00E4A2"/>
<path d="M398.74 188.89L395.76 187.69L395.7 193.2L398.69 194.4L398.74 188.89Z" fill="#00E4A2"/>
<path d="M404.54 208.5L401.56 207.31L401.51 212.82L404.49 214.02L404.54 208.5Z" fill="#00E4A2"/>
<path d="M398.49 215.06L395.51 213.87L395.45 219.38L398.44 220.58L398.49 215.06Z" fill="#00E4A2"/>
<path d="M409.83 219.62L406.85 218.42L406.79 223.93L409.78 225.13L409.83 219.62Z" fill="#00E4A2"/>
<path d="M420.29 190.62L417.31 189.42L417.25 194.93L420.24 196.13L420.29 190.62Z" fill="#00E4A2"/>
<path d="M421.39 200.74L417.22 199.07L417.21 199.76L421.39 201.43V200.74Z" fill="#00E4A2"/>
<path d="M405.2 202.54L401.02 200.87V201.55L405.19 203.23L405.2 202.54Z" fill="#00E4A2"/>
<path d="M420.97 244.84L416.79 243.16V243.85L420.97 245.52V244.84Z" fill="#00E4A2"/>
<path d="M420.14 206.47L420.13 207.84L418.93 207.36L418.91 210.12L420.1 210.6L420.09 211.98L417.1 210.78L417.16 205.27L420.14 206.47Z" fill="#00E4A2"/>
<path d="M410.09 192.75L410.07 194.13L408.88 193.65L408.85 196.4L410.05 196.88L410.03 198.26L407.05 197.06L407.1 191.55L410.09 192.75Z" fill="#00E4A2"/>
<path d="M398.66 197.15L398.65 198.53L397.46 198.05L397.43 200.81L398.62 201.29L398.61 202.66L395.62 201.47L395.68 195.95L398.66 197.15Z" fill="#00E4A2"/>
<path d="M398.41 224.02L398.39 225.4L397.2 224.92L397.17 227.67L398.36 228.15L398.35 229.53L395.37 228.33L395.42 222.82L398.41 224.02Z" fill="#00E4A2"/>
<path d="M398.32 232.98L398.31 234.35L397.11 233.88L397.09 236.63L398.28 237.11L398.27 238.49L395.28 237.29L395.34 231.78L398.32 232.98Z" fill="#00E4A2"/>
<path d="M398.58 205.42L398.57 206.8L397.38 206.32L397.35 209.07L398.54 209.55L398.53 210.93L395.55 209.73L395.6 204.22L398.58 205.42Z" fill="#00E4A2"/>
<path d="M404.79 182.32L404.78 183.7L403.59 183.22L403.56 185.98L404.75 186.46L404.74 187.84L401.76 186.64L401.81 181.13L404.79 182.32Z" fill="#00E4A2"/>
<path d="M404.37 226.42L401.39 225.22L401.34 230.73L404.32 231.93L404.37 226.42Z" fill="#00E4A2"/>
<path d="M404.29 234.68L404.28 236.06L403.09 235.58L403.06 238.34L404.26 238.82L404.24 240.2L401.26 239L401.31 233.48L404.29 234.68Z" fill="#00E4A2"/>
<path d="M410 201.7L409.99 203.08L408.79 202.6L408.77 205.36L409.96 205.84L409.95 207.22L406.96 206.02L407.02 200.51L410 201.7Z" fill="#00E4A2"/>
<path d="M409.91 210.66L409.9 212.04L408.71 211.56L408.68 214.31L409.88 214.79L409.86 216.17L406.88 214.97L406.93 209.46L409.91 210.66Z" fill="#00E4A2"/>
<path d="M409.66 237.53L406.67 236.33L406.62 241.84L409.61 243.04L409.66 237.53Z" fill="#00E4A2"/>
<path d="M409.74 228.57L409.73 229.95L408.54 229.47L408.51 232.23L409.71 232.71L409.69 234.08L406.71 232.89L406.76 227.37L409.74 228.57Z" fill="#00E4A2"/>
<path d="M368.39 167.71L365.41 166.51L365.35 172.03L368.34 173.22L368.39 167.71Z" fill="#00E4A2"/>
<path d="M368.3 176.67L365.32 175.47L365.27 180.98L368.25 182.18L368.3 176.67Z" fill="#00E4A2"/>
<path d="M368.05 202.85L365.07 201.65L365.02 207.16L368 208.36L368.05 202.85Z" fill="#00E4A2"/>
<path d="M368.22 184.94L368.21 186.31L367.02 185.83L366.99 188.59L368.18 189.07L368.17 190.45L365.19 189.25L365.24 183.74L368.22 184.94Z" fill="#00E4A2"/>
<path d="M367.97 211.8L367.96 213.18L366.76 212.7L366.73 215.46L367.93 215.94L367.91 217.32L364.93 216.12L364.98 210.61L367.97 211.8Z" fill="#00E4A2"/>
<path d="M367.88 220.76L367.87 222.14L366.68 221.66L366.65 224.41L367.84 224.89L367.83 226.27L364.85 225.07L364.9 219.56L367.88 220.76Z" fill="#00E4A2"/>
<path d="M368.15 193.2L368.13 194.58L366.94 194.1L366.91 196.86L368.11 197.34L368.09 198.71L365.11 197.52L365.16 192.01L368.15 193.2Z" fill="#00E4A2"/>
<path d="M377.42 163.04L374.44 161.84L374.38 167.35L377.37 168.55L377.42 163.04Z" fill="#00E4A2"/>
<path d="M377.01 206.44L374.02 205.24L373.97 210.75L376.95 211.95L377.01 206.44Z" fill="#00E4A2"/>
<path d="M377.26 179.57L377.25 180.95L376.05 180.47L376.03 183.23L377.22 183.71L377.21 185.08L374.23 183.89L374.28 178.38L377.26 179.57Z" fill="#00E4A2"/>
<path d="M377.18 188.53L377.16 189.91L375.97 189.43L375.94 192.18L377.14 192.66L377.12 194.04L374.14 192.84L374.19 187.33L377.18 188.53Z" fill="#00E4A2"/>
<path d="M377.09 197.48L377.08 198.86L375.88 198.38L375.86 201.14L377.05 201.62L377.04 203L374.05 201.8L374.11 196.29L377.09 197.48Z" fill="#00E4A2"/>
<path d="M376.84 224.35L373.85 223.15L373.8 228.67L376.78 229.86L376.84 224.35Z" fill="#00E4A2"/>
<path d="M376.92 215.4L376.91 216.78L375.71 216.3L375.69 219.05L376.88 219.53L376.87 220.91L373.88 219.71L373.94 214.2L376.92 215.4Z" fill="#00E4A2"/>
<path d="M363.1 157.29L360.11 156.09L360.06 161.6L363.04 162.8L363.1 157.29Z" fill="#00E4A2"/>
<path d="M362.68 200.69L359.7 199.49L359.65 205.01L362.63 206.2L362.68 200.69Z" fill="#00E4A2"/>
<path d="M362.94 173.82L362.93 175.2L361.73 174.72L361.71 177.48L362.9 177.96L362.89 179.34L359.9 178.14L359.96 172.63L362.94 173.82Z" fill="#00E4A2"/>
<path d="M362.85 182.78L362.84 184.16L361.65 183.68L361.62 186.43L362.81 186.91L362.8 188.29L359.82 187.09L359.87 181.58L362.85 182.78Z" fill="#00E4A2"/>
<path d="M362.77 191.74L362.76 193.11L361.56 192.63L361.53 195.39L362.73 195.87L362.72 197.25L359.73 196.05L359.78 190.54L362.77 191.74Z" fill="#00E4A2"/>
<path d="M362.51 218.6L359.53 217.41L359.47 222.92L362.46 224.11L362.51 218.6Z" fill="#00E4A2"/>
<path d="M362.6 209.65L362.58 211.03L361.39 210.55L361.36 213.3L362.56 213.78L362.54 215.16L359.56 213.96L359.61 208.45L362.6 209.65Z" fill="#00E4A2"/>
<path d="M419.97 223.69L419.96 225.07L418.77 224.59L418.74 227.34L419.94 227.82L419.92 229.2L416.94 228L416.99 222.49L419.97 223.69Z" fill="#00E4A2"/>
<path d="M389.34 169.21L386.36 168.01L386.31 173.52L389.29 174.72L389.34 169.21Z" fill="#00E4A2"/>
<path d="M389.26 178.16L386.27 176.97L386.22 182.48L389.21 183.67L389.26 178.16Z" fill="#00E4A2"/>
<path d="M390.36 188.29L386.18 186.61L386.17 187.3L390.35 188.98L390.36 188.29Z" fill="#00E4A2"/>
<path d="M389.94 232.38L385.76 230.7L385.75 231.39L389.93 233.07L389.94 232.38Z" fill="#00E4A2"/>
<path d="M389.11 194.01L389.09 195.39L387.9 194.91L387.87 197.66L389.07 198.14L389.05 199.52L386.07 198.32L386.12 192.81L389.11 194.01Z" fill="#00E4A2"/>
<path d="M388.94 211.23L388.93 212.61L387.73 212.13L387.71 214.89L388.9 215.36L388.89 216.74L385.91 215.55L385.96 210.03L388.94 211.23Z" fill="#00E4A2"/>
<path d="M354.75 215.49L351.77 214.29L351.72 219.8L354.7 221L354.75 215.49Z" fill="#00E4A2"/>
<path d="M345.78 151.72L342.79 150.52L342.74 156.03L345.72 157.23L345.78 151.72Z" fill="#00E4A2"/>
<path d="M335.64 146.27L332.66 145.07L332.61 150.58L335.59 151.78L335.64 146.27Z" fill="#00E4A2"/>
<path d="M330.27 144.11L327.29 142.92L327.24 148.43L330.22 149.63L330.27 144.11Z" fill="#00E4A2"/>
<path d="M330.11 160.65L327.13 159.45L327.08 164.96L330.06 166.16L330.11 160.65Z" fill="#00E4A2"/>
<path d="M324.22 149.99L321.24 148.79L321.19 154.3L324.17 155.5L324.22 149.99Z" fill="#00E4A2"/>
<path d="M324.14 158.94L321.16 157.74L321.1 163.26L324.09 164.45L324.14 158.94Z" fill="#00E4A2"/>
<path d="M329.94 178.56L326.96 177.36L326.91 182.87L329.89 184.07L329.94 178.56Z" fill="#00E4A2"/>
<path d="M323.89 185.12L320.91 183.92L320.85 189.44L323.84 190.63L323.89 185.12Z" fill="#00E4A2"/>
<path d="M335.23 189.67L332.24 188.47L332.19 193.99L335.18 195.18L335.23 189.67Z" fill="#00E4A2"/>
<path d="M345.69 160.68L342.71 159.48L342.65 164.99L345.64 166.19L345.69 160.68Z" fill="#00E4A2"/>
<path d="M346.79 170.8L342.61 169.12V169.81L346.79 171.49V170.8Z" fill="#00E4A2"/>
<path d="M330.6 172.6L326.42 170.92L326.41 171.61L330.59 173.29L330.6 172.6Z" fill="#00E4A2"/>
<path d="M346.37 214.89L342.19 213.22V213.9L346.36 215.58L346.37 214.89Z" fill="#00E4A2"/>
<path d="M345.54 176.52L345.53 177.9L344.33 177.42L344.31 180.18L345.5 180.65L345.49 182.03L342.5 180.84L342.55 175.32L345.54 176.52Z" fill="#00E4A2"/>
<path d="M335.49 162.8L335.47 164.18L334.28 163.7L334.25 166.46L335.45 166.94L335.43 168.32L332.45 167.12L332.5 161.61L335.49 162.8Z" fill="#00E4A2"/>
<path d="M324.06 167.21L324.05 168.59L322.85 168.11L322.83 170.86L324.02 171.34L324.01 172.72L321.02 171.52L321.08 166.01L324.06 167.21Z" fill="#00E4A2"/>
<path d="M323.8 194.08L323.79 195.46L322.6 194.98L322.57 197.73L323.77 198.21L323.75 199.59L320.77 198.39L320.82 192.88L323.8 194.08Z" fill="#00E4A2"/>
<path d="M323.72 203.03L323.71 204.41L322.51 203.93L322.49 206.69L323.68 207.17L323.67 208.54L320.68 207.35L320.73 201.84L323.72 203.03Z" fill="#00E4A2"/>
<path d="M323.98 175.48L323.97 176.85L322.78 176.38L322.75 179.13L323.94 179.61L323.93 180.99L320.95 179.79L321 174.28L323.98 175.48Z" fill="#00E4A2"/>
<path d="M330.19 152.38L330.18 153.76L328.99 153.28L328.96 156.03L330.15 156.52L330.14 157.89L327.16 156.7L327.21 151.18L330.19 152.38Z" fill="#00E4A2"/>
<path d="M329.77 196.47L326.79 195.28L326.74 200.79L329.72 201.98L329.77 196.47Z" fill="#00E4A2"/>
<path d="M329.69 204.74L329.68 206.12L328.49 205.64L328.46 208.39L329.65 208.87L329.64 210.25L326.66 209.05L326.71 203.54L329.69 204.74Z" fill="#00E4A2"/>
<path d="M335.4 171.76L335.39 173.14L334.19 172.66L334.17 175.41L335.36 175.89L335.35 177.27L332.36 176.07L332.42 170.56L335.4 171.76Z" fill="#00E4A2"/>
<path d="M335.32 180.72L335.3 182.09L334.11 181.61L334.08 184.37L335.28 184.85L335.26 186.23L332.28 185.03L332.33 179.52L335.32 180.72Z" fill="#00E4A2"/>
<path d="M335.06 207.59L332.07 206.39L332.02 211.9L335.01 213.1L335.06 207.59Z" fill="#00E4A2"/>
<path d="M335.14 198.63L335.13 200.01L333.94 199.53L333.91 202.28L335.1 202.76L335.09 204.14L332.11 202.94L332.16 197.43L335.14 198.63Z" fill="#00E4A2"/>
<path d="M345.37 193.74L345.36 195.12L344.17 194.64L344.14 197.4L345.34 197.88L345.32 199.26L342.34 198.06L342.39 192.55L345.37 193.74Z" fill="#00E4A2"/>
<path opacity="0.15" d="M296.21 513.15C329.353 513.15 356.22 506.457 356.22 498.2C356.22 489.943 329.353 483.25 296.21 483.25C263.068 483.25 236.2 489.943 236.2 498.2C236.2 506.457 263.068 513.15 296.21 513.15Z" fill="url(#paint8_linear)"/>
<path d="M255.021 347.19L258.811 406.56L262.591 486.34H275.301L285.451 381.8L299.981 409.97L303.081 486.22H315.791L321.211 406.08L309.071 344.68L255.021 347.19Z" fill="#00E4A2"/>
<path d="M291.33 242.66C291.61 239.66 290.65 230.39 294.33 228.66C302.67 224.73 312.1 209.43 297.06 197.08C281.59 184.38 273.62 202.02 273.62 202.02L274.8 242.13L291.33 242.66Z" fill="#E1E1E1"/>
<path d="M285.171 225.98C253.841 232.89 251.281 181.98 283.061 184.98C289.651 185.2 296.411 187.72 302.371 188.05C303.538 188.129 304.645 188.602 305.508 189.393C306.371 190.183 306.94 191.244 307.121 192.4C307.921 197.5 305.291 202.69 299.121 200.51C290.741 198.35 299.911 207.13 291.121 210.24C285.391 212.24 295.601 220.76 285.491 225.71" fill="#23213B"/>
<path d="M323.57 313.51L360.75 303.51L357.32 293.97L330.62 295.02L314.72 247.06C314.72 247.06 289.52 236.13 277.72 239.25C264.72 242.68 254.89 247.45 251.82 252.61L242.05 302.86L255.05 311.48L253.72 345.79C253.72 345.79 270.1 356.15 285.63 354.63C295.255 353.73 304.462 350.263 312.29 344.59L308.35 284.59L323.57 313.51Z" fill="#053651"/>
<path d="M262.591 486.34L261.851 498.12C261.842 498.204 261.851 498.289 261.877 498.37C261.902 498.451 261.944 498.526 261.999 498.59C262.054 498.655 262.121 498.707 262.197 498.745C262.273 498.783 262.356 498.805 262.441 498.81H292.771C292.88 498.792 292.981 498.743 293.062 498.667C293.142 498.591 293.198 498.493 293.221 498.385C293.245 498.277 293.236 498.164 293.195 498.062C293.154 497.959 293.082 497.871 292.991 497.81C288.841 495.6 279.131 490.13 275.301 486.36L262.591 486.34Z" fill="white"/>
<path d="M303.08 486.22L302.34 498C302.332 498.085 302.341 498.17 302.366 498.251C302.392 498.331 302.433 498.406 302.488 498.471C302.543 498.535 302.611 498.588 302.687 498.625C302.763 498.663 302.845 498.685 302.93 498.69H333.26C333.369 498.673 333.47 498.623 333.551 498.547C333.631 498.471 333.687 498.373 333.711 498.265C333.734 498.157 333.725 498.045 333.684 497.942C333.643 497.84 333.572 497.752 333.48 497.69C329.33 495.48 319.62 490.01 315.79 486.24L303.08 486.22Z" fill="white"/>
<path d="M369.571 293.78C375.101 294.26 379.021 297.64 373.571 299.38L360.791 303.51L357.311 293.96C361.383 293.521 365.487 293.461 369.571 293.78V293.78Z" fill="#E1E1E1"/>
<path opacity="0.25" d="M277.39 367.95L275.3 486.34L285.45 381.8L277.39 367.95Z" fill="url(#paint9_linear)"/>
<path opacity="0.25" d="M251.81 252.59L242.04 302.84L255.04 311.46C255.04 311.46 252.55 287.55 252.04 278.59C251.48 269.38 251.81 252.59 251.81 252.59Z" fill="url(#paint10_linear)"/>
<path opacity="0.25" d="M314.72 247.06C314.42 247.16 308.6 257.36 307.46 267.73C306.892 273.364 307.179 279.052 308.31 284.6L323.53 313.51L360.71 303.51L357.28 293.97L330.58 295.02L314.72 247.06Z" fill="url(#paint11_linear)"/>
<path opacity="0.15" d="M607.69 625.85C640.832 625.85 667.7 619.157 667.7 610.9C667.7 602.644 640.832 595.95 607.69 595.95C574.547 595.95 547.68 602.644 547.68 610.9C547.68 619.157 574.547 625.85 607.69 625.85Z" fill="url(#paint12_linear)"/>
<path d="M566.529 469.93L578.159 536.96L576.919 599.22H588.789L598.489 533.75L598.789 497.12L612.009 532.8L612.499 599.22H624.219L630.519 529.21L621.419 458.91L566.529 469.93Z" fill="#053651"/>
<path d="M576.87 599.22L576.18 610.22C576.173 610.299 576.182 610.378 576.207 610.453C576.232 610.527 576.272 610.597 576.324 610.656C576.377 610.714 576.441 610.762 576.512 610.796C576.583 610.829 576.661 610.847 576.74 610.85H605.15C605.259 610.844 605.363 610.803 605.446 610.732C605.53 610.662 605.588 610.566 605.612 610.46C605.635 610.353 605.624 610.242 605.578 610.142C605.533 610.043 605.456 609.961 605.36 609.91C601.47 607.83 592.36 602.7 588.79 599.17L576.87 599.22Z" fill="white"/>
<path d="M612.5 599.22L611.81 610.22C611.803 610.299 611.812 610.378 611.837 610.453C611.862 610.527 611.902 610.597 611.954 610.656C612.007 610.714 612.07 610.762 612.142 610.796C612.213 610.829 612.291 610.847 612.37 610.85H640.78C640.889 610.844 640.993 610.803 641.076 610.732C641.16 610.662 641.218 610.566 641.242 610.46C641.265 610.353 641.254 610.242 641.208 610.142C641.163 610.043 641.086 609.961 640.99 609.91C637.1 607.83 627.99 602.7 624.41 599.17L612.5 599.22Z" fill="white"/>
<path d="M580.88 438.78L595.93 418.52L577.13 411.19L566.54 383.7L556.72 388.25L556.6 432.59L580.88 438.78Z" fill="#00E4A2"/>
<path opacity="0.25" d="M556.72 388.25L556.6 432.59L580.88 438.78C580.88 438.78 572.88 413.72 570.88 407.25C568.35 399.2 556.72 388.25 556.72 388.25Z" fill="url(#paint13_linear)"/>
<path opacity="0.25" d="M593.6 486.33L593.38 532.9L588.79 599.22L598.49 533.75L598.82 497.12L593.6 486.33Z" fill="url(#paint14_linear)"/>
<path d="M595.979 373.88C596.249 370.88 595.289 361.61 598.979 359.88C607.319 355.96 616.749 340.65 601.709 328.3C586.249 315.6 578.279 333.24 578.279 333.24L579.459 373.35L595.979 373.88Z" fill="#E1E1E1"/>
<path d="M641.869 420.59C641.869 420.59 623.009 388.47 615.419 376.1C611.889 373.77 593.879 367.1 581.249 368.28C570.919 369.28 556.589 371.86 556.759 389.46C556.899 404.2 568.969 430.67 568.969 430.67L564.969 472.06C564.969 472.06 565.909 479.26 589.539 480.44C618.719 481.89 626.339 472.88 626.539 472.82L613.239 434.12L612.719 409.27L633.809 439.76L671.809 426.07L668.679 416.57L641.869 420.59Z" fill="#00E4A2"/>
<path d="M591.09 336.59C619.31 343.11 608.09 297.95 582 315.23C565.47 309.53 557.91 319.49 559.8 334.54C560.8 342.49 569.8 364.28 569.8 364.28C569.8 364.28 585.21 365.18 590.92 362.1C587.3 352.94 584.86 342.81 591.09 336.59Z" fill="#23213B"/>
<path d="M680.23 416.08C685.78 416.39 689.8 419.65 684.41 421.56L671.72 426.07L668.59 416.57C672.445 416.034 676.343 415.87 680.23 416.08V416.08Z" fill="#E1E1E1"/>
<path opacity="0.25" d="M615.42 376.07C615.12 376.17 610.49 381.52 609.34 391.89C608.34 400.83 612.71 409.27 612.71 409.27L633.8 439.76L671.8 426.07L668.67 416.57L641.91 420.57L615.42 376.07Z" fill="url(#paint15_linear)"/>
<defs>
<linearGradient id="paint0_linear" x1="610.3" y1="359.43" x2="760.1" y2="359.43" gradientUnits="userSpaceOnUse">
<stop stop-color="#231F20"/>
<stop offset="1" stop-color="white"/>
</linearGradient>
<linearGradient id="paint1_linear" x1="61374.6" y1="206516" x2="66983.1" y2="206516" gradientUnits="userSpaceOnUse">
<stop stop-color="#231F20"/>
<stop offset="1" stop-color="white"/>
</linearGradient>
<linearGradient id="paint2_linear" x1="610.3" y1="164.7" x2="834.99" y2="164.7" gradientUnits="userSpaceOnUse">
<stop stop-color="#231F20"/>
<stop offset="0.16" stop-color="#262223"/>
<stop offset="0.29" stop-color="#312D2E"/>
<stop offset="0.42" stop-color="#423F40"/>
<stop offset="0.55" stop-color="#5B5859"/>
<stop offset="0.67" stop-color="#7B7979"/>
<stop offset="0.78" stop-color="#A2A1A1"/>
<stop offset="0.9" stop-color="#D0CFCF"/>
<stop offset="1" stop-color="white"/>
</linearGradient>
<linearGradient id="paint3_linear" x1="83704.2" y1="66101.2" x2="99575.1" y2="66101.2" gradientUnits="userSpaceOnUse">
<stop stop-color="#231F20"/>
<stop offset="1" stop-color="white"/>
</linearGradient>
<linearGradient id="paint4_linear" x1="310.01" y1="239.62" x2="459.81" y2="239.62" gradientUnits="userSpaceOnUse">
<stop stop-color="#231F20"/>
<stop offset="0.06" stop-color="#3E3A3B"/>
<stop offset="0.2" stop-color="#716E6F"/>
<stop offset="0.33" stop-color="#9C9B9B"/>
<stop offset="0.46" stop-color="#C0BFBF"/>
<stop offset="0.6" stop-color="#DCDBDB"/>
<stop offset="0.73" stop-color="#EFEFEF"/>
<stop offset="0.87" stop-color="#FBFBFB"/>
<stop offset="1" stop-color="white"/>
</linearGradient>
<linearGradient id="paint5_linear" x1="459.81" y1="254.54" x2="534.71" y2="254.54" gradientUnits="userSpaceOnUse">
<stop stop-color="#231F20"/>
<stop offset="0.12" stop-color="#282425"/>
<stop offset="0.25" stop-color="#353233"/>
<stop offset="0.39" stop-color="#4C4949"/>
<stop offset="0.54" stop-color="#6C696A"/>
<stop offset="0.69" stop-color="#949293"/>
<stop offset="0.84" stop-color="#C6C5C5"/>
<stop offset="1" stop-color="white"/>
</linearGradient>
<linearGradient id="paint6_linear" x1="81042.5" y1="17982.9" x2="131533" y2="17982.9" gradientUnits="userSpaceOnUse">
<stop stop-color="#231F20"/>
<stop offset="0.16" stop-color="#262223"/>
<stop offset="0.29" stop-color="#312D2E"/>
<stop offset="0.42" stop-color="#423F40"/>
<stop offset="0.55" stop-color="#5B5859"/>
<stop offset="0.67" stop-color="#7B7979"/>
<stop offset="0.78" stop-color="#A2A1A1"/>
<stop offset="0.9" stop-color="#D0CFCF"/>
<stop offset="1" stop-color="white"/>
</linearGradient>
<linearGradient id="paint7_linear" x1="45573.4" y1="49177.9" x2="61444.3" y2="49177.9" gradientUnits="userSpaceOnUse">
<stop stop-color="#231F20"/>
<stop offset="1" stop-color="white"/>
</linearGradient>
<linearGradient id="paint8_linear" x1="275.79" y1="477.665" x2="295.978" y2="526.947" gradientUnits="userSpaceOnUse">
<stop stop-color="#00E4A2"/>
<stop offset="1" stop-color="#EFD0FF"/>
</linearGradient>
<linearGradient id="paint9_linear" x1="278.71" y1="483.94" x2="281.63" y2="366.22" gradientUnits="userSpaceOnUse">
<stop stop-color="#363F4A" stop-opacity="0"/>
<stop offset="0.1" stop-color="#2E3239" stop-opacity="0.42"/>
<stop offset="0.24" stop-color="#28272A" stop-opacity="0.75"/>
<stop offset="0.44" stop-color="#242122" stop-opacity="0.95"/>
<stop offset="1" stop-color="#231F20"/>
</linearGradient>
<linearGradient id="paint10_linear" x1="265.1" y1="253.24" x2="239.54" y2="316.27" gradientUnits="userSpaceOnUse">
<stop offset="0.02" stop-color="#363F4A" stop-opacity="0"/>
<stop offset="0.26" stop-color="#2B2D32" stop-opacity="0.61"/>
<stop offset="0.39" stop-color="#252224" stop-opacity="0.96"/>
</linearGradient>
<linearGradient id="paint11_linear" x1="318.25" y1="302.75" x2="355.4" y2="250.39" gradientUnits="userSpaceOnUse">
<stop stop-color="#231F20"/>
<stop offset="0.52" stop-color="#30353C" stop-opacity="0.33"/>
<stop offset="0.74" stop-color="#363F4A" stop-opacity="0"/>
</linearGradient>
<linearGradient id="paint12_linear" x1="-1.21054e+06" y1="35436.7" x2="-1.21096e+06" y2="38059.1" gradientUnits="userSpaceOnUse">
<stop stop-color="#00E4A2"/>
<stop offset="1" stop-color="#EFD0FF"/>
</linearGradient>
<linearGradient id="paint13_linear" x1="90125.5" y1="7692.13" x2="89083.6" y2="9983.41" gradientUnits="userSpaceOnUse">
<stop offset="0.02" stop-color="#363F4A" stop-opacity="0"/>
<stop offset="0.26" stop-color="#2B2D32" stop-opacity="0.61"/>
<stop offset="0.39" stop-color="#252224" stop-opacity="0.96"/>
</linearGradient>
<linearGradient id="paint14_linear" x1="6389.32" y1="85421.4" x2="3099.3" y2="73653.6" gradientUnits="userSpaceOnUse">
<stop stop-color="#363F4A" stop-opacity="0"/>
<stop offset="0.1" stop-color="#2E3239" stop-opacity="0.42"/>
<stop offset="0.24" stop-color="#28272A" stop-opacity="0.75"/>
<stop offset="0.44" stop-color="#242122" stop-opacity="0.95"/>
<stop offset="1" stop-color="#231F20"/>
</linearGradient>
<linearGradient id="paint15_linear" x1="42810.6" y1="37500.3" x2="44812" y2="34727.1" gradientUnits="userSpaceOnUse">
<stop stop-color="#231F20"/>
<stop offset="0.52" stop-color="#30353C" stop-opacity="0.33"/>
<stop offset="0.74" stop-color="#363F4A" stop-opacity="0"/>
</linearGradient>
</defs>
</svg>
