<svg width="100" height="100" viewBox="0 0 100 100" fill="none" xmlns="http://www.w3.org/2000/svg">
<path fill-rule="evenodd" clip-rule="evenodd" d="M100 50C100 77.6142 77.6142 100 50 100C22.3858 100 0 77.6142 0 50C0 22.3858 22.3858 0 50 0C77.6142 0 100 22.3858 100 50ZM73.8976 51.2992C72.1654 48.3071 69.3701 48.3071 67.6378 51.2992L56.6535 70.2362C54.9606 73.2283 56.3779 75.6693 59.8031 75.6693H81.5354C85 75.6693 86.4173 73.2283 84.685 70.2362L73.8976 51.2992ZM52.9921 14.8425C51.2598 11.8504 48.5039 11.8504 46.7717 14.8425L15.315 70.2362C13.5827 73.2677 15 75.6693 18.4646 75.6693H34.252C37.4409 75.4724 40.315 73.7795 42.0472 71.1024L61.063 38.1496C62.4409 35.315 62.4409 31.9685 61.063 29.1339L55.3937 19.1732L52.9921 14.8425Z" fill="white"/>
</svg>
