<svg width="100" height="100" viewBox="0 0 100 100" fill="none" xmlns="http://www.w3.org/2000/svg">
<path d="M61.4606 49.994H61.4654L49.9998 38.5276L41.525 47L40.5514 47.974L38.5435 49.9824L38.5275 49.998L38.5435 50.0144L49.9998 61.4724L61.4662 50.006L61.4718 49.9996L61.4614 49.994" fill="white"/>
<g clip-path="url(#clip0)">
<path d="M46.1997 36.4L46.1884 36.4383V37.5491L46.1997 37.5604L46.7153 37.2556L46.1997 36.4Z" fill="#343434"/>
<path d="M46.1997 36.4L45.684 37.2556L46.1997 37.5604V37.0212V36.4Z" fill="#8C8C8C"/>
<path d="M46.1997 37.658L46.1933 37.6657V38.0614L46.1997 38.08L46.7156 37.3534L46.1997 37.658Z" fill="#3C3C3B"/>
<path d="M46.1997 38.08V37.658L45.684 37.3534L46.1997 38.08Z" fill="#8C8C8C"/>
<path d="M46.1997 37.5604L46.7153 37.2556L46.1997 37.0212V37.5604Z" fill="#141414"/>
<path d="M45.684 37.2556L46.1997 37.5604V37.0212L45.684 37.2556Z" fill="#393939"/>
</g>
<path d="M30.5791 42.0208L49.9998 22.6L69.4297 42.0292L80.7297 30.7292L49.9998 0L19.2799 30.72L30.5795 42.02L30.5791 42.0208ZM0 50L11.3004 38.698L22.5999 49.9976L11.2996 61.298L0 50ZM30.5791 57.9804L49.9998 77.4L69.4293 57.9712L80.7353 69.2652L80.7297 69.2712L49.9998 100L19.2799 69.28L19.2639 69.264L30.5803 57.9792L30.5791 57.9804ZM77.3997 50.0048L88.7001 38.7044L99.9996 50.004L88.6997 61.3044L77.3997 50.0048Z" fill="white"/>
<defs>
<clipPath id="clip0">
<rect width="1.68" height="1.68" fill="white" transform="translate(45.3598 36.4)"/>
</clipPath>
</defs>
</svg>
