<svg width="100" height="100" viewBox="0 0 100 100" fill="none" xmlns="http://www.w3.org/2000/svg">
<path d="M78.4278 6.52427e-06C72.7161 -0.00443969 67.2361 2.26381 63.1906 6.30685C59.1451 10.3499 56.8647 15.8373 56.85 21.5646V45.4746C54.6278 45.625 52.3556 45.7197 50 45.7197C47.6444 45.7197 45.3833 45.8144 43.15 45.9481V21.5646C43.0591 15.887 40.7461 10.4727 36.7099 6.48985C32.6737 2.50697 27.2378 0.274758 21.575 0.274758C15.9122 0.274758 10.4763 2.50697 6.44011 6.48985C2.40389 10.4727 0.0908613 15.887 0 21.5646V78.7101C0.0908613 84.3877 2.40389 89.802 6.44011 93.7849C10.4763 97.7678 15.9122 100 21.575 100C27.2378 100 32.6737 97.7678 36.7099 93.7849C40.7461 89.802 43.0591 84.3877 43.15 78.7101V54.8002C45.3722 54.6497 47.6444 54.555 50 54.555C52.3556 54.555 54.6167 54.4603 56.85 54.3266V78.7101C56.9409 84.3877 59.2539 89.802 63.2901 93.7849C67.3263 97.7678 72.7622 100 78.425 100C84.0878 100 89.5237 97.7678 93.5599 93.7849C97.5961 89.802 99.9091 84.3877 100 78.7101V21.5646C99.9853 15.8383 97.7057 10.3517 93.6614 6.30882C89.6171 2.26594 84.1385 -0.00296346 78.4278 6.52427e-06V6.52427e-06ZM21.5722 8.83533C24.943 8.83384 28.1768 10.1732 30.5639 12.5597C32.9511 14.9461 34.2967 18.1846 34.3056 21.5646V46.884C27.9932 47.8012 21.829 49.5488 15.9722 52.0816C13.4346 53.1984 11.0458 54.6281 8.86111 56.3377V21.5646C8.86992 18.1884 10.2125 14.9533 12.5949 12.5675C14.9772 10.1817 18.2053 8.83973 21.5722 8.83533V8.83533ZM34.3056 78.7101C34.3056 82.0965 32.964 85.3441 30.5761 87.7387C28.1881 90.1332 24.9493 91.4784 21.5722 91.4784C18.1951 91.4784 14.9564 90.1332 12.5684 87.7387C10.1804 85.3441 8.83889 82.0965 8.83889 78.7101V72.9777C8.83889 67.9139 12.8389 63.1174 19.5444 60.1314C24.2693 58.0874 29.2269 56.6337 34.3056 55.8029V78.7101V78.7101ZM78.4278 91.4394C75.057 91.4409 71.8232 90.1015 69.4361 87.7151C67.0489 85.3287 65.7033 82.0902 65.6944 78.7101V53.3907C72.0068 52.4735 78.171 50.726 84.0278 48.1932C86.5654 47.0764 88.9542 45.6466 91.1389 43.9371V78.7101C91.1301 82.0863 89.7875 85.3215 87.4052 87.7072C85.0228 90.093 81.7947 91.435 78.4278 91.4394V91.4394ZM80.4556 40.1099C75.7307 42.1539 70.7731 43.6077 65.6944 44.4384V21.5646C65.6944 18.1783 67.036 14.9306 69.424 12.5361C71.8119 10.1416 75.0507 8.79633 78.4278 8.79633C81.8049 8.79633 85.0436 10.1416 87.4316 12.5361C89.8196 14.9306 91.1611 18.1783 91.1611 21.5646V27.297C91.1611 32.3386 87.1611 37.1351 80.4556 40.1099Z" fill="white"/>
</svg>
