<svg width="114" height="100" viewBox="0 0 114 100" fill="none" xmlns="http://www.w3.org/2000/svg">
<path d="M86.3185 30.5638C84.235 29.3769 81.5561 29.3769 79.1749 30.5638L62.5065 40.3561L51.1958 46.5875L34.8251 56.3798C32.7415 57.5668 30.0627 57.5668 27.6815 56.3798L14.8825 48.6647C12.799 47.4777 11.3107 45.1039 11.3107 42.4332V27.5964C11.3107 25.2226 12.5013 22.8487 14.8825 21.365L27.6815 13.9466C29.765 12.7596 32.4439 12.7596 34.8251 13.9466L47.624 21.6617C49.7076 22.8487 51.1958 25.2226 51.1958 27.8932V37.6855L62.5065 31.1573V21.0682C62.5065 18.6944 61.3159 16.3205 58.9347 14.8368L35.1227 0.890208C33.0392 -0.296736 30.3603 -0.296736 27.9791 0.890208L3.5718 15.1335C1.1906 16.3205 0 18.6944 0 21.0682V48.9614C0 51.3353 1.1906 53.7092 3.5718 55.1929L27.6815 69.1395C29.765 70.3264 32.4439 70.3264 34.8251 69.1395L51.1958 59.6439L62.5065 53.1157L78.8773 43.6202C80.9608 42.4332 83.6397 42.4332 86.0209 43.6202L98.8199 51.0386C100.903 52.2255 102.392 54.5994 102.392 57.27V72.1068C102.392 74.4807 101.201 76.8546 98.8199 78.3383L86.3185 85.7567C84.235 86.9436 81.5561 86.9436 79.1749 85.7567L66.376 78.3383C64.2924 77.1513 62.8042 74.7775 62.8042 72.1068V62.6113L51.4935 69.1395V78.9318C51.4935 81.3056 52.6841 83.6795 55.0653 85.1632L79.1749 99.1098C81.2585 100.297 83.9373 100.297 86.3185 99.1098L110.428 85.1632C112.512 83.9763 114 81.6024 114 78.9318V50.7418C114 48.368 112.809 45.9941 110.428 44.5104L86.3185 30.5638Z" fill="white"/>
</svg>
