<svg version="1.2" xmlns="http://www.w3.org/2000/svg" viewBox="0 0 734 634" width="734" height="634">
	<title>vault_banner-svg</title>
	<defs>
		<radialGradient id="g1" cx="320.9" cy="333.6" r="372.7" gradientUnits="userSpaceOnUse">
			<stop offset=".4" stop-color="#00e4a2"/>
			<stop offset=".8" stop-color="#ffffff" stop-opacity="0"/>
		</radialGradient>
	</defs>
	<style>
		.s0 { opacity: .1;fill: url(#g1) } 
		.s1 { fill: #633778 } 
		.s2 { fill: #cabcd4 } 
		.s3 { fill: #ebe7ee } 
		.s4 { fill: #d6ccde } 
		.s5 { fill: #987da7 } 
		.s6 { fill: #23213b } 
		.s7 { fill: #a68db4 } 
		.s8 { fill: #e0d9e7 } 
		.s9 { fill: #d3c7db } 
		.s10 { fill: #cabdd6 } 
		.s11 { fill: #ffffff } 
	</style>
	<g id="Layer_6">
	</g>
	<g id="Layer_7">
		<path id="Layer" class="s0" d="m721.2 307.9c29.3 261.8-155.8 379.7-425.8 363.5c-134-8.1-355.3-272.7-375.1-323.8c-29.7-76.9 181.7-324.3 369.9-350.4c149.7-20.8 404.1 69.7 431 310.7z" />
	</g>
	<g id="vault">
		<g id="Layer">
			<g id="Layer">
				<path id="Layer" class="s1" d="m320.2 513.9c-98.9 0-178.8-79.9-178.8-178.8c0-98.9 79.9-178.8 178.8-178.8c98.9 0 178.8 79.9 178.8 178.8c0 98.9-79.9 178.8-178.8 178.8z" />
			</g>
		</g>
		<g id="Layer">
			<g id="Layer">
				<path id="Layer" class="s2" d="m320.2 513.9c-98.9 0-178.8-79.9-178.8-178.8c0-98.9 79.9-178.8 178.8-178.8c98.9 0 178.8 79.9 178.8 178.8c0 98.9-79.9 178.8-178.8 178.8z" />
			</g>
			<path id="Layer" class="s3" d="m320.9 513.9c-97.4 0-176.2-79.2-176.2-177.1c0-97.9 78.8-177.1 176.2-177.1c97.4 0 176.2 79.2 176.2 177.1c0 97.9-78.8 177.1-176.2 177.1z" />
			<path id="Layer" class="s4" d="m322.1 472.1c-74.7 0-135-60.3-135-135c0-74.7 60.3-135 135-135c74.7 0 135 60.3 135 135c0 74.7-60.3 135-135 135z" />
			<path id="Layer" class="s5" d="m320 469.7c-73.4 0-132.8-59.8-132.8-133.8c0-74 59.4-133.8 132.8-133.8c73.4 0 132.8 59.8 132.8 133.8c0 74-59.4 133.8-132.8 133.8z" />
		</g>
		<path id="Layer" class="s6" d="m312.1 458.5c-69.1 0-124.9-55.8-124.9-124.9c0-69.1 55.8-124.9 124.9-124.9c69.1 0 124.9 55.8 124.9 124.9c0 69.1-55.8 124.9-124.9 124.9z" />
		<g id="Layer">
			<g id="Layer">
				<path id="Layer" class="s1" d="m721.5 335.9c-5.2 105.1-65.8 168-65.8 168l-18.2 4.8h-8h-42.4c0 0-22-6.8-42.6-33.2l-9.4-1.9c0 0-47.8-61.8-47.8-138.9c0-63.9 42.8-116.4 42.8-116.4l12.6-5.2c23.6-37.3 50.8-48.2 50.8-48.2h39h11.1l19.1 2.4c0 0 64.2 53.3 58.8 168.6z" />
			</g>
		</g>
		<g id="Layer">
			<path id="Layer" class="s7" d="m721.4 335.9c-5.1 105.1-67 167.9-67 167.9l-16.9 4.9h-8h-42.4c0 0-22-6.8-42.6-33.2l-9.4-1.9c0 0-47.8-61.8-47.8-138.9c0-63.9 42.8-116.4 42.8-116.4l12.6-5.2c23.6-37.3 50.8-48.2 50.8-48.2h39h11.1l18.9 2.7c0 0 64.4 53.1 58.9 168.3z" />
			<path id="Layer" class="s7" d="m599.5 341.2c0 70.4-35.2 139.2-64.4 132.3c-16.4-3.9-47.5-58.5-47.5-128.6c0-70.1 24.4-115.1 42.5-126.7c25.4-16.1 69.4 52.9 69.4 123z" />
			<path id="Layer" class="s7" d="m662.7 337.6c0 94.9-34.1 171.1-75.8 171.1c-41.7 0-75-76.2-75-171.1c0-94.9 39.9-172.7 81.6-172.7c41.7 0 69.2 77.8 69.2 172.7z" />
			<path id="Layer" class="s8" d="m727.2 335.2c-5.5 151.9-60.8 173.5-68.8 173.5h-71.4c0 0 88.6-7.4 89-171.4c0.3-149.5-82.5-172.4-82.5-172.4h71.4c7.6 0 66.9 43.5 62.3 170.3z" />
			<path id="Layer" class="s9" d="m644.6 339.8c-0.8 127.4-63.5 141-63.5 141l-46-7.2c0 0 67.5 3.9 64.4-134.2c-2.5-111.3-64.4-123.1-64.4-123.1l42.4-14.8c0 0 67.7 31.3 67.1 138.3z" />
			<path id="Layer" class="s10" d="m643.7 164.8c0 0 68.2 53.2 64.2 184.4c-4 131.4-76.4 159.4-76.4 159.4h-7.6c0 0 75.1-39 73.8-160.4c7.1-138.9-65.2-183.3-65.2-183.3z" />
		</g>
		<g id="Layer" style="opacity: .5">
			<g id="Layer">
				<path id="Layer" class="s1" d="m320.2 189.8c-5 0-9-4-9-9c0-5 4-9 9-9c5 0 9 4 9 9c0 5-4 9-9 9z" />
				<path id="Layer" class="s1" d="m242.6 211.1c-5 0-9-4-9-9c0-5 4-9 9-9c5 0 9 4 9 9c0 5-4 9-9 9z" />
				<path id="Layer" class="s1" d="m184.5 268.2c-5 0-9-4-9-9c0-5 4-9 9-9c5 0 9 4 9 9c0 5-4 9-9 9z" />
				<path id="Layer" class="s1" d="m163.8 346.3c-5 0-9-4-9-9c0-5 4-9 9-9c5 0 9 4 9 9c0 5-4 9-9 9z" />
				<path id="Layer" class="s1" d="m184.5 424.6c-5 0-9-4-9-9c0-5 4-9 9-9c5 0 9 4 9 9c0 5-4 9-9 9z" />
				<path id="Layer" class="s1" d="m241.6 482.4c-5 0-9-4-9-9c0-5 4-9 9-9c5 0 9 4 9 9c0 5-4 9-9 9z" />
				<path id="Layer" class="s1" d="m320.2 503.3c-5 0-9-4-9-9c0-5 4-9 9-9c5 0 9 4 9 9c0 5-4 9-9 9z" />
				<path id="Layer" class="s1" d="m399 482.4c-5 0-9-4-9-9c0-5 4-9 9-9c5 0 9 4 9 9c0 5-4 9-9 9z" />
				<path id="Layer" class="s1" d="m455.5 424.6c-5 0-9-4-9-9c0-5 4-9 9-9c5 0 9 4 9 9c0 5-4 9-9 9z" />
				<path id="Layer" class="s1" d="m476.6 346.3c-5 0-9-4-9-9c0-5 4-9 9-9c5 0 9 4 9 9c0 5-4 9-9 9z" />
				<path id="Layer" class="s1" d="m455.9 268.2c-5 0-9-4-9-9c0-5 4-9 9-9c5 0 9 4 9 9c0 5-4 9-9 9z" />
				<path id="Layer" class="s1" d="m398.6 211.1c-5 0-9-4-9-9c0-5 4-9 9-9c5 0 9 4 9 9c0 5-4 9-9 9z" />
			</g>
		</g>
	</g>
	<g id="Layer_4">
		<g id="Layer">
			<path id="Layer" class="s11" d="m353.5 359.5c-0.1 0.3-0.3 0.6-0.4 0.9c-0.9 1.8-1.8 3.6-2.7 5.5c-1.3 2.7-2.7 5.5-4 8.2c-0.7 1.4-1.4 2.7-2 4.1c-0.4 0.8-0.9 1.4-1.7 1.8c-1 0.5-2 1.1-3 1.7c-1.5 0.9-3 1.7-4.4 2.6c-1.5 0.9-3 1.8-4.5 2.6c-1 0.6-2.1 1.2-3.1 1.8c-0.5 0.3-0.6 0.3-0.9-0.2c-1.3-1.6-2.6-3.3-3.9-4.9c-1.9-2.3-3.8-4.6-5.6-7c-1.3-1.6-2.6-3.3-3.9-4.9c-1.5-1.8-3-3.7-4.5-5.5c-0.1-0.1-0.2-0.3-0.3-0.4c-0.6-0.5-0.4-1-0.1-1.6c1-1.8 2-3.7 3-5.5c1.2-2.3 2.5-4.6 3.7-6.9c0.7-1.3 1.4-2.7 2.2-4c1.4-2.7 2.9-5.3 4.3-8c0.8-1.4 1.5-2.8 2.3-4.2c1.3-2.4 2.5-4.7 3.8-7.1c0.7-1.3 1.4-2.5 2-3.8c0.2-0.3 0.2-0.3 0.5 0c1.3 2 2.6 3.9 3.9 5.9q2.1 3.2 4.2 6.3c2 3.1 4.1 6.1 6.2 9.2q3.8 5.6 7.5 11.1c0.4 0.6 0.9 1.3 1.3 2c0.1 0.1 0.2 0.2 0.1 0.3z" />
			<path id="Layer" class="s11" d="m263 308c-0.2-0.9 0.3-1.4 1.1-1.9c2.1-1.2 4.2-2.5 6.3-3.7c1.8-1.1 3.7-2.1 5.5-3.2q1.8-1 3.6-2.1c1-0.6 2.1-1.2 3.2-1.8c1.4-0.8 2.9-1.7 4.3-2.5c1.2-0.7 2.5-1.4 3.8-2.2c1-0.5 1.9-1.1 2.8-1.7c0.9-0.5 1.9-1.1 2.8-1.6c1.7-1 3.3-1.9 5-2.9c0.3-0.2 0.6-0.4 1-0.6c0.3-0.2 0.5-0.1 0.7 0.2c2.1 3.1 4.2 6.3 6.3 9.4c0.2 0.3 0.2 0.5 0.1 0.8c-1.2 2.5-2.4 4.9-3.6 7.4c-1.6 3.4-3.3 6.8-5 10.2c-1.1 2.2-2.1 4.3-3.2 6.5c-1.2 2.5-2.4 5-3.6 7.4c-1.1 2.2-2.2 4.5-3.3 6.7c-1.1 2.2-2.1 4.3-3.2 6.5c-0.2 0.4-0.3 0.4-0.6 0c-2.2-2.8-4.4-5.5-6.6-8.3c-1.6-2-3.2-4-4.8-5.9c-2.2-2.8-4.4-5.5-6.6-8.2c-1.4-1.7-2.8-3.5-4.2-5.2c-0.5-0.5-0.9-1.1-1.4-1.6c-0.5-0.4-0.4-1-0.4-1.7z" />
			<path id="Layer" class="s11" d="m365.7 321q0 6.1 0 12.3c0 1.1-0.2 2.1-0.7 3c-1.1 2.1-2.1 4.1-3.1 6.2q-2.4 5-4.8 9.9c-0.1 0.2-0.2 0.5-0.3 0.8c0 0.1-0.1 0.3-0.2 0.3c-0.1 0-0.2-0.1-0.2-0.2c-0.2-0.2-0.3-0.4-0.5-0.7c-2.1-3.1-4.2-6.2-6.2-9.3c-2.2-3.3-4.5-6.6-6.7-9.9c-2.4-3.6-4.8-7.2-7.3-10.8c-0.8-1.1-1.5-2.3-2.3-3.5c-0.2-0.3-0.2-0.5 0-0.8c1.3-2.4 2.6-4.9 4-7.3c1.7-3.2 3.4-6.3 5.1-9.5c1-1.9 2.1-3.9 3.2-5.8c0.2-0.3 0.3-0.4 0.6-0.2c1.2 0.7 2.4 1.4 3.5 2.1c1.5 0.9 2.9 1.7 4.4 2.5c1.2 0.7 2.5 1.5 3.8 2.2c1.2 0.7 2.3 1.4 3.5 2c1 0.6 2.1 1.2 3.1 1.8c0.3 0.1 0.5 0.3 0.8 0.5c0.4 0.2 0.5 0.6 0.5 1q0 0.3 0 0.6c-0.2 4.2-0.2 8.5-0.2 12.8z" />
			<path id="Layer" class="s11" d="m304.1 360.3c-0.1-0.1-0.2-0.2-0.3-0.4c-0.6-0.8-1.2-1.5-1.8-2.3c-1.8-2.2-3.6-4.4-5.3-6.6c-1.3-1.6-2.6-3.3-3.9-4.9c-0.4-0.5-0.7-0.9-1.1-1.4c-0.2-0.2-0.3-0.5-0.1-0.8q1.3-2.7 2.7-5.4q1.8-3.7 3.6-7.5c1.2-2.4 2.4-4.8 3.5-7.2c1-2.1 2.1-4.3 3.2-6.5c1.2-2.5 2.4-5 3.7-7.5c1.1-2.3 2.3-4.6 3.4-6.9q0.7-1.5 1.5-3c0 0 0.1-0.1 0.1-0.2c0.2-0.4 0.2-0.4 0.4 0c1.1 1.6 2.2 3.2 3.2 4.8c2.3 3.4 4.6 6.8 6.9 10.3c0.9 1.3 1.7 2.5 2.5 3.8c0.2 0.3 0.2 0.5 0 0.8c-0.8 1.5-1.6 2.9-2.4 4.4c-1.3 2.4-2.5 4.7-3.8 7.1c-0.8 1.4-1.5 2.8-2.2 4.1q-2 3.6-3.9 7.2c-0.9 1.6-1.8 3.3-2.6 4.9c-1.3 2.4-2.6 4.7-3.8 7.1c-1 1.8-1.9 3.5-2.8 5.3q-0.2 0.3-0.3 0.6c-0.2 0-0.3 0.1-0.4 0.2z" />
			<path id="Layer" class="s11" d="m263 342.5q0-11.7 0-23.4c0-0.2-0.1-0.5 0.1-0.5c0.2-0.1 0.3 0.2 0.4 0.3c1.2 1.5 2.4 2.9 3.5 4.4c1.5 1.9 3.1 3.8 4.6 5.7c1.8 2.2 3.6 4.5 5.4 6.7c1.2 1.5 2.5 3.1 3.7 4.6c1.2 1.4 2.3 2.9 3.5 4.3c0.3 0.3 0.3 0.6 0.1 1c-1.4 2.8-2.7 5.5-4.1 8.3c-1.2 2.4-2.4 4.8-3.5 7.2c-1.2 2.4-2.3 4.8-3.5 7.1q-0.8 1.5-1.5 3c-0.1 0.2-0.2 0.3-0.5 0.1c-1.1-0.7-2.3-1.3-3.4-2c-1-0.6-2-1.2-3-1.7c-0.5-0.3-0.9-0.5-1.3-0.8c-0.3-0.2-0.5-0.5-0.5-0.9c0-0.2 0-0.3 0-0.5c0-7.6 0-15.3 0-22.9z" />
			<path id="Layer" class="s11" d="m301.2 365.9c0 0.1-0.1 0.2-0.2 0.4c-1 1.8-2 3.7-3 5.5q-2.1 3.9-4.2 7.8c-0.6 1.1-1.2 2.2-1.8 3.4c-0.2 0.4-0.3 0.4-0.6 0.2c-1.3-0.7-2.5-1.5-3.8-2.2q-1.1-0.6-2.1-1.2c-1-0.6-2-1.1-3-1.7c-1.7-1-3.3-1.9-5-2.9c-0.2-0.1-0.5-0.3-0.8-0.4c-0.2-0.1-0.3-0.3-0.2-0.5c0.3-0.6 0.5-1.1 0.8-1.7c1-2 1.9-3.9 2.9-5.9c1.2-2.5 2.5-5 3.7-7.5c1.1-2.3 2.3-4.7 3.4-7c0.3-0.6 0.6-1.1 0.8-1.7c0.1-0.3 0.3-0.2 0.4 0c1.3 1.6 2.6 3.3 3.9 4.9c1.7 2.1 3.3 4.1 5 6.2c1.1 1.4 2.2 2.8 3.4 4.2c0.3-0.2 0.3-0.1 0.4 0.1z" />
			<path id="Layer" class="s11" d="m340.7 292.5c0 0 0 0.1-0.1 0.2c-1 1.8-2 3.6-2.9 5.5c-0.8 1.4-1.5 2.8-2.2 4.2c-1.4 2.7-2.9 5.3-4.3 8c-0.5 0.9-0.9 1.7-1.4 2.6c-0.2 0.4-0.3 0.4-0.6 0c-1.2-1.9-2.5-3.7-3.7-5.5c-1.5-2.2-2.9-4.4-4.4-6.5c-1.6-2.3-3.1-4.6-4.7-7c-0.2-0.3-0.2-0.5-0.1-0.8c1.1-2.2 2.2-4.4 3.3-6.7c0.8-1.5 1.5-3.1 2.2-4.6c0.1-0.3 0.3-0.3 0.5-0.2c2.3 1.3 4.5 2.6 6.8 4c1.3 0.7 2.5 1.4 3.8 2.2c2.3 1.3 4.6 2.7 6.8 4c0.2 0.1 0.5 0.3 0.7 0.4c0.2 0 0.3 0 0.3 0.2z" />
			<path id="Layer" class="s11" d="m314.4 396.4c-0.2 0-0.4-0.1-0.6-0.2q-1.8-1-3.6-2.1c-1.3-0.8-2.6-1.5-3.9-2.3c-1.2-0.7-2.3-1.4-3.5-2c-1.2-0.7-2.4-1.4-3.7-2.1c-0.6-0.4-1.2-0.7-1.9-1.1c-0.5-0.3-0.5-0.3-0.2-0.8c1.2-2.3 2.5-4.6 3.7-6.9c0.9-1.7 1.9-3.5 2.8-5.2c0.5-1 1-1.9 1.5-2.8c0.1-0.2 0.2-0.2 0.4 0c1.2 1.5 2.3 2.9 3.5 4.4c1.6 2 3.2 3.9 4.8 5.9c1.5 1.9 3 3.8 4.6 5.7c1.2 1.5 2.5 3.1 3.8 4.6c0.3 0.4 0.4 0.4-0.1 0.7q-1.5 0.9-3 1.8c-1 0.6-1.9 1.1-2.9 1.7c-0.5 0.2-0.9 0.6-1.4 0.7q-0.3-0.1-0.3 0z" />
			<path id="Layer" class="s11" d="m365.7 357.3c0 2.8 0 5.6 0 8.5q0 0.3 0 0.6c0 0.1-0.1 0.2-0.2 0.3c-0.1 0.1-0.2-0.1-0.3-0.2q-0.6-0.9-1.2-1.8c-1.1-1.7-2.2-3.4-3.4-5c-0.3-0.4-0.3-0.7-0.1-1.1c1.2-2.5 2.4-4.9 3.7-7.4c0.4-0.8 0.8-1.7 1.2-2.5c0-0.1 0.1-0.3 0.2-0.3c0.2 0 0.1 0.2 0.1 0.4c0 2.7 0 5.4 0 8.2q0 0 0 0.3z" />
			<path id="Layer" class="s11" d="m314.4 277.2c0.5 0 0.9 0.3 1.4 0.5c0.3 0.2 0.6 0.4 1 0.6c0.4 0.2 0.4 0.3 0.2 0.7c-0.6 1.3-1.2 2.5-1.9 3.8c-0.8 1.6-1.5 3.2-2.3 4.8c0 0.1-0.1 0.2-0.2 0.3c-0.2 0-0.2-0.1-0.3-0.2q-2.1-3.1-4.2-6.3c-0.3-0.4-0.3-0.5 0.1-0.7c1-0.6 2-1.2 3-1.7c0.7-0.4 1.5-0.9 2.2-1.3c0.2-0.4 0.6-0.5 1-0.5z" />
			<path id="Layer" class="s11" d="m360.4 369.5c0 0.2-0.2 0.3-0.3 0.4c-1.7 1-3.5 2.1-5.2 3.1q-0.8 0.5-1.5 0.9c-0.1 0-0.2 0.2-0.4 0c-0.1-0.1 0-0.2 0.1-0.3q1.3-2.7 2.7-5.4c0.5-0.9 0.9-1.9 1.4-2.8c0.2-0.3 0.2-0.3 0.4 0c0.9 1.3 1.8 2.7 2.7 4c0 0 0 0.1 0.1 0.1z" />
		</g>
	</g>
</svg>