<?xml version="1.0" encoding="utf-8"?>
<!-- Generator: Adobe Illustrator 25.2.3, SVG Export Plug-In . SVG Version: 6.00 Build 0)  -->
<svg version="1.1" id="Layer_1" xmlns="http://www.w3.org/2000/svg" xmlns:xlink="http://www.w3.org/1999/xlink" x="0px" y="0px"
	 viewBox="0 0 917.9 648.3" style="enable-background:new 0 0 917.9 648.3;" xml:space="preserve">
<style type="text/css">
	.st0{display:none;}
	.st1{display:inline;fill:#402E4B;}
	.st2{opacity:0.2;fill:url(#SVGID_1_);enable-background:new    ;}
	.st3{opacity:0.2;fill:url(#SVGID_2_);enable-background:new    ;}
	.st4{fill:#FFFFFF;}
	.st5{display:inline;opacity:0.2;fill:#633778;enable-background:new    ;}
	.st6{display:inline;fill:#F1F2F2;}
	.st7{display:inline;fill:#FFFFFF;}
	.st8{opacity:0.25;fill:url(#SVGID_3_);enable-background:new    ;}
	.st9{display:none;fill:#00E4A2;}
	.st10{fill:#D1D3D4;}
	.st11{fill:#E6E7E8;}
	.st12{fill:#939598;}
	.st13{opacity:0.49;fill:url(#SVGID_4_);enable-background:new    ;}
	.st14{fill:#00E4A2;}
	.st15{fill:#EFD0FF;}
	.st16{fill:#E6E6E6;}
	.st17{fill:#E1E1E1;}
	.st18{fill:#053651;}
	.st19{fill:#042941;}
	.st20{fill:#363F4A;}
	.st21{fill:#F2F1F1;}
	.st22{opacity:0.26;fill:url(#SVGID_5_);enable-background:new    ;}
	.st23{opacity:0.26;fill:url(#SVGID_6_);enable-background:new    ;}
</style>
<g id="Layer_3" class="st0">
	<rect x="-51.2" y="-168" class="st1" width="1035.3" height="1053.5"/>
</g>
<g id="Layer_2_1_">
	
		<linearGradient id="SVGID_1_" gradientUnits="userSpaceOnUse" x1="608.9106" y1="123.5983" x2="373.1565" y2="412.7117" gradientTransform="matrix(1.1848 0.1992 0.1615 -0.9606 -88.0874 560.8361)">
		<stop  offset="9.970000e-02" style="stop-color:#FFFFFF;stop-opacity:0"/>
		<stop  offset="0.6332" style="stop-color:#EFD0FF"/>
		<stop  offset="0.8506" style="stop-color:#F8EAFF;stop-opacity:0.7037"/>
		<stop  offset="1" style="stop-color:#FFFFFF;stop-opacity:0.5"/>
	</linearGradient>
	<path class="st2" d="M220,199.5C157.5,270.4,9.8,522.6,100.6,579.1c60.4,37.5,327.7,79.9,491.6,23.6
		C919.3,490.2,998.5,122.8,836.7,55.8C714.2,5.1,295.6,113.8,220,199.5z"/>
	
		<linearGradient id="SVGID_2_" gradientUnits="userSpaceOnUse" x1="486.1147" y1="567.5603" x2="994.9058" y2="237.0715" gradientTransform="matrix(-1.0582 0.5964 -0.5102 -0.9053 1333.8673 242.9915)">
		<stop  offset="9.970000e-02" style="stop-color:#FFFFFF;stop-opacity:0"/>
		<stop  offset="0.6332" style="stop-color:#00E4A2"/>
	</linearGradient>
	<path class="st3" d="M607.2,50.8c86,49.8,228.1,299.1,162.2,386c-43.8,57.7-80.3,43.6-257.8,42.3C157.4,476.5-2.6,195.1,0,84.7
		C2.9-35.7,503.2-9.4,607.2,50.8z"/>
	<g>
		<g>
			<path class="st4" d="M777,537.3l-628.7,1.9c-4.2,0-7.6-3.1-7.7-7l-1.1-392.6h7.6h632.6h7.6l-2.8,390.7
				C784.6,534.2,781.2,537.3,777,537.3z"/>
			<g>
				<g class="st0">
					<path class="st5" d="M193.3,193.9h165.2c4.5,0,8,3.6,8,8.1l0,0c0,4.4-3.6,8.1-8,8.1H193.3c-4.4,0-8.1-3.6-8.1-8.1l0,0
						C185.3,197.6,188.9,193.9,193.3,193.9z"/>
					<path class="st6" d="M684.5,217.2h50.1c3.9,0,7,3.2,7,7.1l0,0c0,3.9-3.2,7.1-7,7.1h-50.1c-3.9,0-7-3.2-7-7.1l0,0
						C677.5,220.3,680.6,217.2,684.5,217.2z"/>
					<path class="st7" d="M193.1,253.1h540.8c4.3,0,7.8,3.5,7.8,7.8v229.7c0,4.3-3.5,7.8-7.8,7.8H193.1c-4.3,0-7.8-3.5-7.8-7.8
						V260.9C185.3,256.6,188.8,253.1,193.1,253.1z"/>
				</g>
			</g>
			
				<linearGradient id="SVGID_3_" gradientUnits="userSpaceOnUse" x1="126.4831" y1="310.5061" x2="919.6447" y2="310.1755" gradientTransform="matrix(1 0 0 -1 0 650)">
				<stop  offset="0" style="stop-color:#EFD0FF"/>
				<stop  offset="0.2529" style="stop-color:#F0D2FF"/>
				<stop  offset="0.344" style="stop-color:#F2D9FF"/>
				<stop  offset="0.4089" style="stop-color:#F6E4FF"/>
				<stop  offset="0.4611" style="stop-color:#FCF5FF"/>
				<stop  offset="0.4832" style="stop-color:#FFFFFF"/>
				<stop  offset="0.5323" style="stop-color:#F9FEFD"/>
				<stop  offset="0.5967" style="stop-color:#E9FDF7"/>
				<stop  offset="0.6695" style="stop-color:#CEFAED"/>
				<stop  offset="0.7487" style="stop-color:#A8F6DF"/>
				<stop  offset="0.8328" style="stop-color:#77F1CD"/>
				<stop  offset="0.9199" style="stop-color:#3DEAB8"/>
				<stop  offset="1" style="stop-color:#00E4A2"/>
			</linearGradient>
			<path class="st8" d="M776,537.5l-628.7,1.9c-4.2,0-7.6-3.1-7.7-7l-1.1-392.6h7.6h632.6h7.6l-2.8,390.7
				C783.5,534.4,780.1,537.5,776,537.5z"/>
			<path class="st9" d="M510.5,281h-9.4v-18.3c0-20.7-16.5-37.8-37.1-38.1c-20.9-0.2-37.9,16.5-38.1,37.3c0,0.1,0,0.2,0,0.3V281
				h-9.4c-8.6,0-15.7,7-15.7,15.7v75.3c0,8.6,7,15.7,15.7,15.7h94.1c8.6,0,15.6-7,15.7-15.7v-75.3C526.2,288,519.2,281,510.5,281z
				 M469,329.9v27c0,3-2.3,5.4-5.2,5.6c-3,0.1-5.6-2.2-5.8-5.2c0-0.1,0-0.2,0-0.3v-27.1c-6.2-3-8.8-10.5-5.8-16.7
				c3-6.2,10.5-8.8,16.7-5.8c6.2,3,8.8,10.5,5.8,16.7C473.5,326.7,471.5,328.7,469,329.9L469,329.9L469,329.9z M490.1,281h-53.3
				v-18.8c0-14.7,11.9-26.7,26.7-26.7s26.7,11.9,26.7,26.7L490.1,281z"/>
		</g>
		<g>
			<path class="st10" d="M779.8,104.8H147.2c-4.2,0-7.6,3.4-7.6,7.6l0.1,27.3h647.8v-27.2C787.4,108.2,784,104.8,779.8,104.8z"/>
			<g>
				
					<image style="overflow:visible;opacity:0.15;enable-background:new    ;" width="578" height="22" xlink:href="846047CD.png"  transform="matrix(1 0 0 1 205.8215 111.6651)">
				</image>
				<g>
					<path class="st11" d="M773,130.2H216.6c-3.8,0-6.9-3.1-6.9-6.9v-0.9c0-3.8,3.1-6.9,6.9-6.9h556.4c3.8,0,6.9,3.1,6.9,6.9v0.9
						C780,127.1,776.9,130.2,773,130.2z"/>
				</g>
			</g>
			<g>
				
					<image style="overflow:visible;opacity:0.15;enable-background:new    ;" width="38" height="13" xlink:href="846047CF.png"  transform="matrix(1 0 0 1 157.8215 116.6651)">
				</image>
				<g>
					<g>
						<ellipse class="st12" cx="189" cy="122.8" rx="3.1" ry="3"/>
						<ellipse class="st12" cx="176.8" cy="122.8" rx="3.1" ry="3"/>
						<ellipse class="st12" cx="164.7" cy="122.8" rx="3.1" ry="3"/>
					</g>
				</g>
			</g>
		</g>
	</g>
	
		<linearGradient id="SVGID_4_" gradientUnits="userSpaceOnUse" x1="728.4647" y1="-391.0691" x2="616.4875" y2="-614.2438" gradientTransform="matrix(1 0 0 -0.6401 0 301.8597)">
		<stop  offset="9.970000e-02" style="stop-color:#FFFFFF;stop-opacity:0"/>
		<stop  offset="0.6332" style="stop-color:#00E4A2;stop-opacity:0.39"/>
	</linearGradient>
	<ellipse class="st13" cx="690.5" cy="600.7" rx="120" ry="47.6"/>
</g>
<g id="Layer_1_1_">
	<path class="st14" d="M548.3,281.1c-11.1,0-20.2-9-20.2-20.2c0-11.1,9-20.2,20.2-20.2c11.1,0,20.2,9,20.2,20.2l0,0
		C568.5,272.1,559.4,281.1,548.3,281.1z M548.3,242.7c-10.1,0-18.3,8.2-18.3,18.3s8.2,18.3,18.3,18.3c10.1,0,18.3-8.2,18.3-18.3l0,0
		C566.6,250.9,558.4,242.7,548.3,242.7z"/>
	<path id="f1f767dc-4b88-4f47-9e03-7555881e6705" class="st14" d="M546.4,268.3c-0.4,0-0.8-0.1-1.2-0.4l0,0l-4.5-3.5
		c-0.9-0.7-1-1.9-0.4-2.8c0.7-0.9,1.9-1,2.8-0.4l2.9,2.2l6.9-9c0.7-0.9,1.9-1.1,2.8-0.4l0,0l0,0l0,0.1l0-0.1c0.9,0.7,1,1.9,0.4,2.8
		l-8.1,10.6C547.6,268,547,268.3,546.4,268.3L546.4,268.3z"/>
	<path class="st15" d="M606,281.1c-11.1,0-20.2-9-20.2-20.2c0-11.1,9-20.2,20.2-20.2c11.1,0,20.2,9,20.2,20.2l0,0
		C626.2,272.1,617.2,281.1,606,281.1z M606,242.7c-10.1,0-18.3,8.2-18.3,18.3s8.2,18.3,18.3,18.3c10.1,0,18.3-8.2,18.3-18.3l0,0
		C624.3,250.9,616.1,242.7,606,242.7z"/>
	<path class="st15" d="M613.3,267.9c-0.5,0.5-1.3,0.5-1.8,0l-4.8-4.8c-0.2-0.2-0.6-0.2-0.8,0l-4.8,4.8c-0.5,0.5-1.3,0.5-1.8,0
		s-0.5-1.3,0-1.8l4.8-4.8c0.2-0.2,0.2-0.6,0-0.8l-4.8-4.8c-0.5-0.5-0.5-1.3,0-1.8s1.3-0.5,1.8,0l0,0l4.8,4.8c0.2,0.2,0.6,0.2,0.8,0
		l4.8-4.8c0.5-0.5,1.3-0.5,1.8,0s0.5,1.3,0,1.8l-4.8,4.8c-0.2,0.2-0.2,0.6,0,0.8l0,0l4.8,4.8C613.8,266.6,613.8,267.4,613.3,267.9z"
		/>
	<path class="st14" d="M548.3,345.2c-11.1,0-20.2-9-20.2-20.2s9-20.2,20.2-20.2c11.1,0,20.2,9,20.2,20.2
		C568.5,336.1,559.4,345.2,548.3,345.2z M548.3,306.7c-10.1,0-18.3,8.2-18.3,18.3s8.2,18.3,18.3,18.3c10.1,0,18.3-8.2,18.3-18.3l0,0
		C566.6,314.9,558.4,306.8,548.3,306.7L548.3,306.7z"/>
	<path id="a793c70c-1521-4e6e-9b61-9683a9490971" class="st14" d="M546.4,332.3c-0.4,0-0.8-0.1-1.2-0.4l0,0l-4.5-3.5
		c-0.9-0.7-1-1.9-0.4-2.8c0.7-0.9,1.9-1,2.8-0.4l2.9,2.2l6.9-9c0.7-0.9,1.9-1,2.8-0.4l0,0l0,0l0,0.1l0-0.1c0.9,0.7,1,1.9,0.4,2.8
		l-8.1,10.6C547.6,332,547,332.3,546.4,332.3L546.4,332.3z"/>
	<path class="st15" d="M606,345.2c-11.1,0-20.2-9-20.2-20.2s9-20.2,20.2-20.2c11.1,0,20.2,9,20.2,20.2
		C626.2,336.1,617.2,345.2,606,345.2z M606,306.7c-10.1,0-18.3,8.2-18.3,18.3s8.2,18.3,18.3,18.3c10.1,0,18.3-8.2,18.3-18.3l0,0
		C624.3,314.9,616.1,306.8,606,306.7L606,306.7z"/>
	<path class="st16" d="M613.3,332c-0.5,0.5-1.3,0.5-1.8,0l-4.8-4.8c-0.2-0.2-0.6-0.2-0.8,0L601,332c-0.5,0.5-1.3,0.5-1.8,0
		s-0.5-1.3,0-1.8l0,0l4.8-4.8c0.2-0.2,0.2-0.6,0-0.8l-4.8-4.8c-0.5-0.5-0.5-1.3,0-1.8s1.3-0.5,1.8,0l0,0l4.8,4.8
		c0.2,0.2,0.6,0.2,0.8,0l4.8-4.8c0.5-0.5,1.3-0.5,1.8,0s0.5,1.3,0,1.8l-4.8,4.8c-0.2,0.2-0.2,0.6,0,0.8l4.8,4.8
		C613.8,330.7,613.8,331.5,613.3,332z"/>
	<path class="st15" d="M548.3,409.2c-11.1,0-20.2-9-20.2-20.2s9-20.2,20.2-20.2c11.1,0,20.2,9,20.2,20.2
		C568.5,400.2,559.4,409.2,548.3,409.2z M548.3,370.8c-10.1,0-18.3,8.2-18.3,18.3s8.2,18.3,18.3,18.3c10.1,0,18.3-8.2,18.3-18.3l0,0
		C566.6,379,558.4,370.8,548.3,370.8z"/>
	<path id="b02a55c8-7c5c-410c-bde7-66a7a3b003d7" class="st15" d="M546.4,396.4c-0.4,0-0.8-0.1-1.2-0.4l0,0l-4.5-3.5
		c-0.9-0.7-1-1.9-0.4-2.8c0.7-0.9,1.9-1,2.8-0.4l2.9,2.2l6.9-9c0.7-0.9,1.9-1,2.8-0.4l0,0l0,0l0,0.1l0-0.1c0.9,0.7,1,1.9,0.4,2.8
		l-8.1,10.6C547.6,396.1,547,396.4,546.4,396.4L546.4,396.4z"/>
	<path class="st15" d="M606,409.2c-11.1,0-20.2-9-20.2-20.2s9-20.2,20.2-20.2c11.1,0,20.2,9,20.2,20.2
		C626.2,400.2,617.2,409.2,606,409.2z M606,370.8c-10.1,0-18.3,8.2-18.3,18.3s8.2,18.3,18.3,18.3c10.1,0,18.3-8.2,18.3-18.3l0,0
		C624.3,379,616.1,370.8,606,370.8z"/>
	<path class="st15" d="M613.3,396c-0.5,0.5-1.3,0.5-1.8,0l-4.8-4.8c-0.2-0.2-0.6-0.2-0.8,0L601,396c-0.5,0.5-1.3,0.5-1.8,0
		s-0.5-1.3,0-1.8l0,0l4.8-4.8c0.2-0.2,0.2-0.6,0-0.8l-4.8-4.8c-0.5-0.5-0.5-1.3,0-1.8s1.3-0.5,1.8,0l0,0l4.8,4.8
		c0.2,0.2,0.6,0.2,0.8,0l4.8-4.8c0.5-0.5,1.3-0.5,1.8,0s0.5,1.3,0,1.8l-4.8,4.8c-0.2,0.2-0.2,0.6,0,0.8l0,0l4.8,4.8
		C613.8,394.7,613.8,395.5,613.3,396z"/>
	<path class="st14" d="M370.1,265.8H212.9c-4.2,0-7.6-3.4-7.6-7.6c0-4.2,3.4-7.6,7.6-7.6h157.3c4.2,0,7.6,3.4,7.6,7.6
		C377.8,262.4,374.3,265.8,370.1,265.8z"/>
	<path class="st17" d="M467.2,272.4h-270c-0.6,0-1-0.5-1-1s0.4-1,1-1h270c0.5,0,1,0.5,1,1S467.8,272.4,467.2,272.4z"/>
	<path class="st14" d="M370.1,329.9H212.9c-4.2,0-7.6-3.4-7.6-7.6c0-4.2,3.4-7.6,7.6-7.6h157.3c4.2,0,7.6,3.4,7.6,7.6
		C377.8,326.5,374.3,329.9,370.1,329.9z"/>
	<path class="st17" d="M467.2,336.4h-270c-0.6,0-1-0.5-1-1s0.4-1,1-1h270c0.5,0,1,0.5,1,1S467.8,336.4,467.2,336.4z"/>
	<path class="st15" d="M370.1,393.9H212.9c-4.2,0-7.6-3.4-7.6-7.6c0-4.2,3.4-7.6,7.6-7.6h157.3c4.2,0,7.6,3.4,7.6,7.6
		C377.8,390.5,374.3,393.9,370.1,393.9z"/>
	<path class="st17" d="M467.2,400.5h-270c-0.6,0-1-0.5-1-1s0.4-1,1-1h270c0.5,0,1,0.5,1,1S467.8,400.5,467.2,400.5z"/>
</g>
<g id="Layer_4">
	<polygon class="st18" points="662.7,398.9 651.3,486.6 659.1,593.8 674.2,593.8 683,500.1 699,455.8 707.3,593.8 724,593.8 
		743.9,396.5 	"/>
	<path class="st17" d="M551.6,326.1c-0.1,1,0.7,1.5,1.6,1.8c3,0.9,16.5,1.5,26.8,1.8c3.5,0.1,0.4-12.6,0.4-12.6
		S553.1,316.1,551.6,326.1z"/>
	<path class="st17" d="M699.2,273.5l-2-6c-0.5-1.4-1.4-2.6-2.8-3.4c-8.7-0.7-23.5-26.8-8.1-41.4c16.6-12.1,25.8,5.7,25.8,5.7v46.8
		L699.2,273.5z"/>
	<path class="st14" d="M574.5,329.4l-0.1-12.3l58.3-4.7c0,0,41.4-51.5,108.3-37.7c0.2,0,0.3,0.2,0.4,0.4
		c34.2,73.2,2.5,65.8,2.5,65.8l1.4,63.2c0,0-16.7,7.8-33.8,7.9c-21.4,0.1-51.6-7.9-51.6-7.9l1.3-46.6l1.1-38.3l-23.2,16.3
		L574.5,329.4z"/>
	<polygon class="st19" points="711.5,434.4 707.3,593.8 699,455.8 	"/>
	<path class="st20" d="M718.4,208.7c-4.9-5.5-42-1.6-34.4,13.2c3.6,7,21,3.1,22.3,2.6c0,0,2.4,26.8,3.5,36.7c0.3,3,4.6,3.9,6.2,1.2
		C722.2,251.6,722.3,213.1,718.4,208.7z"/>
	<path class="st21" d="M724,593.8l0.7,11.8c0.1,0.9-0.7,1.7-1.6,1.7h-37.1c-0.5,0-0.7-0.6-0.2-0.9l21.4-12.5H724z"/>
	<path class="st21" d="M674.2,593.8l2.2,11.6c0.2,1-0.5,1.9-1.5,1.9h-35.7c-0.8,0-1.1-1-0.4-1.5l20.4-12H674.2z"/>
	
		<linearGradient id="SVGID_5_" gradientUnits="userSpaceOnUse" x1="658.3671" y1="247.2409" x2="667.4521" y2="335.298" gradientTransform="matrix(1 0 0 -1 0 650)">
		<stop  offset="0.1605" style="stop-color:#363F4A;stop-opacity:0"/>
		<stop  offset="1" style="stop-color:#363F4A"/>
	</linearGradient>
	<path class="st22" d="M672.2,314.9c-0.4,0.1-9.9,4.2-9.9,4.2l-2.4,84.9L672.2,314.9z"/>
	
		<linearGradient id="SVGID_6_" gradientUnits="userSpaceOnUse" x1="731.6971" y1="364.4555" x2="769.9569" y2="285.5403" gradientTransform="matrix(1 0 0 -1 0 650)">
		<stop  offset="0" style="stop-color:#363F4A;stop-opacity:0"/>
		<stop  offset="1" style="stop-color:#363F4A"/>
	</linearGradient>
	<path class="st23" d="M742.2,277.1c0,0,21.9,43.7,12.9,58.9c-3.9,6.7-11.2,4.8-11.2,4.8s-4.2-17.9-4.2-32.6
		C739.7,293.8,742.2,277.1,742.2,277.1z"/>
</g>
</svg>
