<?xml version="1.0" encoding="utf-8"?>
<!-- Generator: Adobe Illustrator 25.2.3, SVG Export Plug-In . SVG Version: 6.00 Build 0)  -->
<svg version="1.1" id="Layer_1" xmlns="http://www.w3.org/2000/svg" xmlns:xlink="http://www.w3.org/1999/xlink" x="0px" y="0px"
	 viewBox="0 0 972.2 859.6" style="enable-background:new 0 0 972.2 859.6;" xml:space="preserve">
<style type="text/css">
	.st0{display:none;}
	.st1{display:inline;fill:#402E4B;}
	.st2{opacity:0.2;fill:url(#SVGID_1_);enable-background:new    ;}
	.st3{opacity:0.2;fill:url(#SVGID_2_);enable-background:new    ;}
	.st4{fill:#E6E7E8;}
	.st5{opacity:0.2;fill:#633778;enable-background:new    ;}
	.st6{fill:#F1F2F2;}
	.st7{fill:#FFFFFF;}
	.st8{opacity:0.25;fill:url(#SVGID_3_);enable-background:new    ;}
	.st9{fill:#00E4A2;}
	.st10{fill:#D1D3D4;}
	.st11{fill:#939598;}
	.st12{opacity:0.49;fill:url(#SVGID_4_);enable-background:new    ;}
	.st13{fill:#E1E1E1;}
	.st14{fill:#F2F1F1;}
	.st15{fill:#3F3D56;}
	.st16{opacity:0.1;enable-background:new    ;}
	.st17{fill:#363F4A;}
	.st18{opacity:0.3;fill:url(#SVGID_5_);enable-background:new    ;}
	.st19{opacity:0.3;fill:url(#SVGID_6_);enable-background:new    ;}
	.st20{fill:#EFD0FF;}
	.st21{fill:#053651;}
	.st22{fill:url(#SVGID_7_);}
	.st23{opacity:0.4;fill:url(#SVGID_8_);enable-background:new    ;}
	.st24{opacity:0.4;fill:url(#SVGID_9_);enable-background:new    ;}
</style>
<g id="Layer_2_1_" class="st0">
	<rect x="-36.9" y="-100.2" class="st1" width="1094.8" height="1076.6"/>
</g>
<g id="browser">
	
		<linearGradient id="SVGID_1_" gradientUnits="userSpaceOnUse" x1="720.3079" y1="145.753" x2="410.9984" y2="525.0702" gradientTransform="matrix(0.9738 0.2272 0.2272 -0.9738 -100.2755 734.3393)">
		<stop  offset="9.970000e-02" style="stop-color:#FFFFFF;stop-opacity:0"/>
		<stop  offset="0.6332" style="stop-color:#EFD0FF"/>
		<stop  offset="0.8506" style="stop-color:#F8EAFF;stop-opacity:0.7037"/>
		<stop  offset="1" style="stop-color:#FFFFFF;stop-opacity:0.5"/>
	</linearGradient>
	<path class="st2" d="M203.5,258.6C125.9,351.5-68.2,684.1,24.6,762c61.7,51.7,350.3,115.6,537.6,44.9
		C936,665.6,1069.1,177.4,899.6,83.6C771.3,12.6,297.4,146.3,203.5,258.6z"/>
	
		<linearGradient id="SVGID_2_" gradientUnits="userSpaceOnUse" x1="391.4354" y1="703.3082" x2="1058.9698" y2="269.7065" gradientTransform="matrix(-0.9183 0.3958 -0.3958 -0.9183 1244.531 580.8274)">
		<stop  offset="9.970000e-02" style="stop-color:#FFFFFF;stop-opacity:0"/>
		<stop  offset="0.6332" style="stop-color:#00E4A2"/>
	</linearGradient>
	<path class="st3" d="M690.8,143.9c92.8,77.7,237.6,409.9,160.1,502.9c-51.5,61.8-91.4,37.3-288.2,0.8
		C169.8,574.7,6.8,199.9,15.4,65.7C24.8-80.6,578.5,49.8,690.8,143.9z"/>
	<g>
		<g>
			<path class="st4" d="M897.5,701.9l-824.8,2.5c-5.5,0-10-4.1-10-9.2l-1.4-515.1h9.9h830h10l-3.6,512.6
				C907.4,697.8,903,701.9,897.5,701.9z"/>
			<g>
				<g>
					<path class="st5" d="M131.6,251.4h216.8c5.8,0,10.6,4.7,10.6,10.6l0,0c0,5.8-4.7,10.6-10.6,10.6H131.6
						c-5.8,0-10.6-4.7-10.6-10.6l0,0C121.1,256.2,125.8,251.4,131.6,251.4z"/>
					<path class="st6" d="M776.1,281.9h65.7c5.1,0,9.3,4.1,9.3,9.3l0,0c0,5.1-4.1,9.3-9.3,9.3h-65.7c-5.1,0-9.3-4.1-9.3-9.3l0,0
						C766.8,286,771,281.9,776.1,281.9z"/>
					<path class="st7" d="M131.3,329.1h709.5c5.7,0,10.2,4.6,10.2,10.2v301.3c0,5.7-4.6,10.2-10.2,10.2H131.3
						c-5.7,0-10.2-4.6-10.2-10.2V339.3C121.1,333.6,125.7,329.1,131.3,329.1z"/>
				</g>
			</g>
			
				<linearGradient id="SVGID_3_" gradientUnits="userSpaceOnUse" x1="43.9376" y1="419.6053" x2="1084.5664" y2="419.1717" gradientTransform="matrix(1 0 0 -1 0 862)">
				<stop  offset="0" style="stop-color:#EFD0FF"/>
				<stop  offset="0.1453" style="stop-color:#F5E1FF"/>
				<stop  offset="0.4439" style="stop-color:#FFFFFF"/>
				<stop  offset="0.4967" style="stop-color:#F9FEFD"/>
				<stop  offset="0.566" style="stop-color:#E9FDF7"/>
				<stop  offset="0.6444" style="stop-color:#CEFAED"/>
				<stop  offset="0.7295" style="stop-color:#A8F6DF"/>
				<stop  offset="0.8201" style="stop-color:#77F1CD"/>
				<stop  offset="0.9138" style="stop-color:#3DEAB8"/>
				<stop  offset="1" style="stop-color:#00E4A2"/>
			</linearGradient>
			<path class="st8" d="M896,702.2l-824.8,2.5c-5.5,0-10-4.1-10-9.2l-1.4-515.1h9.9h830h10L906,693.1
				C906,698.1,901.5,702.2,896,702.2z"/>
			<path class="st9" d="M547.8,365.6h-12.4v-24c0-27.1-21.6-49.6-48.7-50c-27.4-0.3-49.8,21.6-50,49c0,0.1,0,0.2,0,0.4v24.7h-12.3
				c-11.4,0-20.5,9.2-20.6,20.6V485c0,11.4,9.2,20.5,20.6,20.6h123.5c11.3,0,20.5-9.2,20.6-20.6v-98.8
				C568.3,374.9,559.2,365.7,547.8,365.6z M493.3,429.8v35.4c0,3.9-3,7.1-6.8,7.4c-4,0.2-7.4-2.9-7.5-6.9c0-0.1,0-0.2,0-0.3v-35.6
				c-8.1-4-11.5-13.8-7.6-22s13.8-11.5,22-7.6s11.5,13.8,7.6,22C499.2,425.6,496.6,428.2,493.3,429.8L493.3,429.8z M521,365.6h-70
				V341c0-19.3,15.7-35,35-35s35,15.7,35,35L521,365.6z"/>
		</g>
		<g>
			<path class="st10" d="M901,134.4h-830c-5.5,0-10,4.5-10,10l0.1,35.8h849.9v-35.8C911.1,138.9,906.6,134.4,901,134.4z"/>
			<g>
				
					<image style="overflow:visible;opacity:0.15;enable-background:new    ;" width="755" height="26" xlink:href="B27DA826.png"  transform="matrix(1 0 0 1 150.0616 145.4017)">
				</image>
				<g>
					<path class="st4" d="M891.7,167.8H162.8c-5.4,0-9.7-4.3-9.7-9.7l0,0c0-5.4,4.3-9.7,9.7-9.7h728.8c5.4,0,9.7,4.3,9.7,9.7l0,0
						C901.3,163.5,897,167.8,891.7,167.8z"/>
				</g>
			</g>
			<g>
				
					<image style="overflow:visible;opacity:0.15;enable-background:new    ;" width="47" height="15" xlink:href="B27DA82A.png"  transform="matrix(1 0 0 1 86.0616 150.4017)">
				</image>
				<g>
					<g>
						<ellipse class="st11" cx="126" cy="158.1" rx="4" ry="4"/>
						<ellipse class="st11" cx="110" cy="158.1" rx="4" ry="4"/>
						<ellipse class="st11" cx="94.1" cy="158.1" rx="4" ry="4"/>
					</g>
				</g>
			</g>
		</g>
	</g>
	
		<linearGradient id="SVGID_4_" gradientUnits="userSpaceOnUse" x1="812.7769" y1="-367.9145" x2="665.8629" y2="-660.7198" gradientTransform="matrix(1 0 0 -0.6401 0 497.9278)">
		<stop  offset="9.970000e-02" style="stop-color:#FFFFFF;stop-opacity:0"/>
		<stop  offset="0.6332" style="stop-color:#00E4A2;stop-opacity:0.39"/>
	</linearGradient>
	<ellipse class="st12" cx="762.9" cy="797.1" rx="157.4" ry="62.5"/>
</g>
<g id="Layer_1_1_">
	<path class="st13" d="M782.3,411.3l6.2,6.6l-23.3,11.7c0,0-19.9-10.8-14.2-16.4c-1.3-5.6-1.4-16-1.3-23l0,0
		c-0.6-3.9-1.2-6.7-1.2-6.7s41.5-11.9,35.3-2.9c-2.1,3-2.3,6.9-1.6,10.8C782.9,399.8,782.3,411.3,782.3,411.3z"/>
	<path class="st14" d="M739.8,793c0,0-33.5,5.7-33.8,4.6c-0.5-2.1,21.7-18,21.7-18l11.5-0.1L739.8,793z"/>
	<path class="st14" d="M780,792.3c0,0,33.5,5.7,33.8,4.6c0.5-2.1-21.7-18-21.7-18l-11.5-0.1L780,792.3z"/>
	<path class="st9" d="M792,778.9c0,0-5.4,0.6-11.5-0.1c-0.3-4.4,1.7-103.3,1.7-103.3l-12.1-65.9L747.9,674c0,0-6.5,87.7-8.6,105.6
		c-5.1,0.4-8.1,0.5-11.5,0.1c-3.3-9.6-13.5-112.1-13.5-112.1s9.8-61.8,12.5-87.7c66.2-28.3,84.7-2.1,84.7-2.1l-0.7,98.4L792,778.9z"
		/>
	<path class="st13" d="M793.5,372c0,16.4-12,29.8-26.7,29.8S740,388.5,740,372s12-29.8,26.7-29.8l0,0c14.7-0.1,26.7,13.1,26.7,29.5
		C793.5,371.8,793.5,371.9,793.5,372z"/>
	<circle class="st15" cx="770.8" cy="521.8" r="4.2"/>
	<circle class="st15" cx="770.8" cy="541.5" r="4.2"/>
	<circle class="st16" cx="770.8" cy="521.8" r="4.2"/>
	<circle class="st16" cx="770.8" cy="541.5" r="4.2"/>
	<path class="st17" d="M738.6,375c8.1,3.1,7.4-12.2,7.3-17.1c-0.3-1.8,3.2-3.5,3.5-3.7c3.7-2.1,6.8-8.5,11.6-6.1
		c1.6,1.5,3.8,2.5,6,1.6c15.3-6.8,10.4,1.5,18,3.9c4.2,1.9,0.8,8.2,3.2,11.2c0.2,0.2,0.3,0.4,0.5,0.5c1.7,1.5-0.1-2.5-0.3-0.2
		c-0.1,1.8,3.4,8.2,5.2,9.8c1.6,1.4,2.5,2,4.7,1.2c7.7-1.4,1-13.9,1.8-18.3c0.3-3.4,3.4-6.3,2.7-9.6c-1.1-3.8-4.3-6-7.7-7.2
		c-1.6-0.6-3-1.6-3.9-3.1c-2.7-4.5-3.3-11.2-9.4-11.8c-1.1-0.1-2.2,0.1-3.2,0.5c-10.5,4.2-16.1-1.3-26-2.8c-0.5-0.1-1-0.1-1.5-0.1
		c-12.3,0.9-4.1,13.6-14.9,17.9c0,0,0,0-0.1,0c-2.9,1.6-4.3,4.9-3.6,8.1c1,4.3,0.8,7.7-1.9,12.1c-0.4,0.6-0.7,1.3-0.9,2
		c-0.9,3.8-0.8,5.8,2.6,8.1C734,373.2,736.7,374.6,738.6,375z"/>
	<path class="st9" d="M742.4,365.9c0.1-3.1,2.3-5.8,5.3-6.5c4.1-1,8.3-0.8,12.3,0.6c8.7,2.9-1.1,13.2-1.1,13.2s-6.5,6.4-12.5,1.9
		c-1.8-1.4-3-3.3-3.5-5.5C742.5,368.3,742.3,367.1,742.4,365.9z"/>
	<path class="st9" d="M790,365.9c-0.1-3.1-2.3-5.8-5.3-6.5c-4.1-1-8.3-0.8-12.3,0.6c-8.7,2.9,1.1,13.2,1.1,13.2s6.5,6.4,12.5,1.9
		c1.8-1.4,3-3.3,3.5-5.5C789.8,368.3,790,367.1,790,365.9z"/>
	<polygon class="st9" points="758.1,362.8 758.1,364.6 773.9,364.6 773.9,362.8 	"/>
	
		<linearGradient id="SVGID_5_" gradientUnits="userSpaceOnUse" x1="740.5234" y1="89.9142" x2="757.9255" y2="244.4676" gradientTransform="matrix(1 0 0 -1 0 862)">
		<stop  offset="0" style="stop-color:#000000;stop-opacity:0"/>
		<stop  offset="0.5" style="stop-color:#231F20"/>
		<stop  offset="0.6777" style="stop-color:#1C191A;stop-opacity:0.6445"/>
		<stop  offset="0.933" style="stop-color:#090809;stop-opacity:0.134"/>
		<stop  offset="1" style="stop-color:#030303;stop-opacity:0"/>
	</linearGradient>
	<polygon class="st18" points="770.1,609.7 740.2,674.3 738.6,780.5 747.9,674 	"/>
	
		<linearGradient id="SVGID_6_" gradientUnits="userSpaceOnUse" x1="741.415" y1="92.6503" x2="758.4136" y2="243.6211" gradientTransform="matrix(-1 0 0 -1 1531.3114 862)">
		<stop  offset="0" style="stop-color:#000000;stop-opacity:0"/>
		<stop  offset="0.5" style="stop-color:#231F20"/>
		<stop  offset="0.6777" style="stop-color:#1C191A;stop-opacity:0.6445"/>
		<stop  offset="0.933" style="stop-color:#090809;stop-opacity:0.134"/>
		<stop  offset="1" style="stop-color:#030303;stop-opacity:0"/>
	</linearGradient>
	<polygon class="st19" points="770.1,609.7 789.8,677 780.6,778.9 781.9,673.9 	"/>
</g>
<g id="Layer_4">
	<path class="st20" d="M788.4,407.6l0.4,13.3l11,28l2.6,123.6c0,0-8.1,8.1-29,6.7c-21.1-1.4-33.1-6.7-33.1-6.7l5.8-164.9l16.6,10
		c3.1,1.9,7,1.8,10-0.1L788.4,407.6z"/>
	<path class="st21" d="M712.8,423.5l-7.7-1.1l-22.4,73.9c-1,3.4-0.6,7,1.1,10.1l40.7,60.4l4.8-9L709,507.1l12.7-52.1L712.8,423.5z"
		/>
	<path class="st21" d="M824.6,422.4h5.5l18.2,81.1c0.7,2.9,0.2,6-1.2,8.6l-27.8,51.5l-7.9-13l13.9-41.5l-8.9-45.6L824.6,422.4z"/>
	<path class="st21" d="M705.2,422.4l44.6-20.9L769,493l13.5-91.2l47.6,20.6l-19.7,91.2c-0.2,1.1-0.2,2.2,0,3.3l14.4,73.8
		c0.4,2-0.7,3.9-2.6,4.6c-7,2.5-23.6,7.8-33.6,5.8c-1.1-0.2-2.1-0.9-2.7-1.9c-9.9-16.3-17.4-68.2-17.4-68.2s-7.4,44-23.2,66.3
		c-0.8,1.2-2.3,1.9-3.8,1.7c-20.5-2-28.2-15.2-30.2-19.5c-0.4-0.8-0.5-1.8-0.3-2.7l5.2-22.8l10.7-37.6c0.2-0.8,0.2-1.5,0-2.3
		L705.2,422.4z"/>
	
		<linearGradient id="SVGID_7_" gradientUnits="userSpaceOnUse" x1="738.2198" y1="349.2248" x2="972.6498" y2="421.149" gradientTransform="matrix(-1 0 0 -1 1563.934 862)">
		<stop  offset="0.1285" style="stop-color:#000000;stop-opacity:0"/>
		<stop  offset="0.3106" style="stop-color:#0B090A;stop-opacity:0.2089"/>
		<stop  offset="0.7117" style="stop-color:#1D191A;stop-opacity:0.6692"/>
		<stop  offset="1" style="stop-color:#231F20"/>
	</linearGradient>
	<path class="st22" d="M830.1,422.4l-19.9,92.5l13.3,77.1l-38.3,6.1c0,0-10.2-18.7-16.8-67.2c-2.5-18.1,0.6-37.9,0.6-37.9l13.5-91.2
		L830.1,422.4z"/>
	
		<linearGradient id="SVGID_8_" gradientUnits="userSpaceOnUse" x1="822.6949" y1="322.9888" x2="826.8279" y2="400.872" gradientTransform="matrix(1 0 0 -1 0 862)">
		<stop  offset="0" style="stop-color:#000000;stop-opacity:0"/>
		<stop  offset="1" style="stop-color:#231F20"/>
	</linearGradient>
	<polygon class="st23" points="821.9,460.2 832.1,507.3 814.9,540.2 825.4,508.9 818.7,474.9 	"/>
	
		<linearGradient id="SVGID_9_" gradientUnits="userSpaceOnUse" x1="686.1738" y1="326.1983" x2="690.1342" y2="400.8286" gradientTransform="matrix(-1 0 0 -1 1398.192 862)">
		<stop  offset="0" style="stop-color:#000000;stop-opacity:0"/>
		<stop  offset="1" style="stop-color:#231F20"/>
	</linearGradient>
	<polygon class="st24" points="714.3,460.2 701.4,503.5 721,536.9 709,507.1 717.2,473.2 	"/>
</g>
</svg>
