<?xml version="1.0" encoding="utf-8"?>
<!-- Generator: Adobe Illustrator 25.2.3, SVG Export Plug-In . SVG Version: 6.00 Build 0)  -->
<svg version="1.1" id="Layer_1" xmlns="http://www.w3.org/2000/svg" xmlns:xlink="http://www.w3.org/1999/xlink" x="0px" y="0px"
	 viewBox="0 0 942.3 741.6" style="enable-background:new 0 0 942.3 741.6;" xml:space="preserve">
<style type="text/css">
	.st0{display:none;}
	.st1{display:inline;fill:#402E4B;stroke:#231F20;stroke-miterlimit:10;}
	.st2{opacity:0.49;fill:url(#SVGID_1_);enable-background:new    ;}
	.st3{fill:#E1E1E1;}
	.st4{fill:#00E4A2;}
	.st5{fill:#2F2E41;}
	.st6{fill:#363F4A;}
	.st7{fill:#D0CDE1;}
	.st8{fill:#FFFFFF;}
	.st9{fill:#053651;}
	.st10{opacity:0.4;fill:url(#SVGID_2_);enable-background:new    ;}
	.st11{opacity:0.4;fill:url(#SVGID_3_);enable-background:new    ;}
	.st12{opacity:0.3;fill:url(#SVGID_4_);enable-background:new    ;}
	.st13{fill:url(#SVGID_5_);}
</style>
<g id="Layer_1_1_" class="st0">
	<rect x="-74.3" y="-145.9" class="st1" width="1061.1" height="1042.9"/>
</g>
<g id="Layer_3">
	
		<linearGradient id="SVGID_1_" gradientUnits="userSpaceOnUse" x1="824.2114" y1="-344.4318" x2="661.801" y2="-668.1221" gradientTransform="matrix(1 0 0 -0.6401 0 381.9856)">
		<stop  offset="9.970000e-02" style="stop-color:#FFFFFF;stop-opacity:0"/>
		<stop  offset="0.6332" style="stop-color:#00E4A2;stop-opacity:0.39"/>
	</linearGradient>
	<ellipse class="st2" cx="769.1" cy="672.8" rx="175.1" ry="68.8"/>
</g>
<g id="Layer_2_1_">
	<polygon class="st3" points="731.7,410 740.2,535 774.1,660.1 796,657.5 774.3,529 784.3,462.1 	"/>
	<path class="st3" d="M818.9,390.6l-82.6,1.1l2.9,38.8l44.4,33.3l25.4,60.2l-76.1,89.5l13.8,17.2l101.7-99.1l-20.1-114.4
		L818.9,390.6z"/>
	
		<ellipse transform="matrix(0.9839 -0.1787 0.1787 0.9839 -23.7661 140.3681)" class="st3" cx="767.3" cy="202.1" rx="23.8" ry="25.2"/>
	<path class="st3" d="M760.4,219.6l2,20.3l3.2,34.8c0,0,38.4-21.8,32.7-26.4c-5.7-4.6-6.9-40.2-6.9-40.2L760.4,219.6z"/>
	<path class="st4" d="M761,244.8l-17.6,20.3l4,143.6l54-0.1l11.7-124.9l-10.8-32.4l-7-8.8l-9.4,7.9c-4.3,3.6-10.5,4-15.2,0.8
		L761,244.8z"/>
	<path class="st5" d="M732.8,613.6l-18.7,7.6c-1.7,0.7-2.4,2.7-1.6,4.3l29.3,54.2c0.5,0.9,1.8,0.6,1.8-0.4
		c0.7-10.9,2.9-44.7,2.9-48.6C744.2,627.4,732.8,613.6,732.8,613.6z"/>
	<path class="st5" d="M774.1,660.1l-3.4,19.9c-0.3,1.8,1,3.5,2.8,3.7l57,4.4c1.4,0.1,2.1-1.7,1-2.6c-9.1-7.3-32.4-26-35.5-28
		C791.9,657.7,774.1,660.1,774.1,660.1z"/>
	<path class="st6" d="M792,219.1c8.7-1.1,6.1-17.8,6.1-35.1c-0.1-17.2-15.9-19.6-27.4-20.7c-11.5-1.1-31,6.9-31,16.1
		s31.9,5.1,39.9,2.8S786.6,219.8,792,219.1z"/>
	<path class="st7" d="M275.8,504.5c-2.3,0-4.6,0-6.8-0.1l0.1-2.3c2.2,0.1,4.5,0.1,6.8,0.1c2.2,0,4.5,0,6.8-0.1l0.1,2.3
		C280.3,504.5,278,504.5,275.8,504.5z M255.3,503.6c-4.5-0.4-9.1-1-13.6-1.7l0.4-2.2c4.4,0.7,9,1.3,13.4,1.7L255.3,503.6z
		 M296.3,503.6l-0.2-2.3c4.5-0.4,9-1,13.4-1.7l0.4,2.2C305.4,502.5,300.8,503.1,296.3,503.6L296.3,503.6z M228.2,499.3
		c-4.4-1-8.9-2.2-13.3-3.5l0.6-2.2c4.3,1.3,8.7,2.4,13.1,3.4L228.2,499.3z M323.4,499.2l-0.5-2.2c4.4-1,8.8-2.2,13.1-3.4l0.6,2.2
		C332.3,497,327.8,498.2,323.4,499.2L323.4,499.2z M201.9,491.5c-4.3-1.6-8.6-3.3-12.7-5.1l0.9-2.1c4.1,1.8,8.4,3.5,12.6,5.1
		L201.9,491.5z M349.6,491.4l-0.8-2.1c4.2-1.5,8.4-3.3,12.5-5.1l0.9,2.1C358.1,488.1,353.9,489.9,349.6,491.4z M176.9,480.4
		c-4-2.1-8.1-4.4-11.9-6.7l1.2-2c3.9,2.3,7.8,4.6,11.8,6.7L176.9,480.4z M374.6,480.3l-1-2c4-2.1,7.9-4.3,11.8-6.7l1.2,1.9
		C382.6,476,378.6,478.2,374.6,480.3z M153.4,466.2c-3.7-2.6-7.4-5.4-11-8.2l1.4-1.8c3.5,2.8,7.2,5.5,10.9,8.1L153.4,466.2z
		 M398,466.1l-1.3-1.9c3.7-2.6,7.3-5.3,10.9-8.1l1.4,1.8C405.4,460.7,401.7,463.5,398,466.1z M132,449.1c-3.4-3.1-6.7-6.3-9.8-9.5
		l1.6-1.6c3.1,3.2,6.4,6.4,9.8,9.4L132,449.1z M419.4,449l-1.5-1.7c3.3-3,6.6-6.2,9.7-9.4l1.6,1.6C426.1,442.8,422.8,446,419.4,449z
		 M112.9,429.4c-2.9-3.5-5.8-7.1-8.6-10.7l1.8-1.4c2.7,3.6,5.5,7.2,8.5,10.6L112.9,429.4z M438.5,429.4l-1.7-1.5
		c2.9-3.4,5.8-7,8.5-10.6l1.8,1.4C444.3,422.3,441.4,425.9,438.5,429.4L438.5,429.4z M96.5,407.5c-2.5-3.8-4.9-7.8-7.1-11.7l2-1.1
		c2.2,3.9,4.6,7.8,7,11.6L96.5,407.5z M454.9,407.4l-1.9-1.2c2.5-3.8,4.8-7.7,7-11.6l2,1.1C459.8,399.6,457.4,403.6,454.9,407.4
		L454.9,407.4z M83.1,383.7c-2-4.1-3.8-8.3-5.6-12.5l2.1-0.9c1.7,4.2,3.5,8.3,5.5,12.4L83.1,383.7z M468.3,383.5l-2-1
		c2-4.1,3.8-8.2,5.5-12.4l2.1,0.9C472.2,375.2,470.3,379.4,468.3,383.5z M72.8,358.3c-1.4-4.3-2.8-8.7-3.9-13.1l2.2-0.6
		c1.1,4.4,2.4,8.7,3.9,13L72.8,358.3z M478.6,358.1l-2.2-0.7c1.4-4.3,2.7-8.6,3.9-13l2.2,0.6C481.4,349.4,480.1,353.8,478.6,358.1z
		 M65.8,331.9c-0.9-4.5-1.6-9-2.2-13.5l2.3-0.3c0.6,4.5,1.3,9,2.2,13.4L65.8,331.9z M485.6,331.6l-2.2-0.4c0.9-4.4,1.6-8.9,2.1-13.4
		l2.3,0.3C487.2,322.6,486.4,327.1,485.6,331.6L485.6,331.6z M62.3,304.7c-0.3-4.5-0.4-9.1-0.5-13.7h2.3c0,4.5,0.2,9.1,0.4,13.5
		L62.3,304.7z M489,304.4l-2.3-0.1c0.3-4.5,0.4-9,0.4-13.5v-0.5h2.3v0.5C489.5,295.3,489.3,299.9,489,304.4L489,304.4z M64.5,277.4
		l-2.3-0.1c0.3-4.5,0.7-9.1,1.3-13.6l2.3,0.3C65.2,268.4,64.8,272.9,64.5,277.4z M486.7,276.7c-0.3-4.5-0.7-9-1.3-13.5l2.2-0.3
		c0.6,4.5,1,9.1,1.3,13.6L486.7,276.7z M67.9,250.6l-2.2-0.4c0.9-4.5,1.9-9,3-13.4l2.2,0.6C69.8,241.7,68.8,246.1,67.9,250.6z
		 M483.2,249.8c-0.9-4.4-1.9-8.9-3-13.2l2.2-0.6c1.2,4.4,2.2,8.9,3.1,13.4L483.2,249.8z M74.8,224.3l-2.2-0.7
		c1.4-4.3,3-8.7,4.7-12.9l2.1,0.9C77.8,215.8,76.2,220.1,74.8,224.3z M476.3,223.6c-1.4-4.3-3-8.6-4.7-12.7l2.1-0.9
		c1.7,4.2,3.3,8.5,4.8,12.9L476.3,223.6z M84.9,199.2l-2.1-1c2-4.1,4.1-8.2,6.3-12.2l2,1.1C89,191.1,86.9,195.1,84.9,199.2z
		 M466.1,198.6c-2-4-4.1-8.1-6.3-12l2-1.1c2.2,4,4.4,8,6.4,12.1L466.1,198.6z M98.2,175.5l-1.9-1.2c2.5-3.8,5.1-7.6,7.8-11.2
		l1.8,1.4C103.3,168,100.7,171.8,98.2,175.5z M452.8,175c-2.5-3.8-5.1-7.5-7.8-11.1l1.8-1.4c2.7,3.6,5.4,7.4,7.9,11.2L452.8,175z
		 M114.4,153.8l-1.7-1.5c2.9-3.5,6-6.9,9.2-10.1l1.6,1.6C120.4,147,117.3,150.4,114.4,153.8z M436.5,153.3c-2.9-3.4-6-6.8-9.1-10
		l1.6-1.6c3.2,3.3,6.3,6.7,9.2,10.1L436.5,153.3z M133.3,134.3l-1.5-1.7c3.4-3.1,6.9-6.1,10.4-8.9l1.4,1.8
		C140.1,128.3,136.6,131.3,133.3,134.3z M417.6,133.9c-3.3-3-6.8-6-10.3-8.8l1.4-1.8c3.6,2.8,7.1,5.8,10.5,8.9L417.6,133.9z
		 M154.4,117.4l-1.3-1.9c3.7-2.6,7.6-5.1,11.5-7.5l1.2,1.9C161.9,112.3,158.1,114.8,154.4,117.4z M396.4,117
		c-3.7-2.6-7.5-5.1-11.4-7.4l1.2-1.9c3.9,2.3,7.8,4.9,11.5,7.5L396.4,117z M177.6,103.3l-1.1-2c4-2.1,8.2-4.1,12.3-6l0.9,2.1
		C185.6,99.2,181.5,101.2,177.6,103.3z M373.2,103c-4-2.1-8.1-4.1-12.2-5.9l0.9-2.1c4.2,1.8,8.3,3.8,12.4,5.9L373.2,103z
		 M202.3,92.3l-0.8-2.1c4.3-1.6,8.6-3,13-4.3l0.6,2.2C210.8,89.3,206.5,90.7,202.3,92.3z M348.4,92c-4.2-1.6-8.6-3-12.9-4.2l0.6-2.2
		c4.4,1.3,8.7,2.7,13,4.3L348.4,92z M228.2,84.5l-0.5-2.2c4.4-1,8.9-1.9,13.4-2.6l0.4,2.2C237.1,82.7,232.6,83.5,228.2,84.5z
		 M322.4,84.4c-4.4-1-8.9-1.8-13.3-2.6l0.4-2.2c4.5,0.7,9,1.6,13.5,2.6L322.4,84.4z M255,80.2l-0.2-2.3c4.5-0.4,9.1-0.7,13.7-0.9
		l0.1,2.3C264,79.5,259.5,79.8,255,80.2L255,80.2z M295.6,80.1c-4.5-0.4-9-0.7-13.5-0.8l0.1-2.3c4.5,0.1,9.1,0.4,13.7,0.8
		L295.6,80.1z"/>
	<g>
		<g>
			<circle class="st4" cx="267.7" cy="82.6" r="53.5"/>
		</g>
	</g>
	<g>
		<g>
			<circle class="st4" cx="474.7" cy="228.2" r="53.5"/>
		</g>
	</g>
	<g>
		<g>
			<circle class="st4" cx="409.9" cy="451.1" r="53.5"/>
		</g>
	</g>
	<g>
		<g>
			<circle class="st4" cx="152.8" cy="460.2" r="53.5"/>
		</g>
	</g>
	<g>
		<g>
			<circle class="st4" cx="75.5" cy="228.2" r="53.5"/>
		</g>
	</g>
	<path class="st8" d="M290.6,78.4H272c-3.5,0-6.4-2.9-6.4-6.4V53.3c0-0.3-0.2-0.5-0.5-0.5l0,0h-12.2c-4.7,0-8.5,3.8-8.5,8.5v42.6
		c0,4.7,3.8,8.5,8.5,8.5l0,0h29.8c4.7,0,8.5-3.8,8.5-8.5l0,0v-25C291.1,78.6,290.9,78.4,290.6,78.4L290.6,78.4z M278.4,99.7H257
		c-1.2,0-2.1-0.9-2.1-2.1s0.9-2.1,2.1-2.1h21.3c1.2,0,2.1,0.9,2.1,2.1C280.5,98.7,279.5,99.7,278.4,99.7z M278.4,89H257
		c-1.2,0-2.1-0.9-2.1-2.1s0.9-2.1,2.1-2.1h21.3c1.2,0,2.1,0.9,2.1,2.1C280.5,88.1,279.5,89,278.4,89z"/>
	<path class="st8" d="M289.4,73.6l-19.1-19.2c-0.1-0.1-0.3-0.1-0.4,0c0,0-0.1,0.1-0.1,0.2V72c0,1.2,1,2.1,2.1,2.1h17.3
		c0.1,0,0.3-0.1,0.3-0.3C289.5,73.8,289.5,73.7,289.4,73.6L289.4,73.6z"/>
	<path class="st8" d="M417.6,440.6c-1.6,0-2.8,1.3-2.8,2.8s1.3,2.8,2.8,2.8s2.8-1.3,2.8-2.8c0-0.8-0.3-1.5-0.8-2
		C419.1,440.9,418.3,440.6,417.6,440.6z"/>
	<path class="st8" d="M433.4,429.2L433.4,429.2c-0.2-0.8-0.8-1.4-1.6-1.6c-3.2-0.8-8.1,0-13.6,2.3c-5.3,2.1-10.1,5.1-14.3,9
		c-1.1,1.1-2.2,2.3-3.1,3.6c-2.1-0.1-4.2,0.2-6.2,1c-6.1,2.7-7.9,9.6-8.3,12.4c-0.2,1.5,0.7,2.8,2.2,3.1c0.2,0,0.5,0,0.7,0h0
		l6.8-0.8c0,0.1,0,0.2,0,0.2c0.1,0.8,0.5,1.6,1,2.2l3.3,3.3c0.6,0.6,1.4,1,2.2,1l0.2,0l-0.7,6.8v0c-0.1,1.5,0.9,2.8,2.4,2.9l0,0
		c0.1,0,0.2,0,0.2,0c0.1,0,0.3,0,0.4,0c2.9-0.5,9.8-2.2,12.4-8.4c0.8-2,1.1-4.1,1-6.2c1.3-1,2.5-2,3.6-3.1c3.9-4.1,7-8.9,9-14.2
		C433.3,437.5,434.1,432.5,433.4,429.2z M422,447.8c-2.4,2.4-6.4,2.4-8.8,0c-2.4-2.4-2.4-6.4,0-8.8c2.4-2.4,6.4-2.4,8.8,0l0,0l0,0
		C424.4,441.4,424.5,445.3,422,447.8L422,447.8L422,447.8z"/>
	<path class="st8" d="M399.9,464.9c-0.4,0-0.8,0-1.2,0.3c-0.7,0.5-1.4,0.9-2,1.4c-0.7,0.5-1.7,0.3-2.2-0.5c-0.3-0.5-0.3-1.1,0-1.6
		l1.3-2.2c0.5-0.8,0.3-1.8-0.4-2.4c-0.3-0.2-0.8-0.3-1.2-0.3c-1.4,0.2-2.8,0.8-3.8,1.9c-0.4,0.4-1.6,1.6-2.2,6.1
		c-0.2,1.3-0.3,2.6-0.3,3.9c0,0.9,0.7,1.7,1.6,1.7l0,0c0,0,0,0,0,0h0c1.3,0,2.6-0.2,3.9-0.3c4.5-0.6,5.7-1.8,6.1-2.2
		c1-1,1.7-2.4,1.9-3.8C401.5,465.9,400.8,465,399.9,464.9z"/>
	<path class="st8" d="M134.4,489.2h-3.9c-1.6,0-2.9-1.3-2.9-2.9l0,0v-17.4c0-1.6,1.3-2.9,2.9-2.9l0,0h3.9c1.6,0,2.9,1.3,2.9,2.9l0,0
		v17.4C137.3,487.9,136,489.2,134.4,489.2L134.4,489.2z"/>
	<path class="st8" d="M161.6,489.2h-3.9c-1.6,0-2.9-1.3-2.9-2.9l0,0v-29c0-1.6,1.3-2.9,2.9-2.9l0,0h3.9c1.6,0,2.9,1.3,2.9,2.9l0,0
		v29C164.4,487.9,163.1,489.2,161.6,489.2L161.6,489.2z"/>
	<path class="st8" d="M175.1,489.2h-3.9c-1.6,0-2.9-1.3-2.9-2.9l0,0v-42.6c0-1.6,1.3-2.9,2.9-2.9h3.9c1.6,0,2.9,1.3,2.9,2.9v42.6
		C178,487.9,176.7,489.2,175.1,489.2L175.1,489.2z"/>
	<path class="st8" d="M148,489.2h-3.9c-1.6,0-2.9-1.3-2.9-2.9l0,0v-52.3c0-1.6,1.3-2.9,2.9-2.9h3.9c1.6,0,2.9,1.3,2.9,2.9v52.3
		C150.9,487.9,149.6,489.2,148,489.2L148,489.2z"/>
	<path class="st8" d="M477.2,226.8l-2.8-2.8c-1.3-1.3-3.5-1.3-4.8,0l-19.2,17.8c-0.7,0.6-1.1,1.5-1.2,2.4c0,0.9,0.3,1.9,1,2.5
		l4.1,4.2l0,0c0.6,0.6,1.5,1,2.4,1h0.1c0.9-0.1,1.8-0.5,2.5-1.2l17.9-19.1C478.6,230.3,478.6,228.1,477.2,226.8L477.2,226.8z"/>
	<path class="st8" d="M499.5,221.2L499.5,221.2l-3.7-3.6c-0.4-0.4-1-0.7-1.6-0.7c-0.5,0-1,0.1-1.4,0.4c0-0.1,0-0.1,0-0.1
		c0.1-0.9,0-1.9-0.5-2.7c-0.8-1.1-1.7-2.1-2.6-3.1l0,0c-2.6-2.6-5.8-4.6-9.2-5.9c-1.8-0.7-3.7-1.1-5.6-1.1c-2.5,0-4.9,0.8-6.9,2.4
		c-0.5,0.5-1,1.1-1.5,1.7c-0.5,0.8-0.4,1.8,0.4,2.4c0.5,0.3,1.1,0.4,1.6,0.2c0.3-0.1,0.6-0.2,0.9-0.3c0.6-0.1,1.3-0.2,2-0.1
		c1.4,0.1,2.7,0.6,3.8,1.4c1.3,1.1,2,2.7,1.9,4.4c-0.5,1.3-1.2,2.6-2.1,3.6c-0.5,0.7-0.5,1.6,0.1,2.2l3.6,3.6
		c0.6,0.6,1.7,0.7,2.3,0.1c1-0.9,2.6-2.3,3.1-2.6c0.5-0.3,1-0.5,1.6-0.6c0.4,0,0.8,0.1,1.2,0.2c0,0,0,0.1,0,0.1l-0.2,0.2l0,0
		c-0.9,0.9-0.9,2.3,0,3.2l0,0l3.6,3.6c0.4,0.4,1,0.7,1.6,0.7c0.6,0,1.2-0.2,1.6-0.7l5.9-5.8c0,0,0,0,0.1-0.1
		C500.3,223.4,500.3,222.1,499.5,221.2z"/>
	<path class="st8" d="M84,225c-1.2,0-2.1-0.9-2.1-2.1c0-0.6,0.2-1.1,0.6-1.5l4.9-4.9l-4.9-4.9c-0.8-0.8-0.8-2.2,0-3
		c0.8-0.8,2.2-0.8,3,0l6.4,6.4c0.8,0.8,0.8,2.2,0,3l0,0l-6.4,6.4C85.1,224.8,84.6,225,84,225z"/>
	<path class="st8" d="M50,231.4c-1.2,0-2.1-0.9-2.1-2.1l0,0v-2.1c0-7,5.7-12.7,12.7-12.7h27.6c1.2,0,2.1,0.9,2.1,2.1
		c0,1.2-0.9,2.1-2.1,2.1h0H60.7c-4.7,0-8.5,3.8-8.5,8.5v2.1C52.2,230.4,51.2,231.4,50,231.4L50,231.4z"/>
	<path class="st8" d="M67,248.3c-0.6,0-1.1-0.2-1.5-0.6l-6.4-6.4c-0.8-0.8-0.8-2.2,0-3l0,0l6.4-6.4c0.8-0.8,2.2-0.8,3,0
		c0.8,0.8,0.8,2.2,0,3l-4.9,4.9l4.9,4.9c0.8,0.8,0.8,2.2,0,3C68.1,248.1,67.6,248.3,67,248.3L67,248.3z"/>
	<path class="st8" d="M62.8,242c-1.2,0-2.1-0.9-2.1-2.1c0-1.2,1-2.1,2.1-2.1h27.6c4.7,0,8.5-3.8,8.5-8.5v-2.1c0-1.2,0.9-2.1,2.1-2.1
		c1.2,0,2.1,0.9,2.1,2.1v2.1c0,7-5.7,12.7-12.7,12.7L62.8,242z"/>
	<path class="st9" d="M715.5,260.6l46.9-20.6l18.8,88.6l13.1-91.2l50.8,21.8l-22.6,90c-0.2,1.1-0.2,2.2,0,3.4l14.4,73.8
		c0.4,2-0.7,3.9-2.6,4.6c-7,2.5-23.6,7.8-33.6,5.8c-1.1-0.2-2.1-0.9-2.7-1.9c-9.9-16.3-17.4-68.2-17.4-68.2s-7.4,44-23.2,66.3
		c-0.8,1.2-2.3,1.9-3.8,1.7c-20.5-2-28.2-15.2-30.2-19.5c-0.4-0.9-0.5-1.8-0.3-2.7l5.2-22.8l10.7-37.6c0.2-0.8,0.2-1.5,0-2.3
		L715.5,260.6z"/>
	<path class="st9" d="M722.5,262.4l-7.1-1.8l-23,74.5c-1,3.4-0.6,7,1.1,10.1l40.7,60.4l4.8-9L718.7,346l12.7-52.1L722.5,262.4z"/>
	<path class="st9" d="M839.6,259.4l5.4-0.3l18.3,81.4c0.7,2.9,0.2,6-1.2,8.6l-30.4,50.6l-5.2-12.1l13.9-41.5l-8.9-45.6L839.6,259.4z
		"/>
	
		<linearGradient id="SVGID_2_" gradientUnits="userSpaceOnUse" x1="837.9777" y1="363.1226" x2="842.5324" y2="448.9523" gradientTransform="matrix(1 0 0 -1 0 744)">
		<stop  offset="0" style="stop-color:#000000;stop-opacity:0"/>
		<stop  offset="1" style="stop-color:#231F20"/>
	</linearGradient>
	<polygon class="st10" points="836,293.9 849.6,344.5 828.2,382.2 840.3,346 832.8,307.7 	"/>
	
		<linearGradient id="SVGID_3_" gradientUnits="userSpaceOnUse" x1="558.8524" y1="367.2692" x2="563.081" y2="446.9538" gradientTransform="matrix(-1 0 0 -1 1280.6372 744)">
		<stop  offset="0" style="stop-color:#000000;stop-opacity:0"/>
		<stop  offset="1" style="stop-color:#231F20"/>
	</linearGradient>
	<polygon class="st11" points="724.8,296 710.2,342.6 731.5,377.9 718.7,346 728,307.8 	"/>
	<path class="st9" d="M715.5,260.6l46.8-20.6l18.4,88.8"/>
	
		<linearGradient id="SVGID_4_" gradientUnits="userSpaceOnUse" x1="633.3659" y1="143.9223" x2="649.7278" y2="289.2378" gradientTransform="matrix(-1 0 0 -1 1413.7566 744)">
		<stop  offset="0" style="stop-color:#000000;stop-opacity:0"/>
		<stop  offset="0.7737" style="stop-color:#231F20"/>
	</linearGradient>
	<polygon class="st12" points="788.3,443.4 821,524.7 732.8,613.6 808.9,524.1 784,464.8 	"/>
	
		<linearGradient id="SVGID_5_" gradientUnits="userSpaceOnUse" x1="608.4412" y1="395.1578" x2="844.986" y2="467.731" gradientTransform="matrix(-1 0 0 -1 1446.3792 744)">
		<stop  offset="0.1285" style="stop-color:#000000;stop-opacity:0"/>
		<stop  offset="0.3106" style="stop-color:#0B090A;stop-opacity:0.2089"/>
		<stop  offset="0.7117" style="stop-color:#1D191A;stop-opacity:0.6692"/>
		<stop  offset="1" style="stop-color:#231F20"/>
	</linearGradient>
	<path class="st13" d="M845,259.1l-22.6,92.8l14.3,73.7l-38.8,9.1c0,0-10.8-19.8-17.4-68.2c-2.5-18.1,0.6-37.9,0.6-37.9l13.1-91.2
		L845,259.1z"/>
</g>
</svg>
