<?xml version="1.0" encoding="utf-8"?>
<!-- Generator: Adobe Illustrator 25.2.3, SVG Export Plug-In . SVG Version: 6.00 Build 0)  -->
<svg version="1.1" id="Layer_1" xmlns="http://www.w3.org/2000/svg" xmlns:xlink="http://www.w3.org/1999/xlink" x="0px" y="0px"
	 viewBox="0 0 907.6 633.5" style="enable-background:new 0 0 907.6 633.5;" xml:space="preserve">
<style type="text/css">
	.st0{display:none;}
	.st1{display:inline;fill:#412753;}
	.st2{opacity:0.15;fill:url(#SVGID_1_);enable-background:new    ;}
	.st3{opacity:0.49;fill:url(#SVGID_2_);enable-background:new    ;}
	.st4{fill:#E1E1E1;}
	.st5{fill:#FFFFFF;}
	.st6{fill:#EFD0FF;}
	.st7{fill:#363F4A;}
	.st8{fill:#00E4A2;}
	.st9{fill:#633778;}
	.st10{fill:#CABCD4;}
	.st11{fill:#EBE7EE;}
	.st12{fill:#D6CCDE;}
	.st13{fill:#987DA7;}
	.st14{fill:#23213B;}
	.st15{fill:#A68DB4;}
	.st16{fill:#E0D9E7;}
	.st17{fill:#D3C7DB;}
	.st18{display:none;fill:#C3B3CE;}
	.st19{display:none;fill:#66377C;}
	.st20{fill:#CABDD6;}
	.st21{opacity:0.5;}
	.st22{fill:#2F2E41;}
	.st23{fill:#053651;}
	.st24{opacity:0.32;fill:url(#SVGID_3_);enable-background:new    ;}
	.st25{opacity:0.5;fill:url(#SVGID_4_);enable-background:new    ;}
	.st26{fill:#042A42;}
</style>
<g id="Layer_6" class="st0">
	<rect x="-56.4" y="-186.7" class="st1" width="1041.9" height="1041.9"/>
</g>
<g id="Layer_7">
	
		<radialGradient id="SVGID_1_" cx="494.9134" cy="302.4179" r="372.7149" gradientTransform="matrix(1 0 0 -1 0 636)" gradientUnits="userSpaceOnUse">
		<stop  offset="0.3994" style="stop-color:#00E4A2"/>
		<stop  offset="0.8045" style="stop-color:#FFFFFF;stop-opacity:0"/>
	</radialGradient>
	<path class="st2" d="M464.2-2.8C276,23.3,64.6,270.7,94.3,347.6c19.8,51.1,241.1,315.7,375.1,323.8
		c270,16.2,455.1-101.7,425.8-363.5C868.3,66.9,613.9-23.6,464.2-2.8z"/>
	
		<linearGradient id="SVGID_2_" gradientUnits="userSpaceOnUse" x1="158.0042" y1="-401.7436" x2="46.0272" y2="-624.9182" gradientTransform="matrix(1 0 0 -0.6401 0 280.2375)">
		<stop  offset="9.970000e-02" style="stop-color:#FFFFFF;stop-opacity:0"/>
		<stop  offset="0.6332" style="stop-color:#00E4A2;stop-opacity:0.39"/>
	</linearGradient>
	<ellipse class="st3" cx="120" cy="585.9" rx="120" ry="47.6"/>
</g>
<g id="Layer_5">
	
		<rect x="287.3" y="240.3" transform="matrix(2.822708e-03 -1 1 2.822708e-03 4.0032 573.953)" class="st4" width="5" height="89.4"/>
	<path class="st4" d="M258,278.5h-12.4v-5H258c3.2,0,5.8-2.6,5.8-5.8v-40.9h5v40.9C268.8,273.6,263.9,278.5,258,278.5z"/>
	<g>
		<path class="st5" d="M251.5,303.1h-28.2c-5.5,0-10-4.5-10-10v-37.8h28.2c5.5,0,10,4.5,10,10V303.1z"/>
		<path class="st6" d="M253.9,305.6h-30.6c-6.9,0-12.5-5.6-12.5-12.5v-40.2h30.7c6.9,0,12.5,5.6,12.5,12.5L253.9,305.6L253.9,305.6z
			 M215.8,257.9v35.2c0,4.1,3.4,7.5,7.5,7.5H249v-35.2c0-4.1-3.4-7.5-7.5-7.5H215.8z"/>
	</g>
	<g>
		<path class="st5" d="M285.6,231H178.1v-61.4c0-5.5,4.5-10,10-10h107.5V221C295.6,226.6,291.1,231,285.6,231z"/>
		<path class="st6" d="M285.6,233.5h-110v-63.9c0-6.9,5.6-12.5,12.5-12.5h110V221C298.1,227.9,292.5,233.5,285.6,233.5z
			 M180.6,228.5h105c4.1,0,7.5-3.4,7.5-7.5v-58.9h-105c-4.1,0-7.5,3.4-7.5,7.5V228.5z"/>
	</g>
	<path class="st4" d="M258.7,216.2l-0.6-4.9c-0.3-0.9-1-1.7-2-2.2c-6.2-0.4-16.8-17-5.8-26.3c11.8-7.7,18.4,3.6,18.4,3.6v29.8H258.7
		z"/>
	<path class="st7" d="M273.2,175.9c-3.4-3.3-29.1-0.9-23.9,7.9c2.5,4.2,14.6,1.9,15.4,1.5c0,0,1.7,16.1,2.4,22
		c0.2,1.8,3.2,2.3,4.3,0.7C275.9,201.7,276,178.5,273.2,175.9z"/>
	<path class="st8" d="M213.3,215.5c-11.1,0-20.2-9-20.2-20.2s9-20.2,20.2-20.2s20.2,9,20.2,20.2l0,0
		C233.5,206.5,224.4,215.5,213.3,215.5z M213.3,177.1c-10.1,0-18.3,8.2-18.3,18.3s8.2,18.3,18.3,18.3c10.1,0,18.3-8.2,18.3-18.3l0,0
		C231.6,185.3,223.4,177.1,213.3,177.1z"/>
	<path id="f1f767dc-4b88-4f47-9e03-7555881e6705" class="st8" d="M211.4,202.7c-0.4,0-0.9-0.1-1.2-0.4l0,0l-4.5-3.4
		c-0.9-0.7-1.1-1.9-0.4-2.8c0.7-0.9,1.9-1.1,2.8-0.4l2.9,2.2l6.9-9c0.7-0.9,1.9-1.1,2.8-0.4l0,0l0,0l0,0.1l0-0.1
		c0.9,0.7,1,1.9,0.4,2.8l-8.1,10.6C212.6,202.4,212,202.7,211.4,202.7L211.4,202.7z"/>
</g>
<g id="vault">
	<g>
		<g>
			<circle class="st9" cx="494.2" cy="335.1" r="178.8"/>
		</g>
	</g>
	<g>
		<g>
			<circle class="st10" cx="494.2" cy="335.1" r="178.8"/>
		</g>
		<ellipse class="st11" cx="494.9" cy="336.8" rx="176.2" ry="177.1"/>
		<circle class="st12" cx="496.1" cy="337.1" r="135"/>
		<ellipse class="st13" cx="494" cy="335.9" rx="132.8" ry="133.8"/>
	</g>
	<circle class="st14" cx="486.1" cy="333.6" r="124.9"/>
	<g>
		<g>
			<path class="st9" d="M836.7,167.3l-19.1-2.4h-11.1h-39c0,0-27.2,10.9-50.8,48.2l-12.6,5.2c0,0-42.8,52.5-42.8,116.4
				c0,77.1,47.8,138.9,47.8,138.9l9.4,1.9c20.6,26.4,42.6,33.2,42.6,33.2h42.4h8l18.2-4.8c0,0,60.6-62.9,65.8-168
				C900.9,220.6,836.7,167.3,836.7,167.3z"/>
		</g>
	</g>
	<g>
		<path class="st15" d="M836.5,167.6l-18.9-2.7h-11.1h-39c0,0-27.2,10.9-50.8,48.2l-12.6,5.2c0,0-42.8,52.5-42.8,116.4
			c0,77.1,47.8,138.9,47.8,138.9l9.4,1.9c20.6,26.4,42.6,33.2,42.6,33.2h42.4h8l16.9-4.9c0,0,61.9-62.8,67-167.9
			C900.9,220.7,836.5,167.6,836.5,167.6z"/>
		<path class="st15" d="M773.5,341.2c0,70.4-35.2,139.2-64.4,132.3c-16.4-3.9-47.5-58.5-47.5-128.6s24.4-115.1,42.5-126.7
			C729.5,202.1,773.5,271.1,773.5,341.2z"/>
		<path class="st15" d="M836.7,337.6c0,94.9-34.1,171.1-75.8,171.1s-75-76.2-75-171.1s39.9-172.7,81.6-172.7
			S836.7,242.7,836.7,337.6z"/>
		<path class="st16" d="M838.9,164.9h-71.4c0,0,82.8,22.9,82.5,172.4c-0.4,164-89,171.4-89,171.4l71.4,0c8,0,63.3-21.6,68.8-173.5
			C905.8,208.4,846.5,164.9,838.9,164.9z"/>
		<path class="st17" d="M751.5,201.5l-42.4,14.8c0,0,61.9,11.8,64.4,123.1c3.1,138.1-64.4,134.2-64.4,134.2l46,7.2
			c0,0,62.7-13.6,63.5-141C819.2,232.8,751.5,201.5,751.5,201.5z"/>
		<path class="st18" d="M713.7,267.6c0,0,28.5,29.8,28.5,82.9c0,48.1-31.3,80.3-31.3,80.3s-21-45.3-18.4-90.4
			C694.8,300,713.7,267.6,713.7,267.6z"/>
		<path class="st19" d="M692.5,340.4c2.3-40.4,21.2-72.8,21.2-72.8l-1.7-2.2c-1.7-2.2-5.1-1.9-6.3,0.6
			c-5.1,10.2-15.7,35.4-17.5,73.3c-2.2,45.2,22.7,91.5,22.7,91.5S690,385.6,692.5,340.4z"/>
		<path class="st20" d="M806.5,164.9c0,0,72.3,44.4,65.2,183.3c1.3,121.4-73.8,160.4-73.8,160.4h7.6c0,0,72.4-28,76.4-159.4
			c4-131.2-64.2-184.4-64.2-184.4L806.5,164.9L806.5,164.9z"/>
	</g>
	<g class="st21">
		<g>
			<circle class="st9" cx="494.2" cy="180.8" r="9"/>
			<circle class="st9" cx="416.6" cy="202.1" r="9"/>
			<circle class="st9" cx="358.5" cy="259.2" r="9"/>
			<circle class="st9" cx="337.8" cy="337.3" r="9"/>
			<circle class="st9" cx="358.5" cy="415.6" r="9"/>
			<circle class="st9" cx="415.6" cy="473.4" r="9"/>
			<circle class="st9" cx="494.2" cy="494.3" r="9"/>
			<circle class="st9" cx="573" cy="473.4" r="9"/>
			<circle class="st9" cx="629.5" cy="415.6" r="9"/>
			<circle class="st9" cx="650.6" cy="337.3" r="9"/>
			<circle class="st9" cx="629.9" cy="259.2" r="9"/>
			<circle class="st9" cx="572.6" cy="202.1" r="9"/>
		</g>
	</g>
</g>
<g id="files">
	<polygon class="st4" points="100,408.7 121.9,470.7 122.2,568.1 140.1,568.1 150.8,466 143.3,364.9 52.9,373 72.6,472 64.8,567.5 
		82.7,568.1 102,469.8 	"/>
	<path class="st22" d="M64.8,567.5l-2.2,15.1c-0.3,1.4,0.6,2.6,1.9,2.6l40.5,0.6c1,0,1.6-1.4,0.8-2c-6.3-5.1-20.9-15.1-23-16.4
		C79.8,567.8,64.8,567.5,64.8,567.5z"/>
	<path class="st22" d="M122.3,567.5l-2.2,15.1c-0.3,1.4,0.6,2.6,1.9,2.6l40.5,0.6c1,0,1.6-1.4,0.8-2c-6.3-5.1-20.9-15.1-23-16.4
		C137.3,567.8,122.3,567.5,122.3,567.5z"/>
	<path class="st4" d="M235.1,282.8c1.6,0.9,4.8,3.3-0.3,6.4c-2.7,1.6-13.4,5.2-25,9.6c-4,1.5-6.4-12.7-6.4-12.7
		S228.3,278.9,235.1,282.8z"/>
	<path class="st8" d="M82.7,225.3L65.4,364.8c0,0,17.4,11.1,40.8,9.1c22.5-1.9,35.7-12.5,35.7-12.5l-38.2-136.1L82.7,225.3
		L82.7,225.3z"/>
	<path class="st4" d="M103.7,225.3c0,0-0.5-6.3-0.2-8.1c0.2-1.6,0.9-3.7,2.4-4.5c9.6-0.7,26.1-28.1,9-43.4
		c-18.4-12.7-28.6,5.9-28.6,5.9l-3.4,50c0,0,2.3,2.9,9.8,3.4C98.4,229,103.7,225.3,103.7,225.3z"/>
	<path class="st7" d="M79.2,157.8c5.3-5.4,45.2-1.6,37.1,13.1c-3.9,7-22.6,3.1-24,2.6c0,0-2.6,26.5-3.7,36.3c-0.3,3-5,3.9-6.7,1.2
		C75.2,200.4,75,162.2,79.2,157.8z"/>
	<path class="st23" d="M103.7,225.3c0,0,5.7,47.4,6.8,63.2c1.8,26.1,2.7,93.5,19.6,103c5.1,2.9,20.8-4.9,20.8-4.9l-16.9-71.2
		l3.2-28.9l28.6,30.8l50.6-21l-3-12.7l-40.1,4.2l-35.3-52.1L103.7,225.3z"/>
	<path class="st23" d="M82.7,225.3c0,0,3.9,55.8,5.5,74.4c2,23.5,7.4,77.3-11.6,93.5c-4.5,3.9-29-5.6-29-5.6l15.2-75.6l-18.9-76.3
		L82.7,225.3z"/>
	<path class="st4" d="M69.5,366.5c-0.7,0.9-1.4,1.2-2.5,1.5c-7.3,1.5-16.1-13.9-25.3-22.3c-3.2-2.9,10.5-11.1,10.5-11.1
		S76.8,356.8,69.5,366.5z"/>
	<polygon class="st23" points="12.5,313.9 43.8,235.8 61.1,268.7 37.8,309.5 59.5,342.1 49.1,353.7 	"/>
	
		<linearGradient id="SVGID_3_" gradientUnits="userSpaceOnUse" x1="116.3957" y1="71.4262" x2="114.4138" y2="182.3219" gradientTransform="matrix(1 0 0 -1 0 636)">
		<stop  offset="0" style="stop-color:#363F4A;stop-opacity:0"/>
		<stop  offset="0.9421" style="stop-color:#363F4A"/>
	</linearGradient>
	<polygon class="st24" points="102.2,396.1 128.2,468.1 122.2,568.1 121.9,470.7 100,408.7 	"/>
	
		<linearGradient id="SVGID_4_" gradientUnits="userSpaceOnUse" x1="-5.0326" y1="332.9981" x2="67.1951" y2="339.265" gradientTransform="matrix(-1 0 0 -1 199.587 636)">
		<stop  offset="0" style="stop-color:#363F4A;stop-opacity:0"/>
		<stop  offset="0.9421" style="stop-color:#363F4A"/>
	</linearGradient>
	<polygon class="st25" points="137.1,286.5 165.6,317.3 216.2,296.4 165.8,309.8 138.4,279.6 	"/>
	<polygon class="st26" points="51.8,268.4 31.7,307.5 59.5,342.1 37.8,309.5 54.7,279.8 	"/>
</g>
<g id="Layer_4">
	<g>
		<path class="st5" d="M527.5,359.5c-0.1,0.3-0.3,0.6-0.4,0.9c-0.9,1.8-1.8,3.6-2.7,5.5c-1.3,2.7-2.7,5.5-4,8.2
			c-0.7,1.4-1.4,2.7-2,4.1c-0.4,0.8-0.9,1.4-1.7,1.8c-1,0.5-2,1.1-3,1.7c-1.5,0.9-3,1.7-4.4,2.6c-1.5,0.9-3,1.8-4.5,2.6
			c-1,0.6-2.1,1.2-3.1,1.8c-0.5,0.3-0.6,0.3-0.9-0.2c-1.3-1.6-2.6-3.3-3.9-4.9c-1.9-2.3-3.8-4.6-5.6-7c-1.3-1.6-2.6-3.3-3.9-4.9
			c-1.5-1.8-3-3.7-4.5-5.5c-0.1-0.1-0.2-0.3-0.3-0.4c-0.6-0.5-0.4-1-0.1-1.6c1-1.8,2-3.7,3-5.5c1.2-2.3,2.5-4.6,3.7-6.9
			c0.7-1.3,1.4-2.7,2.2-4c1.4-2.7,2.9-5.3,4.3-8c0.8-1.4,1.5-2.8,2.3-4.2c1.3-2.4,2.5-4.7,3.8-7.1c0.7-1.3,1.4-2.5,2-3.8
			c0.2-0.3,0.2-0.3,0.5,0c1.3,2,2.6,3.9,3.9,5.9c1.4,2.1,2.8,4.2,4.2,6.3c2,3.1,4.1,6.1,6.2,9.2c2.5,3.7,5,7.4,7.5,11.1
			c0.4,0.6,0.9,1.3,1.3,2C527.5,359.3,527.6,359.4,527.5,359.5z"/>
		<path class="st5" d="M437,308c-0.2-0.9,0.3-1.4,1.1-1.9c2.1-1.2,4.2-2.5,6.3-3.7c1.8-1.1,3.7-2.1,5.5-3.2c1.2-0.7,2.4-1.4,3.6-2.1
			c1-0.6,2.1-1.2,3.2-1.8c1.4-0.8,2.9-1.7,4.3-2.5c1.2-0.7,2.5-1.4,3.8-2.2c1-0.5,1.9-1.1,2.8-1.7c0.9-0.5,1.9-1.1,2.8-1.6
			c1.7-1,3.3-1.9,5-2.9c0.3-0.2,0.6-0.4,1-0.6c0.3-0.2,0.5-0.1,0.7,0.2c2.1,3.1,4.2,6.3,6.3,9.4c0.2,0.3,0.2,0.5,0.1,0.8
			c-1.2,2.5-2.4,4.9-3.6,7.4c-1.6,3.4-3.3,6.8-5,10.2c-1.1,2.2-2.1,4.3-3.2,6.5c-1.2,2.5-2.4,5-3.6,7.4c-1.1,2.2-2.2,4.5-3.3,6.7
			c-1.1,2.2-2.1,4.3-3.2,6.5c-0.2,0.4-0.3,0.4-0.6,0c-2.2-2.8-4.4-5.5-6.6-8.3c-1.6-2-3.2-4-4.8-5.9c-2.2-2.8-4.4-5.5-6.6-8.2
			c-1.4-1.7-2.8-3.5-4.2-5.2c-0.5-0.5-0.9-1.1-1.4-1.6C436.9,309.3,437,308.7,437,308z"/>
		<path class="st5" d="M539.7,321c0,4.1,0,8.2,0,12.3c0,1.1-0.2,2.1-0.7,3c-1.1,2.1-2.1,4.1-3.1,6.2c-1.6,3.3-3.2,6.6-4.8,9.9
			c-0.1,0.2-0.2,0.5-0.3,0.8c0,0.1-0.1,0.3-0.2,0.3c-0.1,0-0.2-0.1-0.2-0.2c-0.2-0.2-0.3-0.4-0.5-0.7c-2.1-3.1-4.2-6.2-6.2-9.3
			c-2.2-3.3-4.5-6.6-6.7-9.9c-2.4-3.6-4.8-7.2-7.3-10.8c-0.8-1.1-1.5-2.3-2.3-3.5c-0.2-0.3-0.2-0.5,0-0.8c1.3-2.4,2.6-4.9,4-7.3
			c1.7-3.2,3.4-6.3,5.1-9.5c1-1.9,2.1-3.9,3.2-5.8c0.2-0.3,0.3-0.4,0.6-0.2c1.2,0.7,2.4,1.4,3.5,2.1c1.5,0.9,2.9,1.7,4.4,2.5
			c1.2,0.7,2.5,1.5,3.8,2.2c1.2,0.7,2.3,1.4,3.5,2c1,0.6,2.1,1.2,3.1,1.8c0.3,0.1,0.5,0.3,0.8,0.5c0.4,0.2,0.5,0.6,0.5,1
			c0,0.2,0,0.4,0,0.6C539.7,312.4,539.7,316.7,539.7,321z"/>
		<path class="st5" d="M478.1,360.3c-0.1-0.1-0.2-0.2-0.3-0.4c-0.6-0.8-1.2-1.5-1.8-2.3c-1.8-2.2-3.6-4.4-5.3-6.6
			c-1.3-1.6-2.6-3.3-3.9-4.9c-0.4-0.5-0.7-0.9-1.1-1.4c-0.2-0.2-0.3-0.5-0.1-0.8c0.9-1.8,1.8-3.6,2.7-5.4c1.2-2.5,2.4-5,3.6-7.5
			c1.2-2.4,2.4-4.8,3.5-7.2c1-2.1,2.1-4.3,3.2-6.5c1.2-2.5,2.4-5,3.7-7.5c1.1-2.3,2.3-4.6,3.4-6.9c0.5-1,1-2,1.5-3
			c0,0,0.1-0.1,0.1-0.2c0.2-0.4,0.2-0.4,0.4,0c1.1,1.6,2.2,3.2,3.2,4.8c2.3,3.4,4.6,6.8,6.9,10.3c0.9,1.3,1.7,2.5,2.5,3.8
			c0.2,0.3,0.2,0.5,0,0.8c-0.8,1.5-1.6,2.9-2.4,4.4c-1.3,2.4-2.5,4.7-3.8,7.1c-0.8,1.4-1.5,2.8-2.2,4.1c-1.3,2.4-2.6,4.8-3.9,7.2
			c-0.9,1.6-1.8,3.3-2.6,4.9c-1.3,2.4-2.6,4.7-3.8,7.1c-1,1.8-1.9,3.5-2.8,5.3c-0.1,0.2-0.2,0.4-0.3,0.6
			C478.3,360.1,478.2,360.2,478.1,360.3z"/>
		<path class="st5" d="M437,342.5c0-7.8,0-15.6,0-23.4c0-0.2-0.1-0.5,0.1-0.5c0.2-0.1,0.3,0.2,0.4,0.3c1.2,1.5,2.4,2.9,3.5,4.4
			c1.5,1.9,3.1,3.8,4.6,5.7c1.8,2.2,3.6,4.5,5.4,6.7c1.2,1.5,2.5,3.1,3.7,4.6c1.2,1.4,2.3,2.9,3.5,4.3c0.3,0.3,0.3,0.6,0.1,1
			c-1.4,2.8-2.7,5.5-4.1,8.3c-1.2,2.4-2.4,4.8-3.5,7.2c-1.2,2.4-2.3,4.8-3.5,7.1c-0.5,1-1,2-1.5,3c-0.1,0.2-0.2,0.3-0.5,0.1
			c-1.1-0.7-2.3-1.3-3.4-2c-1-0.6-2-1.2-3-1.7c-0.5-0.3-0.9-0.5-1.3-0.8c-0.3-0.2-0.5-0.5-0.5-0.9c0-0.2,0-0.3,0-0.5
			C437,357.8,437,350.1,437,342.5z"/>
		<path class="st5" d="M475.2,365.9c0,0.1-0.1,0.2-0.2,0.4c-1,1.8-2,3.7-3,5.5c-1.4,2.6-2.8,5.2-4.2,7.8c-0.6,1.1-1.2,2.2-1.8,3.4
			c-0.2,0.4-0.3,0.4-0.6,0.2c-1.3-0.7-2.5-1.5-3.8-2.2c-0.7-0.4-1.4-0.8-2.1-1.2c-1-0.6-2-1.1-3-1.7c-1.7-1-3.3-1.9-5-2.9
			c-0.2-0.1-0.5-0.3-0.8-0.4c-0.2-0.1-0.3-0.3-0.2-0.5c0.3-0.6,0.5-1.1,0.8-1.7c1-2,1.9-3.9,2.9-5.9c1.2-2.5,2.5-5,3.7-7.5
			c1.1-2.3,2.3-4.7,3.4-7c0.3-0.6,0.6-1.1,0.8-1.7c0.1-0.3,0.3-0.2,0.4,0c1.3,1.6,2.6,3.3,3.9,4.9c1.7,2.1,3.3,4.1,5,6.2
			c1.1,1.4,2.2,2.8,3.4,4.2C475.1,365.6,475.1,365.7,475.2,365.9z"/>
		<path class="st5" d="M514.7,292.5c0,0,0,0.1-0.1,0.2c-1,1.8-2,3.6-2.9,5.5c-0.8,1.4-1.5,2.8-2.2,4.2c-1.4,2.7-2.9,5.3-4.3,8
			c-0.5,0.9-0.9,1.7-1.4,2.6c-0.2,0.4-0.3,0.4-0.6,0c-1.2-1.9-2.5-3.7-3.7-5.5c-1.5-2.2-2.9-4.4-4.4-6.5c-1.6-2.3-3.1-4.6-4.7-7
			c-0.2-0.3-0.2-0.5-0.1-0.8c1.1-2.2,2.2-4.4,3.3-6.7c0.8-1.5,1.5-3.1,2.2-4.6c0.1-0.3,0.3-0.3,0.5-0.2c2.3,1.3,4.5,2.6,6.8,4
			c1.3,0.7,2.5,1.4,3.8,2.2c2.3,1.3,4.6,2.7,6.8,4c0.2,0.1,0.5,0.3,0.7,0.4C514.6,292.3,514.7,292.3,514.7,292.5z"/>
		<path class="st5" d="M488.4,396.4c-0.2,0-0.4-0.1-0.6-0.2c-1.2-0.7-2.4-1.4-3.6-2.1c-1.3-0.8-2.6-1.5-3.9-2.3
			c-1.2-0.7-2.3-1.4-3.5-2c-1.2-0.7-2.4-1.4-3.7-2.1c-0.6-0.4-1.2-0.7-1.9-1.1c-0.5-0.3-0.5-0.3-0.2-0.8c1.2-2.3,2.5-4.6,3.7-6.9
			c0.9-1.7,1.9-3.5,2.8-5.2c0.5-1,1-1.9,1.5-2.8c0.1-0.2,0.2-0.2,0.4,0c1.2,1.5,2.3,2.9,3.5,4.4c1.6,2,3.2,3.9,4.8,5.9
			c1.5,1.9,3,3.8,4.6,5.7c1.2,1.5,2.5,3.1,3.8,4.6c0.3,0.4,0.4,0.4-0.1,0.7c-1,0.6-2,1.2-3,1.8c-1,0.6-1.9,1.1-2.9,1.7
			c-0.5,0.2-0.9,0.6-1.4,0.7C488.5,396.3,488.4,396.3,488.4,396.4z"/>
		<path class="st5" d="M539.7,357.3c0,2.8,0,5.6,0,8.5c0,0.2,0,0.4,0,0.6c0,0.1-0.1,0.2-0.2,0.3s-0.2-0.1-0.3-0.2
			c-0.4-0.6-0.8-1.2-1.2-1.8c-1.1-1.7-2.2-3.4-3.4-5c-0.3-0.4-0.3-0.7-0.1-1.1c1.2-2.5,2.4-4.9,3.7-7.4c0.4-0.8,0.8-1.7,1.2-2.5
			c0-0.1,0.1-0.3,0.2-0.3c0.2,0,0.1,0.2,0.1,0.4c0,2.7,0,5.4,0,8.2C539.7,357,539.7,357.1,539.7,357.3z"/>
		<path class="st5" d="M488.4,277.2c0.5,0,0.9,0.3,1.4,0.5c0.3,0.2,0.6,0.4,1,0.6c0.4,0.2,0.4,0.3,0.2,0.7c-0.6,1.3-1.2,2.5-1.9,3.8
			c-0.8,1.6-1.5,3.2-2.3,4.8c0,0.1-0.1,0.2-0.2,0.3c-0.2,0-0.2-0.1-0.3-0.2c-1.4-2.1-2.8-4.2-4.2-6.3c-0.3-0.4-0.3-0.5,0.1-0.7
			c1-0.6,2-1.2,3-1.7c0.7-0.4,1.5-0.9,2.2-1.3C487.6,277.3,488,277.2,488.4,277.2z"/>
		<path class="st5" d="M534.4,369.5c0,0.2-0.2,0.3-0.3,0.4c-1.7,1-3.5,2.1-5.2,3.1c-0.5,0.3-1,0.6-1.5,0.9c-0.1,0-0.2,0.2-0.4,0
			c-0.1-0.1,0-0.2,0.1-0.3c0.9-1.8,1.8-3.6,2.7-5.4c0.5-0.9,0.9-1.9,1.4-2.8c0.2-0.3,0.2-0.3,0.4,0c0.9,1.3,1.8,2.7,2.7,4
			C534.3,369.4,534.3,369.5,534.4,369.5z"/>
	</g>
</g>
</svg>
