<svg width="178" height="41" viewBox="0 0 178 41" fill="none" xmlns="http://www.w3.org/2000/svg">
<path d="M31.8691 0C27.0261 0 23.1313 3.89474 23.0974 8.73775V18.4238C22.183 18.4915 21.2686 18.5254 20.3203 18.5254C19.3721 18.5254 18.4576 18.5592 17.5432 18.627V8.73775C17.4755 3.96247 13.5808 0.101608 8.77161 0.101608C3.96247 0.101608 0.0677345 3.9286 0 8.73775V31.9029C0.0677345 36.6782 3.96247 40.5391 8.77161 40.5391C13.5808 40.5391 17.4755 36.7121 17.5432 31.9029V22.2169C18.4576 22.1492 19.3721 22.1153 20.3203 22.1153C21.2686 22.1153 22.183 22.0814 23.0974 22.0137V31.9029C23.1652 36.6782 27.0599 40.5391 31.8691 40.5391C36.6782 40.5391 40.5729 36.7121 40.6407 31.9029V8.73775C40.6068 3.9286 36.6782 0 31.8691 0ZM8.77161 3.58993C11.6165 3.58993 13.9533 5.8929 13.9533 8.73775V18.9995C11.3794 19.3721 8.87321 20.0833 6.50251 21.0993C5.48649 21.5396 4.50434 22.1153 3.62379 22.8265V8.73775C3.58993 5.8929 5.92676 3.58993 8.77161 3.58993ZM13.9194 31.9029C13.9194 34.7478 11.6165 37.0846 8.73774 37.0846C5.85903 37.0846 3.55606 34.7816 3.55606 31.9029V29.5661C3.55606 27.5002 5.18169 25.5698 7.89106 24.3505C9.8215 23.5377 11.8197 22.9281 13.8856 22.5894V31.9029H13.9194ZM31.8691 37.0507C29.0242 37.0507 26.6874 34.7478 26.6874 31.9029V21.6412C29.2613 21.2686 31.7675 20.5574 34.1382 19.5414C35.1542 19.1011 36.1363 18.5254 37.0169 17.8142V31.9029C37.0169 34.7478 34.7139 37.0507 31.8691 37.0507ZM32.6819 16.2563C30.7514 17.0691 28.7533 17.6787 26.6874 18.0174V8.73775C26.6874 5.8929 28.9903 3.55606 31.8691 3.55606C34.7478 3.55606 37.0508 5.85904 37.0508 8.73775V11.0746C37.0169 13.1066 35.3913 15.0709 32.6819 16.2563Z" fill="url(#paint0_linear)"/>
<path d="M70.2627 32H65.8682V22.8594H57.2988V32H52.9043V10.6719H57.2988V19.3145H65.8682V10.6719H70.2627V32ZM83.0215 32C82.8262 31.6191 82.6846 31.1455 82.5967 30.5791C81.5713 31.7217 80.2383 32.293 78.5977 32.293C77.0449 32.293 75.7559 31.8438 74.7305 30.9453C73.7148 30.0469 73.207 28.9141 73.207 27.5469C73.207 25.8672 73.8271 24.5781 75.0674 23.6797C76.3174 22.7812 78.1191 22.3271 80.4727 22.3174H82.4209V21.4092C82.4209 20.6768 82.2305 20.0908 81.8496 19.6514C81.4785 19.2119 80.8877 18.9922 80.0771 18.9922C79.3643 18.9922 78.8027 19.1631 78.3926 19.5049C77.9922 19.8467 77.792 20.3154 77.792 20.9111H73.5586C73.5586 19.9932 73.8418 19.1436 74.4082 18.3623C74.9746 17.5811 75.7754 16.9707 76.8105 16.5312C77.8457 16.082 79.0078 15.8574 80.2969 15.8574C82.25 15.8574 83.7979 16.3506 84.9404 17.3369C86.0928 18.3135 86.6689 19.6904 86.6689 21.4678V28.3379C86.6787 29.8418 86.8887 30.9795 87.2988 31.751V32H83.0215ZM79.5205 29.0557C80.1455 29.0557 80.7217 28.9189 81.249 28.6455C81.7764 28.3623 82.167 27.9863 82.4209 27.5176V24.793H80.8389C78.7197 24.793 77.5918 25.5254 77.4551 26.9902L77.4404 27.2393C77.4404 27.7666 77.626 28.2012 77.9971 28.543C78.3682 28.8848 78.876 29.0557 79.5205 29.0557ZM98.8271 20.1201C98.251 20.042 97.7432 20.0029 97.3037 20.0029C95.7021 20.0029 94.6523 20.5449 94.1543 21.6289V32H89.9209V16.1504H93.9199L94.0371 18.04C94.8867 16.585 96.0635 15.8574 97.5674 15.8574C98.0361 15.8574 98.4756 15.9209 98.8857 16.0479L98.8271 20.1201ZM104.848 16.1504L104.979 17.9229C106.103 16.5459 107.621 15.8574 109.535 15.8574C111.576 15.8574 112.978 16.6631 113.739 18.2744C114.853 16.6631 116.439 15.8574 118.5 15.8574C120.219 15.8574 121.498 16.3604 122.338 17.3662C123.178 18.3623 123.598 19.8662 123.598 21.8779V32H119.35V21.8926C119.35 20.9941 119.174 20.3398 118.822 19.9297C118.471 19.5098 117.851 19.2998 116.962 19.2998C115.692 19.2998 114.813 19.9053 114.325 21.1162L114.34 32H110.106V21.9072C110.106 20.9893 109.926 20.3252 109.564 19.915C109.203 19.5049 108.588 19.2998 107.719 19.2998C106.518 19.2998 105.648 19.7979 105.111 20.7939V32H100.878V16.1504H104.848ZM126.205 23.9287C126.205 22.3564 126.508 20.9551 127.113 19.7246C127.719 18.4941 128.588 17.542 129.721 16.8682C130.863 16.1943 132.187 15.8574 133.69 15.8574C135.829 15.8574 137.572 16.5117 138.92 17.8203C140.277 19.1289 141.034 20.9062 141.19 23.1523L141.22 24.2363C141.22 26.668 140.541 28.6211 139.184 30.0957C137.826 31.5605 136.005 32.293 133.72 32.293C131.435 32.293 129.608 31.5605 128.241 30.0957C126.884 28.6309 126.205 26.6387 126.205 24.1191V23.9287ZM130.438 24.2363C130.438 25.7402 130.722 26.8926 131.288 27.6934C131.854 28.4844 132.665 28.8799 133.72 28.8799C134.745 28.8799 135.546 28.4893 136.122 27.708C136.698 26.917 136.986 25.6572 136.986 23.9287C136.986 22.4541 136.698 21.3115 136.122 20.501C135.546 19.6904 134.735 19.2852 133.69 19.2852C132.655 19.2852 131.854 19.6904 131.288 20.501C130.722 21.3018 130.438 22.5469 130.438 24.2363ZM147.724 16.1504L147.855 17.9814C148.988 16.5654 150.507 15.8574 152.411 15.8574C154.091 15.8574 155.341 16.3506 156.161 17.3369C156.981 18.3232 157.401 19.7979 157.421 21.7607V32H153.188V21.8633C153.188 20.9648 152.992 20.3154 152.602 19.915C152.211 19.5049 151.562 19.2998 150.653 19.2998C149.462 19.2998 148.568 19.8076 147.973 20.8232V32H143.739V16.1504H147.724ZM166.562 26.0088L169.491 16.1504H174.032L167.66 34.4609L167.309 35.2959C166.361 37.3662 164.799 38.4014 162.621 38.4014C162.006 38.4014 161.381 38.3086 160.746 38.123V34.915L161.391 34.9297C162.191 34.9297 162.787 34.8076 163.178 34.5635C163.578 34.3193 163.891 33.9141 164.115 33.3477L164.613 32.0439L159.062 16.1504H163.617L166.562 26.0088Z" fill="white"/>
<defs>
<linearGradient id="paint0_linear" x1="2.56443" y1="38.074" x2="37.9583" y2="2.48536" gradientUnits="userSpaceOnUse">
<stop stop-color="#00AEE9"/>
<stop offset="1" stop-color="#69FABD"/>
</linearGradient>
</defs>
</svg>
