<svg width="174" height="41" viewBox="0 0 174 41" fill="none" xmlns="http://www.w3.org/2000/svg">
<path d="M36.48 12.4989C35.5879 11.98 34.4285 11.98 33.4475 12.4989L26.4903 16.4779L21.7631 19.0728L14.806 23.0517C13.9141 23.5706 12.7546 23.5706 11.7735 23.0517L6.24352 19.9377C5.35158 19.4187 4.72723 18.4673 4.72723 17.4293V11.288C4.72723 10.25 5.2624 9.29852 6.24352 8.77953L11.6843 5.75211C12.5762 5.23313 13.7357 5.23313 14.7168 5.75211L20.1577 8.77953C21.0495 9.29852 21.6739 10.25 21.6739 11.288V15.2669L26.4011 12.5854V8.60655C26.4011 7.56856 25.8661 6.61708 24.8849 6.0981L14.806 0.389241C13.9141 -0.129747 12.7546 -0.129747 11.7735 0.389241L1.51628 6.0981C0.535158 6.61708 0 7.56856 0 8.60655V20.1108C0 21.1487 0.535158 22.1003 1.51628 22.6193L11.7735 28.3281C12.6654 28.8471 13.8249 28.8471 14.806 28.3281L21.7631 24.4356L26.4903 21.7542L33.4475 17.8618C34.3393 17.3428 35.4988 17.3428 36.48 17.8618L41.9207 20.8892C42.8126 21.4082 43.437 22.3598 43.437 23.3977V29.539C43.437 30.5771 42.9019 31.5285 41.9207 32.0474L36.48 35.1614C35.5879 35.6804 34.4285 35.6804 33.4475 35.1614L28.0067 32.134C27.1147 31.615 26.4903 30.6635 26.4903 29.6255V25.6467L21.7631 28.3281V32.3069C21.7631 33.3449 22.2983 34.2964 23.2793 34.8154L33.5366 40.5242C34.4285 41.0432 35.5879 41.0432 36.5691 40.5242L46.8264 34.8154C47.7183 34.2964 48.3427 33.3449 48.3427 32.3069V20.8027C48.3427 19.7647 47.8074 18.8134 46.8264 18.2944L36.48 12.4989Z" fill="#8247E5"/>
<path d="M77.8936 24.2217C77.8936 26.6631 77.3369 28.6211 76.2236 30.0957C75.1201 31.5605 73.626 32.293 71.7412 32.293C70.1396 32.293 68.8457 31.7363 67.8594 30.623V38.0938H63.626V16.1504H67.5518L67.6982 17.7031C68.7236 16.4727 70.0615 15.8574 71.7119 15.8574C73.665 15.8574 75.1836 16.5801 76.2676 18.0254C77.3516 19.4707 77.8936 21.4629 77.8936 24.002V24.2217ZM73.6602 23.9141C73.6602 22.4395 73.3965 21.3018 72.8691 20.501C72.3516 19.7002 71.5947 19.2998 70.5986 19.2998C69.2705 19.2998 68.3574 19.8076 67.8594 20.8232V27.3125C68.377 28.3574 69.2998 28.8799 70.6279 28.8799C72.6494 28.8799 73.6602 27.2246 73.6602 23.9141ZM79.8711 23.9287C79.8711 22.3564 80.1738 20.9551 80.7793 19.7246C81.3848 18.4941 82.2539 17.542 83.3867 16.8682C84.5293 16.1943 85.8525 15.8574 87.3564 15.8574C89.4951 15.8574 91.2383 16.5117 92.5859 17.8203C93.9434 19.1289 94.7002 20.9062 94.8564 23.1523L94.8857 24.2363C94.8857 26.668 94.207 28.6211 92.8496 30.0957C91.4922 31.5605 89.6709 32.293 87.3857 32.293C85.1006 32.293 83.2744 31.5605 81.9072 30.0957C80.5498 28.6309 79.8711 26.6387 79.8711 24.1191V23.9287ZM84.1045 24.2363C84.1045 25.7402 84.3877 26.8926 84.9541 27.6934C85.5205 28.4844 86.3311 28.8799 87.3857 28.8799C88.4111 28.8799 89.2119 28.4893 89.7881 27.708C90.3643 26.917 90.6523 25.6572 90.6523 23.9287C90.6523 22.4541 90.3643 21.3115 89.7881 20.501C89.2119 19.6904 88.4014 19.2852 87.3564 19.2852C86.3213 19.2852 85.5205 19.6904 84.9541 20.501C84.3877 21.3018 84.1045 22.5469 84.1045 24.2363ZM101.961 32H97.7129V9.5H101.961V32ZM111.38 26.0088L114.31 16.1504H118.851L112.479 34.4609L112.127 35.2959C111.18 37.3662 109.617 38.4014 107.439 38.4014C106.824 38.4014 106.199 38.3086 105.564 38.123V34.915L106.209 34.9297C107.01 34.9297 107.605 34.8076 107.996 34.5635C108.396 34.3193 108.709 33.9141 108.934 33.3477L109.432 32.0439L103.88 16.1504H108.436L111.38 26.0088ZM119.7 23.958C119.7 21.5264 120.276 19.5684 121.429 18.084C122.591 16.5996 124.153 15.8574 126.116 15.8574C127.854 15.8574 129.207 16.4531 130.174 17.6445L130.35 16.1504H134.188V31.4727C134.188 32.8594 133.87 34.0654 133.235 35.0908C132.61 36.1162 131.727 36.8975 130.584 37.4346C129.441 37.9717 128.104 38.2402 126.57 38.2402C125.408 38.2402 124.275 38.0059 123.172 37.5371C122.068 37.0781 121.233 36.4824 120.667 35.75L122.542 33.1719C123.597 34.3535 124.876 34.9443 126.38 34.9443C127.503 34.9443 128.377 34.6416 129.002 34.0361C129.627 33.4404 129.939 32.5908 129.939 31.4873V30.6377C128.963 31.7412 127.679 32.293 126.087 32.293C124.183 32.293 122.64 31.5508 121.458 30.0664C120.286 28.5723 119.7 26.5947 119.7 24.1338V23.958ZM123.934 24.2656C123.934 25.7012 124.222 26.8291 124.798 27.6494C125.374 28.46 126.165 28.8652 127.171 28.8652C128.46 28.8652 129.383 28.3818 129.939 27.415V20.75C129.373 19.7832 128.46 19.2998 127.2 19.2998C126.185 19.2998 125.384 19.7148 124.798 20.5449C124.222 21.375 123.934 22.6152 123.934 24.2656ZM136.795 23.9287C136.795 22.3564 137.098 20.9551 137.703 19.7246C138.309 18.4941 139.178 17.542 140.311 16.8682C141.453 16.1943 142.776 15.8574 144.28 15.8574C146.419 15.8574 148.162 16.5117 149.51 17.8203C150.867 19.1289 151.624 20.9062 151.78 23.1523L151.81 24.2363C151.81 26.668 151.131 28.6211 149.773 30.0957C148.416 31.5605 146.595 32.293 144.31 32.293C142.024 32.293 140.198 31.5605 138.831 30.0957C137.474 28.6309 136.795 26.6387 136.795 24.1191V23.9287ZM141.028 24.2363C141.028 25.7402 141.312 26.8926 141.878 27.6934C142.444 28.4844 143.255 28.8799 144.31 28.8799C145.335 28.8799 146.136 28.4893 146.712 27.708C147.288 26.917 147.576 25.6572 147.576 23.9287C147.576 22.4541 147.288 21.3115 146.712 20.501C146.136 19.6904 145.325 19.2852 144.28 19.2852C143.245 19.2852 142.444 19.6904 141.878 20.501C141.312 21.3018 141.028 22.5469 141.028 24.2363ZM158.313 16.1504L158.445 17.9814C159.578 16.5654 161.097 15.8574 163.001 15.8574C164.681 15.8574 165.931 16.3506 166.751 17.3369C167.571 18.3232 167.991 19.7979 168.011 21.7607V32H163.777V21.8633C163.777 20.9648 163.582 20.3154 163.191 19.915C162.801 19.5049 162.151 19.2998 161.243 19.2998C160.052 19.2998 159.158 19.8076 158.562 20.8232V32H154.329V16.1504H158.313Z" fill="white"/>
</svg>
